<?xml version="1.0" encoding="utf-8"?>
<!-- Generator: Adobe Illustrator 26.0.2, SVG Export Plug-In . SVG Version: 6.00 Build 0)  -->
<svg version="1.1" id="Ebene_1" xmlns="http://www.w3.org/2000/svg" xmlns:xlink="http://www.w3.org/1999/xlink" x="0px" y="0px"
	 viewBox="0 0 283.6 283.5" style="enable-background:new 0 0 283.6 283.5;" xml:space="preserve">
<style type="text/css">
	.st0{fill:none;stroke:#000000;stroke-width:0.1;stroke-linejoin:round;}
</style>
<path class="st0" d="M24.8,153.4l7.5-5.2l7.9-6l14.9-9.7l7.5-5.3l5.4-3.4l6.3-2.4l12.1-4.8l16.8-7.1l8.2-4l15.2-7.6l11.6-6.7
	l4.3-1.7L152,86l7.2-3.3l11.3-6.9l6.1-5.3l7.3-7.2l3.5-4.7l5.5-8.4l10.9-4.1l12.2-4l13.6-4.6l12-4.3l9.4-2.9l3.9,11.4l6.7,16.9
	l1.8,4.6l2.9,5.4l3.6,5.4l3.3,6.3l2.2,3.6l1.1,1.9l1.9,2.8l1.8,4.3l-4.2,2.6l-3.7,1.8l-3.4-6.2l-1.3-2l-2.2,1.2L257.9,78l0,0
	l2.6-1.2l-2.7-5.2l-11.4-31.3l-47.2,16.1l-14.1,17.3l-9.7,8l-10.8,7l-16.1,5.8l-8.7,2l1.6,2.4l0,0l-20.2,11l-1.3-1.8l-8.7,4.9
	l-38.7,16.4l-11.6,8.3l-25.7,17.7l64.2,90.4l104.8-73.2l4.6,6.8l-51.9,37.3l-57.3,40.8l-7-8.4l-61.1-85.6L24.8,153.4L24.8,153.4"/>
<path class="st0" d="M0,166l20.5-13.4l0.9,1l0.9-0.6l-1-1.7l68.4-46.8l31.5,46.6l5.7-3.8l25.3,36.9l16-10.9l-3.2-4.8l42.2-28.8
	l3.5,4.5l21.2-14.3l-3.2-4.8l42.5-29l-9.5-14.5l10.8-7.4l11.3,16.6l-11.3,7l3.8,5.8l-6.9,4.7l-3.7,2.6l-3.5,2.5l-28,19.1l3.3,4.6
	l-21.3,14.5l-2.7-4.2l-42.9,28.6l2.8,4.7l2.5,3.7l-16,10.7l-6.3-9l-7.6,5l-26.5-38.8l-5.8,3.8L87,117.4l-60.6,41.4l-0.8-1.2
	l-1.2,0.9L28,164L7.5,177.3L0,166"/>
<path class="st0" d="M80.2,109.2l-1.3,11.6l10.8,13.7l1.4,0.2l13.8-10.7l1.4-11.3l8.5,1.1l-1.4,11.3l11.1,14.1l1.4,0.2l13.9-10.5
	l1.5-11.5l8.7,1.2l-1.5,11.9l10.9,13.7l1.4,0.1l14.2-10.8l1.5-11.4l8.4,1.1l-1.4,11.7l10.8,13.7l1.7,0.2l13.9-10.8l1.3-11.2l9,1.2
	l-1.3,11.1l10.6,13.9l2,0.3l2.6,3.7l-0.8,1l0.7,1l-5.1,40.4l-8.8-1.3l5-39.4l-10.7-14l-1.3-0.1l-14.3,10.8l-1.3,10.9l-8.5-1.1
	l1.3-11.6l-10.7-13.4l-1.6-0.2l-14,10.8l-1.4,10.9l-8.6-1.1l1.4-10.7l-11.4-14.3l-1.3-0.2l-13.8,10.6l-1.3,11.2l-8.7-1.2l1.3-11
	l-11-14l-1.4-0.3l-13.9,10.6l-1.5,11.3l-8.7-1.1l1.4-11.5l-11-13.7l-1.1-0.2l-14.1,10.6l-1.3,11.4l-8.8-1.2l1.3-11.1l-15.2-19.9
	l5.4-4.1L54.5,130l1.2,0.1L70,119.4l1.3-11.4L80.2,109.2"/>
<path class="st0" d="M150.7,31.5l-12.8,18.8l27.7,19.7l0.2-0.3l0.8,0.6l0.7-1l2.5,1.8l-43.3,62.6l51.9,50.1l0.2-0.2l2.6,2.5
	l-35.8,51.7l-3-2l0.1-0.2l-18.1-12.5l-8.2,11.9l-6.4-4.6l-1.3-1l13.3-19.8l21.4,14.7l25.4-36.8L114.1,135l41.6-60.5l-31.2-21.9
	L142.7,26L150.7,31.5"/>
<path class="st0" d="M113.1,123.7l3.1-8l15.6,6l10.7-28.3l1.5,0.6l1.7-4.8l-0.9-0.2l-0.2,0.2l-3-1.2l2.7-6.7l3.9,1.5l1.7-4.4
	l6.3,2.4l-1.7,4.6l6.4,2.5l0.6-1.7l26.7,10.2l1.8-4.6l6.4,2.5l-1.6,4.4l3.9,1.6l-2.7,6.9l-3-1.2l0.1-0.6l-0.7-0.1l-2.4,6.5l1.5,0.6
	l-4.1,10.9l-8-3.2l6.5-17.2l-4.6-1.7l-0.7,1.6l-28.4-10.7l-9.9,26.5l-1.7-0.6l-2.4,6.3l17.4,6.5l-0.6,1.7l4.5,1.7l1.8-4.6l6.5,2.5
	l-1.6,4.4l12.1,4.7l-0.4,1.1l-0.6,0.2l-1.3-0.5l-0.7,1.9l1.8,0.7l0.3,0.6l-0.3,0.5l-0.7,2.1l-0.4,0.2l-0.5-0.2l-11.8-4.6l-2.4,6.3
	l1.6,0.8l-5.8,15.5l6.3,2.4l0.6-1.7l10.9,4.1l-3.2,8.1l-17.1-6.6l-4.7,12.6l0.9,0.4l0.2-0.2l2.9,1.2l-2.7,7.1l-3-1.2l0.2-0.5
	l-0.8-0.3l-1.5,4l-6.8-2.6l1.1-3l0.3,0.1l0.3-0.9l-11-4.2l-2.5,6.5l1.5,0.6l-4.2,11.1l-8-3.2l6.6-17.4L108,176l0.6-1.7l-6.4-2.3
	l-5.9,15.6l-8.1-3.2l4.1-10.8l1.7,0.6l1.8-4.8l-0.9-0.3l-0.2,0.3l-3-1.2l2.6-6.9l3.9,1.4l2.3-6.2l-1.5-0.5l4.2-11l7.8,3.1l-6,16.5
	l0.1,0.1l-0.4,1.1l0.7,0.3l0.2-0.3l16.3,6.2l-0.6,1.7l4.6,1.7l1.7-4.6l6.4,2.4l-1.7,4.6l11,4.1l4.7-12.8l-0.9-0.4l-0.2,0.4l-3-1.2
	l2.7-6.9l3.9,1.5l1.8-4.4l-1.6-0.7l6.6-17.3l-15.7-5.9l0.6-1.6l-6.6-2.4l-0.3,0.9l0.4,0.2l-1.2,2.9l-6.9-2.7l1.5-3.9l-4.6-1.6
	l-0.6,1.7L113.1,123.7L113.1,123.7"/>
<path class="st0" d="M232.9,163.2l-23.4,56.2l-8.7-3.7l19.7-47.4l-102.5-43l5.6-13.1L90.9,98.6l-20.2,49l20.2,8.5l-3.6,8.8l-28.2-12
	l27.5-66.6l49.7,20.9l-5.7,13.1L232.9,163.2"/>
<path class="st0" d="M167.3,123.3l-18.1,5.8l-4,1.3l-3.7,1.2l-1.1,0.3l14.6,45.6l18.2-5.7l-0.4-1.2l-2.3-7.5l-1.9-5.9l8.6-2.8
	l7.5,23.2l-32.1,10.2l0.3,1.1l1.7,4.9l-3.7,1.2l2,6.2l-4.9,1.6l-2-6.3l-3.5,1.1l-31.3-97.4l8.3-2.6l35.9-11.4L167.3,123.3
	 M146.3,120.2l9.3-3l-6-19.2l-23.5,7.3l0.3,1.1l5.9,18.4l10.2-3.2L146.3,120.2"/>
<path class="st0" d="M95.2,215.2l-9.7-9.1l-4.1-4l-6.1-2.4l-0.9-3.2l3.1-1.3l10-8l11.7-11.9l7.5-7.3L210.9,60l10.1,9.3l8.2,7.8
	l-7.4,7.9l-11.1-11.1l-90.4,94.3l12.4,11l-35.5,37.7L95.2,215.2 M110.6,173.7l-21.5,22.5l9.4,8.7l21.3-22.8L110.6,173.7"/>
<path class="st0" d="M107.7,85.3l11,5.1l0.2-0.5l4,1.8l-0.3,0.5l8.2,3.8l0.2-0.5l3.9,1.9l-0.2,0.5l11,5.1l-11.8,25.8l1.6,0.8
	l-0.2,0.5l2.3,1l6.3,3.1l0.2-0.5l4.7,2l-0.3,0.6l8.6,4.1l0.3-0.6l1.6,0.8l1.7-3.5l3.8-8.5l11.1,5.1l0.2-0.5l3.9,1.8l-0.2,0.5
	l5.9,2.8l2.3,1l0.2-0.5l3.9,1.8l-0.1,0.5l11,5.1l-7.9,17.4l-16.3,35.4l-11.3-5.4l-8.8-4l-0.7,1.6l-0.5-0.2l-1.2,2.1l-2.7,6.1
	l0.5,0.2l-1.7,3.9l-0.6-0.2l-1.8,4.1l-7-3.2l11.5-25l11.5,5.5l0.2-0.6l4.7,2.2l-0.2,0.6l3.9,1.7l0.8-1.6l0.5,0.2l3.9-8.6l-0.5-0.3
	l2.2-4.6l0.5,0.3l4.1-9l-0.5-0.3l2.2-4.6l0.5,0.2l1.1-2.2l2.8-6.4l-0.6-0.3l0.8-1.5l-7.4-3.6l-8.2-3.7l-7.5-3.5l-0.8,1.5l-0.5-0.1
	l-1,2l-4.1,9l-39.1-18.2l5.2-11.3l-0.5-0.3l2.1-4.7l0.5,0.3l1.1-2.2l2.8-6.4l-0.5-0.2l0.7-1.6l-23-10.8l-0.8,1.6l-0.5-0.2l-4.1,8.6
	l0.6,0.2l-2.1,4.7l-0.5-0.3l-1.1,2.2l-3.1,6.8l0.5,0.2l-2.1,4.7l-0.6-0.3l-4.1,9l0.5,0.3l-2.1,4.7l-0.5-0.3l-3.1,6.6l-1,2.4l0.5,0.2
	l-2.1,4.7l-0.6-0.3l-2.1,4.6l-7-3.1L107.7,85.3L107.7,85.3"/>
<path class="st0" d="M62.3,180.3l44.7-79.2l53.8,30.7l0.7-1.4l-1.4-0.8l9.9-17.7l45.9,26l-28.7,51.5l-23.2-13.2l2.4-4.3l0.8-1.6
	l0.1-0.1l0.3,0.2l17,9.6l0.7-1.2l-1.3-0.8l20.6-36.8l1.6,0.9l0.6-1.3l-34.2-19.5l-0.7,1.2l1.4,0.8l-10.3,18l-53.6-30.4l-0.6,0.9
	l1.6,0.9l-40.8,71.8L62.3,180.3"/>
</svg>
