<?xml version="1.0" encoding="utf-8"?>
<!-- Generator: Adobe Illustrator 26.0.2, SVG Export Plug-In . SVG Version: 6.00 Build 0)  -->
<svg version="1.1" id="Ebene_1" xmlns="http://www.w3.org/2000/svg" xmlns:xlink="http://www.w3.org/1999/xlink" x="0px" y="0px"
	 viewBox="0 0 282.6 283.6" style="enable-background:new 0 0 282.6 283.6;" xml:space="preserve">
<style type="text/css">
	.st0{fill:none;stroke:#000000;stroke-width:0.1;stroke-linejoin:round;}
</style>
<path class="st0" d="M55.5,118.9l-0.5-0.4l0,0l0.6-0.7l0.5,0.4l10.9-12.1L26.2,68.8l14.1-15.4L14.1,29.5l9.3-10.2l-1.1-1l2.4-2.6
	l1.1,1L40.9,0.1L108,61.3l-7,7.8l136.4,124.4l0,0l-4.6,5.1l2.8,2.6l-10.5,11.5l2.8,2.6l-2.3,2.6l1.1,1l0,0l-4.7,5.1l1.1,1l-9.4,10.3
	l0.8,0.7l-2.6,2.9l-0.8-0.7l-12.5,13.7l1.1,1L184,270.2L38.6,137.4L55.5,118.9L55.5,118.9"/>
<path class="st0" d="M15.6,131.8l18.9-10l-4.9-9.4l15.9-8.5l-1.3-2.2l-1.9-4.1l30.6-16.4l3.4,6.4L68,91.8l1.9,3.8l-5,2.7l2.9,5.9
	l0.9-0.5l-1.6-3.3l3.5-1.9l5.4,10.3l-3.5,1.9l0.4,0.7l3.3-1.8l0.8,1.5l-3.2,1.9l4.3,8l2.3-1.3l-0.5-1.2l0.5-0.3l-0.4-0.8l2.8-1.6
	l7.6,14.4l-2.7,1.4l-5.8-10.8l-0.9-0.2l-2.3,1.4l14,26.4l1.6-0.9l1.7,3.4l3.9-2.1l-0.5-0.9l2.5-1.2l6.2,8.6l21.1-11l0.9,1.7l5.9-3.1
	l1,2l1.2-0.6l4.4,8.2l11.3-6l-2.2-4l-0.6,0.3l1.1,2l-2.4,1.2l-18.6-35.4l-1.6-0.7l-5-9.5l0.6-1.2l0.8-0.5l-1.7-3.4l11.1-5.9
	l-0.2-0.7l3-1.5l-2.9-5.6l15.8-8.3l7.2,13.7l10.6-5.6l-0.4-0.8l2-1l-1.7-3.3l1-0.5l2,4l3.5-1.7l-1.1-2.1l2.4-1.3l-1-1.9l3.7-1.9
	l1.7,3.2l-3,1.5l0.4,0.8l14.3-7.6l-0.9-1.6l3-1.6l0.8,1.6l0.8-0.4l-1-2l2.4-1.3l-1-2l3.7-1.8l1.7,3.3l-2.9,1.5l0.3,0.8l18.1-9.4
	l2.8-1.6l-2.1-4.1l5-2.6l2.1,4l3.1-1.6l-1.8-3.5l2-1.1L223,34.9l14.6-7.7l4.5,8.9l0.9-0.7l1.7,3.3l-0.9,0.6l1.8,3.6l-2.2,1.2
	l13.2,24.6l14.4-7.6l11.4,21.7l-14.4,7.5l-1.6-3.1l-6.9,3.6l1,1.6l2.6-1.4L267,98l-12.1,6.4L253,101l-2.5,1.4l-1.8-3.6l1.2-0.7
	l-0.9-1.6l-4.7,2.5l0.3,0.5l-0.6,0.4l0.8,1.5l-1.1,0.5l-1-2.1l-11.5,6l1.7,3.1l-40.4,21.4l-0.9-1.6l-1.7,1l-0.8-1.7l-7.7,4l-24.7,13
	l1.2,2.3l-16.7,8.8l0.5,0.9l-17.7,9.3l0.4,0.8l-1.2,0.7l6,11.2l1.4-0.8l0.5,1l-1.4,0.7l2,3.8l1.5,0.8l1.8-1l0.7-2.4l4.7-2.4l2.4,0.9
	l1.7,3.2l1.3-0.7l11.6,22l-1.5,0.7l-0.7-1.2l-8.2,4.4l0.8,1.4l-2.2,1.2l-0.8-1.6l-13.2,6.9l1.1,2.1l-4.5,2.4l-1.3-2.2l-4.8,2.6
	l-10.2,5.4l0.6,1.1l-3.2,1.7l0.8,1.5l-4.4,2.4l-1.4-2.5l-23.1,12.1l-10.4-19.7l4.1-2.2l0.5,0.9l16.4-8.6l-0.5-1.2l4.2-2.1l0.5,1
	l16.4-8.7l-1.6-3l4.1-2.1l-1.5-2.8l12.4-6.4l0.5-1.6l3-1.6l-8.7-16.4l-59,31l4.6,21.4L80.1,247l10.2-5.4l11.7,22l-10.3,5.3l1.9,3.6
	l-20.5,11l-11.4-21.8l-1.2,0.6l0.6,1.3l-0.9,0.4l-0.6-1.3l-1.8,0.9l-2-3.9l-0.4,0.2l-1.9-3.8l4-2.2l-1-1.8l-3.7,2.1l-4-7.6l3.7-2
	l-1-1.9l-3.8,2l-1.9-3.8l3.7-2l-1-1.8l-3.8,2.1l-2.9-5.7l3.7-2l-1.3-2.6l19.1-10l-1.2-5.6l-1.3,0.6l-0.3-0.8l1.4-0.7l-2.5-12
	l-23.2,12.1l-1.5-3.2l-3.1,1.5l1.5,3.3l-2.1,1l-1.5-3.2l-1.1-1.8l-3.9,2l-12.8-24.3l3.9-2l-5.3-10.2l-2,0.9l3.4,6.9l-1.5,0.8
	l-3.4-6.8l-0.4,0.3l-3.7-7l3.9-2l-2.4-4.5l8.6-4.5l2.2,4.4l1.6-0.8l2.2,4.2l12.2-6.6L15.6,131.8 M111.7,170.7l2.8-1.5l-7.1-13.6
	l-3.1-3.9l0.5,1l-1.7,0.9l8.2,15.5l-0.3,0.2L111.7,170.7 M251.4,97.3l8.2-4.4l-0.8-1.6l-8.3,4.4L251.4,97.3 M84.9,252.3l-3.3,1.9
	l1.2,2.3l3.3-1.7L84.9,252.3 M100.9,164.4l1-0.5l-4-7.6l-1,0.5L100.9,164.4L100.9,164.4"/>
<path class="st0" d="M71.4,107.3l9.6-13l0,0L81,95.2l21.5-0.6l-1-38.4l61.4-1.7l0.3,6.7l14-0.4l-0.2-6.7l47-1.3l0.2,6.7l3.6-0.1
	l0.9,33.9l-39.5,1.1l0.3,12.4l-25.1,0.7l0.8,33.6l-18.3,0.5l-0.4-14.4l-12.9,0.4l0.1,3l-11,0.3l-1.3-1.2l-0.1-1.8l-10.6,0.3l0.1,2.3
	l-3.5,0.1l0.1,2.5l-2.5,0.1l0.3,9.5l-23,0.6l0-1.6l-2.3,0.2l-0.3,0.3l-2.5,7.6l-0.2-0.1l-0.1,0.4l0.2,0.1l0,0.1l2-0.1l0,0.2
	l18.1-0.5l0.3,11l-10.8,0.3l0.3,10.6l36-1l0.1,5l14.2-0.4l-0.3-12.2l0.3,0l-0.4-14.3l3.4-0.1l0.6,17.9l2.2-0.1l0-0.3l1.2,0l-0.1-5.2
	l0.6,0l-0.3-12.6l4.9-0.1l0.2,7.2l12.8-0.3l2.3,83l-22.8,0.6l0,0.3l-1.2,0l0.2,6.7l24-0.7l0.7,25.4l-65,1.8l-0.7-25.2l-10.6,0.3
	l0.4,14.4l-13.9,0.4L75,246.6l-0.7,0l0-1.9l0.7,0l-0.1-3.8l-3.6,0.1l-0.7-24.2l-0.2,0l-0.3-12.9l0.2,0l-0.6-20.4l-10.8,0.3l-0.1-3.5
	L48,180.4l0,0L47.3,155l21.6-0.6l-0.1-2.2l-0.2,0l0-1.6l0.2,0l0-0.7l2-0.2l0.6-0.4l0.4-0.5l0.1-0.3l2-6.4l-0.1-0.7l-7.2-16.9
	l-0.4-0.1l-2.1,0.1l0.2,7.6l-13,0.4l0,1.4l-4.3,0.1l0-1.4l-40.4,1.1l-0.3-10.3l20.2-0.5l-0.1-3l10.2-0.3l0.1,1.4l2.3-0.1l0,1.5
	l6.1-0.2l-0.2-7.5l-38.9,1.1l-0.2-7.9l36-1l-0.1-2.9l21.8-0.6l0.3,12.4l1.5-0.2l0.3-0.3L71.4,107.3 M139.1,246.1l-1.3-47.6
	l-14.2,0.4l0,1L120,200l0.1,3.6l-32.4,0.9l0.3,10.6l18-0.5l0.3,11l-18,0.5l0.3,10.6l25.2-0.7l0.3,9.8l-2.4,0.1l0,1L139.1,246.1
	 M123,177.7l0.1,4.2l-36,1l0.3,10.6l32.4-0.9l0.1,3.6l17.8-0.5l-0.5-18.4L123,177.7 M125,250.3l0.3,10.6l7-0.2l-0.3-9.4l-0.2,0
	l0-1.2L125,250.3 M81.4,114.6l-3.1,0.2l-0.2,0.2l-2.5,3.6l0,0.1l4.2,14.6l0.3,0.2l0.1,0l1.7,0L81.4,114.6 M74,109.5l7.3-0.2
	l-0.3-9.2L74,109.5L74,109.5"/>
<path class="st0" d="M123.2,98.1l5.8,3.1l0.1-0.1l0.1-0.3l1.4,0.8l0.3,0.2l-0.2,0.4l7.9,4.2l0.8,0.4l4.8,2.7l0.2-0.4l1.6,0.9
	l-0.2,0.3l13.3,7.3l0.2-0.4l1.7,0.9l-0.1,0.4l12.6,7l0.8,0.3l0.2-0.4l1.7,1l-0.2,0.4l7.4,4.1l6.2,3.4l0.3-0.5l1.7,1l-0.2,0.4
	l9.9,5.3l4.1,2.2l0.3-0.5l1.3,0.8l-0.2,0.4l0.2,0.1l-1.9,3.5l-0.2-0.1l-1.4,2.4l16.9,9.2l-13.8,25.2l-9.3,17.3l-23.3,42.8
	l-30.6-16.6l8.3-15.1l-1.7-1l0.4-0.8l-0.1-0.1l-1.7,3.2l-3.8-2.1l4.4-8.1l2.5,1.4l-2.2,4l1.4,0.7l1.8-3.3l-0.5-0.3l1.8-3.3l0.5,0.3
	l2-3.6l1.7,0.9l0.1-0.3l-2.1-1.1l-0.2,0.3l-3-1.7l1.8-3.3L38.2,130.8l-17.6-9.5l0.1-0.1l-6.5-3.5l6.7-12.2l12.8-23l9.3-16.9l0.1-0.2
	l12.3,7L60,75l6.5,3.6l0.2-0.3l0.1-0.1l5.1,2.9l1.5-2.6l3.8,2.1l3.7,1.9l0-0.1l0.9,0.5l0,0.1l13.4,7.4l0.4-0.8l0.4-0.7l0.2-0.4
	l0.2,0.1l0.2-0.4l-0.2-0.1l1.9-3.4l0.2,0.1l0.2-0.3l0.1-0.1l1.6,0.9l-0.2,0.3l4.4,2.4l3.1,1.7l6,3.2l0.1-0.2l0.1-0.2l1.7,1l-0.2,0.4
	L123.2,98.1"/>
<path class="st0" d="M146.2,225L146.2,225l-1.6,0.8l-1.4,0.2l-21.8-6.6l-10.3-2.9l-2.6-1l-3.3-1.4l-3-1.7l-2-1.8l-2.1-2.7l-2.3-4
	l-13.9-26.2l-2.6-3.9l-2.4-4l-1.3-3.4l-1.2-5.5l-3.3-22.3l-2.9-17.7l-0.8-6.1l0.2-3.8l1.3-2.6l2.8-4.1l9.6-13l12.2-16.2l11.7-13.8
	l3-2.3l12.4-5.9l4.1-1.3l3.4,0.8l6.1,11.6l5.7,11.8l9.7,19.5l8.1,15.6l12.3,24.7l18.3,35.9l0,2.7l-0.3,1.7l-1.2,2.9l-7.9,9.4
	L148,223.6L146.2,225L146.2,225"/>
<path class="st0" d="M12.1,151.3l-2.4-14.8l-9.2,1.5l-0.4-2.6l21.7-3.5l0.1,0.4l0.6-0.1l-0.1-0.4l31-5l0.4,2.7l12.3-2l-0.2-1.1
	l0.9-0.1l-0.1-0.7l0.5-0.1l0.1-0.2l0.3,2.1l8.7-1.4l-0.2-1.2l0.9-0.1l-0.1-0.7l0.4-0.1l0-0.2l0.1,0l0.3,2.1l1-0.2l0.4-0.9l0.6-0.7
	l0.6-0.5l1.2-0.5l0,0l0.3,1.7l-0.4,0.1l0.1,0.5l2.8-0.5l-0.2-1.8l0,0l1.3,0.2l0-0.1l0,0l0.6-0.1L86,123l0.4,0.1l0-0.1l0.9-0.1
	l-0.1-0.7l0.5-0.1l0.1-0.2l0.3,2l8.8-1.4l-0.3-2l0,0l0.1,0l0,0.2l1.2-0.2l0-0.2l0.4,2.1l8.7-1.4l-0.3-2l0.2,0l0,0.2l1.2-0.2l0-0.2
	l0.1,0l0.3,2.1l8.7-1.4l-0.2-1.1l0.9-0.1l-0.1-0.7l0.5-0.1l0.1-0.2l0.3,2l8.7-1.4l-0.2-1.1l0.9-0.1l-0.1-0.7l0.5-0.1l0.1-0.2l0.3,2
	l8.8-1.4l0,0l-0.1-0.7l0.9-0.2l-0.2-1.1l0.5-0.1l0-0.2l0.1,0l0,0l0.3,2l8.7-1.4l0,0l-0.1-0.7l0.9-0.1l-0.2-1.1l0.5-0.1l0-0.2l0.5,2
	l8.8-1.4l0,0l-0.1-0.8l0.9-0.1l-0.2-1.1l0.5-0.1l0.1-0.2l0,0l0.3,2l8.7-1.4l-0.1-0.8l0.9-0.1l-0.2-1.1l0.5-0.1l0-0.2l0.5,2l8.8-1.4
	l0-0.8l0,0.2l0.1,0l0.1,0.7l0.7-0.1l0-0.1l-0.3-1.8l0.5-0.1l0-0.2l0.4,2l8.8-1.4l0,0l-0.2-1.1l0.8-0.1l-0.1-0.7l0.5-0.1l0-0.2
	l0.3,1.3l1.1-0.2l0.2,0.5l0,0l0,0.3l7.5-1.2l-0.2-1.1l0.9-0.1l-0.1-0.7l0.5-0.1l0-1l8.7-1.4l0.3,1.8l0.9-0.1l-0.1-0.7l0.5-0.1l0-0.2
	l0.5,2l8.7-1.4l-0.1-1.1l0.9-0.1l-0.1-0.7l0.5-0.1l0.1-0.2l0,0l0.3,2l7.3-1.2l0.7,4.7l3.5-0.5l7.1,44l1.7-0.3l0.5,3.3l-1.8,0.3
	l0.5,3.1l-2.2,0.4l-0.5-3l-8,1.3l0.5,3l-2.2,0.4l-0.5-3l-8,1.3l0.5,3l-2.2,0.4l-0.5-3l-8,1.3l0.5,3l-2.2,0.4l-0.5-3l-8,1.3l0.5,3.1
	l-2.3,0.3l-0.5-3l-8,1.3l0.5,3l-2.3,0.4l-0.5-3l-8,1.3l0.5,3l-2.2,0.4l-0.5-3l-8,1.3l0.5,3l-2.2,0.4l-0.5-3l-8,1.3l0.5,3l-2.2,0.4
	l-0.5-3l-8,1.3l0.5,3l-2.2,0.4l-0.5-3l-8,1.3l0.5,3l-2.2,0.4l-0.5-3l-8,1.3l0.5,3l-2.3,0.4l-0.5-3l-8,1.3l0.5,3l-2.3,0.4l-0.5-3
	l-8,1.3l0.5,3l-2.3,0.4l-0.5-3l-8,1.3l0.5,3l-2.3,0.4l-0.5-3l-7.9,1.3l0.5,3l-2.3,0.4l-0.5-3l-8,1.3l0.5,3l-2.3,0.4l-0.5-3l-7.9,1.3
	l0.5,3l-2.3,0.4l-0.5-3l-7.9,1.2l0.5,3l-2.3,0.4l-0.5-3l-8,1.3l0.5,3.1l-2.3,0.4l-0.5-3.1l-8,1.3l0.5,3l-2.2,0.3l-0.5-3l-8,1.3
	l0.5,3.1l-2.3,0.4l-0.5-3.1l-8,1.3l-0.6-3.3l10.2-1.7l-0.5-2.9l-6.9,1.1l-3-18.5l-1.7,0.3l-2-12.5L12.1,151.3L12.1,151.3"/>
<path class="st0" d="M121.2,239.4L121.2,239.4l-1.6,0.6l-1-0.1l-0.6-0.4l-2.6-4.2l-57.9-97.5l0-0.7l0.5-1.6l0.7-1L74.6,123
	l14.5-10.4l4-3.5l1.7-2.1l1.4-2.1l1.9-4.3l6.4-20.3l3.4-12.7l1.7-3.2l2.2-1.5l4.5,0.8l23.6,16.6l32.2,22.6l2.9,2.5l8.1,5.7l1.9,1.9
	l1,1.7l0,1.2l-0.5,4.1l-1.9,10l-1.9,7.5l-6.5,16.1l-3.6,7.3l-4.5,6.2l-6.2,7.4l-15.3,19.2L136,207l-4.4,7.2l-5.4,12.4l-2.7,7.5
	l-0.8,3.1L121.2,239.4L121.2,239.4"/>
<path class="st0" d="M108.9,90.5l3.1,7.1l0.5,0.8l3.2,2.2l7.2,7.7l3.4,2l1,0.4l9.3,1.3l3.5,1.1l0.3,0.3l3.9,9.8l1.7,3l2.2,1.9l4,3
	l0.7,0.2l1.8-0.3l1-0.8l0.5-0.2l2-0.1l0.5,0.3l3.3,1.5l1.1,0.1l0.4-0.1l-0.2-1.1l-0.3-1l-0.1-1l1-5.3l0.3-0.9l1.5-3.1l-0.1-3.1
	l-0.3-9.1l0.2-0.9l1.9-11.9l4.7-1l3.1,4.2l1.2,1.2l0.9,2l1.5,4l1,1.4l5.4,5.1l1.2,0.7l5.7-0.8l1.5-0.1l2.8-0.4l0.8-0.6l3.7-4l4-1.8
	l4,1.7l0.5,0.9l-0.7,5.2l-3.2,6.9l-5,6.3l-4.3,6.2l-0.3,1.2l-0.1,0.9l0.1,1l0.2,0.5l1.2,1.2l0.7,0.3l3.7,0.2l0.5,0.2l1.9,0.5
	l7.9,1.5l0,0l-1.5,1.6l-1.6,0.8l-4.6,3.4l-16.9,15.7l-4.8,4.1l-6.5,4.8l-3.5-3.3l-0.8-0.3l-1.6-0.2l-2.2,0.8l-4.6,2.9l-9.3,5.4
	l-1.8,0.8l-2,1.9l-3.6,3.5l-6.6,5l-7.9,6.4l-4.4,3.9l-0.6,1l-0.1,0.6l-0.1,0.9l0.1,0.7l1.8,3.1l1,0.9l-2.1,2.9l-3,5.5l0,0.4l0.9,2
	l-1.7,3.8l-1.3,2.8l-0.9,2.6l-1.2,1.4l-4.7,0.3l-6.9,0.9l-1.7,0.4l-4.6-0.2l-4.6,0.8l-3.8,1l-4.8,2.7l-2.5,1.7l-6.5,7.1l-3,1.5
	l-1.9,0l-1.2-0.7l-4.9-4.8l-0.4-0.8l-1.3-8.8l0-0.9l-0.4-2.1l-1-1.5l-0.9-1l-1-1.9l0.2-0.5l9.3-3.3l7.5-3.7l4.7-3.7l4.1-4.6l2.1-3.6
	l1.7-1.9l3.6-2.9l0.5-0.8l0.1-0.7l-0.2-1l-0.3-0.7l-1.3-1.1l-0.5-0.7l-0.1-0.6l0.1-0.8l0-0.8l-1.1-1.4l-0.5-2l-0.4-0.7l-0.7-0.8
	l-2.1-1.2l-1.6-1.6l-1.2-0.3l-0.5-0.3l-0.3-0.3l-1.1-0.9l-2.7-1.9l-1.2-0.6l-4.1-0.6l-0.9-0.4l-0.6-0.4l-3.5-0.1l-1.6-0.4l-0.7-1
	l-0.4-1.1l-0.2-1l0-1.1l0.3-1.8l1.7-3.5l2-8.4l0.8-0.3l6.1,1.4l1.1,0l3.5-1.3l10.1-5.2l0.8-0.2l0.6,0l0.5,0.2l0.7,0.4l2.6,0.5
	l1.8-0.3l1-0.5l0.9-1.7l1.1-3l0-1.6l-1.7-3.7l-0.3-0.4l-1-0.6l-5-2.4l-0.6-0.4l-7.7-11.8l-1.4-0.8l-0.5-0.7l0.1-0.7l0.4-0.4l7.2-1.8
	l-1.1-0.7l-0.8-0.2l-3,0.3l-0.7,0.2l-5.1,2.4l-4.2,2.5l-2.8,2l-0.8,0.4l-0.8,0.2l-0.8,0.1l-0.8-0.1l-1.8-0.8l-2.6-4l-1-0.3l-1.2-0.1
	l-6.3,0.9l-0.6,0l-3.2-1l-1.1-0.6l-5.1-1.6l-0.7-0.6l-0.3-0.5l0-0.4l0.3-0.8l0.4-0.4l1.5-1l0.9-1.1l2.3-1.4l2.4-0.4l8.1-4.1l1.5-0.5
	l3.7-0.9l3.9-2.9l1.5-1.6l0.9-1.3l0.3-3.5l-0.1-0.8l-1.5-4.7l0.5-0.6l0.6-0.1l3-0.2l1.4,0.2l4.1-1.1l0.3-0.3l0.7-1.2l-0.5-8l-2-22.8
	l-1.7-6.5l-2.7-2.5l-1.5-2.1l-0.6-2.5l0.2-0.9l0.5-0.9l0.8-0.6l1.7-0.7l5-5.1l0.4,0l2.4,1.4l8.1,5.1l4,1.8l6.2,2.8l0.6,0.5l0.3,0.5
	l0.1,0.6l0.1,1.8l-0.2,1.4l-2,3.5l-0.7,2.4l1,6.3l0.3,2.5l0.1,3.4l-0.2,6.7l0,11.6L108.9,90.5L108.9,90.5"/>
<path class="st0" d="M205,138.7L205,138.7L205,138.7L205,138.7L205,138.7L205,138.7L205,138.7L205,138.7L205,138.7l-10.1,11.2
	L182,164.2l0,0l0,0l0,0l0,0l-58.3,31l-28.3,15l0,0l0,0l0,0l-4.7,0.7l0,0h0l0,0l0,0l0,0l0,0l0,0l0,0l0,0l0,0l-21.6-25.7L60,174.2l0,0
	l-10.2-12.2l0,0l0,0l0,0l0,0l0,0l0,0l0,0l0,0l0.5-5.2l0,0l0,0l0,0l0,0l0,0l0,0l8.1-9.2l19-21.7l0,0l24.2-27.4l8.7-10.2l2.4-2.9l0,0
	l0,0l0,0l0,0l0,0l3.8-1.5l5.3-6.1l4.7-5.4l0.9-1l0,0l0,0l0,0l0,0l0,0l0,0l0,0l0,0h0l0,0l0,0l0,0l0,0l0,0l0,0l0,0l7.5,6.6L156,96.6
	l18,15.8l9.2,3.3l0,0l1.5,0.6l1.1,0.2l0,0l0,0l0,0l0,0l0,0l0,0l0,0l0,0l0,0l0,0l0,0l0,0l0,0l0,0v0l0,0l0,0l0,0l-0.2,0.5l-0.2,0.5
	l0,0.2v0l0,0l0,0l0,0l0,0l-0.9,1.6l20.4,17.5l0,0l0,0l0,0l0,0l0,0l0,0l0,0l0,0l0,0L205,138.7"/>
<path class="st0" d="M106.7,111.8l-3.8,1.3l0.1,0.4l-24.5,8l-3.3-10l-0.8-2.6l20.7-6.7l0.9,2.6l3.7-1.4l2.7,8.1l5.4-1.7l2.3,6.6
	l4.6-1.5l-0.7-2.3l36.5-12l0.8,2.2l3.1-1l-0.5-1.4l1.3-0.4l0.5,1.4l20.5-6.8l-0.4-1.2l0.7-0.2l-0.2-0.7l12.4-4.1l1.8,0.3l0.4,1.1
	l3.2,9.7l4.2-1.4l2,6.1l-2.2,0.8l-1.9,0.6l15.7,47.3l-7.3,2.3l0.3,1l-1.6,0.5l-0.3-0.9l-20.3,6.6l0.3,1l-1.6,0.5l-0.3-1l-17.4,5.7
	l0.3,1l-2.4,0.8l-0.3-1l-13.7,4.5l0.3,1l-1.6,0.5l-0.4-1l-21.8,7.2l0.3,1l-1.6,0.5l-0.3-1l-13.6,4.5l0.3,1l-2.4,0.8l-0.3-1
	l-15.9,5.3l0.3,1l-1.6,0.5l-0.3-1l-20.3,6.8l0.3,1l-1.6,0.5l-0.3-1l-7.3,2.4l-21.1-63.1l11.7-3.8l-0.2-0.6l-4.5,1.5l-0.4-1.2
	l4.5-1.5l-0.2-0.6l55.6-18.6l0.5,1.5l2.4-0.8L106.7,111.8"/>
</svg>
