<?xml version="1.0" encoding="utf-8"?>
<!-- Generator: Adobe Illustrator 26.0.2, SVG Export Plug-In . SVG Version: 6.00 Build 0)  -->
<svg version="1.1" id="Ebene_1" xmlns="http://www.w3.org/2000/svg" xmlns:xlink="http://www.w3.org/1999/xlink" x="0px" y="0px"
	 viewBox="0 0 283.6 283.5" style="enable-background:new 0 0 283.6 283.5;" xml:space="preserve">
<style type="text/css">
	.st0{fill:none;stroke:#000000;stroke-width:0.1;stroke-linejoin:round;}
</style>
<path class="st0" d="M107.8,225.6l-10.9-8l0.7-11.7l12.8-7.3L99.8,180l-30.4,17.2l-9.8-7.1l-9.8-7.3l0.7-11.7L83.8,152l-10.5-18.5
	l-50.9,29.1l-19-14.1L4,136.6l9.8-5.7l14.8-8.5l63.5-36.7l30.1,52.3l4.8-2.8l-1-2l8.7-5l1,1.9l4.9-2.9l-29.9-52.1l6.8-3.9l-0.1-0.1
	l13.7-8l0.1,0.2l6.8-3.9l30,51.8l4.8-2.8l-1.1-2l8.7-4.9l1.1,1.9l4.9-3l-30.1-52L176.2,37l11.6,3.1L205,70.8l19.7,34.3l28.2,49.3
	l-3.1,11.4l-10.1,5.7l-9.9,5.8L192,110.8l-18.3,10.4l37.9,66.5l-6.5,3.4l0.2,0.3l-14.7,8.4l-0.1-0.1l-6.3,3.6l-38-66.2l-18.5,10.6
	l38.2,66.3l-8.8,5.1l-8.9,5l-17.6,10.1l-11.7-0.5L107.8,225.6 M121.3,222.7l7.5,0.4l6.3-3.7l-0.5-0.9l8.3-4.9l0.9,1.4l2.8-1.8
	l-0.5-0.8l2.8-1.6l0.6-2.8l0.6-0.4l-2.8-4.8l-0.5,0.2l-1.7-3.3l-0.9,0.5l-4.9-8.6l-1.9-0.1l-2.4-4l0.8-2l-4.7-8.3l0.8-0.4l-3.4-6
	l-0.9,0.5l-4.8-8.3l1.4-0.8l-2-3.3l0.9-0.4L110.3,136l-1.1,0.7l-1.8-3.2l-0.9,0.4l-4.8-8.3l-1.9-0.2l-2.5-4.3l0.9-1.7l-4.8-8.3
	l0.8-0.5l-1.7-3l0.4-0.2l-2.9-4.9l-0.5,0.3l-2.6-0.6l-2.9,1.6l-0.3-0.5l-2.8,1.5l0.6,1l-8.3,4.7l-0.1,1.9l-4.4,2.4l-1.6-0.6
	l-8.3,4.6l-0.5-0.8l-6,3.4l0.5,1l-8.3,4.7l-0.7-1.1l-3.1,1.7l-0.7-1.3l-3.1,1.7l0.6,1.1l-3.9,2.2l0.8,1.4l-8.9,5.1l-0.8-1.4
	l-3.9,2.2l-0.1-0.2l-3.5,1.8l-0.5-0.9l-1.4,0.7L15,144l4.9,3.7l-0.5,0.8l1.2,1L32,143l0.7,1.5l3-1.6l-0.6-1l8.5-4.8l-0.1-1.8
	l4.5-2.5l1.6,0.9l8.4-4.8l0.6,1l3.1-1.8l0.6,1l22.9-13L90,124l-6.8,3.9l10.6,18.5l6.8-3.9l4.7,8.3l-23,13l0.3,0.7l-3.1,1.8l0.7,1.3
	l-8.3,4.8l-0.6-1l-2.8,1.6l0.3,0.6l-5.3,3.1l-0.1,0.8l-1.4,0.7l0.1,0.6l9,6.6l1.1-1.8l1.5-0.8l-0.1-0.2l3-1.7l-0.5-1l8.4-4.6
	l0.7,1.1l3.3-1.7l0.3,0.6l23-13.2l4.6,8.2l-6.7,3.9l10.5,18.3l6.7-3.8l4.6,8.3L107,211.3l1.1,2l0.7,0.5l0.3-0.3h1.2l4.1,3l1.9-2.6
	l5.6,4.1l-1.8,2.7l1.2,1L121.3,222.7 M186.6,187l0.8-0.4l2.3,0.7l5.1-2.8l0.6-2.4l0.9-0.4l-2.9-4.9l-0.4,0.1l-1.8-3.2l-0.9,0.4
	l-4.9-8.5l-1.8,0.1l-2.6-4.4l0.9-1.7l-4.8-8.3l0.8-0.5l-3.4-6l-0.9,0.5l-4.9-8.5l1.4-0.8l-1.2-2.3l-1.4,0.7l-0.6-1.2l1.1-0.7
	l0.3,0.3l0.8-0.4l-5.6-9.6l1.6-0.9l-1-1.6l-2.1,1l-0.9-1.4l0.6-0.4l-5.4-9.3l-1.1,0.6l-1.8-3.2l-0.9,0.5l-4.8-8.3l-1.8-0.1l-2.6-4.3
	l0.9-1.7l-4.7-8.2l0.8-0.5l-1.8-3.3l0.6-0.3l-3.1-5.1l-0.8,0.5l-2.3-0.8l-5,2.7l-0.7,2.7l-0.8,0.4l3,5.1l0.4-0.2l2,3.3l0.9-0.5
	l4.8,8.2l1.8,0.2l2.5,4.2l-0.8,1.8l4.7,8.2l-0.9,0.5l1.8,3.2l-1.3,0.7l5.6,9.8l-1.5,0.9l0.9,1.6l2-1.2l1,1.6l-0.6,0.2l5.4,9.2
	l0.5-0.3l2,3.3l1.3-0.7l4.8,8.6l-0.9,0.5l3.5,6.1l0.9-0.5l4.8,8.3l2,0.1l2.5,4.3l-0.9,1.8l4.8,8.4l-0.7,0.3l1.8,3.4l-0.4,0.3
	L186.6,187 M232.5,160.7l0.6-0.4l2.4,0.6l2.8-1.6l0.4,0.5l2.3-1.3l1.8-6.5l-1.6-2.9l-5.9,3.5l-2.1-3.9l0.6-0.3l-1-2l1.6-0.9
	l-3.4-5.9l-2-0.2l-2.5-4.2l0.9-1.8l-4.8-8.3l1-0.5l-3.5-5.9l-0.9,0.5l-4.9-8.6l1.4-0.7l-4.6-8.1l-1.4,0.7l-0.6-1l-6.3-10.6l1.5-0.8
	l-3.4-5.9l-0.5,0.3l-2-3.3l-0.9,0.5l-4.8-8.3l-1.9-0.1l-2.6-4.3l1-1.8l-4.7-8.2l1-0.6l-1.8-3.3l2.8-1.5l-1.7-3l-6.5-1.8l-2.5,1.3
	l0.4,0.6l-2.7,1.4l-0.7,2.7l-0.7,0.3l2.9,5l0.5-0.2l1.8,3.2l0.9-0.4l4.7,8.3l1.9,0.2l2.3,4.3l-0.6,1.6l4.7,8.4l-0.8,0.4l1.8,3.3
	l-1.3,0.7l12.9,22.4l0.8-0.4l2,3.2l1.3-0.7l4.8,8.4l-0.9,0.6l3.5,6.1l0.9-0.6l4.8,8.3l1.9,0.2l2.5,4.3l-0.9,1.7l4.7,8.2l-0.9,0.6
	l1.8,3.3l-0.4,0.3L232.5,160.7L232.5,160.7"/>
<path class="st0" d="M54.3,48.7l44.1-2.9l0.6,7.7l1.2,1.1l0.5,0.9l63.3-4.3l0.6-1.1l0.9-0.9l-0.3-7.8l53.5-3.4l2.8,2.9l0.6,9.7
	l-9.3,0.5l3.2,48.5l9.4-0.5l0.8,10.7l-7.1,0.4l0.3,4.8h1.2l0.2,4l-1,0.1l0.1,0.7l-3.7,0.2l-0.4-4.9l-11.2,0.6l-0.6,1.1l-0.8,0.8
	l-1,0.6l-1,0.3l-1.4-0.1l-1.1-0.5l-1-1l-0.4-0.9l-0.3-1.1l0.1-0.9l0.3-1l0.5-0.8l1.3-0.9l-0.2-2.8l-29.2,2.1L166.7,63l-1.4-0.6
	l-0.5-0.9l-2.3,0.1l0.1,0.5l-3,0.2l-0.1-0.6l-14.9,1.1l0.1,0.5l-2.8,0.2L142,63l-18,1.1l0.1,0.6l-2.6,0.1l-0.1-0.5l-15,0.9l0.1,0.6
	l-2.9,0.2l0.1-0.6l-2.3,0.1l-0.4,0.9l-1,0.9l3.1,47.3l-29,2l0.4,6.3h0.8l0.2,2.8l-0.7,0.1l1,18.4h0.8l0.2,2.8l-0.7,0.1l0.4,6.2
	l29.2-1.8l3.1,47.2l0.9,0.6l0.8,1.2l6.1-0.4v-0.8l2.6-0.1l0.1,0.6l8.7-0.5l0.1,1.2l4.2-0.2l-0.1-0.7l2.8-0.2l0.1,0.7l14.7-1
	l-0.1-0.7l2.6-0.1l0.1,0.6l4.3-0.3v-1.3l8.6-0.6v-0.8l2.9-0.1l0.1,0.7l6-0.4v-1l0.4-0.4l0.9-0.6l-3.1-46.9l29.5-2.1l-0.7-7.6
	l16.2-1.2l-0.3-4.9l3.7-0.2v0.8l1-0.1l0.3,4.1h-1.1l0.3,4.8l7.1-0.4l0.8,10.6l-9.5,0.8l3.4,48.5l9.3-0.5l0.9,13.1l-20.2,3.7
	l-0.9-7.3l-3.8-50.6l-25.4,2l3.6,53.1l0.4,7.7l-1.6,0.2l-8.2,1.5l-0.1-6.8l-3.4,4.4l-32.3,2.4l-3.7-2l4.8,8.3l-18.8,3.3l-1.2-4.2
	l4,0.1l0.2-3.3l-1.4-2.6l-2,3.1l-9.8,0.8l-4.6-3.8l-3,9l1.1,3.8L66.4,243l33.5-6.3l-0.3-7.2L94.9,165l-36,2.9l-1.7,76.5l-9.3,1.7
	l2-91.1l13.2-0.9L66,154l-2.3-36.5l-13.1,1L52,51.7L54.3,48.7 M61.5,60.4l-1.7,48.8l29.9-1.2l-2.2-50L61.5,60.4 M175.5,53.4
	l3.1,48.1l25.7-1.5l-2.2-48.1L175.5,53.4L175.5,53.4"/>
<path class="st0" d="M178.2,107.5l-7.6,0.2l-0.9,0.9l-0.9,10.5l-9.9-1l0.7-8.4l-1.1-1.1l-8.5,0.7l-0.8,1l-1.6,19.4l1.4,1.7l7.2,0.6
	l1.8-1.5l0.5-7.1l9.9,0.8l-0.7,7l1.4,1.8l7.5,0.7l1.9-1.7l0.8-7.1l4.7,0.5l5.4,0.4l-0.5,6.9l1.6,2.2l7,0.7l1.7-1.5l0.7-7.3l10.3,0.9
	l-0.8,7.3l1.6,1.8l7,0.6l1.8-1.6l0.6-7.2l8.6,0.8h1.3l-0.7,7.3l1.5,1.8l7.1,0.6l1.6-1.4l0.8-7.4l2.6,0.2l7.6,0.6l-0.6,7.4l1.4,1.7
	l16.2,1.4l1.3-0.9l1.3-2.5l0.4-5.3l12.9,1l-21.9,39.9l-5.3,2.8l-10-0.8l0.9-9.6l6,0.6l2.3-1.3l7.5-13.8l-0.5-1.1l-12.6-1l-0.9,0.7
	l-0.9,9.2l-9.9-0.7l0.6-9l-0.6-1.2l-8.7-0.7l-1,0.9l-1.2,14.5l1,1.3l5.2,0.4v-0.5l0.6,0.1l0.1,0.5l3.8,0.4l-0.8,9.7l-31.4-2.7
	l0.8-9.7l9.4,0.8l1.3-1.1l1.4-14.2l-1.1-1.3l-8.4-0.8l-1,0.9l-0.8,9.3l-9.9-0.8l0.8-9.5l-0.7-0.9l-8.5-0.7l-1.1,1.1l-1.4,14.8l1,0.9
	l9.6,0.7l-0.9,9.7l-31.4-2.7l0.7-9.6l10.5,0.9l0.5-0.8l1.4-15.1l-0.7-0.9l-9-0.7l-1.1,0.8l-0.9,9.1l-9.8-0.8l0.1-0.7L155,151
	l0.3-2.8l0.5-0.4l1.2,0.1l0.5-5.3l-0.8-0.8l-8.4-0.8l-1.3,0.8l-1.2,15l0.7,1l9.7,0.8l-0.7,9.6l-31.4-2.7l0.7-9.5l9.7,0.8l1.2-1.3
	l1.1-14.3l-1-1.3l-8.4-0.7l-1.2,1l-0.7,9.1l-9.9-0.8l0.9-9.1l-1-1.2l-8.3-0.6l-1.1,0.7l-1.3,14.8l0.7,1.1l9.6,0.8l-0.7,9.6L83,162
	l0.8-9.6l9.7,0.8l1-0.9l1.1-14.7l-0.8-1.2l-8.6-0.6l-0.7,0.7l-0.7,9.2l-10.1-1l0.7-9.2l-0.5-0.8l-9-0.7l-0.9,0.7l-1.2,15l0.9,0.8
	l9.6,0.9l-0.7,9.6l-31.3-2.6l0.8-9.7l9.8,1.1l0.8-0.9l2.7-31.2l-0.9-0.9l-8.8,0.7l-0.9,1l-2,23.8l-10-0.8l1.6-22l-0.6-0.8l-22.2,1.7
	l-1.2,2.3l12.4,22.9l3,2l6.7,0.5l-0.7,9.7l-10.3-0.9l-5-3.3L0.1,122.1l5.5-10.5l71-5.6l0.7,9.2l-9.6,0.7l-1.2,1.2l-0.6,6l1.4,1.7
	l27.9,2.2l1.7-1.5l1-10.7l-1.2-1.2l-9.4,0.8l-0.8-9.1l31.4-2.5l0.6,9.2l-9.8,0.7l-0.7,0.8l-1.1,13l1.3,1.6l7,0.7l2-1.8l0.5-7.1
	l9.9,1l-0.6,7.2l1.2,1.9l7.4,0.6l1.9-1.6l1.5-17.4l-1.1-1.2l-9.5,0.9l-0.6-9.2l49.5-3.9L178.2,107.5L178.2,107.5"/>
<path class="st0" d="M83.8,221.9l-55.3-41.6l6-8l24.8,18.6l25.8-35.2L60,137.4l6.2-8.6l25.3,18.4l25.4-35.1l-25-18.5l6.5-8.7
	l24.8,18.6l26.3-35.7L124,49.2l6.4-8.3l110.5,81.2l0.2,0.1v0.1l5.5,12l6-2.8h0.1l4.6,10.1L229,154.9l-4.7-10l11-4.9l-0.7-1.6
	l1.4-0.8l-4-8.6l-75.4-55.7l-3.9,4.9l0.7,1.3l-18.5,25.3l-1.2-0.1l-2.9,4.7l55.9,41.1l4.9,10.4l12.3-5.8l4.5,9.6L174.6,180l-4.2-9.8
	L182,165l-3.4-7.1l-54.2-40l-3.6,5l0.4,0.6L103,148.2l-1.2,0.4l-3.5,4.8l35,25.4l3.4,7l11.8-5.5l4.4,9.7l-32.1,14.9l-4.1-9.6
	l10.8-4.9l-2-5l-33-23.9l-3.4,4.6l0.4,0.8l-17.9,24.8l-1.2,0.2l-3.2,4.8l17.5,13l9.9-3.8l4,9.3l-7.7,3.5l-1.4,0.6L83.8,221.9"/>
<path class="st0" d="M49,140.9l8.9-9.6l0.3-0.4l2.5-2.9l0.2-0.1l5-5.6l-1.1-1.2l2.2-2.3l16.6-18.3l10.2-10.9v-0.4l6.1-6.4l-1-1
	l5.8-6.3v-0.2l11.2-12l-2.1-1.9l8.2-9l6.8,6l-7.9,8.6l4.1,3.7l-9,9.9l1.6,1.6l2.1-2.3l4.3,3.9l-6.2,6.9l-4.4-3.9l2.1-2.3l-1.6-1.6
	l-5.7,6.5l1.1,0.9l-0.4,0.4l-41.4,47.1l14.2,8.7l42.6-44.9l1.5,1.3l6.6-7.5l9.1-9.8l4.1,3.5l7.8-8.5l24.6,22.1l-8,8.8l4.2,3.7
	l-9,9.9l1.6,1.6l2.1-2.2l4.3,4l-6.2,6.9l-4.3-4l2-2.3l-1.8-1.5l-6,6.5l-32.8,36.8l14.3,9.1l33.7-33l1,0.9l5.3-5.7l-1.7-1.7l-2,2.2
	l-4.3-3.7l6.2-6.8l4.2,3.6l-1.9,2.4l1.8,1.6l8.6-9.4l3,2.7l7.9-8.9l23.7,21.8l-7.7,8.7l2.8,2.8l-8.6,9.5l1.9,1.6l2-2.4l4.4,3.9
	l-6.4,6.9l-4.3-3.9l2.1-2.3l-1.8-1.5l-5.2,5.8l1,0.9l-0.3,0.2l-25,28.3l6.8,3.2l7.9,1.6l-4.1,4.5l-5.1,5.3l-12.3-6.8l-6.7-3.9
	l-0.3-2.8l4.4-4.7l3.8-4.9l0.3,0.2l2.8-3.2l-1-1l5.9-6.8l0.5-0.3l9.6-10.6l4.4-4.6l-0.1-0.2l-1-0.7l5.6-6.3l10.6-11.8l-14.3-12.9
	l-7.7,8.6l-0.3,0.6l-8.1,8.8l-1.2-1l-3.1,3.4v0.2l-11,11.9v0.4l-8.5,9.1l-1.2-1.1l-3.4,3.7v0.4l-2.9,2.9l-7,7.7l-2.9,0.7l-12.3-6.8
	l-17.7-9.9l-0.4-3l7.2-8.1l3-3.2l-1-1l3.3-3.5v-0.4l11-11.8l0.2-0.3l13.5-14.9l0.4-0.2l3.1-3.4l-1.1-1.1l5.8-6.1v-0.5l2.8-2.9h0.2
	l8.1-9L150,94l-8.2,9v0.5l-2.5,2.9l-0.4,0.1l-5.7,6.2l-1.2-1l-14.6,16l-0.2,0.5l-2.5,3h-0.2l-4.8,5l-6.4,7.4l-0.8,0.5l-3.3,3.6
	l-1.3-1l-2.8,3.2l-2.8,3.4l-0.5,0.3l-6.9,7.8l-2.9,0.8L49.3,144L49,140.9L49,140.9"/>
<path class="st0" d="M118.7,218.3L123,60.7l33.2-6.2l4.7,3.9l-0.1,6.9l-9.4-0.4l-0.2,9.1l9.4,0.3l-0.4,12.1l-6.7-0.3l-0.3,8.8
	l-2.6-0.1l-0.1,3.7l9.3,0.1l-0.2,11.9l-6.8-0.3l-0.2,8.8l-2.6-0.1l-0.1,3.7l9.3,0.1l-0.4,12l-6.8-0.3l-0.2,8.7l-2.6-0.1l-0.1,3.7
	l9.4,0.3l-0.4,11.9l-6.8-0.3l-0.3,8.7h-2.6l-0.1,3.7l9.4,0.3l-0.5,11.9l-6.7-0.1l-0.3,8.7l-2.6-0.1l-0.1,3.7l9.4,0.3l-0.5,12
	l-7.6-0.2l-0.1,3.4h-1.8l-0.1,3.4l1.3,0.1l0.1-1.2l2.8,0.1v-0.8l2.1,0.1l-0.1,2l3.1,0.2l-0.1,5.5l-4.3-0.2l-7.2-0.3L118.7,218.3"/>
<path class="st0" d="M44.4,139.8l10.7-1.8l-1.2-7.2l78.5-13.2l39.4-6.6l2.1,12l48.2-8.1l-2-11.6l14.7-2.3l7.9,47.2l-14.9,2.1
	l-3.6-20.6l-48.2,8.1l3.6,21l-22.4,3.7l-1.4-8.3l7.1-1.2l-2.6-14.8l8.3-1.4l-1.6-9.5l-34.2,5.7l5.6,32.5l-16.6,2.8l-1.8-9.8l-3.9-23
	l-24.1,4l1.5,8.7l3.4-0.6l4.1,23.8l-20.4,3.4l-2.4-13.7l2.2-0.4l-3.3-19L59.9,145l5.6,32.4l-14.2,2.4L44.4,139.8L44.4,139.8"/>
<path class="st0" d="M139.9,144.5l14.2,38.4l-3.9,1.4l4.7,13l-26.8,9.5l-34.3-93.2l75.3-28.2l17.3,47.4L159.5,143l-1.8-4.9
	L139.9,144.5"/>
<path class="st0" d="M72.7,102.5l60.2-39.7l0,0l0,0l0,0l0,0l0,0l0,0l0,0l0,0l0,0l0,0l0,0l0,0l0,0l0,0l0,0l0,0L206.1,173l0,0l0,0l0,0
	l0,0l0,0l0,0l0,0l0,0l0,0l0,0l0,0l0,0l0,0l0,0l0,0l0,0l-60.2,39.7l0,0l0,0l0,0l0,0l0,0l0,0l0,0l0,0l0,0l0,0l0,0l0,0l0,0l0,0l0,0l0,0
	L72.7,102.5L72.7,102.5L72.7,102.5L72.7,102.5L72.7,102.5L72.7,102.5L72.7,102.5L72.7,102.5L72.7,102.5L72.7,102.5L72.7,102.5
	L72.7,102.5L72.7,102.5L72.7,102.5L72.7,102.5L72.7,102.5L72.7,102.5 M96.3,107.7l54.7,81.6l34.6-23l-54.7-81.6L96.3,107.7"/>
<path class="st0" d="M106.7,133.1l1.2,2.1l1.5-0.8l7.5,14.2l15.8-8.5l6.5-3.6l1.6,2.5l6.4-3.8l-1.3-2.4l-9.2-16.6l-6.3-11.6
	l-2.9,1.5l-6.3-11.6L124,93l-0.6-1.2l-0.5,0.2l-1,0.4l-1,0.4l-1.5,0.3l-1,0.1h-1.1l-2-0.1l-1.5-0.3l-1.5-0.4l-1.5-0.5l-0.9-0.4
	l-2.1-1.4l-1.5-1.3l-1.1-1.1l-1.1-1.8l-0.9-1.8l-0.5-1l-0.3-1.5l-0.3-1.5l-0.2-1.6l0.1-2l0.3-1.5l0.7-2.4l0.6-1.5L105,69l2-2.3
	l2-1.5l-0.3-0.7l12-6.6l3,5.3l-0.6,0.3l4.2,7.7l3.4-1.8l-1-1.9l-2.1,1.1l-4.1-7.5l1.5-0.8l-3.4-6.6l-2.1,1.1l-5.8-11.1l1.6-0.8
	l6-3.5L136.1,69l-2.3,1.2l7.5,13.3l1.8,0.4l1.1,1.8l3.1,5.5l1,1.9l-0.5,1.5l-1,0.6l2.3,4l25.5,46.1l0.7-0.3l15.8,29.1l1.3,3.6
	l-4.8,2.6l2.6,4.3l-0.6,0.2l12.6,23l0.5-0.3l2.9,5.3l-11.9,6.7l-15.5-28.4l-2.9,1.6l-6.4-11.3l2.9-1.6l-10.5-19.2l-10.4,5.6
	l-4.8-8.9l-11.2,6.2l-7.6,4.2l7.5,13.4l-21.7,12l-26.2-48.7L106.7,133.1 M142.5,97.9l-0.8,0.4l12.7,23l-6.1,2.8l17.4,30.1l5-3.6
	l12.4,23l0.5-0.3l2.4,4.2l1.9-1.2l-22.3-40.8l-21.3-38.6L142.5,97.9 M131.1,72l-2.7,1.4l7,12.9l2.9-1.4L131.1,72"/>
</svg>
