<?xml version="1.0" encoding="utf-8"?>
<!-- Generator: Adobe Illustrator 26.0.2, SVG Export Plug-In . SVG Version: 6.00 Build 0)  -->
<svg version="1.1" id="Ebene_1" xmlns="http://www.w3.org/2000/svg" xmlns:xlink="http://www.w3.org/1999/xlink" x="0px" y="0px"
	 viewBox="0 0 217 283.6" style="enable-background:new 0 0 217 283.6;" xml:space="preserve">
<style type="text/css">
	.st0{fill:none;stroke:#000000;stroke-width:0.1;stroke-linejoin:round;}
</style>
<path class="st0" d="M64.4,184.5L49,156.8l-13.4,7.4L12,144.7l0,0l3.2-2.6l21.4,17.2l10.6-5.8l-3.2-5.8l93-89.7l0,0l44.1,79.1
	l-14.5,29.5l-85.6,47.7L64.4,184.5L64.4,184.5"/>
<path class="st0" d="M164.9,197.6L16.6,124.8l24.7-50.4l1,0.5l-0.1,0.1L210,157.2l-24.7,50.4L164.9,197.6L164.9,197.6"/>
<path class="st0" d="M83.7,219.7l-0.9-0.2l-1.2-0.6l-1.1-0.8l-0.9-1L75,196.6l0.1-1.3l0.4-1.2l0.7-1.1l0.3-0.3l36-30.4l-7.9-10.4
	l-6.8,3.6l-7,3.3l-7.1,3.1l-7.2,2.8l-7.3,2.6l-7.4,2.3l-7.5,2.1l-15,2.1l-15,1.8l-15,1.5l-0.8-0.2l-0.7-0.5l-0.5-0.7l-0.2-0.5
	l-6.8-23.6l0.2-1.1l0.4-1.1l0.6-0.9l0.8-0.8l1-0.5l1.1-0.3l1.1,0l6.4,0l6.4-0.2l6.4-0.5l6.4-0.7l6.4-1l6.3-1.2l6.3-1.5l6.2-1.7
	l6.1-2l9.8-3.6l5.6-2.3l5.5-2.5l5.4-2.8l5.2-3l5.5-3.5l4.5-3.2l4.8-3.7l5.7-4.8l7.8-6.9l7.6-7.1l4.6-4.2l3.3-2.6l3.4-2.3l3.6-2.1
	l3.7-1.8l3.8-1.6l3.9-1.3l4-1l4.1-0.7l4.1-0.4l4.3-0.1l4.4,0.1l4.3,0.4l4.3,0.7l4.2,1l2.8,0.8l13.2,4.8l0.9,0.8l0.7,1l0.4,1.1
	l0.2,1.2l-0.1,1.2l-0.4,1.1l-0.6,1l-12.6,18.3l-1.1,0.8l-1.2,0.6l-1.3,0.3l-1.4,0l-1.3-0.3l-1.3-0.5l-1-0.5l-4.1,5.1l1.1,0.3l1,0.6
	l0.8,0.8l0.6,1l0.4,1.1l0,0.8l-0.3,1.1l-0.5,1l-0.2,0.3l-9.5,12.2l-19.2,22.6l-12.1,12.7l-18.8,18L88.4,219l-1.2,0.6l-1.3,0.3
	l-1.3,0L83.7,219.7 M119.8,155.9l8.9-8.9l8.7-9.1l8.5-9.3l8-8.8l2-1.7l2.2-1.5l2.3-1.2l2.5-1l2.5-0.7l2.6-0.4l2.6-0.2l2.6,0.1
	l2.3,0.4l3.9-5.4l-2.9-0.5l-2.9-0.2l-2.9,0.1l-2.9,0.3l-2.9,0.6l-2.8,0.9l-2.7,1.1l-2.6,1.4l-2.5,1.6l-2.3,1.8l-2.1,2l-0.7,0.7
	l-6.7,6.2l-8.4,7.4l-4.7,3.9l-4.9,3.7l-5,3.5l-5.2,3.3l-1.7,1L119.8,155.9L119.8,155.9"/>
<path class="st0" d="M83.7,175.2l-9.1,0.1l0.2,15.1l-22.5,0.2l-0.8-64.3l10.1-0.1l-0.3-25.9l33.4-0.4l0.2-6.3l6.2-0.2l0.1,6.4
	l43.6-0.6l0.7-1.3l0.6-1.8l0.9-1.6l1-1.1l1.2-1l1.6-0.9l1.8-0.5l1.5-0.1l1.5,0.1l1.8,0.5l1.6,0.9l1.3,1.1l1.2,1.4l0.9,1.6l0.9,2.3
	l0.3,0.2l0-0.2l9.1-0.1l2.9,61l0.2,13.8l3,0l1.6,1.6l-4.6,4.8l-12,0.2l-0.1-0.2l-1.4-2.3l-1.6-1.5l-1.4-0.8l0-1.3l-8.5,0.1l0,0.6
	l-2.9,0.1l-2.2,0.6l-1.9,1.1l-1.7,1.7l-1.3,2.2l-8.4,0.1l-0.1-5.9l-27.6,0.3l0,16.2l-21-0.6L83.7,175.2L83.7,175.2"/>
<path class="st0" d="M108.4,240.2l3.2,3.6l0.4,4.4l-2.2,3.9l-3.3,2l-4.3-0.5l-3.5-2.5l-2.9,10.6l7.9,2l-0.7,5l0,0l-5.1-1.2
	l-3.6,15.9L63.7,276l42.9-179.1l23.2-96.9l25.6,5.8l10.4,2.6l-0.5,1.7l-1,3.8l-4.1-1.2l-0.6,4.4l-9.9,40.2l3.8,1.1l-1.6,6l-7.7-1.9
	l-0.5,2.3l-1.4,6.9l4.4-0.2l5,3.8l1,4.5l-2.6,5.1l-4.6,1.3l2.7,2.2l0.9,3l-0.9,6.1l-3.7,2.6l-5,0l-3.7-2l-2.2,9.9l7.1,1.8l-1.1,4.9
	l-4.5-1l-11.3,46.3l4.5,1.8l-1,4.8l0,0l-5.1-1.4l-6.1,24.6l-4.8,21.3l4.5,1.6l-1.5,5.3l-7.5-1.9l-2.5,9.8l5.1-0.6l4.1,2.4l1.8,5.8
	l-2.8,5.2L108.4,240.2 M141.5,84.4l-2.4-1.7l-1,3.7l2.9-0.7L141.5,84.4 M104.3,238.5l-2.3-1.8l-0.8,3.6l2.7-0.4L104.3,238.5
	L104.3,238.5"/>
<path class="st0" d="M121.4,48.5L121.4,48.5L121.4,48.5L121.4,48.5L121.4,48.5L121.4,48.5L121.4,48.5L121.4,48.5L121.4,48.5
	L121.4,48.5L121.4,48.5L121.4,48.5L121.4,48.5L121.4,48.5L121.4,48.5L121.4,48.5L121.4,48.5l48.9,19.2l0,0l0,0l0,0l0,0l0,0l0,0l0,0
	l0,0l0,0l0,0l0,0l0,0l0,0l0,0l0,0l0,0l-65,166l0,0l0,0l0,0l0,0l0,0l0,0l0,0l0,0l0,0l0,0l0,0l0,0l0,0l0,0l0,0l0,0l-48.9-19.2l0,0l0,0
	l0,0l0,0l0,0l0,0l0,0l0,0l0,0l0,0l0,0l0,0l0,0l0,0l0,0l0,0L121.4,48.5"/>
<path class="st0" d="M36.1,89.2L36.1,89.2l45.7,22.4l0.5-1l0,0l2.1,2l4.4-4.5l3.2,3.1l2.5-2.6l-0.7-0.7l35-36.3l6.4,6.2l1.3-1.3
	l1.7,1.6l-1.2,1.2l21.7,20.9l-1.7,1.8l2.3,2.2l1.9-2l8.3,7.8l1.4-1.4l1.9,1.7l-1.3,1.4l11.1,10.4l-42.4,45.4l-29.8,44.6l-9.3-6.2
	l-1.7,2.5l-3.1-2.1l1.4-2l-13.2-8.8l-25.6-16l-0.9,1.4l-2-1.2l0.9-1.4l-7.5-4.7l26.8-43L77,131l1.9-3l-3.8-2.4l3.3-5.4l-0.7-0.5
	l1.8-3.6L33.5,92.8l0,0L36.1,89.2L36.1,89.2"/>
<path class="st0" d="M90.6,104.2L105,84.1l-0.2-0.1l0.2-0.4l0.4-0.3l3.2,2.4l5.3,4l0.4-0.5l0,0l0.5,0.4l-0.4,0.7l4.8,3.1l0.3-0.4
	l0.5,0.5l0.4,0.3l25.2,18.1l0,0.1l0.2,0.1l35.5,25.5l0,0l0.6,0.4l4.2,3.1l-1,1.3l1.8,1.3l0.3,0.5l-0.6,39.9l-26.4-0.4l-12.6-0.3
	l0.2-13.7l-63.3-0.8l-5.3-0.2l-3.4,9.7l-0.6-0.2l0.1-0.2l-5.4-1.9l-0.1,0.1l-0.3-0.2L68,178l-0.2-0.1l-1.7,2.4l0.2,0.1l-0.3,0.3
	l-0.2-0.1l-1.6,2.2l0.2,0.1l-0.3,0.4l-0.2-0.1l-0.2,0.2l-0.2-0.2l-0.1,0.2l-0.4-0.3l0.1-0.2l-2.2-1.6l-0.1,0.2l-0.4-0.3l0.1-0.1
	l-2.2-1.6l-0.2,0.2l-0.8-0.6l0.3-0.4l-4.6-3.3l-0.3,0.4l-0.5-0.4l0.3-0.4l-4.7-3.4l-0.2,0.3l-0.8-0.6l0.1-0.2l-7.9-5.5l0.1-0.3
	l-2.2-1.5l-0.1,0.2l-0.4-0.3l0.1-0.2l-1.6-1.1l-0.1,0.2l-1-0.8l0.2-0.4l-2.1-1.5l-0.3,0.3l-0.5-0.3l1.4-1.9l-3.1-2.2l0.1-0.1
	l6.9-9.7l0.2,0.2l1.9-2.6l10.8,7.8l14.5-20.1l-10.8-7.7l2-2.7l-0.2-0.2l2.3-3.2l0.2,0.2l1.2-1.7l-0.2-0.1l0.3-0.4l0.2,0.1l1.3-1.7
	l-0.2-0.1l0.3-0.4l0.2,0.1l1.3-1.7l-0.2-0.1l0.3-0.4l0.2,0.1l1.3-1.8l-0.2-0.1l0.3-0.4l0.2,0.1l1.3-1.7l-0.2-0.1l0.3-0.4l0.2,0.1
	l1.3-1.7l-0.2-0.1l0.3-0.4l0.2,0.1l1.2-1.7l-0.2-0.2l0.6-0.9l0.5,0.3l5-7.9l0.6,0.4l1.1-1.6L90.6,104.2L90.6,104.2"/>
<path class="st0" d="M191.7,165.4L191.7,165.4l-6,0.1l-0.1-2.7l-0.8,0l0,1.4l-94.4,2.5l0-1.4l-0.8,0l0.1,2.7l-6,0.2l-0.1-2.7l-0.8,0
	l0,1.4l-56.6,1.5l-1.3-49l-0.6,0l-0.1-5.9l8.5-0.2l0,1.6l60.2-1.6l0-0.2l2.6-0.1l0.2,6l8.9-0.3l-0.2-6l2.6-0.1l0,0.2l68.2-1.8
	l0.5,17.3l16-0.4l0.3,9.2l24-0.6l0.7,26.8l-24.4,0.6l0-1.4l-0.8,0L191.7,165.4L191.7,165.4"/>
<path class="st0" d="M94.1,74.7L94.1,74.7l42.9,33.7l2-2.5l-3.8-3l2.2-2.8l-0.7-0.6l0.1-0.1l17.9,14.1l-0.1,0.1l-0.4-0.3l-2.1,2.6
	l-0.4-0.3l-0.1,0.1l0.3,0.2l-1.7,2.2l-10.7-8.4l-0.3,0.3l43,33.9l-20,25.4l6.2,4.9l-24.8,31.5l-6.2-4.9l-5.1,6.5l-40.8-32.1l0.2-0.3
	l-6.6-5.2l-0.2,0.3l-40.8-32.1l5.1-6.5l-6.2-4.9l24.8-31.6l6.2,4.9L94.1,74.7 M160.2,178.1l-2.9-2.3l-14.9,18.9l3,2.3L160.2,178.1
	 M136.4,118.4l-6.6-5.2l-41.1,52.3l6.6,5.1L136.4,118.4 M51.3,123.1l3,2.3l14.9-18.9l-3-2.3L51.3,123.1L51.3,123.1"/>
</svg>
