<?xml version="1.0" encoding="utf-8"?>
<!-- Generator: Adobe Illustrator 26.0.2, SVG Export Plug-In . SVG Version: 6.00 Build 0)  -->
<svg version="1.1" id="Ebene_1" xmlns="http://www.w3.org/2000/svg" xmlns:xlink="http://www.w3.org/1999/xlink" x="0px" y="0px"
	 viewBox="0 0 283.5 283.5" style="enable-background:new 0 0 283.5 283.5;" xml:space="preserve">
<style type="text/css">
	.st0{fill:none;stroke:#000000;stroke-width:0.1;stroke-linejoin:round;}
</style>
<path class="st0" d="M105,146.3l-2.5,3.9l-8.3-5.4l5.5-8.4l8.3,5.4l-1.6,2.5l5.5,3.6l0.9-1.4l0.7-0.9l1.7,0l1.7,0.2l1.7,0.4l1.6,0.6
	l1.4,0.8l2.1-3.3l-13.3-8.5l4.8-7.4l-0.7-0.4l1.6-2.5l36.7,23.7l-5.6,8.6l-21.6-13.8l-2.8,4.6l1.3,1.3l1,1.3l0.9,1.5l0.7,1.6
	l-0.8,1.4l-1,1.3l-1.1,1.2l-1.3,1l-1.4,0.8l-1.6,0.7l-1.6,0.5l-1.7,0.3l-1.7,0l-1.7-0.2l-0.9-1.5l-0.7-1.6l-0.5-1.7l-0.3-1.7l0-1.7
	l0.2-1.6l0.3-1.4L105,146.3L105,146.3"/>
<path class="st0" d="M179.7,193.9l5.8-1.2l1.3,0.1l0.2-1.3l0.5-1.3l0.7-1.1l0.9-1l1.1-0.8l1.2-0.6l1.3-0.3l1.3-0.1l1.3,0.2l1.3,0.4
	l1.2,0.6l1,0.8l0.9,1l0.7,1.2l0.4,1.3l0.1,1.1l-0.1,1.1l-0.3,1.1l-0.4,1l-0.6,0.9l-0.7,0.8l-0.8,0.7l-0.9,0.6l-1.5,0.6l-1,0.2
	l-1.6,0l-1.5-0.4l-1.4-0.7l-1-0.7l-0.8-0.9l-0.5-0.8l-1.7,0.3l-8,1.8l-2.5,6.9l5.3,1.9l-12.3,34.9l-34.5-12.1l12.3-34.9l1.2,0.4
	l1.2-3.4l-17.6-6.2l8.5-24l-5.4-1.9l-4.7,12.5l-28.8-10.1l4.8-12.4l-5.9-2.1l-7.1,19.9L75.9,162l-14.5,41.1l-5.1-1.8l11.6-33.1
	l-13.5-4.9l2.6-7.1L45.2,152l7.1-20.5l-9.5-3.3l7.4-20.7l30.7,10.8l10.6-30.9L85,85.1l5.7-16.4l-4.2-1.5l1.3-3.7l3.1,1.1l-0.8,2.2
	l1,0.3l6.7-18.9l-2.8-0.9l1.6-4.8l-16.7-5.5l4.3-12.3l15.1,5.1l1.2-3.3l2.2-6.2l26.8,9.4l-22.1,62.5l-14-4.9l-5,14.3l-5.9,17.1
	l36.4,12.8l0.5-1.4l4.2,1.5l-7.7,21.8l7.9,2.8l7.7-21.8l4.2,1.5l-0.5,1.4l17.4,6.1l1.7-5.1l47.8,16.8l-9.3,26.3l-4.6-1.6l0.3-0.8
	l-3.3-1.2L179.7,193.9L179.7,193.9"/>
<path class="st0" d="M120.8,151.4l-1-0.5l-1.2-0.8l-1-1.1l-0.7-1.2l-0.4-1.3l-0.2-1.4l0.1-1.4l0.4-1.4l0.7-1.3l0.9-1.1l1.1-0.8
	l1.3-0.6l1.4-0.3l1.4,0l1.4,0.3l1.3,0.6l1.2,0.8l1,1.1l0.7,1.2l0.4,1.4l0.1,1.4l-0.2,1.4l-0.4,1.4l-0.7,1.2l-1,1.1l-1.2,0.8
	l-1.3,0.6l-1.4,0.3l-1.4,0l-1.4-0.3L120.8,151.4L120.8,151.4"/>
<path class="st0" d="M118.5,157.7L118.5,157.7l0.3-4l-1.7-0.1l-1.7-0.4l-1.6-0.7l-1.4-1l-1.3-1.3l-1-1.5l-0.7-1.7l-0.4-1.8l-0.1-1.8
	l0.3-1.8l0.7-1.7l1-1.6l1.2-1.4l1.4-1.1l1.7-0.8l1.8-0.5l1.8-0.2l1.8,0.2l1.8,0.5l1.6,0.8l1.7-0.6l1.8-0.3l1.8,0l1.8,0.4l1.7,0.7
	l1.5,1l1.3,1.3l1.1,1.5l0.8,1.7l0.5,1.8l0.1,1.8l-0.2,1.8l-0.6,1.7l-0.9,1.6l-1.1,1.4l-1.4,1.2l-1.7,0.9l-1.8,0.6l-1.9,0.2l-1.9-0.1
	l-0.3,4.1L118.5,157.7L118.5,157.7"/>
<path class="st0" d="M120.5,147.8L120.5,147.8L120.5,147.8L120.5,147.8L120.5,147.8L120.5,147.8L120.5,147.8L120.5,147.8
	L120.5,147.8L120.5,147.8L120.5,147.8L120.5,147.8l-1-3.8l0,0l0,0l0,0l0,0l0,0l0,0l0,0l0,0l0,0l0,0l0,0l2.8-2.8l0,0l0,0l0,0l0,0l0,0
	l0,0l0,0l0,0l0,0l0,0l0,0l3.8,1l0,0l0,0l0,0l0,0l0,0l0,0l0,0l0,0l0,0l0,0l0,0l1,3.8l0,0l0,0l0,0l0,0l0,0l0,0l0,0l0,0l0,0l0,0l0,0
	l-2.8,2.8l0,0l0,0l0,0l0,0l0,0l0,0l0,0l0,0l0,0l0,0l0,0L120.5,147.8"/>
<path class="st0" d="M123.5,205.1l-9.7-8.1l-1,1.2l-7.2-6.1l1.1-1.3l-19.5-16.7l6.4-7.6l3.4,2.9l0,0l6.1-7.1l-5.8-5l-0.8,1l-15-12.8
	l48.2-56.8l15,12.8l-0.9,1.1l14.7,12.4l-2,2.4l5.1,4.4l-0.8,0.9l5.5,4.8l-4.6,5.6l-3.6,4.7l-2.5-2.1l-1.5,1.5l0.6,0.8l0.5,1l0.2,1
	l0,1.1l-0.2,1l-0.5,1.2l-0.6,0.9l-0.8,0.7l-0.9,0.5l-1,0.4l-1.1,0.1l-0.9,0l-2.2,2l1.4,0.9l0,0l-5.4,6.3l-2.3-2l-0.8,1l-2.4,0.5
	l-0.6-0.5l-0.8,0.9l-1.1-0.9l-0.7-0.8l-2,2.7l0,0l-5-4.3l-1.2,1.4l-6.7-5.8l-14.1,17l-0.9-0.8l0,0l-6.1,7.1l14.2,12.1l-0.3,0.4
	l6.9,6.6l-0.3,0.4l6.2,5.2l0.7-0.8l-0.9-0.7l1.5-1.7l0.8,0.7l1.4-1.7l19,16.2l-3.5,4.1l0.4,0.4l1.4-1.4l3.2,2.7l0,0l-1.3,1.4
	l2.6,2.2l-2.6,3.1l9.6,8.1l-2.8,3.3L123.5,205.1 M139,146.1l2.8-3.1l4.1,3.5l1.5-1.2l-0.8-0.6l-0.7-0.8l-0.5-0.9l-0.4-1.3l-0.1-1.1
	l0.1-1.1l0.3-1l0.5-0.9l0.7-0.8l0.9-0.6l1-0.5l1-0.3l1.1,0l1,0.2l0.9,0.3l1.7-1.5l-1.2-1l0,0l1.8-0.6l3-3.4l-1.5-1.4l-2.2,2.5
	l-5-4.3l-1.2,1.4l-6.4-5.4l-10.7,12.6l6.4,5.4l-2,2.3L139,146.1L139,146.1"/>
<path class="st0" d="M91.1,152.5l0.7,1.5l0.4,1.6l0.2,1.7l0,1.7l-0.3,1.7l-0.5,1.5l-0.7,1.5l-1,1.4l-1.1,1.2l-1.3,1l-1.4,0.8
	l-1.5,0.6l-1.6,0.4l-1.7,0.1l-1.7-0.1l-1.6-0.3l-1.6-0.6l-1.5-0.8l-1.3-1l-1.2-1.2l-1-1.3l-0.8-1.5l-0.6-1.6l-0.3-1.6l-0.1-1.7
	l0.2-1.7l0.4-1.6l0.6-1.5l0.9-1.5l1-1.2l1.2-1.1l1.4-0.9l1.5-0.7l1.6-0.5l1.6-0.3l1.7,0l1.7,0.2l1.6,0.5l0.6,0.3l20.2-20.2l-4.2-0.1
	l0.1-6.6l4.3,0.1l-1.6-1.3l-1.4-1.6l-1.1-1.8l-0.8-2l-0.4-2.1l-0.1-2.5l0.2-1.7l0.6-2l0.9-1.9l1.2-1.7l1.5-1.5l1.7-1.2l1.9-0.9
	l2-0.6l2.1-0.2l2.2,0.1l2.1,0.5l2,0.8l1.8,1.2l1.6,1.5l1.3,1.7l1,1.9l0.7,2l0.3,2.1l-0.1,2.2l-0.4,2.1l-0.8,2l-1.1,1.9l-1.4,1.6
	l-1.7,1.4l0,6.8l9.3,9.5l1-0.9l-1.1-1.3l0.1-0.5l3.4-3.4l0.5,0l1.1,1.1l0.5-0.4l5.8,5.9l1.4,0.1l0.7,0.7l-0.1,0.6l0.7,0.8l-0.7,0.7
	l3.5,3.5l0,0.4l-0.1,0.4l-0.4,0.4l0.9,0.9l9.3-1.2l1-1l-0.7-0.7l6.3-6.3l3.4,3.4l2.1-2.1l18.4,18.7l-2.1,2l3.7,3.4l-0.1,0.1
	l-6.5,6.3l-3.4-3.5l-4.3,4.2l-18.4-18.7l4.2-4.2l-1.4-1.5l-1.5,1.5l-10.7,1.4l-1.5-1.4l-1.6,1.5l-0.4,0.1l-0.5-0.2l-1.9-1.5
	l-1.1,1.4l0.3,0.3l-1.6,2.1l-2.7-2.1l1.6-2.1l0.4,0.3l1.1-1.4l-3.7-3l-2.4,2.8l0.8,1.1l-5.6,3.6l-0.5-0.1l-0.3-0.3l-0.8,0.7
	l17.8,17.7l0.3-0.3l1.3,0.3l0.9,0.9l0.4,1.4l-1.9,1.9l-0.6-0.1l-0.7,0.7l-0.1,1.4l-2.4,2.4l-0.6,0l-0.8,0.8l0,0.6l-2.4,2.4l-1.4,0
	l-0.7,0.7l0.1,0.6l-1.9,1.9l-1.4-0.4l-0.9-0.9l-0.4-1.3l0.3-0.3l-8.3-8.4l-1.4,1.4l1.4,1.6l-0.1,0.4l0,0.1l-1.4,1.3l-0.4,0l-0.1,0
	l-3.6-3.8l0-0.4l0.2-0.3l1.2-1.1l0.4,0l0.4,0.2l0.1,0.2l1.4-1.4L101.8,151l-0.3,0.3l-1.3-0.4l-0.9-0.9l-0.4-1.4l1.9-1.9l0.6,0.1
	l0.7-0.7l0-1.4l1.3-1.3l-1.9-1.9L91,152.2L91.1,152.5 M109.8,138.4l0.7-0.7l-0.1-0.6l1.9-1.9l1.4,0.4l0.9,0.9l0.4,1.3l-0.3,0.3
	l7.7,7.9l0.7-0.8l-0.5-0.7l0-0.4l0.1-0.4l2.5-2.5l-9.3-9.3l-4.6-0.1l-5.9,5.9l1.9,1.9l1.2-1.2L109.8,138.4L109.8,138.4"/>
<path class="st0" d="M172.9,122.2L172.9,122.2L154,146.6l-11.3,14.8l-11,13.8l8.2,3.8l-0.6,1.2l-8.5-4l-17.5,22.3L112,198l-1.4,1.8
	l-18.4-8.5l1.1-10.3l8.1-82.9l0,0l57,18.7l0.4-0.5l14.6,4.8l0.2,0.2L172.9,122.2L172.9,122.2"/>
<path class="st0" d="M122.5,147.4l-0.6-0.3l-0.6-0.5l-0.4-0.7l-0.2-0.8l0.1-0.8l0.3-0.7l0.5-0.6l0.7-0.4l0.8-0.2l0.8,0.1l0.7,0.3
	l0.6,0.5l0.4,0.7l0.2,0.8l-0.1,0.8l-0.3,0.7l-0.5,0.6l-0.7,0.4l-0.8,0.2l-0.8-0.1L122.5,147.4L122.5,147.4"/>
<path class="st0" d="M90.4,217l-0.1-0.2l-0.4-2l0.2-0.4l0.3-0.3l0.2-0.1l2.5-0.6l-0.2-0.6l-0.7,0.2l-0.4-1.7l-2,1l-2.8,2.7l2.8,5.1
	l0.2,1l-0.1,1.3l-0.3,1.8l-0.6,1.9l-0.7,1.6l-0.9,1.4l-1.1,1.3l-2.4,2.2l-4.6,4l-5.3,4.2l-6.1,4.6l-2.2,1.3l-2.4,1.2l-1.5,0.6
	l0.1,0.1L58,252l-2.8-2.9l-1.8-0.2l-1.8-0.5l-1.7-0.7l-1.7-0.9l-1.6-1.1l-4.1-4.2l-3.9-4.3l-3.7-4.5l-4.4-5.3l-2.4-2.9l-2.3-3.1
	l-2.1-3.2l-2-3.4l-0.6-1l-5.6-5.9l3.9-3.8l0.5-1.5l0.7-1.4l0.8-1.2l4.9-5.8l5.2-5.8l5.2-5.4l3.9-3.9l1.1-0.7l1.2-0.5l1.3-0.3
	l1.3-0.1l1.3,0.2l1.2,0.4l1.1,0.6l1.4,1L72.4,197l6.4,5.5l2.3,2.2l0.9,1.3l0.4,0.8l4.2-1.2l3.3-1.6l-0.7-2.1l-1-2.4l-1.2-2.3
	l-1.4-2.2l-2-2.5l-1.8-1.9L80,189l-2.1-1.5l-2.2-1.4l-3.1-1.6l-2.6-1.1l-0.7-0.2l-7.2-2l0.1-0.5l-0.7-0.2l-0.8,2.5l-0.3,0.3
	l-0.5,0.1l-0.2,0l-1.9-0.6l-0.3-0.3l-0.1-0.5l0-0.2l3.6-12.3l0.3-0.3l0.5-0.1l0.2,0l1.9,0.6l0.3,0.3l0.1,0.5l0,0.2l-0.8,2.7l0.7,0.2
	l0.2-0.9l8.9,2.5l3.6,0.6l3.7,0.2l3.7-0.3L88,175l1.7-0.5l3.4-1.4l3.2-1.7l3-2.1l2.7-2.5l4.9-4.7l0.5,0.6l0.4-0.4l-1.9-2l-0.1-0.5
	l0.1-0.4l0.1-0.2l1.5-1.5l0.5-0.1l0.4,0.1l0.2,0.1l2.3,2.4l3.2-3l-1.6-2.5l-1.3-2.6l-1-2.8l-0.7-2.9l-0.3-3l0.1-3l0.4-2.9l0.8-2.9
	l1.2-2.8l1.5-2.7l1.8-2.5l2.1-2.2l2.4-1.9l2.6-1.6l2.8-1.2l-1.1-4.2l-3.7,0.9l-0.5-0.1l-0.4-0.4l-0.1-0.2l-0.4-1.9l0.1-0.5l0.4-0.4
	l0.2-0.1l2.7-0.7l-0.2-0.9l-3.6,0.9l-9.5,2.2l-2-8.2l-1-2.3l-1.3-2.2l-1.9-2.4l-2.4,2.4l2.8,2.9l-4.7,4.6l0,0l12.2,12.6l-3.1,3
	l1.2,1.3l-1.2,1.1l-2.2-2.4l-3.1,2.7L68.9,92.9l4.4-4.3l2.2,2.3l2.9-2.8L91.7,102l0,0l4.7-4.5l2.9,3l2.3-2.4l-2.4-1.7l-2.4-1.3
	l-2.5-0.9l-6.1-1.6l3.5-13l-1-0.3L90,82.2l-0.3,0.3l-0.5,0.1l-0.2,0l-1.8-0.5l-0.3-0.3l-0.1-0.5l0-0.3l0.7-2.6l-0.9-0.3l-0.2,0.8
	l-2.6,8.3l-7.2-2.3l-2.9-0.5l-3-0.1l-2.8,0.3l-2.6,0.6L62.8,86l-1.2,0.6l-3.9-7.9l-2.9,1.6l-3,2.1l-2.7,2.4l-4.8,4.6l-0.5-0.5
	l-0.7,0.7l1.9,2.1l0.1,0.4L45,92.5l-0.1,0.2l-1.5,1.4l-0.5,0.1l-0.4-0.1l-0.2-0.1l-8.8-9.3l-0.1-0.5l0.1-0.4l0.1-0.2l1.5-1.4
	l0.5-0.1l0.4,0.1l0.2,0.1l1.8,1.9l0.7-0.6L38.2,83l6.2-6l1.3-1.4l2-2.6l1.3-2.1l0.5-1l-7.7-3.9l1.1-2.5l0.8-2.6l0.5-2.7l0.1-2.8
	L44,52.5l-0.6-2.7l-1.5-6.6l9.6-2.3l-0.2-0.8L48,41l-0.4-0.1l-0.3-0.3l-0.1-0.2l-0.5-2l0.1-0.5l0.3-0.3l0.2-0.1l12.3-3l0.5,0.1
	l0.3,0.3l0.1,0.2l0.5,2l-0.1,0.5l-0.3,0.3L60.3,38l-2.9,0.7l0.2,0.7l5.1-1.3l-2.2-9l23.4-5.7l4,16.5l0.4,0.7l0.6,0.5l0.7,0.4
	l19.3,5.6l1,0l0.9-0.3l0.8-0.6l8.7-8.3l-1.3-1.4l7.7-7.4l-5.5-5.8l11-10.4l5.5,5.8l1.3-1.2l17.3,18.2l1.4-1.3l30.3,31.2l-2.7,2.6
	l5.4,5.7l-10.9,10.4l-5.4-5.6l-7.8,7.5l-1.4-1.5l-8.8,8.5l-0.5,0.8l-0.3,0.9l0,0.9l0.1,0.5l3.2,12.4l-23.4,6.1l-1.5-5.9l-4.6,1.2
	l0.2,0.9l2.7-0.6l0.5,0.1l0.4,0.4l0.1,0.2l0.4,1.9l-0.1,0.5l-0.4,0.4l-0.2,0.1l-3.2,0.8l1,4.2l2.5-0.2l2.5,0.1l2.5,0.3l2.5,0.6
	l2.5,0.9l2.4,1.1l2.2,1.4l1,0.8l3-3.7l2.1,1.9l1.9,2.1l1.7,2.2l1.5,2.4l1.3,2.7l1,2.8l0.7,2.9l0.3,1.5l-4.7,0.7l0.2,2.4l0,2.5
	l-0.2,2.3l0,0.2l4.1,1.2l1.2-3.7l0.4-0.2l0.4,0l2.3,0.8l0.2,0.4l0,0.4l-0.8,2.6l0.8,0.2l0.3-0.8l9,2.6l3.5,0.6l3.6,0.2l3.6-0.3
	l3.5-0.7l3.5-1.1l3.3-1.6l3.1-2l2.8-2.3l6.2-5.9l0.5,0.6l0.5-0.5l-1.9-2l-0.1-0.4l0.1-0.4l0.1-0.2l1.8-1.5l0.4,0l0.3,0.2l1.8,1.9
	l0.7-0.7l-0.5-0.5l7.5-7.3l2.1-2.8l1.8-3l1.4-3.2l1-3.4l0.7-3.5l0.3-3.5L227,103l-0.5-3.4l-1.9-7.7l1.2-0.3l-0.3-1.1l-3.6,0.8
	l-0.4-0.2l-0.2-0.4l-0.4-2.3l0.2-0.4l0.4-0.2l12.6-2.9l0.3,0.2l0.2,0.4l0.4,2.3l-0.2,0.4l-0.4,0.2l-2.9,0.7l0.2,1l1.2-0.3l1.9,7.8
	l0.9,2.7l1.1,2.6l1.9,3.3l1.1,1.5l2.4,2.9l1.4,1.3l3,2.4l2,1.3l1.3,0.7l3.5,1.6l3.6,1.2l6,1.7l-0.3,0.9l0.8,0.2l1-3.1l0.3-0.2l0.4,0
	l2.3,0.8l0.2,0.4l0,0.4l-3.7,12.6l-0.3,0.2l-0.4,0l-2.3-0.8l-0.2-0.3l0-0.4l1-3.3l-0.8-0.2l-0.4,1.4l-7.9-2.3l-3.8-0.7l-3.9-0.2
	l-3.9,0.3l-1.9,0.3l-3.6,0.9l-3.3,1.3l-3.2,1.6l-3,2l-2.7,2.3l-5,4.9l-0.3-0.3l-0.7,0.7l2,2.1l0.1,0.4l-0.1,0.4l-0.1,0.2l-1.8,1.5
	l-0.4,0l-0.4-0.2l-1.8-1.9l-0.5,0.5l0.4,0.4l-6.2,5.9l-2.4,2.8l-2,3l-0.9,1.6l-1.4,3.4l-1,3.3l-0.6,3.4l-0.2,3.5l0.2,3.5l0.4,2.6
	l0.3,1.3l1.8,6.9l-1,0.3l0.2,0.8l3.3-0.8l0.3,0.2l0.2,0.3l0.5,2.5l-0.2,0.3l-0.3,0.2l-12.9,3.3l-0.4-0.3l-0.1-0.2l-0.5-2.5l0.2-0.3
	l0.3-0.2l3-0.8l-0.2-0.8l-1,0.3l-2.6-9.5l-1-2.4l-0.3-0.7l-2-3.2l-0.4-0.5l-5.9,4.5l1.8,2.5l1.6,2.6l1.4,2.7l1.5,3.5l1,2.9l0.2,0.7
	l15.8,16.7l-23.3,22.1l-2.9-2.9l-2.6,2.6l5.7,6l0,1l-1.7,1.6l-1,0l-2.2-2.2l-5.5,5.3l-4.4,4l-2.2,1.6l-2.3,1.4l-2.7,1.4l-2.8,1.2
	l-2.4,0.8l-2.9,0.7l-2.9,0.4l-2.9,0.2l-2.5,0l0,0l1.1-10.9l-1,3.3l-3.3-0.4l-3.5-0.8l-2.9-0.9l-2.8-1.1l-2.8-1.3l-2.7-1.4l-2.5-1.6
	l-2.4-1.8l-1.2-1l-5.4,5.5l2.3,1.6l2.2,1.3l2.3,1.1l2.4,0.9l1.8,0.6l6.6,1.9l-0.2,0.7l0.6,0.2l0.9-2.8l0.4-0.3l0.5-0.1l0.2,0l2,0.7
	l0.3,0.4l0.1,0.5l0,0.2l-3.7,12.2l-0.4,0.3l-0.6,0.1l-1.7-0.5l-0.4-0.2L130,258l-0.1-0.4l0-0.2l0.7-2.4l-0.6-0.2l0.7-2.3l-9-2.7
	l-2.5-0.4l-3.2-0.2l-2.6,0l-3.2,0.4l-2.5,0.5l-2.5,0.7l-2.4,0.9l-2.9,1.4l-2.2,1.4l-2.1,1.5l-1.9,1.7l-7.5,7l0.7,0.8l-0.5,0.4
	l2.1,2.3l0,0.5l-0.2,0.4l-0.2,0.2l-1.6,1.4l-0.5,0l-0.5-0.2l-0.1-0.1l-8.7-9.2l0-0.5l0.2-0.5l1.2-1.2l0.5-0.3l0.5,0l0.4,0.2l0.1,0.1
	l1.9,1.9l0.5-0.4l-0.5-0.5l7.1-7.1l1.6-2L92,248l1.2-2.3l1.2-3l0.8-2.5l0.5-2.5l0.3-2.6l0.1-3.2l-0.1-2.6l-0.4-2.6l-0.6-2.5
	l-1.6-6.6l0.7-0.2l-0.2-0.6l-2.9,0.6l-0.4-0.2L90.4,217 M156,152.1l-0.9,2l-1.3,2.1l-1.4,1.8l-0.2,0.2l2.8,0.4l2.8,0.5l3.3,0.9
	l2.1,0.7l2.6,1.1l2.7,1.3l2.6,1.5l2.5,1.7l2.4,1.9l2.2,2l5-5.1l-2.8-2.3l-1.7-1.2l-1.8-1.1l-2.1-1.1l-1.6-0.7l-1.9-0.7l-7.2-2.1
	l0.2-0.6l-0.8-0.2l-1,3l-0.4,0.2l-0.4,0l-2.3-0.8l-0.2-0.4l0-0.4l1-3.5l-4.1-1.2L156,152.1 M109.4,185.5L109.4,185.5l-3.8-4.1
	l17.6-16.7l-2.1-1.1l-1.9-1.3l-1.2-0.9l-3.1,3l2.5,2.6l0.1,0.5l-0.1,0.4l-0.1,0.2l-1.5,1.5l-0.5,0.1l-0.4-0.1l-0.2-0.1l-1.7-1.7
	l-0.5,0.5l0.6,0.6l-6.2,5.9l-2.3,2.6l-2.2,3l-1.2,1.9l-0.4,0.8l10.5,3.5l1.2-2.6l1.3-2.4L109.4,185.5 M99.6,193l-1.4-0.4l-0.2,2.5
	l0,2.6l0.2,2.6l0.5,2.5l2,7.9l-0.7,0.2l0.2,0.6l2.9-0.6l0.4,0.2l0.3,0.5l0,0.1l0.4,2l-0.2,0.4l-0.4,0.3l-0.2,0.1l-2.5,0.6l0.2,0.6
	l0.7-0.2l2.5,9.7l0.9,2.4l1.1,2.3l1.3,2.2l1.5,2.1l0.9,1.1l5.4-5.5l-1.9-2.4l-1.8-2.5l-1.6-2.6l-1.7-3.4l-1.4-3.5l-0.9-2.9l-0.7-3
	l-0.5-3.8l-0.2-3l0-3l0.2-3l0.3-2.3L99.6,193L99.6,193"/>
</svg>
