<?xml version="1.0" encoding="utf-8"?>
<!-- Generator: Adobe Illustrator 26.0.2, SVG Export Plug-In . SVG Version: 6.00 Build 0)  -->
<svg version="1.1" id="Ebene_1" xmlns="http://www.w3.org/2000/svg" xmlns:xlink="http://www.w3.org/1999/xlink" x="0px" y="0px"
	 viewBox="0 0 99.5 283.5" style="enable-background:new 0 0 99.5 283.5;" xml:space="preserve">
<style type="text/css">
	.st0{fill:none;}
	.st1{fill:none;stroke:#000000;stroke-width:0.1;stroke-linejoin:round;}
</style>
<rect class="st0" width="99.5" height="283.5"/>
<path class="st1" d="M8,257.2l-3.4-36.8l8.7-1.1l-1.7-18.8l10.3-1.3l-5.5-58.8l4.4-11.3l-10.6-3.8l4.4-11.3l-4.8-1.8l3.3-8.7
	l19.9-50.9l-5.4-2l7.8-20.1l29,10.4l11-28.3L89.4,18l-2.4,6.3l8.1,2.9L80,65.5l-5.8-2.1l-25.8,66.4l6.5,69.5l6.9-0.8l6.4,66.6
	l-30.8,5.5l0,0l-1.2-16.6L8,257.2L8,257.2"/>
<rect class="st0" width="99.5" height="283.5"/>
<path class="st1" d="M50.2,129.3L50.2,129.3L50.2,129.3L50.2,129.3L50.2,129.3L50.2,129.3L50.2,129.3L50.2,129.3L50.2,129.3
	L50.2,129.3L50.2,129.3L50.2,129.3L50.2,129.3L50.2,129.3L50.2,129.3L50.2,129.3L50.2,129.3l10.4,27.2l0,0l0,0l0,0l0,0l0,0l0,0l0,0
	l0,0l0,0l0,0l0,0l0,0l0,0l0,0l0,0l0,0L43.6,163l0,0l0,0l0,0l0,0l0,0l0,0l0,0l0,0l0,0l0,0l0,0l0,0l0,0l0,0l0,0l0,0l-3.4-8.7
	l-10.1,3.8l0,0l0,0l0,0l0,0l0,0l0,0l0,0l0,0l0,0l0,0l0,0l0,0l0,0l0,0l0,0l0,0l-7-17.9l0,0l0,0l0,0l0,0l0,0l0,0l0,0l0,0l0,0l0,0l0,0
	l0,0l0,0l0,0l0,0l0,0l10.7-4.3l-0.7-1.8l0,0l0,0l0,0l0,0l0,0l0,0l0,0l0,0l0,0l0,0l0,0l0,0l0,0l0,0l0,0l0,0l7.6-3.1l0,0l0,0l0,0l0,0
	l0,0l0,0l0,0l0,0l0,0l0,0l0,0l0,0l0,0l0,0l0,0l0,0l0.7,1.8L50.2,129.3"/>
<rect class="st0" width="99.5" height="283.5"/>
<path class="st1" d="M46.8,144.9L46.8,144.9L46.8,144.9L46.8,144.9L46.8,144.9L46.8,144.9L46.8,144.9L46.8,144.9L46.8,144.9
	L46.8,144.9L46.8,144.9L46.8,144.9L46.8,144.9L46.8,144.9L46.8,144.9L46.8,144.9L46.8,144.9l-0.6,3.9l0,0l0,0l0,0l0,0l0,0l0,0l0,0
	l0,0l0,0l0,0l0,0l0,0l0,0l0,0l0,0l0,0l-8.3-1.5l0,0l0,0l0,0l0,0l0,0l0,0l0,0l0,0l0,0l0,0l0,0l0,0l0,0l0,0l0,0l0,0l0.7-3.8l0,0l0,0
	l0,0l0,0l0,0l0,0l0,0l0,0l0,0l0,0l0,0l0,0l0,0l0,0l0,0l0,0L46.8,144.9"/>
<rect class="st0" width="99.5" height="283.5"/>
<path class="st1" d="M43.8,172.9l-7.3-0.3h0l-1.5-0.1l-5.1-0.2h0L23,172l0,0l0,0l0,0l0,0l0,0l0,0l0,0l0,0l0,0l0,0l0,0l0,0l0,0l0,0
	l0,0l0,0l0.8-19.4l0-0.7l0,0l0.4-13.8l0.4-13.4l0,0l0,0l0,0l0,0l0,0l0,0l0,0l0,0l0,0l0,0l0,0l0,0l0,0l0,0l0,0h0l41.9,1.9h0l0.6,0
	l0,0l0,0l0,0l0,0l0,0l0,0l0,0l0,0l0,0l0,0l0,0l0,0l0,0l0,0l0,0l0,0l-0.8,22.4l-0.2,4.6l0,0l0,0.1l0,0l0,0l0,0l0,0l0,0l0,0l0,0l0,0
	l0,0l0,0l0,0l0,0l0,0l0,0l0,0l0,0l-0.6,0L48,152.8l-0.2,3.5l1.1,3.7l0,0l0,0l0,0l-0.6,13.1l0,0l0,0l0,0l0,0l0,0l0,0l0,0l0,0l0,0l0,0
	l0,0l0,0l0,0l0,0l0,0h0L43.8,172.9"/>
<rect class="st0" width="99.5" height="283.5"/>
<path class="st1" d="M14.2,154.7l-0.5-2.6l-0.1-0.8l-2-11.4l-1.2-6.6l-0.9-5.1l-0.8-4.5l0,0l0,0l0,0l0.1-0.5l0,0l0,0l0,0l0,0l0,0
	l0,0l0,0l0,0l0,0l0,0l0,0l0,0l0,0l0,0l2.7-0.1l5.7-0.1l2.6-0.1l0,0l0,0l0,0l0,0l0,0l0,0l0,0l0,0l0,0l0,0l0,0l0.1,0.2l10.1-0.3
	l17.4-0.5l25-0.7l0,0l0,0l0,0l0,0l0,0l0,0l0,0l0,0l0,0l0,0l0,0l0,0l0,0l0,0l0,0l0,0v0l0,0.4l0.6,16.4l0.5,12.8l0.1,2l0.1,3.7
	l0.3,6.8l0,0l0,0l0,0l0,0l0,0l0,0l0,0l0,0l0,0l0,0l0,0l0,0l0,0l0,0l0,0l0,0l-11.7,0.3l0.1,1.8v0l0.3,6v0l0,0l0,0l0,0l0,0l0,0l0,0
	l0,0l0,0l0,0l0,0l0,0l0,0l0,0l0,0l0,0L51.7,172l-34.6,0.4l0,0l0,0l0,0l0,0l0,0l0,0l0,0l0,0l0,0l0,0l0,0l0,0l0,0l0,0l0,0l-0.3-1.9
	l-0.8-5.4l-0.8-5.5l-0.2-1.3L14.2,154.7"/>
<rect class="st0" width="99.5" height="283.5"/>
<path class="st1" d="M41.1,189.2L41.1,189.2L41.1,189.2L41.1,189.2L41.1,189.2L41.1,189.2L41.1,189.2L41.1,189.2L41.1,189.2
	L41.1,189.2L41.1,189.2L41.1,189.2L41.1,189.2L41.1,189.2L41.1,189.2L41.1,189.2L41.1,189.2l-17.9-4.4l0,0l0,0l0,0l0,0l0,0l0,0l0,0
	l0,0l0,0l0,0l0,0l0,0l0,0l0,0l0,0l0,0L44.1,103l0,0l0,0l0,0l0,0l0,0l0,0l0,0l0,0l0,0l0,0l0,0l0,0l0,0h0l0,0l0,0l17.6,4.4l0,0l0,0
	l0,0l0,0l0,0l0,0l0,0l0,0l0,0l0,0l0,0l0,0l0,0v0l0,0l0,0L41.1,189.2"/>
<rect class="st0" width="99.5" height="283.5"/>
<path class="st1" d="M40.6,122.3L40.6,122.3L40.6,122.3L40.6,122.3L40.6,122.3L40.6,122.3L40.6,122.3L40.6,122.3L40.6,122.3
	L40.6,122.3L40.6,122.3L40.6,122.3L40.6,122.3L40.6,122.3L40.6,122.3L40.6,122.3L40.6,122.3l6.1,3.9l2.4-2.7l0,0l0,0l0,0l0,0l0,0
	l0,0l0,0l0,0l0,0l0,0l0,0l0,0l0,0l0,0l0,0l16.9,11.6l0,0l0,0l0,0l0,0l0,0l0,0l0,0l0,0l0,0l0,0l0,0l0,0l0,0l0,0l0,0l0,0l-23,36.4l0,0
	l0,0l0,0l0,0l0,0l0,0l0,0l0,0l0,0l0,0h0l0,0l0,0l0,0l0,0l0,0l-24.5-14.5l0,0l0,0l0,0l0,0l0,0l0,0l0,0l0,0l0,0l0,0l0,0l0,0l0,0l0,0
	l0,0l0,0L40.6,122.3"/>
<rect class="st0" width="99.5" height="283.5"/>
<path class="st1" d="M25.2,155.5L25.2,155.5l3.7-11.7l0.9,0.2l4.8-14.8l1.3,0.4l1.1-3.4l12,3.6l-1,3.4l12.1,3.6l-3.5,11.8l-3.1,14
	l-10.9-2.7l-0.9,3.5l-15.7-4l0.9-3.5L25.2,155.5L25.2,155.5"/>
<rect class="st0" width="99.5" height="283.5"/>
<path class="st1" d="M67.6,146.1L67.6,146.1L67.6,146.1L67.6,146.1L67.6,146.1L67.6,146.1L67.6,146.1L67.6,146.1L67.6,146.1
	L67.6,146.1L67.6,146.1L67.6,146.1L67.6,146.1L67.6,146.1L67.6,146.1L67.6,146.1L67.6,146.1l1.1,17.1l0,0l0,0l0,0l0,0l0,0l0,0l0,0
	l0,0l0,0l0,0l0,0l0,0l0,0l0,0l0,0l0,0l-23,1.4l0.8,13.9l0,0l0,0l0,0l0,0l0,0l0,0l0,0l0,0l0,0l0,0l0,0l0,0l0,0l0,0l0,0l0,0L29,179.8
	l0,0l0,0l0,0l0,0l0,0l0,0l0,0l0,0l0,0l0,0l0,0l0,0l0,0l0,0l0,0l0,0l-1-14.1l-1.2-17.1l-2.2-32.1l0,0l0,0l0,0l0,0l0,0l0,0l0,0l0,0
	l0,0l0,0l0,0l0,0l0,0l0,0l0,0l0,0l28.1-1.7l0,0l0,0l0,0l0,0l0,0l0,0l0,0l0,0l0,0l0,0l0,0l0,0l0,0l0,0l0,0l0,0l1.9,32.1L67.6,146.1"
	/>
<rect class="st0" width="99.5" height="283.5"/>
<path class="st1" d="M30.8,140.2l21.7-2.5l0,0l0,0l0,0l0,0l0,0l0,0l0,0l0,0l0,0l0,0l0,0l0,0l0,0l0,0l0,0l0,0l1.7,14.6l0,0l0,0l0,0
	l0,0l0,0l0,0l0,0l0,0l0,0l0,0l0,0l0,0l0,0l0,0l0,0l0,0l-21.7,2.5l0,0l0,0l0,0l0,0l0,0l0,0l0,0l0,0l0,0l0,0l0,0l0,0l0,0l0,0l0,0l0,0
	L30.8,140.2L30.8,140.2L30.8,140.2L30.8,140.2L30.8,140.2L30.8,140.2L30.8,140.2L30.8,140.2L30.8,140.2L30.8,140.2L30.8,140.2
	L30.8,140.2L30.8,140.2L30.8,140.2L30.8,140.2L30.8,140.2L30.8,140.2"/>
</svg>
