<?xml version="1.0" encoding="utf-8"?>
<!-- Generator: Adobe Illustrator 26.0.2, SVG Export Plug-In . SVG Version: 6.00 Build 0)  -->
<svg version="1.1" id="Ebene_1" xmlns="http://www.w3.org/2000/svg" xmlns:xlink="http://www.w3.org/1999/xlink" x="0px" y="0px"
	 viewBox="0 0 283.6 260.5" style="enable-background:new 0 0 283.6 260.5;" xml:space="preserve">
<style type="text/css">
	.st0{fill:none;stroke:#000000;stroke-width:0.1;stroke-linejoin:round;}
</style>
<path class="st0" d="M63.4,34.4l13.7-2l1.2,9.5l54.4,0.2l-0.2-4.9l7.6-0.1l0.5,5.3l5.5-0.2l0,12l1.2,10.4l12-1.1l0.5,4.7l16.8-1.7
	l2.4,2.1l0.6,5.2l22.8-2.8l-0.1-2.4l15.1-1.6l0.4,3l1.7,0.6l0.9,1l0.4,2.2l-0.3,1.9l-1.1,1.6l1.9,0.6l1.8,1.3l1,2.7l-0.4,2.7
	l-0.8,2.6l-2.4,2l0.2,0.8l1.8,0.9l0.4,2.1l0,3l-3.4,2.5l0.5,7.6l-11.2,1.5l7,59l32.5-8.4l10.2-0.4l3.1,10.8l-88.5,23.8l0.8,4.1
	l-7.6,1.3l-1.3-3.5L98,214l0.9,5.7l-12.8,2.5l-2.6-15.2l7.4-1L71.7,49.3L65.5,50L63.4,34.4 M163.5,161.4l2.6,13.5l11-1.9l0.9,4.1
	l19.8-5.2l-2.3-14.3L163.5,161.4 M164,109.4l3.2,29.2l23.3-3l-3.8-29.1L164,109.4 M93.9,60l14.9,130.7l40.8-11.6l-9.7-71.3l-7.8,0.8
	l-4.1-34.2l8.8-1.1L135.1,60l-21.5-0.2L93.9,60L93.9,60"/>
<path class="st0" d="M63.3,127.2l81.1-82.6l0,0l0,0l0,0l0,0l0,0l0,0l0,0l0,0l0,0l0,0l0,0l0,0l0,0l0,0l0,0l18.8,15.6l70.7,58.9l0,0
	l0,0l0,0l0,0l0,0l0,0l0,0l0,0l0,0l0,0l0,0l0,0l0,0l0,0l0,0l0,0l-75.7,86l0,0l0,0l0,0l0,0l0,0l0,0l0,0l0,0l0,0l0,0l0,0l0,0l0,0l0,0
	l0,0l0,0L63.3,127.2L63.3,127.2L63.3,127.2L63.3,127.2L63.3,127.2L63.3,127.2L63.3,127.2L63.3,127.2L63.3,127.2L63.3,127.2
	L63.3,127.2L63.3,127.2L63.3,127.2L63.3,127.2L63.3,127.2L63.3,127.2L63.3,127.2L63.3,127.2"/>
<path class="st0" d="M59.5,142l4-9.1l6.7-14.5l-4.1-1.8l26.1-61.8l81.3,31.7l66.5,26.1l-25.9,63.8l0,0l-1.8-0.8l-20.1,50.6
	l-11.2-4.4l16.1-41.9l-4.8-1.8l-68.3-28.9l-6.2,12.7l-34.9-12.6L59.5,142L59.5,142"/>
<path class="st0" d="M87.7,162.4l0-1.6l-7.4-0.2l0,0.2l-0.5,0l0,0.5l0,0l-0.5,0l0,0.4l-0.7,0l0-0.4l-0.4,0l0-0.4l-0.5,0l0-0.3
	l-3.4-0.1l0,1l0.4,0l0,1.1l-0.4,0l0,0.5l-0.4,0l0,0.6l-1,0l0-0.6l-1.8,0l0,0.5l-0.5,0l0,0.5l-0.4,0l0,0.6l-1.3,0l0-0.6l-1.8,0l0,0.6
	l-1.2,0l0-0.5l-0.3,0l0-0.5l-0.6,0l0-1.3l0.8,0l0-1.7l-0.8,0l0-0.3l-1.2,0l0-1.2l-0.5,0l0-0.7l-2-0.1l0,0.7l-1.2,0l0-0.6l-0.4,0
	l0-0.2l-0.7,0l0-1.1l0.7,0l0-2.1l-0.7,0l0-1.1l0.7,0l0-0.3l0.3,0l0-0.5l1.1,0l0,0.6l2.1,0l0-0.5l0.5,0l0.1-6.6l-0.7,0l0-0.5l-0.3,0
	l0-0.3l-0.7,0l0-0.3l-0.3,0l0-0.5l0.3,0l0-0.5l0.6,0l0-0.2l0.4,0l0-0.5l0.7,0l0.1-6.6l-0.8,0l0-0.6l-1.8,0l0,0.6l-1.1,0l0-0.6
	l-0.3,0l0-0.3l-0.5,0l0-1.1l0.5,0l0-2.1l-0.5,0l0-1.1l0.5,0l0-0.3l0.3,0l0-0.5l1.2,0l0,0.5l1.7,0.1l0-0.5l0.2-12.5l-1.8,0l0,0.3
	l-1.2,0l0-0.3l-0.4,0l0-0.4l-0.5,0l0-1.1l0.5,0l0-1.9l-0.5,0l0-1.1l0.5,0l0-0.4l0.3,0l0-0.5l1.1,0l0,0.5l1.9,0l0-0.5l0.9,0l0.1-6.2
	l-0.8-0.3l0-0.6l-0.4,0l0-0.3l-0.6,0l0-0.3l-0.3,0l0-0.3l0.3,0l0-0.3l0.7,0l0-0.3l0.4,0l0-0.6l0.7,0l0-2.1L64.9,97l-0.7,0l0-0.5
	l-1.8,0l0,0.5L61,97l0-0.4l-0.4,0l0-0.2l-0.3,0l0-1.1l0.4,0l0-2.1l-0.4,0l0-1l0.3,0l0-0.2l0.3,0l0-0.6l1.3,0l0,0.5l2,0l0-0.5l0.7,0
	l0-1.3l0.9,0l0-0.4l0.8,0l0-1.6l-0.8,0l0-1.4l0.7,0l0-0.4l0.4,0l0-0.7l1,0l0,0.7l1.8,0l0-0.7l1,0l0,0.7l0.4,0l0.5,0.3l0,0.5l1.9,0.1
	l0-0.5l1,0l0,0.5l0.5,0l0,0.5l0.5,0l0,1.1l-0.5,0l0,1.3l3,0l0-0.4l0.6,0l0-0.5l0.3,0l0-0.4l0.9,0l0,0.3l0.5,0l0,0.5l0.6,0l0,0.5
	l6.3,0.1l0-0.4l0.5,0l0-1.9l-0.5,0l0-1.1l0.5,0l0-0.4l0.4,0l0-0.6l1,0l0,0.6l2,0l0-0.6l1,0l0,0.5l0.4,0l0,0.5l0.5,0l0,1.2l-0.5,0
	l0,1.8l0.5,0l0,0.3l0.7,0l0.3,0.4l0,0.9l0.8,0l0,0.5l1.7,0.1l0-0.5l1.2,0.1l0,0.5l0.3,0l0,0.2l0.5,0l0,1.1l-0.5,0l0,0.7l2.9,0.1
	l0.1-4.3l3.6,0.1l0,4.3l6.4,0.1l0-4.4l3.6,0.1l0,4.4l6.1,0.1l0-4.4l3.6,0.1l0,4.4l6,0.1l0.1-4.4l3.8,0.1l0,4.5l4.7,0.1l0.1-2.3
	l1.8,0l0.1-3.8l-4.6-0.2l0.1-3.8l4.6,0.2l0.1-5l-1.5-0.1l-1.4-1.2l0-0.5l-1.7-0.1L137,75l3.4,0.1l0.1-1.9l-0.3-0.3l0.5-0.8l0.7,0.1
	l0,0.4l2.4,0.1l0-0.3l0.4,0l0.2-0.3l0.6,0.6l-0.2,0.3l0.6-0.1l0.2,2l1.6,1.5l0,0.8l2.2,0.1l0-0.9l1.7-1.4l0.3-1.9l0.7,0.1l-0.3-0.4
	l0.4-0.5l1,0l0,0.5l2.3,0l0-0.5l15,0.2l0.5,0.1l0,0.4l2.2,0.1l0-0.2l0,0L174,73l0.2-0.3l0.8,0.4l0,0l-0.3,0.3l0.4,0l0.4,0.4l0,1.6
	l1.7,1.5l0,1l2.2,0.1l0-1l1.7-1.3l0.4-2.1l0.5,0.1l-0.2-0.3l0.6-0.4l0.2,0.3l0.5,0l0,0.3l2.5,0l0-0.3l0.5,0l0.4-0.3l0.5,0.6
	l-0.4,0.3l0.3,0.2l-0.3,1.8l2.3,0.1l0,1.3l1.6,0l0-1.3l1.1,0l0,1.3l6.3,0.2l0.1-1.3l1.5,0l0,1.3l6.2,0.2l0.2-8.2l-0.2,0l0.1-1l1.3,0
	l0-1.2l1,0l0,1.2l6,0l0-1.3l1.3,0l0,1.3l6.6,0l0.1-1.2l1.4,0l0,1.2l1.2,0l-0.1,1.4l-1.2,0l0,1.5l0.6,0l0.6,0.1l0.5,0.3l0.4,0.4
	l0.2,0.5l0.1,0.6l-0.1,0.6l-0.3,0.5l-0.4,0.4l-0.5,0.3l-0.6,0.1l-0.6-0.1l-0.1,1.6l0,1.5l1.5,0l0,1.4l-1.4,0l-0.1,6.5l1.4,0l0,1.4
	l-1.4,0l-0.1,6.5l1.4,0l0,1.4l-1.4,0l0,1.5l-2.6,0l0.9,0.1l1.7,0.3l0.9,0.3l0,0l-3.6-0.3l1.9,0.9l-0.8,1.6l1.8,1.8l0.3-1l3.1,0.9
	l-0.3,1.1l2.6-0.7l0.1-1.7l2,0.2l-0.1,1.7l3,1.9l1.4-1.1l1.3,1.7l-1.4,1.1l0.6,2.5l1-0.7l1.8,2l-0.9,0.8l3,0.8l1.3-1.3l1.4,1.4
	l-1.3,1.4l1.8,3.1l1.8-0.2l0.2,2.1l-1.7,0.2l-0.6,2.4l1-0.2l0.9,3.5l-1.2,0.3l1.7,1.4l1.8-0.7l0.7,1.7l-2,0.8l0,3.6l1.8,0.7
	l-0.7,1.9l-2-0.8l-1.5,1.8l1,0.4l-0.7,2.9l-1.3-0.3l0.7,2.6l1.7,0.2l0,2.1l0,0l-2-0.2l-1.8,3l1.1,1.2l-1.6,1.4l-1.2-1.3l-2.6,0.3
	l0.9,1l-2.1,2l-0.9-0.8l-0.6,2.4l1.6,1.4l-1.4,1.5l-1.5-1.3l-3.1,2l0.3,2l-2.1,0.4l-0.4-1.8l-2.3-1.2l0.2,1.5l-3.3,0.8l-0.3-1.2
	l-2,1.7l0.7,1.9l-2,0.7l-0.6-1.7l-2.8,0l0,1.5l-2.8-0.1l-0.1,4.4l-4.3-0.1l0.1-4.4L203,159l-0.1,4.4l-4.3-0.1l0.1-4.4l-5.2-0.1
	l-0.1,4.4l-4.3-0.1l0.1-4.4l-3.7-0.1l0,0l-0.1,1.9l-1.9,0l-0.1,4.3l3.5,0.1l-0.1,3.8l-3.5-0.1l-0.1,5.8l0.7,0l1.2,1.4l0,0.6l1.6,0
	l-0.1,3.6l-3.5-0.1l-0.1,4l-3.7-0.1l0.1-2.2l-0.6-0.7l0-1.6l-1.6-1.4l0-0.4l-2,0l0,0.5l-1.7,1.3l0,1.6l-0.5,0.4l-0.1,2.4l-3.4-0.1
	l0-0.1l-15.3-0.4l-4.1,0.1l-0.1-5.3l-1.8-1.3l0-0.4l-2.2,0l0,0.4l-1.7,1.3l0,1.5l-0.6,0.6l-0.1,2.2l-3.3-0.1l0.1-3.9l-4.2-0.1
	l0.1-3.6l4.2,0.1l0.1-7.7l-4.2,0l0.1-3.8l4.2,0l0.1-4.3l-1.8,0l0-1.7l-4.6-0.1l0,4l-3.7,0l0-4.1l-6.2-0.2l-0.1,4.2l-3.7,0l0.1-4.3
	l-6.1-0.2l-0.1,4.4l-3.6,0l0.1-4.5l-6.4-0.2l-0.1,4.6l-3.6,0l0.1-4.6l-2.8-0.1l0,1l0.3,0l0,1.1l-0.3,0l0,0.2l-0.3,0l0,0.7l-1.4-0.1
	l0-0.7l-1.8-0.1l0,0.8l-0.6,0l0,0.9l-0.5,0l0,0.9l-1,0l-0.1,1.6l0.6,0l-0.1,1.3l-0.6,0l0,0.4l-0.4,0l0,0.7l-1-0.1l0-0.6l-1.9-0.1
	l0,0.7l-1.1,0l0-0.7l-0.3,0l0-0.5l-0.5,0l0-1.3L87.7,162.4 M224.6,126.8l0.2,0.7l-0.4,1.9l19,4.9l1.4-5l-1.2-5.3L224.6,126.8
	 M223.7,123.4L223.7,123.4l0.2,0.9l18.9-3.9l-1.2-5.2l-4.5-4.5l-14.6,11.6L223.7,123.4 M224,131.3l-0.2,0.8l-1.5,1.3l14.6,13l4-3.7
	l1.5-5.5L224,131.3 M220.3,119.8L220.3,119.8l0.6,0.6l14.3-11.9l-3.9-3.9l-5.3-1.8l-6.1,16.8L220.3,119.8 M220.4,135.2L220.4,135.2
	l-1.8,0.4l7,18.2l5.2-1.6l4.1-3.8L220.6,135L220.4,135.2 M217.5,119.1l5.4-17.3l-6.5-2.2l-0.3,19.1L217.5,119.1 M215.6,156.8l6.5-2
	l-5.3-18.8l-0.9,0.2L215.6,156.8 M216.4,98.8l2.7,0l0.8-1.6l-5.4-0.4l0,0.2l1.9,0.1L216.4,98.8 M210.9,96.8l-4.8,0l0,0.1l4.8,0.1
	L210.9,96.8 M198.1,96.7l4.4,0.1L198.1,96.7 M183.8,87.1l-0.1,6.6l2.3,0l0,2.7l4.9,0.1l0.4-15.3l-7.4-0.1l0,2l4.7,0l-0.1,4
	L183.8,87.1 M154.3,182.2L154.3,182.2l0,0.5L154.3,182.2"/>
<path class="st0" d="M34.5,108l27.8-7.2l10.1,39.3l5-1.5l5.7,19.1l-5.1,1.4l13.3,44.6l73-3.5l44.1-66.3l-78.9-69.5l1.2-3.5l-2.7-17
	l-4.4,0.7l-3.6-22.7l11.5-1.8l3.1,19.4l7.5-1.2l-4.7-29l10.4-1.7l4.7,28.9l12.6-2l-1.7-10.8l8.5-1.4l-1.4-8.5l19.7-3l0,0l3.1,18.9
	l32.2-5.2l-3.6-22.6L233,0.1l7,43.2l-90.3,14.5l68.9,60.7l2.3-3.4l0,0l16.7,14l-26.4,39.6L231,180l-6.3,11.1L204,179.4l-27.3,40.8
	l-98.8,5.2l-10.3-34.4l-25.2,7.5l-5.4-17.8l24.9-7.4l-17.1-57l-7.8,2.3l0,0L34.5,108L34.5,108"/>
<path class="st0" d="M74.3,116L75,113l2.7-3l2.5-0.8l5.3-0.3l-0.5-5.6l-0.4-8.8l0.8-7l2-8l4.3-5.5l5.3-4.4l5.9-4l4-1.6l11.1-2.7
	l2.3-0.3l-0.3-2.4l2.4-0.4l-1.5-5.6l-1.7-10.4l4.2-5.5l-0.5-1.5l2.4-2l-0.1-2l5.3-0.2l0.8-1.4l5.5,3.2l1.2,6.7l3.8,0.9l2.3,2.2
	l1.3,3.2l0.1,4.1l3.7-0.9l-2.9-13.9l0,0l8.5-0.4l5.9,0.3l6.2,1.8l6.3,2.5l6.7,5.9l2.6,4.7l3.3,4.5l1.5,4.1l0.2,4.1l-22.2,4.8
	l4.8,22.2l3.8,0.1l4,2.4l1.2,4.9l1.1,1.5l24-5.2l4.1-5l1.5-4.2l5.6-0.5l1.9,8l-1.6,0.9l1.3,3.7l-2.6,3.4l0.1,5l-19.2,5.3l1.6,3.7
	l1.1,3.8l3.7-1.1l15.6-2.4l0.6,3.6l2.5,2.4l3,0.3l1.8,14.4l-5.8,0.5l-5.5-3.8l-17.2,2.9l0.2,3.5l4.1-0.8l2.1,11.4l-0.4,15.2
	l-4.1,22.2l-7.9,12.1l-10.9,8.9l-10,6.5l-18.9,5.6l0,0l-1.6-9.2l-6.5,1.3l2.4,11.9l-9,1.4l-2.3-7.6l-5,0.8l0,3.1l-29.3,6.4
	l-3.7-16.2l28.8-6.9l0,0l0.5,3.3l3.2-0.5l-4.9-23.8l-1.9,0.4l-6.6-25.4l4.3-8.4l-1.9-5.1l-20.2,1.8l-4.7-2.4l-2-3.2l0.1-3.4l1.1-4.4
	l3.7-3.9l-1.4-8.7L81,122.5l-4-0.6l-1.7-2L74.3,116 M127.5,152.1l13.1,47.6l-3.2,0.8l1.3,4.9l2.2,1.2l11.4-2.3l-2.1-8.5l5.8-1.2
	l5.5-2.9l6.6-4.7l3.9-4l3.4-4l4-6.9l1.6-6.1l0-9l-2.3-13.2l3.3-1.3l-1.3-4.8l-4.2-1.9l-0.7-2.4l-4.1,1.6l1.1,6.3l1.4,5l-1,3.9
	l-2.6,2.6l-4.7,0.6l-2.7-1.2l-1.7-3.4l-1.3-5.7l-13.6,2.8l-4.4-3.5l-3.4,0.2l0.6,3.8l-9.7,1.9L127.5,152.1 M128.2,75.4l0.2,0.9
	l6.4,30.7l5,3.2l13.6-2.7l2.2-4.4l-5.7-31.9l-3.8,0.5l-1.2,4.2l-11.7,1.7l-2.7-2.5L128.2,75.4 M98.5,97.6l1.6,12.3l22.4-4.9
	l-6.6-31.6l-11.3,5.2l-6.2,7.7L98.5,97.6L98.5,97.6"/>
<path class="st0" d="M56.6,108.5l110-49.6l0,0l0,0l0,0l0,0l0,0l0,0l0,0l0,0l0,0l0,0l0,0l0,0l55.9,54.2l0,0l0,0l0,0l0,0l0,0l0,0l0,0
	l0,0l0,0l0,0l0,0l0,0l0,0l-51.3,91.1l0,0l0,0l0,0l0,0l0,0l0,0l0,0l0,0l0,0l0,0l0,0l0,0l0,0l0,0l0,0l0,0l0,0l0,0L56.6,108.5
	L56.6,108.5L56.6,108.5L56.6,108.5L56.6,108.5L56.6,108.5L56.6,108.5L56.6,108.5L56.6,108.5L56.6,108.5L56.6,108.5L56.6,108.5
	L56.6,108.5L56.6,108.5L56.6,108.5L56.6,108.5L56.6,108.5L56.6,108.5L56.6,108.5L56.6,108.5L56.6,108.5L56.6,108.5"/>
<path class="st0" d="M28.8,105.8l12.5-9l5.9,8.3l47.6-31.1l3.1-1.5l1.5-4.2l0,0l3.4,1.5l62.2-22.9l-0.9-2.2l25.6-10.1l5.5,10.5l0,0
	l-94.8,42.4L54,117.5l25.7,20.3l-1.7,2l4,3.5l66.5-44.1l0,0l5.7,11.7L150,114l4.8,8.8l24.8-13l-8.7-15.3l13.3-6.8l3.9,7.3l10.5-4.9
	l-17.4-33.9l15.7-7.6l48.1,92.1l-2.2,1.3l-20.5,10.8l-0.7-0.8l-15.4,8.4l3.4,6.2l-53.5,30l0,0l-2.1-4.8l-3.6-7.8l-23.6,7L77.8,153
	l-0.5,0.6l-3.2-2.3l-3.5-2.8l0.5-0.6L41.4,125L28.8,105.8 M156.5,141.5l9.7,19.1l14.2-7.3l-2.9-5.2l11.7-6.8l1.1,1.8l29.3-15.6
	l-13.1-23.4l-10.5,5.4l4.2,9.1L156.5,141.5 M127.4,168.5l7.2,5.6l18.2-4.6l-10.9-19.9L127.4,168.5 M100.3,149.6l14.4,10l17.6-23.9
	l1.1,0.8l3-3.6l-3.9-8.5l-23.2,15.4l1.4,2.9L100.3,149.6L100.3,149.6"/>
<path class="st0" d="M239.2,144.2l-7.1,9.4l9.1,5.8l-13.7,21.4l-10.7-6l-1.2,2.1l10.3,6.4l-13.8,21.8l-7.8-4.5l-1.5,2.3l7.7,4.9
	l-8.1,13.1L189,212l0.8-1.5L168.2,197l6.8-10.3l-2-1.1l-6.3,9.9l-21.6-14l7.1-10.6l-2.6-1.4l-6.1,10.4l-37.7-23.7l-2.1,3.7l-11-8.7
	l-38.6-29.3l-12-8.4l9.3-15.8l11.1,6.5l15-21L79,84l0.5,0.4l-0.6,3.7l4.6,6.9l-10.8,16.6l32.5,21l12.6-18.5l34.7,23.3l6.1-1.1
	l4.3-4.8l-0.3-6.9l-35.3-24.5l13.3-19.6l-32.2-20.9L97.6,76.1L90.7,73l-5.3,2.6l-2.2-1.1l14.9-21.9l-10.5-7.1l9.5-13.2l6.5-8.6
	l30.2,18.6l-0.5,1.2l22.2,13.2l-3.9,5.7l-21.9-13.5l-1.5,2.2l33,21.6l16,11.6l59.6,40.9l-2.3,1.2l8.8,6.3l3.7,2l3.3,9.9l-3.4,4.6
	L239.2,144.2 M221.7,155.1l-47.1-30.6l-24.4,37.5l46.9,30.9L221.7,155.1 M164.4,104.4l-3.9-2.8l0.4-1.5l-1.6-1.1l2.6-4.2l2,1.2
	l1.3-4.2l-7.9-4.7l-10.7,17.9l16.1,10.2l5.1-7.6l3.1-2.8l2-2.1l1.3,0.5l0.3-2.3l-5.7-3.9L164.4,104.4 M210.3,139.5l2.3-2l2.3,1.5
	l4.4-8.4l-6-4.4l5-7.6l-1.6-1.1l-5.8,7.9l-8-5.1l-3.7,8.3l1.6,0.9l-2,2.3L210.3,139.5 M224.6,148.9l2.5-1.7l3.2,2.1l5-7.6l5.9-7.9
	l-2.4-1.9l-5.5,8l-8-5.3l-5.1,8.6l1.6,0.8l-2,1.8L224.6,148.9 M136.1,142.2l6.2-8.9l-10.7-6.4l-5.9,9.2L136.1,142.2 M189.3,125.5
	l2.4-1.9l1.5,0.8l4.6-8l-6.1-3.9l-6.1,10.4L189.3,125.5 M180.7,119.7l6.3-10.4l-6-3.8l-0.1,2.5l2,1.3l-1.6,2.1l0.7,0.5l-4.5,5.8
	L180.7,119.7L180.7,119.7"/>
<path class="st0" d="M0,80.9l6.2-8.5l-0.9-1.1L5,69.9l0.1-1.3l0.8-1.2l1-0.8l1.3-0.4l1.4,0.1l0.7,0.3l0.7-1l2.7-3.6l20-26.8
	l-5.2-3.4l5-6.6l8-10.5l6.8,4.3l-1.8,3.1l1.6,0.9l-1.4,2.8l4.9,3l6.7-9.3l-1.8-3.3l2.7-4.3l15.4-1.1l1.6,0.6l1.5,0.9l0.9,1.4
	l0.6,1.6l0,1.7l-0.5,1.6L78,19.8l-14.7,0.9l-7.6,10.4l0.8,2.7l-3.3,4.7l55.7,41.4l4.2-4.6l14.7,10.4l-3.9,5.3l21.5,16l21.6-28.8
	l-1.5-1.1l0.2-4.5l4-5.1l2.4-0.4l2.5,1.3l4.9-6.3l3.1,2.4l7.5-2.2l8,5.5l0.2,8.9l4.2,3.3l-4.6,6.4l2.4,1.8l-0.1,5.3l-3,3.9l-4.1,0.5
	l-2.2-1.5l-20.8,29l22,16.4l4.4-5.3l13.8,10.3l-4.3,5.3l59.2,44l3.9-5.3l14.5,10.7L249.8,247l0.8,0.7l0.5,1.2l0,1.3l-0.5,1.1l-1,0.8
	l-1.3,0.3l-1.1-0.2l-1-0.6l-6.5,8.8l-15.1-11.2l6.2-8.3l1.2-0.3l22.1-29.6l-57.6-43.4l-29,39.1l-14.7-11.1l29-39.1l-66.4-50.3
	L91.8,137l0.8,0.6l-5.8,7.7l-16-11.5l6.5-8.7l1,0.7l23-30.6L43.7,51.8L20.1,83.4l1.1,0.8l-5.9,8L0,80.9"/>
</svg>
