<?xml version="1.0" encoding="utf-8"?>
<!-- Generator: Adobe Illustrator 26.0.2, SVG Export Plug-In . SVG Version: 6.00 Build 0)  -->
<svg version="1.1" id="Ebene_1" xmlns="http://www.w3.org/2000/svg" xmlns:xlink="http://www.w3.org/1999/xlink" x="0px" y="0px"
	 viewBox="0 0 283.5 283.6" style="enable-background:new 0 0 283.5 283.6;" xml:space="preserve">
<style type="text/css">
	.st0{fill:none;stroke:#000000;stroke-width:0.1;stroke-linejoin:round;}
</style>
<path class="st0" d="M4.7,102.5l10.3-6l3.1,5.3l32.5-18.9l-0.8-1.4l5.9-3.4l-2-3.4l8-4.5L97.4,49L130,30l-0.5-0.8l0.7-0.4l-1.6-2.8
	l8.1-4.7l0.4,0.6l11.8-6.9l-0.7-1.3l9-5.2l5.4,9.2l-1.4,0.8l7.1,12.2l11.3-6.6l3.7,6.4l6.8-3.9l4.6,7.8l-1.3,0.8l25.3,43.1L236.1,68
	l15.5,26.2l8.7,15.1l-18.1,10.5l24.8,42.3l0.4-0.2l5.2,8.9l-7.8,4.5l4.1,7.1l-11.4,6.6l5.6,9.6l1.2-0.7l6.1,10.4L241.6,225l-1.3-2.2
	l-61.2,36.4l-2-3.4l-3.4,2l-16.5,9.9l-3.5-6L117,283.5l-13.1-24l-49.5-84.4l-23.7-39.4l-13.8-24.5l-5.2,3L4.7,102.5L4.7,102.5"/>
<path class="st0" d="M28.1,205.7l1.9-21.6l8.4-101.7l62.6,5.6l0.7-7.8l4.1-51.3l0.3-1.6l0,0l61.5,17.6l-2.2,42.3l49.7,4.2l-0.3,3.7
	l-0.4,4l16,1.5l1.6-19.1l8.9,0.8l20.5,1.6l16.7,1.5l0.7,0.1l-1.5,19.8l-5.8-0.5l-10.2,2.5l-5.4,53.2l-5.7,44.1l-1.6,21.1l17.4,1.3
	l-1.4,18.5L233,243l-14.9-1l0.9-11.8l-18.6-1.4l-9.4-0.9l-27.1-2.4l-31.7-2.9l0.6-7.5L28.1,205.7L28.1,205.7"/>
<path class="st0" d="M66.1,94.7l4.8-1.9l7.6-3.9l0,0l0.5,1.6l2.2-0.7l11.3-4l-3.1-8.9l-1.7,0.6l-2.7-7.7l-1.9,0.7l-0.8,0.1l-0.7-0.1
	L81,70l-0.3-0.5l-1.3-4l-0.1-0.8l0.1-0.5l0.6-0.6l0.6-0.3L130.2,46l-1.4-3.7l19.4-6.9l1.5,4l9.2-3.2l7.9,22.5l11.7-4.1l0.9-2.2
	l3.4-1.2l2.2,1.2l1.2,3.6l1.7-0.5l5.8,16.4l-1,0.3l2.1,5.9l-1.6,3.7l-3.6,1.3l13.6,38.7l-1.9,0.7l5.3,15.2l-11,3.8l-0.8-2.3l-6,2.4
	l33.1,96l-81.6,28.5l-31.8-90.9l-18.6-54.2l-4.4,1.5l-2-5.8l-9.2,3.1l-3.8-11.7L66.1,94.7L66.1,94.7"/>
<path class="st0" d="M184.6,51l4.1,10.7l-0.5,1l-2.6,1l1.7,4.8l-0.6,0.2l0.5,1.4l-0.3,0.1l0.7,2l3.5-1.4l1.3,0.6l3.9,10.3l-0.6,1.4
	l-3.5,1.3l0.7,1.9l0.3-0.1l0.7,1.8l0.6,0.3l0.5,1.1l-0.5,1.1l-1.2,0.4l-0.9-0.4l-0.7,0.3l4.5,12l0.8-0.3l0,0l0.2,0.6l0.3-0.1
	l1.7,4.4l3.1,9.4l-0.3,0.1l0.2,0.5l-0.8,0.3l7.8,24.1l-1.7,3.4l-4.2,1.4l11.2,41.7l6.7-1.6l0.6,0.4l4.1,17.8l3.3,14.7l-0.4,0.6
	l-7.6,1.8l0-0.2l-16.6,3.5l0.1,0.3l-63.3,13.1l-0.1-0.3l-20.4,4.4l0,0l-0.9,0.2l-0.8-0.4l-0.9-4.3l-1.7,0.3l-2.9-13.1l0.9-0.2
	l-5.9-23.5l-4.4-15.8l-6.3-21.1l-7.7-23.9l-2.1,0.8l-0.7-0.3l-1.2-3.4l0.3-0.7l1.1-0.4l-2.1-5.8l-1.4,0.5l-0.2,0.4l-1.2,0.4
	l-1.1-0.5l-0.4-1.1l0.2-0.4l-1.5-3.9l-2.3,0.9l-1.3-0.6l-3.8-10.2l0.6-1.3l2.3-0.8l-1.2-3.4l-0.6,0.2l-2.2-5.9l0.3-0.1l-0.6-1.7
	l-0.2,0.1L65.9,90l0.2-0.1l-0.9-2.5l5-1.8l-0.1-0.2l30.7-11.5l-0.3-0.7l0.5-1.1l1.1-0.4l0.8,0.4l36.8-13.7l0.4-0.8l1.1-0.4l1.1,0.5
	l0.2,0.7L173.1,47l0.9,2.3l7.9-2.9l1.1,0.3L184.6,51L184.6,51"/>
<path class="st0" d="M60.6,58l1.3-0.7L73,75.5l-1,0.9l7.6,12.4l3.9,6.3l7.5,12.7l51.9-31.4l-8.5-13.7l-6.2-10.1l-4.7-7.7l-3.7-6.4
	l-4.1-6.8l-3.2-6.1l-3.9-6.2L101,6.6l10-6.4l0.8-0.1l27.8,45.7l3.9-2.3l6.3,10.2l10.1-6L187.5,93l42.8,70.7l-6.6,12.3l-4.4,2.4
	l0.8,1.1l0.8,1.5l0.4,1.9l0.1,2l-0.2,2l-1.1,4.4l-1,3l-1.2,4.6l-1.7,3l-21.7,34.2l-1.1,1.4l-1.3,1.2l-4.6,3l-7.2,3.3l-1-0.6
	l-0.7,0.4l-1,0.3l-1.2,0.1l-1.2-0.3l-1-0.7l-0.8-0.9l-2.3-3.5l-2.6-3.3l-4.3-4.9l-2.5-2.6l-1.3-1.2l-4.4,2.6l-0.1,2.1l-3.2,0.3
	l-1.5-0.4l-9.5,1.4l-3.9,0.9l-7.6-12.1l-5,3l-3.7-6l-3.1,1.9l-3-5l3.2-2l-8.6-14l-0.2,0.2l0,0l-2.8-4.6l0.3-0.2l-0.7-1.3l-0.3,0.2
	l0,0l-0.2-0.4l0.8-0.5l-5.9-9.2l-23.2-38l2.3-1.4l-1.7-2.7l-4.7-8l-5.4-8.8l0,0l1.1-0.6l0.9,1.4l3.3-2l-7-11.5l9.5-5.8L64.9,89.9
	l-0.7-9.5l0.5-1.8l-0.3-3.9l-1.7-8.8l0.5-0.4l-1.1-1.9l-2-5.4L60.6,58L60.6,58"/>
<path class="st0" d="M59.9,110.1l40.3-25.6l-1.8-2.8l40.3-25.2l4.2,7l7.5-4.8l24.9,39l-0.6,0.4l0.9,1.4l-1.4,0.9l2.7,4.1l2.1-1.3
	l40,61.7l25.1,39.1l0,0l-34,14.4l-2.9-3.6l-31.8,13.4l-3.4-4.7l-5.3,3.5l-27.9-41.3l-25,10.3l-25.9-40.2l-1.1,0.2l-1.1-0.2l-0.9-0.5
	l-0.6-0.7l-16.4-26.1l2.8-1.8L59.9,110.1L59.9,110.1"/>
<path class="st0" d="M83.6,234.1l10.3-33.3l17.1-56.7l0,0l1.3,1.3l4.4-14.7l27.7-97.5l66.6,22.3l-27.8,89.1l-0.8,3.1l5.4,0.5
	l6.7,1.6l4.9,2.5l4.2,3.2l4.2,3.5l3.7,3.9l2.4,3.1l1.2,2.5l0.2,2.2l-1,1.7l-1.6,1.4l-3.5,1.5l-4.6,0.5l-6.4,0.4l-6-0.1l-5.7-1.4
	l-5.2-1.8l-5.6-3.5l-1.2,3.6l-25,83.3L83.6,234.1L83.6,234.1"/>
<path class="st0" d="M35.3,125.5l0.8-1.5l5.1-30.5l197.1,38l-1.8,14.4l17.1,3.5l8.2,1.4l-5.8,31.7l-8.2-1.4l-3,15.4L66,162.4
	l1.7-8.2l-12.5-2.7l4.6-21.2L35.3,125.5L35.3,125.5"/>
<path class="st0" d="M68.4,165.5l3.9-0.5l-1.8-14.5l-3.8,0.5l-1.4-11.8l3.4-0.4l-2.9-24l16.4-2.1l0.6,4.8l49.7-6.3l-0.9-7.7
	l25.4-3.2l1,7.8l51.1-6.5l-0.5-4l16.8-2.1l2.8,23.4l-2.2,0.3l4.8,39.7l1.5-0.2l2.9,23.2l-16.7,2.1l-1.3-10.7l-50.8,6.5l0.6,5.3
	l-25.6,3.3l-0.8-6.1l-49.1,6.3l1.1,8.7l-15.7,2l-2.5-20.4l-4.2,0.5L68.4,165.5L68.4,165.5"/>
<path class="st0" d="M62.4,69.6l23.7-18.8l63.5,46.4l8.9,12.5l21,28.3l3.6,4.8l25.2,34.4l3.7-1.4l0,0l0.8,2.7l17.6-6.6l14.8,37.5
	l-17.6,6.6l-15.1,4.2l-38,9.6l0,0l-1.7-8.7l-2.6-5.7l-36.5-50.4l-8.7,6.1l-7.5,6l0,0l-8.7-17.3l-3.1-5.3l4.7-3.1l-12.3-18.1L73,90.4
	L62.4,69.6L62.4,69.6"/>
</svg>
