<?xml version="1.0" encoding="utf-8"?>
<!-- Generator: Adobe Illustrator 26.0.2, SVG Export Plug-In . SVG Version: 6.00 Build 0)  -->
<svg version="1.1" id="Ebene_1" xmlns="http://www.w3.org/2000/svg" xmlns:xlink="http://www.w3.org/1999/xlink" x="0px" y="0px"
	 viewBox="0 0 283.6 283.5" style="enable-background:new 0 0 283.6 283.5;" xml:space="preserve">
<style type="text/css">
	.st0{fill:none;stroke:#000000;stroke-width:0.1;stroke-linejoin:round;}
</style>
<path class="st0" d="M157.8,23.3L157.8,23.3l107.7,177.1l-68.8,42.3l-8.5-12.9l-12.7,7.5l-5.5-9l-10.5,7.4l-5-7.6l-4.1,2.7l0,0
	l-8.8-15.4l-27.7,16.9l-6.6-11.4l-10.4,6.9l-6.2-9.4l-8.2,5.4L70,204l-12.4,7.3L0.1,119.2l78-47.2L77.4,71l-1.1,0.7l-3.8-5.8
	l2.7-1.8L73,61.2l0,0l8.6-5.5l0,0l1.8,3.4l7.7-4.8l3.6,6.3l-14.5,8.7l0.6,0.9L157.8,23.3L157.8,23.3"/>
<path class="st0" d="M70.3,120.3l-0.5-0.4l0,0l0.6-0.7l0.5,0.4l10.3-11.4L42.8,73.2L56,58.7L31.4,36.3l8.8-9.6l-1.1-1l2.2-2.5l1.1,1
	L56.6,8.6l63,57.5l-6.6,7.3l128.1,116.8l0,0l-4.3,4.8l2.7,2.4l-9.8,10.8l2.7,2.4l-2.2,2.4l1.1,1l0,0l-4.4,4.8l1.1,1l-8.8,9.7
	l0.7,0.7l-2.5,2.7l-0.7-0.7l-11.7,12.9l1.1,1L191,262.3L54.4,137.7L70.3,120.3L70.3,120.3"/>
<path class="st0" d="M87.6,200.1L87.6,200.1l58-35.4l-0.5-0.8l-58.1,35.4l-24-39.4l58.1-35.4l-0.5-0.8l-58.1,35.4l-24-39.4
	l117.9-71.9l24,39.4l-58,35.4l0.5,0.8l58-35.4l24,39.4l-57.9,35.3l0.5,0.8l58-35.3l24,39.4l-57.9,35.3l0.5,0.8l6.2-3.8l3.8,6.2
	l-12.4,7.5l-0.3-0.5l-11.6,7.1l-3.5-5.8l15.9-9.7l-0.5-0.8l-58,35.4L87.6,200.1L87.6,200.1"/>
<path class="st0" d="M32.9,132.4l17.8-9.4l-4.6-8.9l14.9-8l-1.3-2.1l-1.8-3.8l28.7-15.4l3.2,6l-7.8,4l1.8,3.6l-4.7,2.5l2.8,5.5
	l0.8-0.5l-1.5-3.1l3.3-1.7l5,9.6l-3.3,1.8l0.4,0.7l3.1-1.7l0.7,1.4l-3,1.8l4,7.6l2.2-1.2l-0.5-1.1l0.5-0.3l-0.4-0.8l2.6-1.5
	l7.1,13.5l-2.6,1.3L95,122l-0.9-0.2l-2.2,1.3l13.1,24.8l1.5-0.8l1.6,3.2l3.7-1.9l-0.4-0.9l2.3-1.1l5.9,8.1l19.8-10.3l0.9,1.6
	l5.5-2.9l0.9,1.9l1.1-0.5l4.2,7.7l10.6-5.6l-2.1-3.7l-0.6,0.3l1,1.9l-2.2,1.2l-17.4-33.2l-1.5-0.7l-4.7-8.9l0.6-1.1l0.7-0.4
	l-1.6-3.2l10.4-5.5l-0.2-0.6l2.8-1.4l-2.7-5.3l14.8-7.8l6.7,12.9l10-5.2l-0.3-0.8l1.9-0.9l-1.6-3.1l0.9-0.5l1.9,3.8l3.3-1.6l-1.1-2
	l2.3-1.2l-0.9-1.8l3.5-1.8l1.6,3l-2.8,1.4l0.4,0.7l13.5-7.1l-0.8-1.5l2.8-1.5l0.8,1.5l0.8-0.4l-1-1.9l2.2-1.3l-0.9-1.8l3.4-1.7
	l1.6,3.1l-2.8,1.4l0.3,0.7l17-8.8l2.6-1.5l-2-3.8l4.7-2.4l1.9,3.7l2.9-1.5l-1.6-3.2l1.8-1l-5.3-10.1l13.7-7.2l4.3,8.3l0.9-0.6
	l1.6,3.1l-0.8,0.5l1.7,3.3l-2.1,1.1l12.4,23.1l13.5-7.2l10.7,20.4L270,93.4l-1.5-2.9l-6.5,3.4l1,1.5l2.4-1.3l3.5,6.5l-11.4,6
	l-1.7-3.2l-2.4,1.3l-1.7-3.4l1.2-0.6l-0.8-1.5l-4.4,2.3l0.3,0.5l-0.5,0.4l0.7,1.4l-1,0.5l-0.9-2l-10.8,5.7l1.6,2.9l-37.9,20.1
	l-0.8-1.5l-1.6,0.9l-0.8-1.6l-7.2,3.8l-23.2,12.2l1.1,2.1l-15.7,8.3l0.5,0.8l-16.6,8.8l0.4,0.8l-1.1,0.6l5.6,10.5l1.3-0.8l0.5,0.9
	l-1.3,0.7l1.9,3.6l1.4,0.8l1.7-0.9l0.6-2.2l4.4-2.3l2.2,0.8l1.6,3l1.3-0.7l10.9,20.6l-1.4,0.7l-0.6-1.2l-7.7,4.2l0.7,1.4l-2.1,1.1
	l-0.8-1.5l-12.4,6.5l1.1,1.9l-4.3,2.3l-1.2-2l-4.5,2.5l-9.6,5l0.5,1l-3,1.6l0.7,1.4l-4.2,2.2l-1.3-2.4l-21.7,11.4l-9.7-18.5l3.8-2
	l0.5,0.9l15.4-8l-0.5-1.1l3.9-2l0.5,1l15.4-8.2l-1.5-2.9l3.8-2l-1.4-2.7l11.7-6.1l0.5-1.5l2.8-1.5l-8.2-15.4l-55.4,29.2l4.3,20.1
	l13.2,24.7l9.5-5.1l11,20.7l-9.7,5l1.8,3.4l-19.3,10.3L76,254.4l-1.1,0.6l0.5,1.3l-0.8,0.4l-0.5-1.2l-1.7,0.8l-1.9-3.7l-0.3,0.2
	l-1.8-3.6l3.7-2l-0.9-1.7l-3.5,1.9l-3.7-7.1l3.5-1.9l-0.9-1.8l-3.6,1.9l-1.8-3.6l3.5-1.9l-0.9-1.7l-3.5,2l-2.7-5.4l3.4-1.9l-1.2-2.4
	l18-9.4l-1.1-5.3l-1.2,0.6l-0.3-0.8l1.3-0.7L74,196.8l-21.8,11.4l-1.4-3l-2.9,1.4l1.4,3.1l-2,0.9l-1.4-3l-1-1.7l-3.7,1.9l-12-22.8
	l3.7-1.9l-5-9.6l-1.8,0.8l3.2,6.5l-1.4,0.7l-3.2-6.4l-0.3,0.2l-3.4-6.6l3.7-1.8l-2.2-4.2l8.1-4.2l2.1,4.1L34,162l2.1,3.9l11.5-6.2
	L32.9,132.4 M123.1,168.9l2.6-1.4l-6.7-12.8l-2.9-3.7l0.5,1l-1.6,0.9l7.7,14.6l-0.3,0.2L123.1,168.9 M254.3,100l7.7-4.2l-0.8-1.5
	l-7.8,4.1L254.3,100 M97.9,245.6l-3.1,1.8l1.1,2.1l3.1-1.6L97.9,245.6 M112.9,163l0.9-0.4l-3.7-7.1l-0.9,0.4L112.9,163L112.9,163"/>
<path class="st0" d="M85.2,109.3l9-12.3l0,0l-0.1,0.9l20.2-0.6l-1-36.1l57.7-1.6l0.3,6.3l13.2-0.4l-0.2-6.3l44.2-1.2l0.2,6.3
	l3.4-0.1l0.9,31.8l-37.1,1l0.3,11.7l-23.6,0.7l0.8,31.6l-17.2,0.5l-0.4-13.5l-12.1,0.3l0.1,2.9l-10.4,0.3l-1.2-1.1l0-1.7l-10,0.3
	l0.1,2.2l-3.3,0.1l0.1,2.3l-2.3,0.1l0.2,8.9l-21.6,0.6l0-1.5l-2.2,0.2l-0.3,0.3l-2.4,7.1l-0.2-0.1l-0.1,0.4l0.2,0.1l0,0.1l1.9-0.1
	l0,0.2l17-0.5l0.3,10.3l-10.1,0.3l0.3,9.9l33.8-0.9l0.1,4.7l13.3-0.4l-0.3-11.4l0.3,0l-0.4-13.4l3.2-0.1l0.5,16.8l2.1-0.1l0-0.2
	l1.1,0l-0.1-4.9l0.5,0l-0.3-11.8l4.6-0.1l0.2,6.7l12-0.3l2.1,77.9l-21.4,0.6l0,0.3l-1.1,0l0.2,6.3l22.5-0.6l0.7,23.8l-61,1.7
	l-0.6-23.6l-9.9,0.3l0.4,13.5L89,255.1l-0.4-14.9l-0.7,0l0-1.8l0.7,0l-0.1-3.6l-3.4,0.1l-0.6-22.8l-0.1,0L84,200l0.1,0l-0.5-19.2
	L73.5,181l-0.1-3.3L63.2,178l0,0l-0.7-23.8l20.3-0.6l-0.1-2.1l-0.2,0l0-1.5l0.2,0l0-0.6l1.8-0.1l0.6-0.4l0.3-0.5l0.1-0.3l1.9-6.1
	l-0.1-0.7l-6.7-15.9l-0.4-0.1l-2,0.1l0.2,7.1l-12.2,0.3l0,1.3l-4.1,0.1l0-1.3l-37.9,1l-0.3-9.6l19-0.5l-0.1-2.8l9.6-0.3l0,1.4
	l2.2-0.1l0,1.4l5.8-0.2l-0.2-7l-36.5,1l-0.2-7.4l33.8-0.9l-0.1-2.8l20.5-0.5l0.3,11.6l1.4-0.2l0.3-0.3L85.2,109.3 M148.8,239.7
	l-1.2-44.7l-13.3,0.4l0,0.9l-3.4,0.1l0.1,3.4l-30.4,0.8l0.3,9.9l16.9-0.5l0.3,10.4l-16.9,0.5l0.3,9.9l23.7-0.6l0.2,9.2l-2.3,0.1
	l0,0.9L148.8,239.7 M133.7,175.5l0.1,3.9l-33.8,0.9l0.3,9.9l30.4-0.8l0.1,3.4l16.7-0.5l-0.5-17.2L133.7,175.5 M135.6,243.6l0.3,10
	l6.6-0.2l-0.2-8.8l-0.2,0l0-1.1L135.6,243.6 M94.7,116.2l-2.9,0.2l-0.2,0.2l-2.4,3.4l0,0.1l3.9,13.7l0.3,0.2l0.1,0l1.6,0L94.7,116.2
	 M87.7,111.5l6.8-0.2l-0.3-8.7L87.7,111.5L87.7,111.5"/>
<path class="st0" d="M125.7,122.2l8-1.6l-0.6-2.8l-1.5,0.3l-1.6-7.8l2.3-0.5l-4.2-20.6l63.4-13.1l11,53.7L139.1,143l0.2,1l63.5-13.1
	l11,53.7l-63.4,13.1l-4.2-20.6l-2.3,0.5l-1.6-7.7l1.5-0.3l-2.3-11l-3,0.6l0.9,4.1l0.1,0l0.2,1.2l-1.3,0.3l0.1,0.4l-1.1,0.2l-0.1-0.4
	l-1.3,0.3l-0.2-1.2l0.1,0l-0.9-4.1l-1.5,0.3l2.3,11l1.5-0.3l1.6,7.7l-2.3,0.5l4.2,20.6l-63.4,13.1l-11-53.7l63.4-13.1l-0.2-1
	L66.2,158l-11-53.7l63.4-13.1l4.2,20.6l2.3-0.5l1.6,7.7l-1.5,0.3L125.7,122.2L125.7,122.2"/>
<path class="st0" d="M47.8,137l-0.1-0.1l-2.5-3.2l0.1-0.4l1.3-1l0.9,1.2l12.3-10.2l-1.3-1.5l1.4-1.1l2.3,2.8l13.3-10.9l1.5,1.9
	l0.6-0.5l-0.1-0.1l-0.3-0.4l9.1-7.5l0.4,0.5l0.6-0.5l-0.4-0.5l0.2-0.2l0,0l-2.4-2.9l10.7-8.8l3,3.7l-0.7,0.6l3.4,4.2l1.8-1.5
	l0.2,0.3l2.1-1.6l2.3,2.8l-0.6,0.5l0.5,0.6l0.6,0.2l0.7-0.8l0,0l-0.5-0.7l0.8-0.5l1.1,1.3l6.3-5.2l-3.4-4.1l1.7-1.4l2.6,3.1l0-0.1
	l0.4-0.3l4.3,5.1l0.9-0.8l-3.3-4.1l1.6-1.3l2,1.6l1.6,1l-7-8.4l17.7-14.7l-0.3-0.4l2-1.6l0.3,0.4l0.3-0.3l-0.3-0.4l2-1.6l0.3,0.4
	l0.4-0.3l-0.3-0.5l1.9-1.6l0.3,0.4l0.4-0.3L142,67l2-1.6l0.3,0.4l0.3-0.2l4.4,5.3l0.4-0.3l0.5,0.6l-0.4,0.4l0.4,0.5l-8.8,7.3
	l0.1,1.2l0.2,0.3l0.3,2.8l13.3-11l-2.3-2.8l1.8-1.5l2.3,2.8l9.6-7.8l0.1,0.1l1.4-1.1l0,0l0.9,1.1l0.2-0.1l2.9,3.5l-1.7,1.5l9.9,12
	l0.3,2l-2.5,2.1l0.8,0.8l-0.9,0.8l0.7,0.8l-1,0.8l-0.5-0.6l-0.9,0.8l0.2,0.5l-0.6,0.3l3.9,8.8l1.2-0.5l0.7,1.5l-1.1,0.5l1.8,4.2
	l6.5,14.8l-0.8,0.5l0.6,0.8l-0.9,0.8l-0.4-0.5l-0.2,0.2l-0.3-0.4l-2.2,1.8l2.3,2.8l-1.2,0.9l31.3,38l-0.3,3.2l-0.8-0.1l-0.6,0.5
	l0.3,0.4l-0.5,0.5l0.3,0.3l1.5,1.9l-5.7,4.8l0.1,0.1l-0.6,0.5l-0.2-0.2l-7,5.8l0.1,0.3l-0.9,0.7l-0.2-0.2l-7.6,6.2l-10.4-0.7
	l-5.4-6.5l0.2-0.1l-0.3-0.3l0,0l1.8-1.4l0.2,0.3l0.1-0.1l-0.3-0.7l1.4-1.2l-0.6-0.8l2.1-1.7l-6.3-7.7l-3.5,3l-2.1,1.8l-12.6-15.2
	l-2.1,1.7l3.3,4.2l-0.9,0.7l3.1,3.7l-5,4.1l0.3,0.4l1.4-1l0.3,0.2l0.7,0.9l-0.1,0.4l3.3-2.7l3.6,1.7l8,9.7l-0.9,0.8l-0.4-0.5
	l-4.7,3.8l1.6,1.9l-20.5,17l3.8,4.6L137.9,221l-0.1-0.1l-6.2,5.1l0.1,0.1l-5.8,4.7l-2.6-3.1l1.4-1.2l-0.7-1l-8-9.6l-0.9,0.7
	l-0.5-0.6l-2.4,1.9l-4.9-5.9l3.3-2.7l-7.5-8.9l0.2-0.2l-0.4-0.5l-3.4,2.8l-1.4-1.7l4.6-3.8l1.8,2.2l2.7-2.3l-2.9-3.6l-4.2,3.4
	l-1.4-1.8l-2.9-3.4l0.2-0.1l-0.4-0.5l0,0l-0.1,0.1l0,0l-1.3-1.6l0.1,0l-2.9-3.4l0,0l-9.2-11.1l0.2-0.1l-0.4-0.5l-0.2,0.1l-2.4-2.9
	l0,0l-7.7-9.4l0.1-0.1l-0.5-0.4l0,0L69,159l-2.8,2.3l-1.2-1.4l-0.9,0.8l-4.4-5.3l4.5-3.7l2.7,3.3l3.4-2.8l-3.2-3.8l-4.2,3.5
	l-3.6-4.5l-1.9,1.6l-2.3-2.7L47.8,137 M133.7,139l0.5-0.5l-5.5-6.7l-1.8,1.4l1.4,1.5l-0.1,0l-3.8,3.2l0.3,0.4l-1,0.9l6.1,7.2
	l4.6-3.9l0.4-0.1l0,0l0,0.2l-0.2,0.1l0.5,0.3l0.6-0.6l-2.4-2.9L133.7,139 M108.1,103.4L108.1,103.4L108.1,103.4"/>
<path class="st0" d="M133.9,100.8l5.4,2.9l0.1-0.1l0.1-0.3l1.3,0.8l0.3,0.2l-0.2,0.4l7.4,3.9l0.7,0.4l4.5,2.5l0.2-0.3l1.5,0.8
	l-0.2,0.3l12.5,6.9l0.2-0.3l1.6,0.8l-0.1,0.4l11.8,6.5l0.7,0.3l0.2-0.4l1.6,0.9l-0.2,0.4l6.9,3.8l5.8,3.2l0.3-0.5l1.6,0.9l-0.2,0.4
	l9.3,5l3.8,2l0.2-0.4l1.3,0.7l-0.2,0.4l0.2,0.1l-1.8,3.3l-0.2-0.1l-1.3,2.2l15.9,8.6l-13,23.7l-8.8,16.2l-21.9,40.2l-28.7-15.5
	l7.8-14.2l-1.6-0.9l0.4-0.7l-0.1,0l-1.6,3l-3.6-2l4.2-7.6l2.4,1.3l-2,3.7l1.3,0.7l1.7-3.1l-0.5-0.3l1.7-3.1l0.5,0.3l1.8-3.4l1.6,0.9
	l0.1-0.2l-2-1l-0.2,0.3l-2.9-1.6l1.7-3.1L54,131.4l-16.5-9l0.1-0.1l-6.1-3.3l6.2-11.4l12-21.6l8.8-15.9l0.1-0.2l11.5,6.6l4.5,2.5
	l6.1,3.4l0.2-0.2l0.1-0.1l4.8,2.7l1.4-2.5l3.5,1.9l3.5,1.8l0-0.1l0.8,0.4l0,0.1l12.6,6.9l0.4-0.8l0.4-0.6l0.2-0.4l0.2,0.1l0.2-0.4
	l-0.2-0.1l1.8-3.2l0.2,0.1l0.2-0.3l0.1-0.1l1.5,0.8l-0.2,0.3l4.2,2.3l3,1.6l5.6,3l0.1-0.2l0.1-0.2l1.6,0.9l-0.2,0.4L133.9,100.8"/>
<path class="st0" d="M134.3,50.3L134.3,50.3l24.2,39.7l-45.6,27.8l0.5,0.9l45.5-27.9l24,39.2L137.4,158l0.5,0.9l45.5-27.9l24,39.2
	l-45.6,27.9l0.3,0.5l21-12.9l3.4,5.5l-16.1,10l0.9,1.5l-1.6,1l-0.9-1.5l-5.4,3.1l-3.5-5.5l0.4-0.2l-0.3-0.5l-45.7,27.9l-24-39.3
	l45.7-27.9l-1-1.7L89.6,186l-23.4-38.2l45.4-27.8L86.7,79.4L134.3,50.3L134.3,50.3"/>
<path class="st0" d="M125.6,162.9L125.6,162.9L76.9,82.7l57.4-35l24,39.4l-55.5,33.8l0.4,0.7l55.5-33.8l24,39.4L127.2,161l0.4,0.7
	l55.5-33.8l24,39.4l-55.4,33.9l0.5,0.7l12.3-7.5l3.7,6.1l-18.4,11.4l-0.3-0.5l-10.8,6.6l-3.5-5.8l15.1-9.2l-0.5-0.7l-55.5,33.9
	l-24-39.4L125.6,162.9L125.6,162.9"/>
</svg>
