<?xml version="1.0" encoding="utf-8"?>
<!-- Generator: Adobe Illustrator 26.0.2, SVG Export Plug-In . SVG Version: 6.00 Build 0)  -->
<svg version="1.1" id="Ebene_1" xmlns="http://www.w3.org/2000/svg" xmlns:xlink="http://www.w3.org/1999/xlink" x="0px" y="0px"
	 viewBox="0 0 283.6 276.7" style="enable-background:new 0 0 283.6 276.7;" xml:space="preserve">
<style type="text/css">
	.st0{fill:none;stroke:#000000;stroke-width:0.1;stroke-linejoin:round;}
</style>
<path class="st0" d="M166.6,121.1l6.1,6.5L132,158.6l-20-24.7l-8.8-10.7L141,92.7L166.6,121.1"/>
<path class="st0" d="M116.6,271.8l-2.8,4.8l-12-10.6L86,263.4l-9.8-13.1l-14.8-5.7l2.8-5.2l21.7-35.2l13.5-22.7l-42.4-79.5
	L20.2,32.8l-2-3.7l15-4.8l10.2-12.4l16.6-1.5L72.3,0.1l28.1,51.4l7.3,13.7l36,1.5l136.5,4.5l-3.4,15.8l6.7,16l-7.5,13.4l3.5,16.8
	l-60.2-2.3l-15.3-0.3l-19.4,31.5l-54.1,87.1L116.6,271.8"/>
<path class="st0" d="M20.8,164l0.5-0.7l4.8-9l4.7-8.6l-3.7-2.7l2.9-6l0.5-0.7l0.5-1.1l4.6-7l3.5-4.4l0.9-1.1l5.7-6.5l0.9-0.7l5.6-5
	l26.2-28.5l39.4-35.5l-2.7-5l17.7-12.8L154,15l3.2,3.8l8.3-4.7l9.1-5l11.9-5.5l18.1,37.1l0.7,0.9l0.3,0.8l0,0.4l0.3,0.8l-0.1,0.8
	l-0.5,0.7l0,0.4l-0.5,0.7l-0.8,0.3l9.7,9.6l1.6-0.2l0.4-0.4l1.2-0.3l0.4,0l0.8,0.1l0.7,0.5l1.5,0.5l36.7,18.5l-4.9,10.9l-0.5,1.1
	l-4.7,8.6l-4.7,8.6l4.1,2.7l-12,19.3l-1.4,2.2l-27.6,35.4l-13.5,14.4l-16,15.7l-17.4,14l-18.1,13.2l-0.9,0.7l-20.4,13l-2.7-4.2
	l-8.3,5.1l-9.1,4.6l-1.2,0.7l-10.7,4.9l-18.1-37.1l-0.7-1.2l-0.3-0.8l-0.4-0.4l0.1-0.8l0.5-1.1l0-0.4l0.1-0.8l0.1-1.2l-9.3-9.1
	l-0.8,0.3l-0.5,0.7l-0.4,0l-0.4,0.4l-0.8-0.1l-0.8-0.1l-0.8-0.1l-0.8-0.1l0-0.4l-0.8-0.1L16.2,175L20.8,164"/>
<path class="st0" d="M113.8,82.4l77.8-9.4l37.6,4.4l18.5,28.1l11.9,23.9l-3.1,24.8l-27,15.5l-33.7,3.4l-60.4-4.2l-68.2-4.6
	l-61.1-9.8l-6.1-26.5l5.4-19.9l30.2-12.4L113.8,82.4"/>
<path class="st0" d="M162.8,120.3l-10.6,17L142,153.3l-22.3-17.5l-7.3-5.8l19.9-32.3l12,9.8L162.8,120.3"/>
<path class="st0" d="M110.7,147.1L144.2,91l4.4,3.6l15.8,11.7l-35.2,53.6L110.7,147.1"/>
<path class="st0" d="M199.4,219.2l-12-9.8L44.1,89.6l-2.5-2.2l34.2-55.2l13.5,11.1l143.7,119.9L199.4,219.2"/>
<path class="st0" d="M75.6,49.4l143.3,119.8L199,201.5L56.4,82.5L75.6,49.4"/>
<path class="st0" d="M200.6,195.3L56.9,75.4l13.9-23l148,124.6L205,198.9L200.6,195.3"/>
<path class="st0" d="M125.1,36l6.5-2.1l36.3,22.7l27.7,118.2l-22.1,34.8l-6,1.4L117,180.2l-37.1-22.4l-7.7-34.9L93.5,88L125.1,36"/>
</svg>
