<?xml version="1.0" encoding="utf-8"?>
<!-- Generator: Adobe Illustrator 26.0.2, SVG Export Plug-In . SVG Version: 6.00 Build 0)  -->
<svg version="1.1" id="Ebene_1" xmlns="http://www.w3.org/2000/svg" xmlns:xlink="http://www.w3.org/1999/xlink" x="0px" y="0px"
	 viewBox="0 0 283.5 283.5" style="enable-background:new 0 0 283.5 283.5;" xml:space="preserve">
<style type="text/css">
	.st0{fill:none;}
	.st1{fill:none;stroke:#000000;stroke-width:0.1;stroke-linejoin:round;}
</style>
<rect y="95.9" class="st0" width="283.5" height="91.6"/>
<path class="st1" d="M102.5,145.4l57.8-16.4l0,0l0,0l0,0l0,0l0,0l0,0l0,0l0,0l0,0l0,0l0,0l0,0l0,0l0,0l0,0l0,0l2.6,8.8l0,0l0,0l0,0
	l0,0l0,0l0,0l0,0l0,0l0,0l0,0l0,0l0,0l0,0l0,0l0,0l0,0l-57.8,16.4l0,0l0,0l0,0l0,0l0,0l0,0l0,0l0,0l0,0l0,0l0,0l0,0l0,0l0,0l0,0l0,0
	L102.5,145.4L102.5,145.4L102.5,145.4L102.5,145.4L102.5,145.4L102.5,145.4L102.5,145.4L102.5,145.4L102.5,145.4L102.5,145.4
	L102.5,145.4L102.5,145.4L102.5,145.4L102.5,145.4L102.5,145.4L102.5,145.4L102.5,145.4"/>
<rect y="95.9" class="st0" width="283.5" height="91.6"/>
<path class="st1" d="M13.8,113.2l119.2,5.6l-0.2,9l18.8,0.9l0.2-8.1l100.8,4.8l-0.3,17.5l18.3,0.9l-0.5,25.7L12.9,157.3L13.8,113.2
	 M151.9,147.9l-0.1,5.1l100.2,4.9l0.1-5.1L151.9,147.9 M157.8,129.1l-0.1,4.4l25.9,1.2l-0.1,5.7l36.8,1.7l0.1-5.2l29.6,1.4l0.1-4.9
	l-42.8-2l-0.1,4.3l-10.5-0.5l0.1-4.3L157.8,129.1 M32,141.8l-0.1,4.9l100.5,5l0.1-4.9L32,141.8L32,141.8"/>
<rect y="95.9" class="st0" width="283.5" height="91.6"/>
<path class="st1" d="M122.7,137.9l3.9-0.4l-0.1-0.6l7.3-0.7l0-0.5l4.1-0.4l1.5,16l-3.8,0.3l-0.9-9.5l-7.8,0.7l-0.1-0.5l-3.7,0.3
	L122.7,137.9L122.7,137.9"/>
<rect y="95.9" class="st0" width="283.5" height="91.6"/>
<path class="st1" d="M97.3,139.6l2.1-8.1l1.5-5.6l0,0l0,0l0,0l0,0l0,0l0,0l0,0l0,0l0,0l0,0l0,0l0,0l0,0l0,0l0,0l0,0l29.7,7.9l0.5-2
	l0,0l0,0l0,0l0,0l0,0l0,0l0,0l0,0l0,0l0,0l0,0l0,0l0,0h0l0,0l0,0l7.1,1.9l0,0l0,0l0,0l0,0l0,0l0,0l0,0l0,0l0,0l0,0l0,0l0,0l0,0v0
	l0,0l0,0l-0.5,1.8l30.1,8l0,0l0,0l0,0l0,0l0,0l0,0l0,0l0,0l0,0l0,0l0,0l0,0l0,0v0l0,0l0,0l-3.7,13.9l0,0l0,0l0,0l0,0l0,0l0,0l0,0
	l0,0l0,0l0,0l0,0l0,0l0,0l0,0l0,0l0,0l-32.5-8.7L97.3,139.6L97.3,139.6L97.3,139.6L97.3,139.6L97.3,139.6L97.3,139.6L97.3,139.6
	L97.3,139.6L97.3,139.6L97.3,139.6L97.3,139.6L97.3,139.6L97.3,139.6L97.3,139.6L97.3,139.6L97.3,139.6L97.3,139.6"/>
<rect y="95.9" class="st0" width="283.5" height="91.6"/>
<path class="st1" d="M113.5,135.9l6.8-4.6l10-6.8l4.2-2.8l0,0l0,0l0,0l0,0l0,0l0,0l0,0l0,0l0,0l0,0l0,0l0,0l0,0l0,0l0,0l0,0
	l17.5,25.6l0,0l0,0l0,0l0,0l0,0l0,0l0,0l0,0l0,0l0,0l0,0l0,0l0,0l0,0l0,0l0,0l-10.1,6.8l-10.9,7.3l0,0l0,0l0,0l0,0l0,0l0,0l0,0l0,0
	l0,0l0,0l0,0l0,0l0,0l0,0l0,0l0,0L113.5,135.9L113.5,135.9L113.5,135.9L113.5,135.9L113.5,135.9L113.5,135.9L113.5,135.9
	L113.5,135.9L113.5,135.9L113.5,135.9L113.5,135.9L113.5,135.9L113.5,135.9L113.5,135.9L113.5,135.9L113.5,135.9L113.5,135.9"/>
<rect y="95.9" class="st0" width="283.5" height="91.6"/>
<path class="st1" d="M92.9,155.9l4.6-9.1l0.5,0.3l13.4-26.6l-0.5-0.3l4.5-9l2.8,1.4l0.5-1.1l3.2,1.6l-0.5,1l15.7,8l0.8-1.7l8.9,4.4
	l-0.7,1.6l15.5,7.8l0.5-1l3.1,1.6l-0.5,1l3.1,1.6l-4.5,9l-0.5-0.2l-13.4,26.6l0.5,0.2l-4.6,9.1l-9-4.5l4.6-9.1l0.2,0.1l13.4-26.6
	l-9.2-4.6l-8.3,16.4l-4.7-2.3l-1.7,1.9l-2.6,0.5l-2.3-1.2l-1.1-2.3l0.5-2.5l-5-2.5l8.3-16.4l-8.9-4.4l-13.4,26.6l0.2,0.1l0.7-1.4
	l0,0l1.4,0.8l-1.9,6.4l-1.4,1.8l-1.9-1.4l-1.5,2.9L92.9,155.9L92.9,155.9"/>
<rect y="95.9" class="st0" width="283.5" height="91.6"/>
<path class="st1" d="M120.1,135.6l5.5-2.6l0,0l2.5-1.2l7.9-3.8l0,0l0,0l0,0l0,0h0l0,0l0,0l0,0l0,0l0,0l0,0l0,0l0,0l0,0l0,0l0,0
	l5.5,11.4l3.9,8l0,0l0,0l0,0l0,0v0l0,0l0,0l0,0l0,0l0,0l0,0l0,0l0,0l0,0l0,0l0,0l-15.9,7.5l0,0l0,0l0,0l0,0h0l0,0l0,0l0,0l0,0l0,0
	l0,0l0,0l0,0l0,0l0,0l0,0l-6.3-13.1L120.1,135.6L120.1,135.6L120.1,135.6L120.1,135.6L120.1,135.6L120.1,135.6L120.1,135.6
	L120.1,135.6L120.1,135.6L120.1,135.6L120.1,135.6L120.1,135.6L120.1,135.6L120.1,135.6L120.1,135.6L120.1,135.6L120.1,135.6"/>
<rect y="95.9" class="st0" width="283.5" height="91.6"/>
<path class="st1" d="M120.9,152.8l3.6-11.8l0,0l0,0l0,0l0,0l0,0l0,0l0,0l0,0l0,0l0,0l0,0l0,0l0,0l0,0l0,0l0,0l6.6,2l3.2-10.3l-7-2.1
	l0,0l0,0l0,0l0,0l0,0l0,0l0,0l0,0l0,0l0,0l0,0l0,0l0,0l0,0l0,0l0,0l1.9-6.1l0,0l0,0l0,0l0,0l0,0l0,0l0,0l0,0l0,0l0,0l0,0l0,0l0,0
	l0,0l0,0l0,0l14.2,4.4l0,0l0,0l0,0l0,0l0,0l0,0l0,0l0,0l0,0l0,0l0,0l0,0l0,0l0,0l0,0l0,0l-8.7,28.2l0,0l0,0l0,0l0,0l0,0l0,0l0,0l0,0
	l0,0l0,0l0,0l0,0l0,0l0,0l0,0l0,0L120.9,152.8L120.9,152.8L120.9,152.8L120.9,152.8L120.9,152.8L120.9,152.8L120.9,152.8
	L120.9,152.8L120.9,152.8L120.9,152.8L120.9,152.8L120.9,152.8L120.9,152.8L120.9,152.8L120.9,152.8L120.9,152.8L120.9,152.8"/>
<rect y="95.9" class="st0" width="283.5" height="91.6"/>
<path class="st1" d="M120.3,137.6l5.8,1.2l1.9-11.6l0.4-2.8l0,0l0,0l0,0l0,0l0,0l0,0l0,0l0,0l0,0l0,0l0,0l0,0l0,0l0,0l0,0l0,0
	l15.7,3.1l0,0l0,0l0,0l0,0l0,0l0,0l0,0l0,0l0,0l0,0l0,0l0,0l0,0l0,0l0,0l0,0l-4.9,25.2l-1,6.3l0,0l0,0l0,0l0,0l0,0l0,0l0,0l0,0l0,0
	l0,0l0,0l0,0l0,0l0,0l0,0l0,0l0,0l-13.6-3l0,0l0,0l0,0l0,0l0,0l0,0l0,0l0,0l0,0l0,0l0,0L120.3,137.6L120.3,137.6L120.3,137.6
	L120.3,137.6L120.3,137.6L120.3,137.6L120.3,137.6L120.3,137.6L120.3,137.6L120.3,137.6L120.3,137.6L120.3,137.6L120.3,137.6
	L120.3,137.6L120.3,137.6L120.3,137.6L120.3,137.6L120.3,137.6L120.3,137.6L120.3,137.6L120.3,137.6"/>
<rect y="95.9" class="st0" width="283.5" height="91.6"/>
<path class="st1" d="M96.9,114.4l5-3.5l-2.7-3.6l0.6-3.9l4.4-3.2l4.1,0.4l2.7,3.5l5.4-3.7l20.8,26.8l3.5-2l10.8,14l-3.2,2.8
	l20.4,27.5l-4.8,3.4l1.9,2.9l-0.4,3.6l-6.1,4l-4-1.3l-1.7-2.2l-4.6,3.3l-21.9-29l-6.5-0.2l-3.9-4.3l0.5-5l1.4-1.9L96.9,114.4
	L96.9,114.4"/>
</svg>
