<?xml version="1.0" encoding="utf-8"?>
<!-- Generator: Adobe Illustrator 26.0.2, SVG Export Plug-In . SVG Version: 6.00 Build 0)  -->
<svg version="1.1" id="Ebene_1" xmlns="http://www.w3.org/2000/svg" xmlns:xlink="http://www.w3.org/1999/xlink" x="0px" y="0px"
	 viewBox="0 0 285 242" style="enable-background:new 0 0 285 242;" xml:space="preserve">
<style type="text/css">
	.st0{fill:none;stroke:#000000;stroke-width:0.1;stroke-linejoin:round;}
</style>
<path class="st0" d="M10.2,149l1.2-19.8l11.8-7.1l0.1-10L11.7,105l0.8-21.6l14.2-12.5l15.8,1l6.8,9.2l79.5,2.2l1.8-35.9l49.6,2.4
	l-1.4,32.5l75.4,2.8l30.8,17.7l-1.1,46.9l-35.3,14.5l-70.7-2.5l-1,30l-50-1.8l2.2-34.7l-75.8-3.5l-9.5,9l-17.9-0.4L10.2,149
	L10.2,149"/>
<path class="st0" d="M200.4,151.1L200.4,151.1l-12.9,3.3l-70.3,18.2l-5-18l-3.1-11.9l-5.5-22.2l0,0l0.4-0.1l-0.9-3.5l-0.4,0.3l0,0
	L98,99.8l-1-5.3l-0.4-0.1l-1.3-5l83.2-21.8l8.1,30.3L200.4,151.1L200.4,151.1"/>
<path class="st0" d="M0.1,121l55.1-20.5l-8.4-22.3l107.3-40l16,42.2l24.6-9.2l-11.9-31.3l10.3-17.8l25.3-8l20.3,5L251.5,47
	l18.7,11.2l12,27.6l-5.3,22.6l-14.4,5.4l11.3,29.4l-5.6,13.7l-149.6,50.4l-7-20.2l-78,26.3l-23.1-65.4L0.1,121L0.1,121"/>
<path class="st0" d="M50.2,139l-1.4-36.7l41-1.4l-0.3-8.3l65.9-2.2l-0.8-23l42.4-1.4l1,24.4l26-0.9l1.9,49.6l-38.3,1.3l1.4,37
	l-47.1,1.6l-1.4-37l-59.6,1.9l-0.2-5.9L50.2,139L50.2,139"/>
<path class="st0" d="M135.6,88.9l41.2,8l0,0l0,0l0,0l0,0l0,0l0,0l0,0l0,0l0,0l0,0l0,0l0,0l0,0l0,0l0,0l0,0l-10.2,58.7l0,0l0,0l0,0
	l0,0l0,0l0,0l0,0l0,0l0,0l0,0l0,0l0,0l0,0l0,0l0,0l0,0l-0.8-0.1l0,0l0,0l0,0l0,0l0,0l0,0l0,0l0,0l-3.3-4.5l-38.9-6.8l-6,4.5l0,0l0,0
	l0,0l0,0l0,0l0,0l0,0l0,0l0,0l0,0l0,0l0,0l0,0l0,0l0,0l0,0l-3.7-5l0,0l0,0l0,0l0,0l0,0l0,0v0l0,0l0,0l0,0l0,0l0,0l0,0l0,0l0,0l0,0
	l6.6-4.9l9.3-46.1l-4.3-5.9l0,0l0,0l0,0l0,0l0,0l0,0l0,0l0,0l0,0l0,0l0,0l0,0l0,0l0,0l0,0l0,0l5.5-4l0,0l0,0l0,0l0,0l0,0l0,0l0,0
	l0,0l0,0l0,0l0,0l0,0l0,0l0,0l0,0l0,0L135.6,88.9"/>
<path class="st0" d="M109.7,110.6L109.7,110.6L109.7,110.6l4.2,1.7l3.5-6.5l-3.8-6.8l0,0l27.2-10.9l0,0.1l3-1.4l14.2-5.7l-1.7-4.5
	l5.9-2.4l2,4.7l4.7-1.9l2.2,6.1l-4.8,1.7l3.1,8l0,0l-4.9-0.2l3.6,8.9l4.6-0.6l0.1,0.2l3.4,9.6l0.5,0l8,20l4.7-1.8l2.6,5.9l-4.6,2.1
	l2,4.7l-4.7,2l-2-4.6l-24.4,9.3l-22.5,9.1l1.8,4.7l-5.9,2.3l-1.8-4.6l-4.9,2l-2.5-6l4.5-2L109.7,110.6L109.7,110.6"/>
<path class="st0" d="M8.9,118.3l32.9-4.2l-3.1-23.6L184.3,72l-5.9-44.8l37.9-4.8l5.9,44.9l25.5,0.8l19.3,22l7.8,31.4L254,153
	l-104.6,17.3l2.8,21.4l-35.6,4.5l-2.7-20.6l-63.3,8l-3-22.7L15,164.9L8.9,118.3L8.9,118.3"/>
<path class="st0" d="M22.4,112.6l32.7-12.3l-9.4-24.8l25.2-9.4L60,37.4l92.1-37.3l12.1,30.7l28.1-10.5l9.6,25l35.2-13.1l35.7,93.5
	L237.3,139l9.4,24.6l-24.1,9l13.4,35.1l-91.6,34.3l-13.8-36.2l-27.8,10.4l-8.8-23l-35.8,13.4L22.4,112.6L22.4,112.6"/>
<path class="st0" d="M130,86.6L130,86.6l3.5,2l1.3,4.9l7.6-2.3l2,0.9l0.7-0.3l0.8-1.7l0.8-0.2l-0.3-1.3l0.2-0.1l0.1-0.2l-0.4-0.3
	l0.4-5.3l0.9-1.5l22.2-6.5l23.1,70.5l-25.3,7.2l-3.8-2.1l-1.4-4.9l-0.6,0.1l-10.6,2.9l0,0.3l-0.6,0.3l1.4,4.9l-2,4l-26.8,8.3
	l-7.6-27.4l2.5-3.8l4.9-1.5l-0.2-0.5l-2.8-10.7l-0.4-0.5l-4.7,1.5l-4.1-1.9l-7.8-27.2L130,86.6L130,86.6"/>
<path class="st0" d="M47.6,133.7l-0.9-17.1l0,0l0,0l2-17l0,0l0,0l4.8-16.4l0,0l0,0L61,67.9l0,0l0,0l10.1-13.8l0,0l0,0l12.3-11.9l0,0
	l0,0l14.1-9.7l0,0l0,0l15.6-7.1l0,0l0,0l16.6-4.4l0,0l0,0l17.1-1.6l0,0l0,0l17.1,1.4l0,0l0,0l16.7,4.2l0,0l0,0l15.7,6.9l0,0l0,0
	l14.3,9.5l0,0l0,0l12.5,11.7l0,0l0,0l10.4,13.7l0,0l0,0l7.9,15.2l0,0l0,0l5.2,16.3l0,0l0,0l2.4,16.9l0,0l0,0l-0.5,17.1l0,0l0,0
	l-3.4,16.7l0,0l0,0l-6.2,15.9l0,0l0,0l-8.9,14.6l0,0l0,0l-11.2,12.9l0,0l0,0l-13.2,10.8l0,0l0,0l-14.9,8.4l0,0l0,0l-16.1,5.8l0,0
	l0,0l-16.9,3l0,0l0,0l-17.2,0.1l0,0l0,0l-17-2.8l0,0l0,0l-16.3-5.6l0,0l0,0l-15.1-8.2l0,0l0,0l-13.5-10.6l0,0l0,0l-11.5-12.8l0,0
	l0,0l-9.2-14.5l0,0l0,0l-6.6-15.8l0,0l0,0L47.6,133.7L47.6,133.7L47.6,133.7"/>
</svg>
