<?xml version="1.0" encoding="utf-8"?>
<!-- Generator: Adobe Illustrator 26.0.2, SVG Export Plug-In . SVG Version: 6.00 Build 0)  -->
<svg version="1.1" id="Ebene_1" xmlns="http://www.w3.org/2000/svg" xmlns:xlink="http://www.w3.org/1999/xlink" x="0px" y="0px"
	 viewBox="0 0 276 283.6" style="enable-background:new 0 0 276 283.6;" xml:space="preserve">
<style type="text/css">
	.st0{fill:none;stroke:#000000;stroke-width:0.1;stroke-linejoin:round;}
</style>
<path class="st0" d="M125,166.6l0.2-2.1l2.8,0l0.5-0.5l0.4-2.7l8.6,0.1l0-0.4l1.6-0.1l2-0.8l8,0.1l1.5,0.7l1,0.3l0,0.5l6.4,0.3
	l-0.1-0.9l0,0l4.3,0.3l-0.1,0.6l7.5,0.1l3.4-3.1l0.5-5.4l-3-3.3l-8-0.3l0,0.6l-4,0l-0.1-0.5l-5.3-0.1l-2.7-0.4l-7.9-0.2l-0.2-1.3
	l-2.4-0.1l0,1.6l-10.8-0.2l0-3.4l-3.1-0.5l0.1-2.1l5.2,0.2l0,3.8l8-0.1l0-2.1l6.2,0.1l0,1.8l7.6,0.1l3.7-0.9l4.4-0.1l0,1.2l2.6,0.1
	l0.2-2.8l1.6,0.1l0,2.5l4.3,0l1-2.5l1.4,0.5l-0.8,2.7l3.1,3.9l3.2-0.7l0.4,1.6l-2.7,0.7l-0.3,4.9l3.2,1.7l-0.9,1.7l-3-1.2l-3.3,2.8
	l1.1,3.5l-1.9,0.6l-1.2-3.1l-4.3,0l0,3.1l-1.9,0.1l-0.1-3.1l-3.1-0.2L160,166l-1.9-0.1l0-1.9l-5.5,0.1l0.1,2l0,0l-2.4,0l0-2l-4.5,0
	l-0.6,0.9l-0.1,0.7l-1.7-0.1l0,2.7l-1.8,0l0.1-5.3l-2.4-0.1l0.1,0.6l0,0l-7.9-0.2l0,2l8,0.7l0,1.2L125,166.6L125,166.6"/>
<path class="st0" d="M64.9,173.3l5.3-8.8l39.6,23.2l5.9-6.7l17.6,9.9l0,0l-5.1,6.9l44.1,26l73.5-89.5L143,86.6l-61,84.8l-6.4-4.5
	l62.9-84.6l-7.5-1.8l0,0l6-9.6l116.8,62.2l0,0l-82.2,101.9L64.9,173.3L64.9,173.3"/>
<path class="st0" d="M87.2,151.3l0.2-0.7l0.4-0.6l0.6-0.6l36.4-23.2l1.9,0l1.6,0.4l13.8,23.1l7.3-4.4l-13.8-22.2l-0.4-0.9l-0.2-1
	l0.2-0.8l0.8-1.2l36.9-23.4l0.5-0.1l0.9,0l1.2,0.8l17.2,27.2l0,0.7l-0.4,1.7l-34.7,21.8l4.5,7.1l33.6-21.1l1.1-0.5l1.3-0.2l0.8,0.3
	l0.7,0.5l16.3,24.7l0.7,1.3l0.3,1.6l-0.2,0.8L216,163L179.9,186l-2,0.8l-0.6,0.1l-0.7-0.3l-1-0.3l-14.1-22.6l-7,4.4l14.4,23.2
	l-0.4,1.4l-0.6,0.8l-36.8,24l-1.2,0.1l-0.9-0.3l-0.4-0.3l-17.2-26.6l-0.4-1l0-1.1l0.4-0.8l0.5-0.5l34.1-21.8l-4.4-7l-34,21.4
	l-1.5,0.3l-0.8-0.1l-0.7-0.5l-17.1-26.5L87.2,151.3 M168.7,160.1l10.7,16.9l27-17.1l-10.7-17L168.7,160.1 M145,122.7l10.7,16.8
	l26.8-17l-10.7-16.8L145,122.7 M121,190.6l10.8,16.8l27-17.3L148,173.3L121,190.6 M97.2,153.3L108,170l26.7-17.2l-10.8-16.7
	L97.2,153.3L97.2,153.3"/>
<path class="st0" d="M135.3,152.7l9.3-1l-0.2-1.7l22.4-2.4l0.1,1.2l1.7-0.1l0,0.4l3.2-0.3l0.6-1.6l1.2,0.4l-0.5,1.5l2.6,2l1.6-0.9
	l0.7,1.1l-1.6,0.9l0.3,2.9l2,0.5l-0.4,1.2l-2-0.5l-2.2,2.4l0.8,1.4l-1.1,0.7l-0.9-1.4l-3.2,0.3l0,0.4l-1.6,0.2l0.1,1.4l-22.2,2.5
	l-0.2-1.5l-9.4,1L135.3,152.7 M146,151.2l1.2,11.7l19.6-2.3l-0.2-2l6.1-0.7l2.4-2.6l-0.3-3l-2.8-2l-6.2,0.7l-0.2-1.9L146,151.2
	L146,151.2"/>
<path class="st0" d="M0,133l15.7-11.4l7.5,10.4L83,92.8l3.9-1.9l1.9-5.3l0,0l4.2,1.9l78.2-28.8L170,56l32.2-12.7l6.9,13.2l0,0
	L90,109.8l-58.3,37.9L64,173.3l-2.1,2.5l5.1,4.4l83.7-55.5l0,0l7.1,14.8l-5.3,3.8l6.1,11l31.2-16.4l-11-19.3l16.8-8.5l5,9.2
	l13.1-6.2l-21.9-42.6l19.8-9.6l60.4,115.7l-2.7,1.6l-25.8,13.6l-0.9-1l-19.4,10.5l4.3,7.8l-67.3,37.7l0,0l-2.6-6.1l-4.5-9.8
	l-29.6,8.8l-61.8-47.5l-0.6,0.7l-4.1-3l-4.3-3.5l0.6-0.7l-37.3-28.7L0,133 M160.6,177.9l12.2,24.1l17.8-9.1l-3.6-6.6l14.7-8.6
	l1.4,2.3l36.8-19.6l-16.5-29.4l-13.2,6.8l5.3,11.5L160.6,177.9 M124,211.8l9,7l22.8-5.8l-13.7-25L124,211.8 M89.9,188.1l18.1,12.5
	l22.1-30l1.3,1l3.8-4.5l-4.9-10.7l-29.1,19.4l1.7,3.7L89.9,188.1L89.9,188.1"/>
<path class="st0" d="M141,152L141,152l5.3-1.4l-0.9-3.1l2.4-0.7l0.9,3.1l4.2-1.2l-0.9-3.1l2.2-0.6l0.9,3.1l4.7-1.3l-0.9-3.1l2.4-0.7
	l0.9,3.1l2.6-0.9l0.4-3.5l2.6,0.3l-0.3,2.3l3.5,2l1.3-2.4l2.2,1.3l-1.3,2.4l-0.5,0.2l0.2,0.3l-0.1,0.1l1.3,3l3.6,0.8l-0.7,2.9
	l-3.3-0.7l-1.8,2.7l1.9,3l-2.4,1.5l-1.6-2.4l-4.2,1.2l0.8,2.9l-2.6,0.8l-0.9-2.9l-3.7,1.1l0.8,2.9l-2.4,0.7l-0.9-2.9l-4.4,1.3
	l0.8,2.9l-2.4,0.7l-0.9-2.9l-5.2,1.5l2.9,9.9l-2.9,0.9l-1-3.3l-5.5,1.6l0.9,3.3l-2.7,0.8l-1-3.4l-5.4,1.6l1,3.4l0,0l-11.6-36.3
	l-2.2,0.3l2.2-0.4l1.2,3l6-1l-1-3l0,0l2.8-0.5l0.8,3l6.3-1l-1-3l0,0l3.3-0.5L141,152 M123.1,154.1l1.4-0.4l0.8,2.5l-1.3,0.4
	l3.8,12.1l1.5,0.4l0.7,2.5l-1.2,0.4l0.9,3.1l13.8-4l-0.8-2.8l-1.4,0.4l-0.7-2.4l1.4-0.4l-3.3-11l0,0l-1.3,0.4l-0.7-2.6l1.4-0.4
	l-1.3-4.5l-14.7,2.4l0,0L123.1,154.1L123.1,154.1"/>
<path class="st0" d="M125.4,141.6l28.6-6.2l0,0l0.8,4.8l1.5,0.4l2,1.4l0.1,1.3l-0.1,1.6l-0.6,2.3l-1.4,1.2l10.7,17.2l2.5-1.1
	l2.1,4.3l-13.9,7.3l-5.1-8.9l0,0l9.5-4.8l-5-9.2l-28.6,6.2l-1.2-6.3l2.2-0.3l0.8,3.7l25.5-5.3l-3.7-13.2l-24.4,5l1.1,5.4l-1.8,0.3
	L125.4,141.6L125.4,141.6"/>
<path class="st0" d="M7.2,135.8l34.9-9.1l12.7,49.5l6.2-1.9l7.2,24.1l-6.4,1.7l16.7,56l91.8-4.4l55.5-83.4l-99.2-87.4l1.5-4.5
	l-3.5-21.4L119,56l-4.6-28.5l14.5-2.3l3.9,24.4l9.4-1.5l-5.9-36.4l13-2.1l5.9,36.3l15.8-2.5l-2.2-13.5l10.7-1.7l-1.7-10.7l9.9-1.6
	l14.9-2.2l3.8,23.7l40.5-6.5l-4.6-28.4l14.4-2.3l8.8,54.4L152,72.7l86.7,76.4l2.9-4.3l0,0l21,17.6l-33.2,49.8l25,14.1l-8,14
	l-26-14.7L186,276.9l-124.2,6.6l-13-43.2l-31.7,9.4l-6.7-22.4l31.3-9.4l-21.5-71.7l-9.9,2.9l0,0L7.2,135.8L7.2,135.8"/>
<path class="st0" d="M74.1,204.2l0-2l-9.3-0.3l0,0.3l-0.6,0l0,0.6l0,0l-0.6,0l0,0.5l-0.9,0l0-0.5l-0.6,0l0-0.5l-0.7,0l0-0.4
	l-4.3-0.1l0,1.3l0.6,0l0,1.4l-0.5,0l0,0.6l-0.5,0l0,0.7l-1.2,0l0-0.8l-2.3,0l0,0.6l-0.7,0l0,0.6l-0.5,0l0,0.7l-1.6,0l0-0.8l-2.2,0
	l0,0.8l-1.5-0.1l0-0.6l-0.3,0l0-0.6l-0.7,0l0.1-1.7l1,0l0-2.1l-1,0l0-0.4l-1.5-0.1l0-1.5l-0.6,0l0-0.8l-2.5-0.1l0,0.9l-1.5,0l0-0.8
	l-0.5,0l0-0.3l-0.9,0l0-1.4l0.9,0l0-2.7l-0.9,0l0.1-1.4l0.8,0l0-0.4l0.4,0l0-0.6l1.4,0l0,0.7l2.6,0l0-0.6l0.6,0l0.2-8.4l-0.9,0
	l0-0.6l-0.4,0l0-0.4l-0.9,0l0-0.3l-0.3,0l0-0.7l0.3,0l0-0.6l0.8,0l0-0.3l0.5,0l0-0.7l0.9,0l0.2-8.2l-1,0l0-0.7l-2.3,0l0,0.7l-1.4,0
	l0-0.7l-0.4,0l0-0.4l-0.6,0l0-1.4l0.6,0l0-2.6l-0.6,0l0-1.3l0.6,0l0-0.3l0.4,0l0-0.6l1.6,0l0,0.6l2.2,0.1l0-0.6l0.3-15.7l-2.2,0
	l0,0.4l-1.5,0l0-0.4l-0.5,0l0-0.5l-0.6,0l0-1.4l0.6,0l0-2.3l-0.7,0l0-1.4l0.6,0l0-0.5l0.4,0l0-0.6l1.4,0l0,0.6l2.4,0l0-0.7l1.2,0
	l0.1-7.8l-1-0.4l0-0.7l-0.4,0l0-0.4l-0.8,0l0-0.4l-0.4,0l0-0.4l0.4,0l0-0.4l0.9,0l0-0.3l0.5,0l0-0.8l0.9,0l0-2.6l-0.1-5.9l-0.9,0
	l0-0.6l-2.3,0l0,0.6l-1.5,0l0-0.5l-0.5,0l0-0.2l-0.3,0l0-1.4l0.5,0l-0.1-2.6l-0.5,0l0-1.3l0.3,0l0-0.3l0.4,0l0-0.7l1.7,0l0,0.7
	l2.6,0l0-0.6l0.9,0l0-1.7l1.1,0l0-0.5l1,0l0-2.1l-1.1,0l0-1.7l0.9,0l0-0.5l0.5,0l0-0.8l1.3,0l0,0.8l2.3,0l0-0.9l1.3,0l0,0.8l0.6,0
	l0.7,0.4l0,0.6l2.4,0.1l0-0.6l1.3,0l0,0.6l0.6,0l0,0.6l0.6,0l-0.1,1.4l-0.6,0l0,1.7l3.8,0.1l0-0.5l0.8,0l0-0.6l0.4,0l0-0.5l1.1,0
	l0,0.4l0.7,0l0,0.6l0.7,0l0,0.6l8,0.1l0-0.5l0.7,0l0-2.4l-0.6,0l0-1.4l0.6,0l0-0.5l0.5,0l0-0.8l1.3,0l0,0.8l2.5,0l0-0.7l1.3,0l0,0.6
	l0.6,0l0,0.6l0.6,0l0,1.5l-0.6,0l0,2.3l0.6,0l0,0.3l0.9,0l0.3,0.6l0,1.2l1,0l0,0.6l2.1,0.1l0-0.7l1.5,0.1l0,0.7l0.4,0l0,0.3l0.6,0
	l-0.1,1.4l-0.6,0l0,0.9l3.6,0.1l0.1-5.4l4.5,0.1l0,5.4l8.1,0.2l0-5.5l4.6,0.1l0,5.5l7.7,0.2l0.1-5.5l4.6,0.1l0,5.5l7.6,0.2l0.1-5.6
	l4.8,0.1l-0.1,5.6l5.9,0.1l0.1-2.9l2.3,0.1l0.1-4.7l-5.7-0.2l0.1-4.8l5.8,0.2l0.2-6.3l-1.9-0.1l-1.8-1.6l0-0.6l-2.2-0.1l0.1-4.7
	l4.3,0.1l0.1-2.4l-0.4-0.3l0.7-1l0.9,0.1l0,0.5l3,0.1l0-0.4l0.6,0l0.3-0.3l0.8,0.7l-0.3,0.3l0.7-0.1l0.3,2.6l2,1.8l0,1l2.8,0.1
	l0-1.1l2.1-1.8l0.3-2.4l0.9,0.1l-0.4-0.5l0.5-0.6l1.3,0l0,0.6l3,0l0-0.6l18.3,0.2l1.2,0.2l0,0.5l2.8,0.2l0-0.3l0,0l0.7,0.1l0.2-0.4
	l1,0.5l0,0l-0.4,0.4l0.5,0l0.5,0.6l-0.1,2l2.1,1.9l0,1.2l2.8,0.1l0-1.2l2.1-1.7l0.5-2.6l0.7,0.1l-0.3-0.4l0.8-0.6l0.3,0.4l0.6,0
	l0,0.3l3.1,0.1l0-0.4l0.6,0l0.4-0.4l0.7,0.8l-0.5,0.4l0.4,0.3l-0.3,2.3l2.9,0.1l0,1.6l2,0.1l0-1.6l1.4,0l0,1.6l8,0.2l0.1-1.7
	l1.9,0.1l0,1.7l7.8,0.2l0.2-10.3l-0.3,0l0.1-1.3l1.6,0l0-1.6l1.3,0.1l-0.1,1.5l7.6,0l0-1.7l1.7,0l0,1.7l8.2,0l0.1-1.5l1.7,0l0,1.5
	l1.5,0l-0.1,1.8l-1.5,0l0,1.9l0.7-0.1l0.7,0.2l0.6,0.4l0.5,0.5l0.3,0.7l0.1,0.7l-0.1,0.7l-0.3,0.6l-0.5,0.5l-0.6,0.3l-0.7,0.1
	l-0.7-0.1l0,2l-0.1,0l0,1.9l1.8,0.1l0,1.7l-1.8,0l-0.1,8.1l1.8,0l0,1.7l-1.8,0l-0.1,8.1l1.7,0l0,1.8l-1.7,0l0,1.8l-3.3,0l1.1,0.1
	l2.2,0.4l1.1,0.4l0,0l-4.6-0.4l2.3,1.2l-1,2l2.3,2.3l0.4-1.3l3.9,1.2l-0.4,1.4l3.2-0.9l0.2-2.1l2.6,0.2l-0.2,2.2l3.8,2.4l1.8-1.4
	l1.6,2.1l-1.8,1.4l0.8,3.1l1.2-0.9l2.3,2.5l-1.1,1.1l3.8,1l1.6-1.7l1.8,1.8l-1.7,1.8l2.2,3.9l2.3-0.2l0.3,2.6l-2.2,0.2l-0.8,3
	l1.3-0.3l1.1,4.4l-1.5,0.4l2.2,1.7l2.3-0.9l0.9,2.2l-2.5,1l-0.1,4.5l2.3,0.9l-0.9,2.4l-2.5-0.9l-1.9,2.3l1.2,0.5l-0.9,3.6l-1.7-0.4
	l0.9,3.3l2.2,0.2l0,2.6l0,0l-2.5-0.2l-2.2,3.8l1.4,1.6l-2,1.7l-1.4-1.6l-3.2,0.4l1.2,1.3l-2.6,2.5l-1.1-1l-0.7,3l2,1.8l-1.7,1.9
	l-1.8-1.7l-3.9,2.5l0.3,2.5l-2.6,0.5l-0.5-2.2l-2.9-1.5l0.3,1.8l-4.2,1.1l-0.4-1.6l-2.5,2.1l0.9,2.4l-2.5,0.9l-0.8-2.1l-3.5-0.1
	l0,1.9l-3.5-0.1l-0.1,5.6l-5.5-0.2l0.1-5.6l-6.8-0.2l-0.1,5.6l-5.4-0.2l0.1-5.6l-6.6-0.2l-0.1,5.6l-5.4-0.1l0.1-5.6l-4.6-0.1l0,0
	l-0.1,2.4l-2.3,0l-0.1,5.5l4.4,0.1l-0.1,4.8l-4.4-0.1l-0.2,7.2l0.9,0l1.5,1.8l0,0.7l2,0l-0.1,4.5l-4.4-0.1l-0.1,5l-4.7-0.1l0.1-2.7
	l-0.7-0.9l0-2l-2-1.8l0-0.5l-2.5,0l0,0.6l-2.1,1.7l0,2l-0.6,0.6l-0.1,3L177,231l0-0.1l-19.2-0.5l-5.1,0.1l-0.2-6.6l-2.2-1.7l0-0.5
	l-2.8,0l0,0.5l-2.1,1.7l-0.1,1.9l-0.7,0.8l-0.1,2.7l-4.1-0.1l0.1-4.9l-5.3-0.1l0.1-4.5l5.3,0.1l0.1-9.7l-5.3-0.1l0.1-4.8l5.2,0
	l0.1-5.4l-2.3,0l0-2.2l-5.8-0.2l-0.1,5.1l-4.7-0.1l0-5.1l-7.8-0.2l-0.1,5.3l-4.6-0.1l0.1-5.4L108,197l-0.1,5.5l-4.6-0.1l0.1-5.6
	l-8.1-0.2l-0.1,5.8l-4.6-0.1l0.1-5.8l-3.6-0.1l0,1.2l0.4,0l0,1.4l-0.4,0l0,0.3l-0.3,0l0,0.9l-1.7-0.1l0-0.9l-2.2-0.1l0,1l-0.8,0
	l-0.1,1.1l-0.6,0l0,1.2l-1.3,0l-0.1,2l0.8,0l-0.1,1.6l-0.8,0l0,0.5l-0.5,0l0,0.9l-1.2-0.1l0-0.8l-2.4-0.1l0,0.9l-1.3,0l0-0.8l-0.4,0
	l0-0.6l-0.6,0l0-1.6L74.1,204.2 M246.2,159.4l0.2,0.8l-0.5,2.4l23.9,6.1l1.8-6.3l-1.5-6.6L246.2,159.4 M245.1,155.1L245.1,155.1
	l0.3,1.1l23.7-4.9l-1.5-6.6l-5.7-5.7l-18.4,14.5L245.1,155.1 M245.5,165.1l-0.2,1l-1.8,1.6l18.4,16.3l5.1-4.6l1.9-6.9L245.5,165.1
	 M240.7,150.7L240.7,150.7l0.8,0.8l17.9-14.9l-4.9-4.9l-6.6-2.2l-7.7,21.1L240.7,150.7 M240.9,170L240.9,170l-2.3,0.5l8.8,22.8
	l6.5-2l5.2-4.8l-17.8-16.9L240.9,170 M237.3,149.8l6.8-21.7l-8.2-2.8l-0.3,24.1L237.3,149.8 M234.9,197.1l8.2-2.5l-6.7-23.6
	l-1.2,0.3L234.9,197.1 M235.9,124.3l3.4,0l1-2l-6.8-0.5l0,0.3l2.4,0.1L235.9,124.3 M229,121.7l-6.1,0l0,0.2l6.1,0.1L229,121.7
	 M212.8,121.6l5.5,0.1L212.8,121.6 M194.9,109.6l-0.1,8.2l2.9,0l0,3.4l6.2,0.1l0.5-19.3L195,102l0,2.6l5.9,0l-0.2,5L194.9,109.6
	 M157.9,229.1L157.9,229.1l0,0.6L157.9,229.1"/>
<path class="st0" d="M129.6,156l0.1-2.5l13.5,0.6l0.2-3l2.2,0.1l-0.1,3.1l8.9,0.4l0.1-2.8l2.6,0.1l-0.1,2.9l9.6,0.4l0.1-2.4l2.1,0.1
	l-0.1,2.6l6.8,0.3l-0.1,2.2l-6-0.3l-0.1,1l-1.7-0.1l0.1-1.2l-10.5-0.5l-0.1,1.2l2,0.1l-0.1,2l-2.3-0.1l0,0.5l-1.8-0.1l0.2-3.7
	l-4-0.2l-0.1,1.3l-1-0.1l0.1-1.3l-4.5-0.2l-0.2,3.6l-1.2,0l0,1.1l1.1,0l0,0.8l-0.9,0l-0.2,3.5l0.9,0l-0.1,0.8l-2.3-0.1l0.5-9.8
	L129.6,156L129.6,156"/>
</svg>
