<?xml version="1.0" encoding="utf-8"?>
<!-- Generator: Adobe Illustrator 26.0.2, SVG Export Plug-In . SVG Version: 6.00 Build 0)  -->
<svg version="1.1" id="Ebene_1" xmlns="http://www.w3.org/2000/svg" xmlns:xlink="http://www.w3.org/1999/xlink" x="0px" y="0px"
	 viewBox="0 0 324.6 215.8" style="enable-background:new 0 0 324.6 215.8;" xml:space="preserve">
<style type="text/css">
	.st0{fill:none;stroke:#000000;stroke-width:0.1;stroke-linejoin:round;}
</style>
<path class="st0" d="M63.6,126.1l0.9-14l8.3-5l0.1-7.1l-8.2-5l0.6-15.2l10.1-8.9l11.2,0.7l4.8,6.5l56.2,1.5l1.3-25.4l35.1,1.7l-1,23
	l53.3,2l21.7,12.5l-0.8,33.1l-25,10.3l-50-1.8l-0.7,21.2l-35.3-1.3l1.5-24.5l-53.6-2.5l-6.7,6.4l-12.7-0.3L63.6,126.1L63.6,126.1"/>
<path class="st0" d="M59.1,111.1l-0.2-1.8l3.6-0.8L60.4,96l12.3-2v-0.1l-0.8-4.4l3.6-0.5l0.7,4.3l16.9-2.8l-0.5-4l4.8-0.7l1.3-2.5
	l3.1-0.7l-0.8-7.2l-4.7-4.2l2.8-2.9l3.9,3l7.8-0.9l7.7-1l2.8-0.5l-0.4-4l3.6-0.5l0.7,4.4l18.9-2.6l-0.5-4.6l3.9-0.5l0.6,4.5
	l18.2-2.6l-0.4-4.4l4.2-0.9l0,0l0.5,4.9l19-2.8l-0.7-5l4-0.7l0,0l0.5,4.9l18.9-2.8l-0.7-4.7l3.9-0.4l0.3,0.9l3.3-0.3l2.1,1.2
	l0.4,2.2l0,0h-0.9l1.1,0.5l5.2-0.4l1.7-1.9l2.1,0.9l-1.3,2.7l3.6,3.5l2.3-1.1l1.3,2l-2.5,2.1l1.3,9.3l9.7,0.8l1.6-4l2.9,1.2l-1.5,4
	l7.5,8.1l2.3-1.4l1.7,2.6l-2.6,1.7l0.5,10.3l4.3,1.2l-0.5,3l-4.2-0.9l-5.2,8.7l3.4,3.4l-1.8,2.4l0,0l-3.1-3.2l-9.2,4.9l1.2,8.6
	l3.2,1.2l0,0l-1.2,2.2l-2.5-0.5l-1.6,4.8l1.7,1.5l-1.5,2.2l0,0l-2.9-2.2l-4.9,2.2v0.2l-1.1,1.1l1.1-0.6l0,0v2.2l-1.6,1.7l-3.6,0.9
	l0.2,1.3l-2.8,0.5l-1.2-4.8l-18.8,3.2l1.1,4.4l0,0l-4.4,0.8l-0.8-4.6l-18,2.9l0.7,4.4l-4.1,0.6l-0.7-4.5l-19.2,3v0.1l0.9,4.4
	l-3.9,0.8l-1-4.4l-18,2.7l0.6,4.8l-3.7,0.4l-0.8-4.7l-17.6,2.9l-5.5,5l0,0l-2.2-3.1l3.8-3.6l-2-13.2l0,0l-7.5,0.9l0.4,3.1l0,0
	l-3.8,0.2l-0.4-4.3l-16,2l0.4,4.7l-3.8,0.4l-0.4-4.4L67.6,144L66,132.6l-3.8,0.3l-0.2-2.4l-2.6,0.7l0,0L56.5,111L59.1,111.1
	L59.1,111.1"/>
<path class="st0" d="M107.4,155.1l4.2-22.1l-4.9-1l6.6-35.2l4.9,0.9l4.2-22.1l13.6,2.6l4.7-25.2L133,43l2.3-12l2.4-1.5l7.3,1.4
	l4.5-23.7l58.3,11l-4.5,23.7l7.6,1.4l1.6,2.3l-2.3,12l-11.1,6.5l-4.7,25.2l13.8,2.6l-4.2,22.2l4.7,0.9l-6.7,35.2l-4.6-0.9l-4.3,22.2
	l-13.7-2.6l-2.4,12.3l-4-0.7l-0.6,3.5l-1.5,3.9l-2.2,4.2l-2.7,3l-3.6,3.4l-4.7,2.5l-4.6,1.6l-4.5,0.6l-4.4-0.2l-4.3-1l-4.2-1.7
	l-3.7-2.5l-3.2-2.8l-2.4-3.2l-1.9-3.2l-1.4-4.3l-0.8-4.2v-4.9l0.7-4.1l-4.3-0.8l2.3-12.3L107.4,155.1L107.4,155.1"/>
<path class="st0" d="M56.4,106.3l38.9-14.5l-6-15.8l75.9-28.2l11.3,29.8l17.4-6.5L185.6,49l7.3-12.6l17.9-5.6l14.3,3.5l9.1,19.7
	l13.2,7.9l8.5,19.5l-3.8,16l-10.2,3.9l8,20.8l-4,9.7l-105.6,35.7l-4.9-14.3l-55.1,18.6l-16.3-46.2L56.4,106.3L56.4,106.3"/>
<path class="st0" d="M88.1,127.7h-0.4l-3-16.7l0.3-0.1l-0.8-4.5l1.9-2.7l1.5-0.3L86.2,95l-1.4-1.1l1.2-1.6l1.3,1l3.2-0.7l-1.8-9.9
	l-1.4-1l1.1-1.5l-3.2-5.1l-1.9,0.3l-0.4-2.3l1.8-0.3l1.3-6.1l-1.5-1.1l1.3-1.9l1.5,1l5.2-3.3l-0.3-1.8l2.3-0.4l0.4,1.8l5.9,1.3
	l1-1.5l1.9,1.3l-1,1.5l3.3,5.1l1.9-0.3l0.2,1.4l6.4-1.2l-1.1-6.3l5.2-0.9l1,5.9l3.4-0.6l-0.5-4.1l-1.5-1l1.2-1.7l1.1,0.7l9.6-1.7
	l0.8-1.1l1.7,1.2l-1,1.5l0.6,4l3.4-0.6l-0.5-3.6l3.5-0.6l0.7,3.4l16.2-2.9l-0.7-3.5l3.4-0.7l0.7,3.4l13-2.5l-0.5-3.3l3.5-0.5
	l0.5,3.2l11.9-2.1l0,0l-0.4-3.3l3.9-0.5l3.6-4.9l-1-1.6l2-1.3l1,1.6l5.5-0.9l0.4-1.8l2.3,0.5l-0.4,1.8l4.6,3.4l1.6-1l1.2,2l-1.6,0.9
	l2,10.5l1.4-0.2l0.3,1.9l-1.4,0.2l1.4,8.5h0.1l1.4-0.2l0,0l0.2,1.4l11.7,1.8l1.7-3.4l2.8,1.4l-1.7,3.4l8.5,8.1l3.4-1.8l1.5,2.8
	l-0.9,0.5l2.3,13.4l1.1,0.2l-0.5,3.1l-3.7-0.6l-5.2,10.6l2.7,2.7l-2.2,2.2l-2.7-2.6l-10.5,5.6l0.2,1.5l-1.4,0.2l1.5,8.4l1.4-0.2
	l0.3,2l-1.4,0.2l1.8,10.6l1.9,0.5l-0.6,2.3l-1.9-0.4l-3.2,4.5l1,1.6l-2,1.2l-1-1.5l-5.5,0.9l-0.5,1.9l-2.3-0.6l0.4-1.8l-7-5l0.4,2.7
	l-3.7,0.6l-0.6-3.3l-12.4,2.1l0,0l0.5,3.4l-3.5,0.6l-0.6-3.4l-11.8,2.1l0.6,3.5l-3.6,0.6l-0.6-3.4l-15.1,2.5v0.1l0.6,3.5l-3.6,0.6
	l-0.6-3.4l-17.6,3l0.5,3.4l-3.4,0.7l-0.6-3.6l-11.6,2l-1.3,5.9l1.5,1.1l-1.3,1.9l-1.5-1l-5.1,3.2l0.3,1.9l-2.3,0.3l-0.3-1.8
	l-5.9-1.2l-1.1,1.5l-1.9-1.5l1.1-1.5l-3.1-5.1l-1.9,0.3l-0.4-2.3l1.8-0.3l1.5-5.6l-1.8-1.2l0.9-1.3l-1.6-9.3l-3,0.7l-1.2,1.2
	l-1.5-1.4l1.2-1.3l-1.6-8.3l-1.6,0.2l-2.8-2L88.1,127.7L88.1,127.7"/>
<path class="st0" d="M142.1,97.8l26.8-10.9l0,0l0,0l0,0l0,0l0,0l0,0l0,0l0,0l0,0l0,0l0,0l0,0l0,0l0,0l0,0l0,0l10.9,26.6l0,0l0,0l0,0
	l0,0l0,0l0,0l0,0l0,0l0,0l0,0l0,0l0,0l0,0l0,0l0,0l0,0l-4.6,1.9l0,0l-20,8.3l0,0l-2.2,0.9l0,0l0,0l0,0l0,0l0,0l0,0l0,0l0,0l0,0l0,0
	l0,0l0,0l0,0l0,0l0,0l0,0L142.1,97.8L142.1,97.8L142.1,97.8L142.1,97.8L142.1,97.8L142.1,97.8L142.1,97.8L142.1,97.8L142.1,97.8
	L142.1,97.8L142.1,97.8L142.1,97.8L142.1,97.8L142.1,97.8L142.1,97.8L142.1,97.8L142.1,97.8"/>
<path class="st0" d="M81.6,141.1l0.8-3.2l1.8-2.8l2.6-2.1l3.1-1.2l3.3-0.2l3.4,1l2.9,2.1l1.9,2.7l20.9-31.8l-22.9-15L135.9,35
	l22.9,14.9l16.9-25.7L230.6,60l-16.9,25.7l21.9,14.4l-36.5,55.6l-21.9-14.4l-20.6,31.4l3.7,1.1l2.9,2.1l2.1,2.9l1,3.4l-0.2,3.6
	l-1.4,3.3l-2.5,2.6l-3.2,1.7l-3.6,0.5l-3.5-0.7l-3.1-1.8l-2.9-2.4L91,153.2l-2.6-1.1l-3-1.8l-2.3-2.7l-1.2-3.1L81.6,141.1
	L81.6,141.1"/>
<path class="st0" d="M92.8,119l6.7-2.5l-7.3-16l0.7-8.9l7.5-6.7L96.2,71L161,45.4l3.6,7.7l9-3.8l6.7,1.6l3.2,3.3l1.3,4.3l6.6-2.5
	l-0.2-2l1.4-3l3.9-1.7l5,1l3.9,3.5l2.7,7.7l6.5-2.5l5,12.6l5.8-2l6.5,0.8l4.8,4.9l0.8,5.8l-1.6,6.4l-3.5,4.7l-4.7,1.8l5.4,13.7
	l-7.9,3.1l0.9,6.4l-2.7,5.6l-8.4,3.6l1.2,6l-14.4,5.2l3.9,12.6l-48.9,19.6l-4.3-9.1l-17.2,7.1l-2.8-7.3l-14.3,3.3l-5.6-7.2
	l-4.2-12.6l-4.9,1.8L92.8,119L92.8,119"/>
<path class="st0" d="M0.1,179.1l0.3-9l1.9-2.3l0.5-14l-1.9-2.1L1,143l3.4-3.8l4.6,0.2l0.1-4.6l-3.1-0.1l2.3-70.9l4.2,0.1l0.1-3.9
	l-4.6-0.1l-2.5-3.8l0.3-9l1.9-2.3l0.5-14l-1.9-2.1L6.6,20l3.4-3.8l6.5,0.3l2.4,2.2L36,19.1l4-1.9l7.1,0.1l3.4,3.7l-0.3,7.8
	l129.1,4.8l1.1-6.1l5.2-10.3l7.9-8.4l10-5.9l11.3-2.8l11.6,0.4l11,3.7l9.5,6.6l7.2,9l4.5,11.3l39,1.8l-1,31.9l7.3,0.2v9.8l7.8,5.4
	l7.3,9l4.4,10.7l1.2,11.5l-2.1,11.4l-5.2,10.3l-7.9,8.4l-8.6,5.1l-0.4,9.8l-8.1,0.1l-1.3,31.6l-38-1.3l-0.3,1.6l-5.2,10.3l-7.9,8.4
	l-10,5.9l-11.3,2.8l-11.6-0.4l-11-3.7l-9.5-6.6l-7.2-9l-4.4-10.7l-0.7-7L44,173l-0.3,6.7l-3.4,3.7h-8.2l-2.7-1.9l-17.2-0.4l-1.6,1.5
	l-7.9-0.1L0.1,179.1L0.1,179.1"/>
<path class="st0" d="M78.4,94.4L78.4,94.4l2.5,0.1l2.8-12.3l-2.3-0.6l0.2-1.5h1.8l3.3-12.7l33.1,5.5l3.2-2.3l3.7,0.6l1.2-5.7
	l-4.1-6.1l0,0l3.4-1.9l4.7,5.6l18.1,3.6l1-4.1l3.2,0.5l-0.4,4l16.7,3.4l0.8-4l0,0l3.2,0.6l-0.4,3.7l16.8,3.5l0.9-4.1l2.8,0.5l-0.7,4
	l16.4,3.2l5.6-3.3l1.9,3l-5.4,3.5l-2.7,15.1l16.6,2.8l1.1-5.9l2.6,0.3l-0.8,6.3l7.4,3.6l3.7-4.6l2.2,1.5l-3.7,4.8l5.7,7l5.5-1.8
	l1.4,3.2l0,0l-4.7,1.3l-5.4,9.2l4.6,3.7l0,0l-2.2,2.3l-4.1-2.7l-5.9,3.5l1.9,5.8l-3,0.9l-2-4.8l-9.2,0.4l-3,17.3l0,0l-9.7-2
	l-0.5,2.4l-3.4-0.6l0,0l0.8-2.5l-5.5-1.2l-1.3,5.1l-3.7-0.6l0.9-5.4l-17.5-3.7l-1.6,5.3l-2.9-0.5l0,0l1.6-5.4l-17.4-3.7l-1.1,4.5
	l-2.7-0.4l-2.3,9.5l2.8,3.6l-1.6,1.3l-2.3-2.5l-13.2-2l-2.7,1.7l-1.5-1.3l0,0l3.4-2.6l2.1-10.9l-2.5-0.5l0.7-4.3l-18.7-3.7l-5.1,3.9
	l-3.1-3.1l0,0l5.8-4.7l1-7l-39.8-7.8l3-15.1L78,95.6l0,0L78.4,94.4L78.4,94.4"/>
</svg>
