<?xml version="1.0" encoding="utf-8"?>
<!-- Generator: Adobe Illustrator 26.0.2, SVG Export Plug-In . SVG Version: 6.00 Build 0)  -->
<svg version="1.1" id="Ebene_1" xmlns="http://www.w3.org/2000/svg" xmlns:xlink="http://www.w3.org/1999/xlink" x="0px" y="0px"
	 viewBox="0 0 283.5 283.6" style="enable-background:new 0 0 283.5 283.6;" xml:space="preserve">
<style type="text/css">
	.st0{fill:none;stroke:#000000;stroke-width:0.1;stroke-linejoin:round;}
</style>
<path class="st0" d="M161.4,219.1L161.4,219.1l-14.8-1.6l-0.1,1.2l-27.4-2.9l0.1-1.2l-14.8-1.6l0.1-1.3l-11-1.2l0.6-5.9l-1.8-0.2
	l-1.3,1l-1.6-2l-1,0.7l-13.4-16.6l-2.3-0.2l-1.3-1.6l0.3-2.4l1.1-0.9l0.8-8l-0.8-1l-0.9-0.1l0.7-6.3l0.2-0.2l-12.1-15.1l27.3-22
	l2.7-24.6l0.8-0.7l-1.6-2l-1.2-0.1l0.1-1.2l-9-11.2l-1.2-0.1l0.1-1.2l-2-2.5l15.6-12.6l-5-6.3l28.3-22.8l5,6.3l10.7-8.7l0.7,0.9
	l3.6-2.9L144,41l2.9,3.6l0.9-0.7l8.6,10.7l19.1-15.4l25.2,31.3l2-1.6l5.1,6.3l-2,1.6l3.8,4.8l1.9-1.6l5.1,6.3l2.2-1.7l1.6,1.9
	l-0.2,0.2l4,5l4.2-3.3l-5-6.3l8.1-6.4l8.7,10.8l-8.1,6.5l-0.6-0.7l-3.9,3.2l0.6,0.8l-0.8,0.6l2.6,3.3l0.6-0.4l1.4,1.7l1.1,0.3
	l0.9,0.5l0.8,0.8l0.7,1.2l0.3,1.1l0.1,1.1l1.4,1.7l-0.6,0.5l2.8,3.5l-3.3,2.6l15.6,19.4l-19.3,15.6l2.7,3.3l-3.5,2.8l0.5,0.6
	l-1.6,1.3l-0.3,1.1l-0.6,1l-0.9,0.9l-1,0.6l-1.1,0.4l-1,0.1l-1.8,1.4l-0.5-0.5l-3.3,2.6l0.7,0.8l-2,1.6l-0.2-0.2l-7.7,6.3l0.2,0.2
	l-2,1.6l-1.7-2.2l-6.1,4.9l1.3,1.6l-3.6,2.9l-1.3-1.6l-14.4,11.6l0.9,1.1l-2.3,1.9l-0.9-1.2l-4.2,3.3l-2.6,4.7l-0.6,5.5l6.5,0.7
	l-0.3,2.9l-2.8-0.3l-0.9,8.2l-14.7-1.6L161.4,219.1L161.4,219.1"/>
<path class="st0" d="M69,163.9l-2.5-42.4l13.1-0.4l0.4-10.6l48.1,1.2l10.7-9.6l-7.9-1.3l4.1-23.4l20,1.4L140,71.6l1.5-3l-13.7-5.6
	l23.5-59.8l60.6,23.4l-15.7,37.8l-0.4,4.7l13.2,1.5l-3.6,25.6l10.8,1.5l-5.7,46.7l-16.1,1.2l0.1,7l3.1,0l0.4,20.5l-17.4,0.4
	l-0.1,5.3l8.6,0l0.7,57l-4.7,0.2l0.5,41.1l-22,0.1l-0.9-42.1l15.2,0l-0.1-2.3l-8.7-0.2l-1.4-41.8l8-0.1l-0.7-9.9l-38,1.3l-1.2,47.7
	l-27.4,0.1l-0.4-18.6l-14.5,1.2l0,0l-0.4-32l-13.1,0L78.3,165L69,163.9L69,163.9"/>
<path class="st0" d="M78.1,248.4l27.1-84.6l4.1,0l5.4-20.9l-6.6-6.3l13.2-27.6l-7-3.6l18.7-44l6.2-2.4l12.1-24.3l-4.1-6.5l14.5-27
	l4.8,1.7l1.6-2.9l14.7,7.3l4.5,6.6l7.1,7.3l16.7,8.6l-4.4,7.9l12.7,6.6l-3.3,8l4,1.8l4.3,1.5l0,0L206,95l0.3,19.9l-20,24.6
	l-52.5,124.4L78.1,248.4L78.1,248.4"/>
<path class="st0" d="M47.7,66.9L47,52.7l5.8-13.4l7.8-10.7l7.3-6.2l7.9,9.5L87,26.9l0,0l3.7,13.9l-7.1,2.7l-3.3-3.3l-6.6,7.4
	l-3.3,8.5L70,64.8l4.5,12.6l6.7,7.6l6.7,4.9l6.3,1l-1,18.6l7.3,25.1l19.9,25.2l14.4,9.8l12.6,4.8l-33.3-51.1l16.6-10.6l5.2,7.9
	l10.2-6.3l-1.4-2.5l5.6-3.2l5.4,8.7l0,0l-16.1,8.9l19.2,29.7l7.2-3.7l-2.5-3.9l12.6-8l-24.2-40.7l16.7-10.3l29.1,43.5l9.8-5.7
	l-19.9-31.8l-7.5,5.2l0,0l-23.2-37.2L146,70.4l-25.7-39.3l37.8-23.8l28.3,43.2l-4.5,3L193.1,71l14.4-9.2l36.2,55.5l-63.9,38.5
	l4.6,6.6l-2.2,2.5l4.6,6.4l-2.2,2.4l4.8,8.1l-2.5,2l5.3,8.3l-3.7,2.4l21.3,33.4l-62.7,40.6L126.5,234l14.6-9.2l-5.3-8.1l15-10
	l-8.9-16.3l-5.8,3.6l-5.1-8.8l10.5-8l-8.7-3.2L126,186l-14.3-6.8l-6.8-5.7l-9.9-10l2.6-3.2l-4.5-4.9l-4.1,1.2l-7.5-12.5l3-2.3
	l-2.7-6.6l-3.4,0.1l-4.2-14.6l-4.8-10.6l3.8-8.3l-8.2-7.5l-5-7.8L55.9,88l-5.1-8.8L47.7,66.9L47.7,66.9"/>
<path class="st0" d="M62.6,132.9l3.7-15.3l17.4,3l50.8-4.8l-13.2-44l1.7-60.1l58.1-10.6l19.2,101.2l-27.4,5.2l10.3,49.1l2.5,15.1
	l1.4,7.7l-7.8,1.7l2.2,12.1l-6.4,40.2l62.8,12.4l0,0l-7.4,16.5l-61.7-11.6l0,0l3.3-11.4l-16.2,2.1l0.5,8.8l-67.8,6.1v0l0.7-15.4
	l-6.8-15.2l0,0l31.9-1.1l40.3,3.5l3.9-18l-13.3-3.7l0.6-20.2l5.8-3.5l-8.6-17.6l5.7-4.1l-9-25.3l0,0l11.9-2.6l-4.1-10.8l-20.7,5
	l1.8,12.7l-56.2,9.4l-4.8-2.8L62.6,132.9L62.6,132.9"/>
<path class="st0" d="M49.3,83.5L109,50l56.5,101.9l6.5-3.7l-30.5-54.8l56.1-30.7l6.8,12.6l7.3-3.9l19.4,37.2l-9.9,5.2l-5.4,4.8
	l-3.6,3.8l-2.8,4.8l-1.9,6.2l0.3,9.1l18,37.2l-2.3,1.4l-2.4-0.3l-6.1,3.5l-2.5-4.4l-17,9.1l4.8,7.7l-24.5,13.8l-4.2-7.6L153.3,213
	l-9-16.3l-24.6,13.8L49.3,83.5 M78.7,93.3l51.6,95l25.2-13.9L104,79.4L78.7,93.3L78.7,93.3"/>
<path class="st0" d="M89.3,69.2L89.3,69.2l8.3,0.6l0.2-2.8l15.2,1l-0.2,2.9l18.1,1.3l0.2-2.7l9.6,0.7l0,0l-0.1,0.3l5.4,0.4l-0.2,2.5
	l18.4,1.4l0.2-2.8l9.7,0.7l0,0l-0.1,0.4l5.3,0.3l0,0l-0.3,2.7l18.7,1.1l0.5-4.3l7.2,0.5l-0.2,2.9l3.6,0.3l1.6,4.4l1,4.2l0.3-0.1
	l0.2,0.7l-0.4,0.1l0.5,1l0.1,0.7l2.8-1.1l1.6,4.1l-3.7,1.5l0.5,4.6l0.4,5.4l-0.1,5.3l-0.2,3.1l-0.4,3.1l-2.5,11.2l-1.1,4l0.5,0l0,0
	l-0.3,0.6l-3.4-1.9l-4.1,6.4l4,3.3l0.3-0.4l11.9,8.5l-9.4,12.4l-1-0.8l-0.4,0.5l1.7,1.4l-5.7,7.3l14.1,6.7l-7,14.8l-8.3-3.9
	l-0.4,4.9l1,0.1l-0.2,2.7l-0.9,0l-0.2,2l-23.2-1.7l0-0.3l-5.1-0.2l0,0l0-0.2l-22-1.6l0,0.2l0,0l-14.7-1.1l-0.6,1.7l0,0l-3.3-1.5
	l0.1-0.4l-4.3-0.3l-0.1-0.2l-23.9-1.7l0,0.3L89.3,185l0.8-11.7l-1.2,0.1l-0.7-7.4l0.9-0.1l-0.2-2.2l-0.9,0l-1.7-18.9l5.9-0.5
	l1.8-25.5l0.4-7.5l-2.6-0.4l1.3-15.2l2.8,0.2l0.2-3.6l-1.4-0.1l0.2-3.2l1.4,0.1l0.3-4.3l-2.5-0.2l0,0.2l-5.9-0.4L89.3,69.2
	L89.3,69.2"/>
<path class="st0" d="M26.1,99.1l44.4-15.3L89.6,137l36.3-12.4L115.3,92l15.8-5.8l8.9,28.5l20-6.8L150.9,80l1.5-0.5l-10.1-29.1
	l73.7-25.7l10.6,30.5l8.1-2.7l10.9,38.7l-6.2,2l1.7,5.3l-76,24.9l-4.4-13.3l-20,6.9l39,121.5l-7.7,3l-1.7-4.2L121,253.4l1.4,4.2
	l-6.9,2.2l-24.8-78.1l48-15.5l-7.9-28l-49.4,16.2l-18.5-53.8l-32.6,11.6l-0.3-0.8L26.1,99.1 M170.3,93.1l2.4,7.3l10.1-3.3l1.4,4.2
	l38.4-12.6l-3.8-11.5L170.3,93.1 M183.9,47.2l6.9,19.8l11-3.6l-7-20L183.9,47.2 M118.4,214.3l5.8,18.3l32.6-10.5l-13.6-41.5
	l-13.5,4.5l1.3,4.2l6.8-2.1l10,32.1l-17.2,5.4l-4.1-12.9L118.4,214.3 M111,191.3l6.2,19.4l8.3-2.6l-4.8-15.4l6.1-1.9l-1.3-4.2
	L111,191.3L111,191.3"/>
<path class="st0" d="M71.8,168.8l11-37l43.4-81.5l0,0l16.9,12l16.7-1.9l5.7,41.3l39.2,9.5l0,0l-2.3,7.6l29.1-27.3l10.3,8.3
	l-41.8,55.2l57.6,4.7l-1.9,14.8l-54-2.4l-36-10l-2.1,4.7l6.9,1.9l0,0l-6.9,21.3L71.8,168.8L71.8,168.8"/>
<path class="st0" d="M120.9,278.7l16.7-73.7l-1-18.4l-4-12l-17.3-8.6l-4.5-33.5l11.5-2.1l-11.5-51.9l16.4-3l-10-55.1l0,0l47.7-5.8
	l4.6,21.7l-1.5,20.9l7.3,20.2l4.1,13l10.9,0l1.8,17.3l-15.3,3.8l1.9,35.9l5.7,16.6l17.9,6.5l12.5-2.3l5.1,6.9l-30.2,27.3l-22.6-8.4
	l-4.9,11.9l-5.1-1.5l-19.7,79L120.9,278.7L120.9,278.7"/>
</svg>
