<?xml version="1.0" encoding="utf-8"?>
<!-- Generator: Adobe Illustrator 26.0.2, SVG Export Plug-In . SVG Version: 6.00 Build 0)  -->
<svg version="1.1" id="Ebene_1" xmlns="http://www.w3.org/2000/svg" xmlns:xlink="http://www.w3.org/1999/xlink" x="0px" y="0px"
	 viewBox="0 0 283.5 283.6" style="enable-background:new 0 0 283.5 283.6;" xml:space="preserve">
<style type="text/css">
	.st0{fill:none;stroke:#000000;stroke-width:0.1;stroke-linejoin:round;}
</style>
<path class="st0" d="M39.3,176.6l-0.7-16.8l11.4-12.3l12.4-1.4l2.9-28.9l-5.2-0.6l0.4-3.6l0,0l1.9,0.3l0.4-7.7l3.7,0.3l1.1-11.2
	l-5-0.9l0.9-6.2l5,0.6l3.6-11.2l-6.7-1l0.9-6.7l6.7,1l0.7-4.7l-6.6-1l1.5-10.7l6.6,1l1.3-6.5l-5.1,1.1l-5.3-0.5l-5.5-2.4l-4.4-4.1
	l-2.3-3.8l-1.3-4.3l-0.2-4.4l1.2-5.1l2.6-4.5l3-3l3.6-2.2l4.7-1.4l4.9,0l4.3,1.1l3.9,2.1l3.2,3l2.8,4.5l1.4,5.1l-0.1,5.1l-1.5,4.9
	l62.6,38.8l60.2,5.2l0,0l-3.9,15l50.1,18.5l-1.2,3.5l-16.5-5.9l-3.5,9.8l-30.7-10.9l-1.2,3.4l-9.7-3.5l4.6-13.3l-6.4-2.3l0,0l4-9.2
	l-22.2-0.3l-4.2,6.3l-11.7,3.7l-16-1.8l0,0l3.2-17.6l-13.1-7.7l-8,12.2l0.9,3.6l-3,5.4l-12,2.8l-3.1,3.9l-30.1-6.4l-2.6,17.6
	l11.4,2.1l6.1,1.5l-1.6,5.5l-6.5-0.7l-11.3-2.4L70,135.7l5.2,0.3l5.9-2.3l1.6-3.9l3,0.2l-0.1,6.3l-5.4,3.1l-10.4-0.2l0.2,3.6
	l3.4-0.8l0,0l0.7,4.1l7.6,2.7l-0.1,3l42.4,8l6-32.8l-4-0.8l4.6-25.4l14.1,2.7l-4.9,27l3.4,0.7l-0.7,4l-5.7-1.1l-8.6,47.5l19.1,3.7
	l1.7-1.7l13.2-64.6l-5.3-1.1l2.9-14.8l17.1,3.5l-14.1,74.9l3.7,1.6l3.6,3.2l1.7,0.1l6.1-1.1l2.7,3.8l0,0l-7.1,1.5l0.3,4.6l-0.4,4.8
	l-2,4.6l-3.3,3.7l-4.4,2.5l-4.9,0.9l-5.6-1.2l-4-1.8l-3.6-3.7l-2.2-4.7l-0.6-4.7l0.5-2.6l-64.9-11.7l-0.3,9.3l0,0l-26.4-2.6
	L39.3,176.6 M80,58.6l36.8,23l9-13.3L84.5,43.5l-3.1,2.6L80,58.6 M79.8,172.3l40.4,7.9l2.7-14.2l-42.6-8.3l1.4,6.6L79.8,172.3
	L79.8,172.3"/>
<path class="st0" d="M33.8,78.5l-0.1-4l2.6,0.1l0.1,1.4l7.5-0.6L43.8,73l-2.9-0.6l-2-2.8l2.3-5.3l3.7-0.4l2.8,2.5l0.2,3.6l-2.4,2.5
	l0.8,2.7l16.3-2.7l-1-4l-6.3,1.4l-0.8-3.1l-5.8-5.7l-1.1-5.8l2.8-6.7l-0.5-3.2l67.8-14.2l20.2,13.6l3.4,18.1l15.2-1.7l2.3,12.3l0-3
	l2.4-0.5l0,0l0.4,3.8l-2.6,0.4l0,1.4l15.1,108.1l13.4-2.8l2.2,1.9l-1.6,2.4l-6.4-0.3l6.9,57.7l9.8-2l2.7-6.7l6.6-2.3l4.5,2l2.9,4.7
	l-2.3,7.5l-6,2.4l-5.1-1.9l-2.9-4.3l-22.3,4.6l-0.4,5l-2.6,3.4l-3.9,1.7l-5.2-0.9l-4.4-6.8l0.8-4.6l2.5-2.8l6.3-1.5l6.3,5.1l4.3-1.1
	l-7.6-57.9l-3.7-2.2l-67.5,8.7l-1-7l-6.9,0.7l-5-10.1l1.5-11.8l6.8-0.7l-0.5-2.8l-17.3,2.5l-0.2,2.4l2.9,1.4l1.6,3.5l-2.8,4.7
	l-3.7,0.3l-3.4-4.7l3.1-6.3l-6.7,0.7l-6.9-2.7l-3.6-6.3l-4.1-25.9l0,0l2.6,0l4.1,25.4l3.1,5.1l11,1.2l-0.1-2.4l-3.2-1.4l-1.2-3.6
	l1.8-3.4l3.3-1l4.4,4l-0.5,3.2l-2.8,2.1l1.2,2.6l16.9-2.8l-0.5-2.9l-6.3,0.8l-0.4-3.8l-4.1-5.2l1.4-13l6.2-1l-1.2-7.4l72.7-12.2
	L155.6,63l-13.9,1.3l2.1,16.2l-11.7,14.7l-28,14.1l-17-6.2l-22.8,5.7l-0.8-3.1l-5.2-4.8l-1.6-5.6l2.5-7.3l-0.6-3.2l6.2-1.8l-1.8-7.8
	L47,76.7l-0.2,3.4l3,2.1l1,3.6l-2.3,3.3l-3.2,0.7L41,85.3l1-3.4l2.7-1.8l-0.8-3L33.8,78.5L33.8,78.5"/>
<path class="st0" d="M28.3,133.9l25-57.9l17.6,8.3l3.1-7.8l0,0l2,2.1l-2.7,7.8l21.6,10.4l3.8-7.9l16.9,5l0.5-3.8l-7.2-3.1l0.1-1.6
	l0,0l7,2.3l0.3-8.8l0,0l11,2l0.6,22.7l5.5,1.2l13.2,0l1.7-15.9l0.9-4l3.4,0.6L151,105l4.8-0.6l19.8-4.9l0.9,1.8l2.6,2.7l0,0
	l-25.2,5.2l-11.9,0.8l1.8,13.6L161,121l20.8-6.7l12.6-5.1l0.3-2.1l4.4-2.5l3.3-3.7l1.9-4.6l0.4-4.8l-0.2-4.6l7.1-1.5l3.9,6.9l0,0
	l-6.4,2.7l-0.1,5.7l-2.2,5.8l-6.9,5l-9.9,4.3l-22.8,7.7l-6.7,1.8l-16.1,3l6,51.4l-24.7,1.8l1.2,21.6l-11.9,0.1l-0.3,3.1l0,0
	l-1.5-0.4l-0.3-12.9l9.2-0.2l-0.8-16.2l18-0.6l-1.3-9.9l-18-0.7l-0.1-5.4l0,0l17.7,1l-0.8-7.6l-18.8,0.3l-3.9-45l-7.2,0.2L66.9,91.1
	L53,84.2l-3.5,7.3l14,8.5l27.7,19.8l0,0l-2.5,5.4l0,0l-5.9-4.4l-5.6-2.9l0.5-1.9l-14-10.9l-2.1,1.8l-3.8-3l1-2.4l-5.9-3.2l-1.4,2.2
	l-3.9-2.5l-4.1,8.4l-3.8,8.9l21,10.9l15.6,11.3l3.4-5.7l0,0l3.2,2.7l0,0l-8.5,9.1l-3.8-1.5l1-2.4l-7.9-5.6l-4.9,5.9l10.6,6.4l0,0
	l-2.6,1.6l-14.5-6.6l0,0l8.3-10.7L47,124.2l-8.6-5.2l-7,16.3L28.3,133.9 M122.6,149.1l16-0.4l-4.1-31.5l-14.4,0.9l0.4,7L122.6,149.1
	 M115.7,201.7l9.8-0.4l-0.3-6.4l-9.7,0.1L115.7,201.7 M108.2,102.1l6.4,1.4l0.9-6.9l-5.8-0.8L108.2,102.1 M97.4,99.3l8.2,2.6
	l2.1-7.4l-7-2.1L97.4,99.3L97.4,99.3"/>
<path class="st0" d="M104.9,127.6l1.1-1.2l1.9,1.8l1.1-1.8l-1.6-1.5l0.8-0.9l1.8,1.3l0.3-0.6l-1.9-1.7l0.8-0.9l2,1.6l0.7-1.2
	l-2.1-1.9l0.7-1l1.9,0.8l0.5-2l-1.7-1.2l0.6-1l0.7-0.5l2.3,0.9l-0.6,2.9l3.7,3l2.6-2.4l-5-5.4l3.5-3.7l-2.2-2.7l1.1-1l2.7,2.7
	l1.4-1.4l0,0l7.3,9.3l5.5,7.4l-1.6,1l-0.6-0.9l0.7-0.5l-2.3-3l-2.8,2l-1-1.2l2.7-2.1l-1.4-2.1l-2,1.4l-0.7-0.8l0,0l1.9-1.5l-2.4-3.2
	l-1.7,0.9l-0.6-0.9l1.1-1.2l-2.2-2.7l-4.5,4.4l2.1,2.4l2.2-1.8l0,0l0.5,0.9l-1.9,1.7l2.9,3.2l1.4-1l0,0l0.4,1l-1.4,1.2l0.5,0.8
	l-1,0.7l-2.1-2.6l-5.5,5.1l1.5,2.2l-1,0.6l-1.6-1.8l-3.3,4.9l1.1,1.4l-0.9,0.7l0,0l-1.6-2.2l3.7-5.8l-1.4-1.3l-1.1,3.2l-2.2,3.2l0,0
	L104.9,127.6 M112.8,124l1.8,1.4l2.2-2l-2.5-2.1L112.8,124L112.8,124"/>
<path class="st0" d="M57.6,28.8l3.3-0.6l-2.8-14.9l5.9-1.1l1.1,6.1l3.4-0.7L67.3,11l7.3-1.4l2.9,15.7l1.3-0.2l10,53.7l8.6-1.7
	l-2.1-11l6.2-1.2l-7.9-42.4l8.7-1.7l-1.3-7.4l8.5-1.6l-1.5-8.3L126,0.1l12,64.3l-1.8,0.4l0.4,2.4l4.8-0.9l1.3,7.2l-2.4,0.5l8.2,43.6
	l5.3-1l-1.4-7.5l30.7-5.9l1.4,7.3l1.5-0.3l6.4,34.5l-8.5,1.7l0.6,3.1l-15.8,3l-2.8-14.9l-18.4,3.5l-2-10.8l-2.5-2.4l-1.7-0.6
	l-8.3,1.6l1.3,7l5.8-1.1l1.4,7.6l-5.9,1.1l23.3,124.5l-4.2,0.8l2.6,13.8l-5.9,1.1l-1.2-6.4l-8.2,1.6l-19-101.7l-15.6,3l6.8,36.2
	l-7.1,1.4l1.1,6.2l-6,1.1l-2.7-14.2l-7.1,1.3l-10.9-58.3l1-0.2l-1.4-7.6l-1.5,0.3L57.6,28.8 M108.4,157.6l0.8,4.2l6.2-1.1l-0.8-4.2
	L108.4,157.6 M106.3,126.5l1.2,6.3l4.1-0.8l-1.2-6.3L106.3,126.5 M90.6,87.8l4.5,23.8l15.4-3l-3.3-17.8l-7,1.3l-1.1-5.9L90.6,87.8
	L90.6,87.8"/>
<path class="st0" d="M72.2,217.2l2.8-18.1l0.8-6.4l2-11.8l1.3-9l0.9-9.5l0.6-0.6l2.1,0.3l5.4-0.4l6.7-1.3l6.1-2l7.3-3.3l4.8-3.4
	l9.9-8.5l6.2-7.1l4.8-6.9l3.8-9.4l1.3-5.8l1.4-19l0,0l2,0.3l-0.2,2.7l2.9,0.5l9.1,2.1l0.7-3.9l1.2,0.2l0.4-2.2l-0.9-0.1l0.2-1.6
	l-3.2-0.5L142,90.6l-0.1,2.8l0,0l-1.1-0.1l0.1-2.7l-0.3-0.1l-0.2-2.4l-1-11.1L138,64.6l-1.3-8l-0.5,0.1l0,0l-0.5-3.1l0.4-0.1
	l-1.6-7.6l-1.7-6.3l-3-9.1l-1.6-3.8l-1.6-3.3l-0.9-1.5l-1.1-1.3l-2.2-2.3l-3.2-3.1l-2.5-2l-2.8-2.1l-3.7-1.7l0.5-1l3.1,1.5l1.9,1.3
	l4.3,3.4l3.4,3.2l2.1,2.4l2,2.9l1.5,3l1.7,4.1l3.1,8.9l1.8,6.7l2.2,10.6l1.3,7.9l1.6,12.5l1.1,12.3l15.2,2.8l-0.3,2.1l0.8,0.2
	l-0.6,3.7l-1.1-0.1l-0.8,4l-13.5-2.8l-1.5,15.1l-0.8,4.7l-1.3,3.9l-2.4,6l-0.9,1.6l-4.7,6.5l-6.5,7.4l-10,8.6l-4.5,3.4l-7.5,3.5
	l-6.3,2l-6.7,1.3l-7.3,0l-1.9,17l-2.1,11.7l-0.7,7l-3,17.8l3.1,0.2l0.7-4.8l7.3,0.8l10.2,0.6l0.3,2.5l0,0l-0.5,0l0.1,6.5l-0.7,0.1
	l0,0l-0.1-1.3l-0.6,0l-0.1-1.7l0.9-0.1l-0.1-5.1l-8.9-0.5l-0.2,2.7l0.7,0.1l-0.2,1.9l0,0l-1.9-0.3l0.4-4.5l-6-0.5l-0.6,4.7
	L72.2,217.2L72.2,217.2"/>
<path class="st0" d="M107,123.5l1.6-1.1l1.2-1.1l2.3-2.6l1.7-2.6l1.2-2.5l0.4-1.2l2.9-4.2l1.6,1.2l1.2-1.2l0,0l1.4,1.7l-2,1.7
	l-1.8-1.4l-1.8,3l1.1,1.3l2.4,2.3l2.3-2.3l-1.2-1.8l2.5-1.6l2.3,3.5l-0.8,0.6l0.5,0.5l0.9-0.6l0,0l1.4,2.6l-0.9,0.8l0.5,0.6l0,0
	l-1.3,0.8l-2.9-4.1l-2.9,2.8l0.4,0.9l-1.2,0.6l-3.8-5.2l-2.2,2.9l3.2,4.7l0,0l-5.4,2.9l-1.4-2.7l-1.9,1.7l1.4,3.8l4.2-1.7l1.1,2.2
	l3.3-2.2l-1.3-2.2l0,0l1.3-0.6l1,2.1l1.8-0.9l0.9-0.8l-1.5-2.6l1.1-0.6l0,0l2,4.2l-3.5,1.9l0.4,2l0.4,0.8l0.2,1.7l-1.6,0.3l-0.4-1.8
	l-2.7,0.8l0.1,0.9l-1,0.2l-0.3-1l-0.6,0l-1.5-3.2l-3,1.3l0.8,1.8l1.8-0.5l0.5,1.5l-3.2,1.2l0,0l-1.3-4.3L107,123.5 M111.3,121.3
	l1.6,2.6l3-2l-1.9-2.7L111.3,121.3L111.3,121.3"/>
<path class="st0" d="M67.5,107.8L89.6,91l6.7,8.2l9.5-6.9l8.7-5.6l8.1-4.1l10.3-3.5l8.3-1.1l7.5-0.4l-0.3-1.9l0.2-3.5l0.8-4.4
	l1.9-2.8l3.1-2.6l3.8-1.4l3.2-0.1l3.3,1l3.4,2.6l1.8,1.9l1.6,5.1l0,0l-4.6-5l-3.1-2.2l-2.6-0.9l-2.5,0.1l-3.3,1.2l-1.8,1.6l-1.6,2.1
	l-0.6,3.5l-0.2,3.6l0.6,4.1l-1.9,0.3l-0.9-0.2l-7.6,0.4l-8.2,1.1l-9.9,3.2l-7.8,4.2l-8.1,5.2l-9.8,7.2l5.2,7l5.9-3.7l5.5-3l7.7-3.4
	l7.6-2.5l7.1-1.1l5.1-0.4l5.1,0.2l3-7.9l9.4,2.1l21.6-15.8l3.5-1.3l0,0l-30.1,24.2l5.5,1.5l5.4,2.7l5.1,3.5l4,4.1l2,2.2l5.2-2.2l3,5
	l-4.7,3.1l2.1,4.6l0,0l-4.5,1.6l-2-4.8l-2.1-4l-2-2.9l-3.8-4.2l-3.6-2.7l-5.2-2.6l-5.6-1.5l-5.9-1.2l-5.4,0.1l-4.6,0.3l-6.7,1.1
	l-7.1,2.3l-7.6,3.1l-5.5,3l-4.8,3.3l-4.4,3.7l-3.5,3.4l-2.4,4.5l-1.4,4.4l-1.2,6l0,4.1l0.4,5.7l0.8,4.7l1,5.1l2.5,7.3l2.8,6.5
	l4.3,7.7l3.9,5.9l4.4,5.4l5,5.7l4,3.3l7.1,5.2l2.8,3l2.7,3.8l0,0l-6.1-2.1l-5-2.7l-4.5-3.7l-3.7,3.2l-4-3.9l0,0l3.9-3.4l-5.3-5.5
	l-3.8,3l-4.6-5l0,0l4.4-3.3l-4.4-6.4l-4.6-7.9l-3-7.1l-2.6-8.2l-1.1-5l-0.9-4.8l-5.2,0l-0.3-5.7l4.9-0.6l0.1-4.1l-7.9-1.9l0.7-3.3
	L67.5,107.8 M148.5,94.6l2,0.3l6.5-4.8l-6.3-1.4L148.5,94.6 M73.8,108.7l10.6,15.6l5.2,1.7l1.4-4.3l3.1-5.3l4.6-5l-5.2-7.5l-5-6.1
	L73.8,108.7L73.8,108.7"/>
<path class="st0" d="M94.3,143.7l0.9-9.5l0.5,0l0.5-7.8l-0.6,0l1.2-19.1l0.4,0l0.4-5.7l-0.4,0l0.4-7l8,0.6l0,0.4l6.1,0.4l0.1-0.4
	l14.8,1.1l0,0.3l5.2,0.4l0.1-0.4l9.5,0.8l-0.5,6.7l-0.3,0l-0.4,6.2l0.4,0l-1.5,20.1l-0.4,0l-0.3,5.8l0.4,0.1l-0.9,10.5l-9.4-0.8
	l0-0.4l-5.3-0.4l-0.1,0.4l-14.6-1.2l0-0.4l-5.8-0.4l0,0.4L94.3,143.7 M132.2,103.2l7.3,0.5l0.3-4.5l-7.3-0.6L132.2,103.2
	 M98.6,107.4l40.3,3.3l0.5-6.1l-14.1-1.2l0.4-5.3l-13.1-1.1l-0.5,6L99.1,102L98.6,107.4 M120.7,127.9l17,1.2l1.1-16.6l-17-1.2
	L120.7,127.9 M129.9,145.1l6.8,0.6l0.6-7.5l-6.8-0.6L129.9,145.1 M124.8,135.6l11.7,0.9l0.4-5.5l-11.7-0.9L124.8,135.6 M126.4,102.8
	l4.6,0.4l0.4-4.5l-4.6-0.4L126.4,102.8 M123.6,144.3l5.1,0.5l0.7-7.5l-5.1-0.5L123.6,144.3 M96.8,134.2l6.5,0.7l-0.6,7.1l19.7,1.7
	l1-13.7l-26.2-2.1L96.8,134.2 M114.1,127l5,0.4l1.1-16l-5-0.4L114.1,127 M97.3,125.5l15.2,1.2l1.2-16l-15.2-1.2L97.3,125.5
	 M104.9,101.4l6.3,0.5l0.4-4.6l-6.3-0.5L104.9,101.4 M98.7,100.9l5.2,0.4l0.3-4.7L99,96.1L98.7,100.9 M95.8,142.7l5.7,0.6l0.6-7.2
	l-5.7-0.5L95.8,142.7L95.8,142.7"/>
<path class="st0" d="M75.6,121.4l0.8-1.7l5.3,1.3l7,0.7l1.4-0.2l3.7-2.3l6-0.8l4.1,0.4l7.5-2.8l5.5-3.2l6.1-4.8l8.3-8.6l2-0.4
	l1.5,0.3l24.8,17.3l0,0l-8.4,0.1l-17.3-11.7l-0.5,0.6l11.4,8.8l0,0l-3.3,3.7l-11.6-9.9l-1.1,1.1l11.7,11.8l-3.8,3.5l-11-12.5
	l-1.4,1.3l10.2,13.9l-3.4,2.7l0,0l-9.9-14.6l-1.9,1.5l9.6,14.9l-3.2,3.2l-1.5-0.9l-3.5-6l-4.3-10.1l-2.5,1.4l2.8,6.6l2.3,3.6
	l1.9,5.6l0,0l-4.1,0.9l-6-15.4l-2.2,0.7l4.7,16.9l0,0l-3.7,0.8l-4.3-16.1l-2.8,0.6l3.2,16.3l0,0l-4.3,0.5l-2.2-16.2l-2.8,0.5
	l0.8,8.7l0.6,1.7l0,8.5l-4.5-0.1l0.4-19l-3-0.4l-0.7,17.3l-1.1,0.2l-3.2-2.9l0.3-5.9l0.6-2.6l1.6-6.4l-2.1-0.5l-5-0.8L75.6,121.4
	L75.6,121.4"/>
</svg>
