<?xml version="1.0" encoding="utf-8"?>
<!-- Generator: Adobe Illustrator 26.0.2, SVG Export Plug-In . SVG Version: 6.00 Build 0)  -->
<svg version="1.1" id="Ebene_1" xmlns="http://www.w3.org/2000/svg" xmlns:xlink="http://www.w3.org/1999/xlink" x="0px" y="0px"
	 viewBox="0 0 283.6 200.5" style="enable-background:new 0 0 283.6 200.5;" xml:space="preserve">
<style type="text/css">
	.st0{fill:none;stroke:#000000;stroke-width:0.1;stroke-linejoin:round;}
</style>
<path class="st0" d="M245.7,150.1L245.7,150.1l1.2-10.2l-92.3-1.6l-7.6,0l0-1.8l1.5-11.7l-2.5-0.4l0.2-1.7l-5-0.5l-2.4,7.9l-5.9-1.5
	l0.2,3.4l6.3,0.7l-0.5,5.5l-47.1-0.9l0,0l1.3-0.8l0.8-5.3l-14.4-1.6l0,3l-0.5,0.2l0.5,0.5l0,0.6l0.5-0.1l0.4,0.4l9.1,0l0,0l-0.4,3.1
	L75.7,137l-0.2,1.4l-36.2-3.5l0.6-4.5l-4.1-0.5l1.3-10.9l-10.8-1.3l0-0.2l-7.4-0.8l-2.1-0.7l-1.7-1.5l-1-2l-0.1-2.2l0.9-6.9l0.5,0.1
	l0.3-2.6l-0.5-0.1l4.4-36.2L9.4,63.3l1.4-12.4l-3.1-0.4l-1.5-0.8l-0.5-1.7l0.8-1.5l1.6-0.4l2.8,0.4l1.3-11.3l-5.1-0.7l0-0.2l-0.2,0
	l0.3-2.5l0.3,0L9,21.5l3.1,0.4l0.2-1.4l0.3,0l0-0.1l39.1,4.8l0.4-3.4l22.8,2.5l0.3,0.7l12.5,1.4l-0.3,2.3L88,29l-0.5,4l3.4,0.5
	l-0.7,5.2l32,4l-5.9,46.3l-4.5-0.6l-3,23.5l0.3,0.1l0,1.1l5.9,0.6l1-0.9l1.4,0.2l8.1-66.8l1.5-0.5l26.4,3l-0.2,1.5l1.8,0.2l-8.6,68
	l2.3,0.3l5.5-6.4l49,0.1l7.7,9.9l15.4,2.1l-0.1-2.7l-13.5-1.5l3.7-32.7l-0.8-0.9l3-29.9l29.2,3l-6,58.3l27.3,2.8l-1,10.2l1.6,0.2
	l3.9,1l3.8,1.9l2.6,3.1l2.1,3.5l1.1,3.8l0,4.4l-1,4l-2,3.6l-0.6,0.5l0.6,1.5l-0.2,1.6l-1,1.3l-1.5,0.7l-1.6-0.2l-1.3-1l-0.8,0.5
	l-3.9,1.1l-4.1,0l-2.5-0.3l-0.3,1.9l-13.7-1.6l1.3-11.7L245.7,150.1 M82,69.8l-2.6-0.1l-0.5-1.1l-6.3-0.7l0,3.7l0,0l-2-0.3l0-0.7
	l-16.9-1.1l-0.9,7.7l27.8,3L82,69.8L82,69.8"/>
<path class="st0" d="M18.1,94.9L18,95.6l-1.9-0.2l0.1-1.1l-1.3-0.2l0.3-3L0.1,89.5l1.9-17.9l26.2,2.7L27.6,79l3.3,0.3l0.1-0.6
	l17.3,1.5l0.2-2.1l8,0.7l-0.2,2.1l0.1,0l0-0.2l11.4,1l2-22.7l-2.6-0.2l1.1-13.2l2.6,0.2l0.1-1.4l22.1,1.9l1.7-19.5l-22.1-1.9
	l2.1-24.4l67.8,5.8L139,49.3l4.5,0.4l0.1-0.5l0.9,0.1l-0.5,5.9l10.3,0.9l0.5,0.6l-0.6,6.4l16.3,1.3l0.9-5.1l1-2.5l1.3-2.2l1.8-2.1
	l2.9-2.4l4-2.6l0,0l8.8,15.2l-0.6,0.3l0.2,1.7l-0.6,1.5l-1.3,1l-1.7,0.2L186.1,83l0.5,0l2.1-1.7l0,0l3.2,5.5l0,0l-1.2,0.2l0.5,3.9
	l0,0l-5.6-0.5l-1,11.5l-21.7-1.9l0.3-3.3l-12-1l0-0.3l-2-0.2l-0.6,7.1l19.1,1.9l-1.4,18.9l7.9,0.7l-0.3,3.2l15,1.3l1.5-17.7
	l18.6,1.6l-1.6,16.9l-3.6-0.3l-0.9,9l3.6,0.3l-1.9,22.6l-6.7-0.6l0-0.5l-3.2-0.3l0,0.2l-7.4-0.8l0-0.1l-13.9-1.4l-0.2,1.5l-8.3-0.9
	l-0.9,11l-44.1-4l0.5-5.8l-6.5-0.6l-0.3,2.9l-53.2-4.8l2.3-24.8l59.6,5.4l1.6-17.5l-2.9-0.3l-0.2,1.6l-11.7-1.2l-1.9-2.3l0.8-9.3
	l2.1-1.8l-41.4-3.4L29.3,100l0.4-3.7L23,95.6l0-0.2L18.1,94.9L18.1,94.9"/>
<path class="st0" d="M133.2,62.7l-9.5-5.1l2.1-3.8l-0.2-0.1l4.3-8.1l-2-1.1l2.2-4.1l1.9,1l3.4-6.4l0.3,0.2l3.7-6.9l-0.6-0.3l0.7-1.2
	l22,11.8l-0.6,1.2l-0.9-0.5l-3.7,6.9l21.1,11.3l0.8-1.6l3.9-1.1l5.1,2.7l1.3,3.8l2.3,1.3l-0.8,1.5l24.4,13l-12.9,24.2l-5-2.6
	l-4.9,9.5l5.5,2.9l-4.7,9.1l0.6,1.4l-4.8,9.2l-1.6,0.3l-4.4,8.3l-0.7-0.4l-3.8,7.3l0.7,0.4l-0.9,1.6l-0.8-0.4l0.5-0.9l-5.4-2.8
	l-0.4,0.8l-1.2-0.6l0.4-0.8l-5.4-2.8l-0.4,0.7l-1.2-0.6l0.5-0.9l-2.9-1.5l-0.5,1l-1.4-0.8l0.5-1l-5.1-2.6l-0.5,0.9L153,135l0.5-1
	l-5.2-2.7l-0.5,0.9l-1-0.5l0.4-0.8l-5.4-2.8l-0.2,0.3l-0.5-0.2l-8.3,15.9l0.2,0.1l0.3,0.8l0,0.6l-0.2,0.9l-0.3,0.5l-0.6,0.6
	l-0.8,0.4l-0.6,0.1l-4.6,8l-0.9-0.5l-0.7,1.2l-2.3-1.2l-20.7,38.7l-24.1-12.9l19.9-37.4l-5.6-3l5.9-11.1l-5.8-3.1l-0.4,0.7l-1.3-0.7
	l0.4-0.7l-5.1-2.7l-0.5,0.9l-1.5-0.8l0.5-0.9l-5.3-2.8l-0.4,0.8l-1.2-0.7l0.6-1.2l0.5,0.3L93,91.6l-0.6-0.3l0.2-0.3l-11-5.9l-1.1,2
	l-8.5-4.5l1-1.9l-12-6.4L60.7,75L11.2,48.5L31.8,9.9l19.8,10.6l-10,18.8L71.1,55l12.1-22.7l35.6,19l-8.2,15.3l15.9,8.5L133.2,62.7
	 M163.7,74.1l-4.2,7.9l7.2,3.9l-2.2,4.1l8.8,4.7l6.4-12L163.7,74.1L163.7,74.1"/>
<path class="st0" d="M24,161.1l0-10.1l13-29.1l8.3,2.7l13.9,8l2.8-9.9l-22.8-5.5l0,0l15-34.7l35.1-31l21.3-5.6l51.2-5.6l44-3.4
	l36.3-1.8l9.3,38.5l0,0l-4.8,0.3l0.2,7l6.8-1l1.9,5.4l0,0l-10.7,1.5l1.5,7l-2.1,0.4l0.2,5.9l-8.5,0.5l-1.4-8.1l0,0l4.3-0.2l-0.1-2.8
	l4.1-0.4l-1.1-7.5l-10.3,0.6l0,0l0-12.1l-1.5,0.3l-7.1,0.6l-0.8-4l-4.1,0.8l-15.1,1l-0.1,1l-4.3,0.6l-0.3-1.1l-24.7,2.6l-1.8,32.8
	l0,0l-8.2-2.4l-0.1-3.4l-6-1l0,0l1.1-2.2l3,0.2l0.5-19.9l-3.6-0.1l-0.4,2.7l-16.4-1l-0.2,11.2l3.5-0.1l0.1,7.4l0,0l-14.1-5l0.9-4.2
	l-1.8-0.4l0.2-2.9l-11.1-0.8l0,0l1.3-4.4l-1.6-3l-5.8-0.3l-1.7,7.9l5.3,1.8l0,0l-3.2,7.2l2.2,1.5l-8.1,13.3l-6.9-4.5l-1.5,3.4
	l6.7,2.5l-1.4,4.6l-12,22.6l-4.2,10.2l-10.8-3l-1.4,7.2l9.6,1.8l-1.2,6.7l0.6,7.1l-4.7,0.3l-0.3-5.6l-7.4,0.1l-0.2-4l-6.2-0.3
	l-0.6,4.2l-3.4-0.5l-1.8,5.5l-3.3,7.3l5.4,3.5l-4.2,6.7l3.9,5.3l-6,4.2l3,4.7l0,0l-7.8,3.4l-8.9-13.3l8.7-7.2l-5.2-3.1l-5.2,7.1l0,0
	l-5-7.6l-10.2-7.5L24,161.1 M226.7,58.2l0.5,4.5l7.2-0.9l-0.9-7.8l-6.8-0.6l0.5,4.7L226.7,58.2 M215.2,45l0.7,6.9l8.9-1l-0.7-6.9
	L215.2,45 M198.8,62.8l9.6-0.6l-0.4-7.9l-9.6,0.6L198.8,62.8 M147.1,60.5l6.5,0l0.1-5.6l-6.5,0L147.1,60.5 M115.6,66.7l9.8-0.8l0,0
	l-0.3,1.3l7.7-0.6l-1-13.3l-4.7,0.4l0.7,9.7l-4.5,0.4l-0.4-5.5l-7.8,0.7L115.6,66.7 M88.9,59.9l5.9,4.3l7.4,3l-1-4.5l-0.4-4.6
	l-7.1,0.4L88.9,59.9 M84.4,79.6l4.1,4.4l7.6,4.9l4.4-9.8l-8.9-6.9L84.4,79.6 M76.8,128.6l14.6,3.2l7.2-18l-17.3-4.9L76.8,128.6
	 M59.5,103.7l8.2,3.8l3.3-6.8l-8.2-3.8L59.5,103.7 M46.9,140.8l11.8,3.7l-1.3,4.6l10.1,1.5l0.6-5.1l-7.2-1.9l0.5-1.6l-6.3-1.6l0,0
	l0.6-1.1l-6.9-2.5L46.9,140.8 M43.5,166.6l2.5,0.9l1.6-3.7l4.9,1.6l1.5-3.5l-9.8-1L43.5,166.6 M33.9,154.5l0.4,3.2l6.6,0.3l1.8-6
	l-7.3-2.1L33.9,154.5L33.9,154.5"/>
<path class="st0" d="M6.8,131.8l24.1-22l8.9-7.7l1.7-1.6l9.7-8.2L55,89l23.9-20.3l10.9-10l12.8-11.4l8.1-6.6L142.9,14l2.7-2.1l0,0
	l6.3,18l0,0l-4.5,1l-6.9,5.1l-2.7-3.1l-6.4,5.5l3.8,6l3.6-1.5l5,7.8l8.9-4.3l4.1-1.7l5.4,10L193,41.1l17.3,40l4.5,10.4l4.1,12
	l-3,5.9l-10.7,16.7l-1-0.5l-17-8.9l-2.4-2.4l-3.1-8.5l-3-4.1l-1.9,1.1l-3.7,1.8l-21.1,4.6l-10.4,2.7l-1.8,1l-12.6,3.9l-1.7,0.8
	l-6.8,4l0.9,1.4l2.8,6.3l0,0l-8.5,2.3l-5.9,1.4l-6.9,2.2l-5.8,1.3l0.8,2.5l0,0l-2.8,0.6l-0.8-2.4L71,142l-9.3,2L51.4,147l-8.7,1.8
	l-14.5,4.3l-0.9-2l-2-2.1l-2.8-3.1l-6.6-6.5l-5.3-4.2L6.8,131.8L6.8,131.8 M205.1,118.6l0.6,1.2l1.2-0.6l-0.6-1.2L205.1,118.6
	 M202.7,113.2l0.6,1.6l1.6-0.6l-0.6-1.6L202.7,113.2 M200,120.7l0.6,1.5l1.5-0.7l-0.6-1.5L200,120.7 M197.9,115.5l0.7,1.3l1.4-0.7
	l-0.7-1.3L197.9,115.5 M193.4,84.9l0.7,1.4l2-0.7l-0.8-1.6L193.4,84.9 M188.8,86.6l0.7,1.7l1.9-0.7l-0.7-1.7L188.8,86.6 M142,65.5
	l0.5,0.5l11.2,25.9l3.7-1.8l0.3,0.4l7.7-3.6l5.1-2.4l0.4-3.3l-8.9-20.3l-3.2,1.4l-2.2-5L142,65.5 M48.2,116.1l2.8,5.2l3.3,5.2
	l4.7-1.8l8.8-3.4l7.5-1.6l8.1-4.1l0.8,0l8.8-4.1l0,0l1.3,4.6l3.5-1.2l2.5-2.3l-2.3-5.1l6.3-4.3l-1.8-4.3l5.5-3.5l2.9,3l4.2-2.2
	l1.9-0.8l4.2,8.7l0,0l-1.7,0.5l-5.1,2.3l1.4,3.4l0,0l-2.3,0.6l1.4,3.2l7-4.2l13.1-4.9l-2.3-5.6l4.3-2.6l4.3-2l-8.7-21.4l-2,1.9l0,0
	l-6.1-10.2l-4,3l4.4,7.6l0,0l-0.9,0.4l0.8,0.9l0,0l-1.3,0.6l-6-7.7l-5.4,4.1l0,0l-0.3-0.6l-5.3,3.7l0,0l-2.3-4.5l-2,1.3L99.4,70
	l-5.6,4.4L90.6,71l-3,2.5l-0.5-0.4l-2.4,3.2l-4.7,3.7l4.7,4.6l1.2,0.1l5.7,2.6l3.8,4.4l3.1,4.5l-9.7,7.4l0,0l-7.1-10.7l-2.5,2.3
	l0.6,0.9l-9.8,8.5l0,0l-1.2-3l-2.3,2.4l0,0l-1.5-1.7l-2.3,2.4l0.7,3.1l-6,4.2l0.2,3.5l-3.4,2.4l0,0l-2.5-4.1L48.2,116.1 M124.8,57.7
	l7.3,12.2l6.4-3.6l-1.1-2.8l-1.4,0.7l-3.1-4.8l-1.7,0.8l-2.7-4.5L124.8,57.7 M58.2,133.6L59,135l1.5-0.7l-0.6-1.3L58.2,133.6
	 M35.6,134.7l3,2.6l4.6-4.4l4.8-3l-1.5-4.2L35.6,134.7 M18.2,128.5l1.3,0.8l0.8-0.8l-1-1.1L18.2,128.5L18.2,128.5"/>
<path class="st0" d="M222.2,61.1L222.2,61.1l-6.4,4.4l-5-7.2l-9.8,6.9l0.8,1.1l-12.3,8.6l12,14l0,0l-12.8,9.3l-4.6-6.4l-6.2,4.2
	l4.7,6.5l-1.5,1l12.7,17.5l-28,18.6l-10.2,8.3l-20.8,17.5l-10.2,8.5l-3.8-0.3l-11.3-18.7l23.7-17.6l0.2,0.3l12.7-9.6l1.6,2.1
	l-12.6,9.5l1.9,2.6l-8.7,6.5l3.6,4.8l42.1-30.3l-14.9-20.6l0,0l0.6-0.3l-3.5-5.7l-9.3,7.1l2.7,3.8l-5.9,4.5l0.6,0.8l-1.3,1l-3.5-4.3
	l-4.7,3.8l-12.2,9l0,0l-1-1.1l-8.3,5.8l9.4,11.3l-16.7,12.6l-15.3-18.7l-3.5,2.9l-12.9-15.7l4.3-4.6l25.7-23.8l-2.4-2.5l13.1-12.9
	l0.2,0.1l10.2-9.8l-1.6-1.5l-3.4,3.3l-8.8-8.3L94.1,80.1l0,0l-2.1-2.3l-4.6,4.5l9,9.2l-14.9,14l-3.8-4l-7.1,6.9l4,3.5L64,123
	l-8.7-7.6l-14.9-14.7L26.2,85.4l23-22.4l18.9-18.6l6.2,6.2l0.8-0.9l7.7,7.5l3.6-3.8l5.8,5.7L116,33.4l11.5,5l27.9-20.2l2.8,3.8
	l1.4-1l8.4,11.6l-15.3,11l-6.8-9.4l-11.6,7.9l15.3,9.1l0,0l-9.8,9.1l16.2,18.5l0,0l-0.5,0.4l12.7,15.6l5.9-4.3l0.1,0.2l3-2l-4.9-6.5
	l1.5-1l-5.3-7.6l0,0l7.2-3.4l17.1-12.6L210.9,45L222.2,61.1 M149.9,92l-3.3-3.9l-2.7,2.3L128,72.1l-1.5,1.5l6.3,5.9L119.1,94
	l11.2,13.4l11.8-9.7L149.9,92 M112.1,111.4l-6-6.8l-6.1,5l5.9,7.2L112.1,111.4 M74.7,77.5L74.7,77.5l-16.7,18l8.6,8.2l5.9-5.8
	l-0.9-0.9l7.8-7.7L75,84.9l3.7-3.7l-0.8-0.8l7.6-7.5l-4.3-4.3l-7.6,7.9L74.7,77.5 M75.2,62.7l-6.8-6.5L45.1,79.4l8.1,7.9L75.2,62.7
	L75.2,62.7"/>
<path class="st0" d="M31.5,138.2l2.4-83.7L97.6,57l-0.1,2.9l15,0.6l0.2-2.9L234,62.5l0.6,16.2l-5.8,0.3l0.2,7l-4.9,0.2l0.3,10.2
	l0.2,5.9l0.1,9.6L60.3,134.2l-1.6-12.4l-14.1,1.7l1.5,12.7L31.5,138.2L31.5,138.2 M63.1,85.3l0.9,9.1l2.3-0.2l0.5,4.2l5.4-0.6
	l1.4,12.8l3.3-0.3l0.3,3.7l7.7-0.6l-0.2-2.4l0,0l3,0l-1.3-11.6l3.5-0.3l0.5,5.4l9.7-1.1L99.4,98l9.9-1.3l0.3,2.5l3.4-0.4l0.5,5
	l2.6-0.4l-0.5-5l21.5-2.6l0.6,6l2.4-0.2l0.6,5.5l7-0.7l-0.5-5.5l-1.7,0.1l-0.8-6.8l13.8-3.4l13.6-0.2l1,13.9l8.7-0.7l0.1-1.4
	l7.1-0.8l-0.5-6.7l2-0.2l0.6,6.5l9.9-1.2l-0.2-9.8l6.9-0.9l0,0l0.2,3l9.9-0.7l-0.5-9.3l4.7-0.3l-0.4-6.7l-6.2,0.5l0.3,5.6l-9.5,0.4
	l0.4,2.7l0,0l-8.9-0.4l0.1-2.8l-4-0.3l0.1,4.7l-3.5,0.1l0-2.4L178.4,83l0.1-3.5l-5-0.1l0,3.2l0,0l-4-0.2l0.2-6.6l-14.4-0.9l-0.1,2.8
	l2.8,0.1l-0.1,4.3l-7.8-0.4l0.3-9.9l-17.5-0.6l-0.3,8.1l-11.1-0.5l0.3-5.7l-8.2-0.4l-0.3,6.1l-4.8-0.1l0.1-6.3l-5-0.1l-0.1,6.2
	l-22.7-0.7l0.1-2.4l-9-0.3l-0.1,2.3l-2-0.1l1,7.6l0,0L63.1,85.3 M183.8,78.9l1.7,0.2l-0.1,1.3l2.6,0.2l0.4-4.3L184,76L183.8,78.9
	 M124.3,102.7l0.9,7.2l6.8-0.6l0.3,3.2l2.5-0.3l-1.1-10.5L124.3,102.7 M59.9,107.3l0.4,3l0.8-0.1l0.4,3.2l4.4-0.6l-0.6-6.4
	L59.9,107.3 M51.7,98.7l1,4.4l4.9-1.1l-1-4.4L51.7,98.7 M51.3,92.3l1,4.5l3.4-0.8l-1-4.5L51.3,92.3L51.3,92.3"/>
<path class="st0" d="M205,59l0-0.4l0.6-0.1l0,0.3l5.4-0.8l0-0.4l0.6-0.1l0.1,0.6l-0.3,0l0.9,6.5l0.4,0l0.1,0.6l-0.4,0l0.9,6.5l0.4,0
	l0.1,0.6l-0.4,0l0.9,6.5l0.4,0l0.1,0.6l-0.4,0.1l0.9,6.5l0.4,0v0l0.1,0.5l-0.4,0.1l0.9,6.5l0.4,0l0.1,0.6l-0.4,0l0.9,6.5l0.4,0
	l0.1,0.6l-0.6,0.1L217,101l-5.4,0.8l0,0.4l-0.6,0.1l0-0.3l-5.4,0.8l0,0.4L205,103l-0.1-0.3l-3.6,0.5l0.3,2.1l6.2-0.9l2.1,15
	l-31.1,4.4l-2.4-17.1l-6.5,0.9l0,0.4l-0.6,0.1l0-0.3l-6.5,0.9l0,0.4l-0.4,0l0.6,4.8l-14.3,2.1l0.7,4.9l-32.1,4.5l-6.9-48.5l-9.9,1.4
	l4,28.7l-59.8,8.4l0.9,6.5l-12.4,1.8l-0.9-6.5l-17.9,2.6L9.1,80.9l100-14.1l-0.2-1.3l29.7-4.2l1,6.6l2.7-0.4l0,0.3l6.5-0.9l0-0.4
	l0.6-0.1l0,0.3l6.5-0.9l0-0.4l0.6-0.1l0,0.3l6.5-0.9l0-0.4l0.6-0.1l0,0.3l6.5-0.9l0-0.4l0.6-0.1l0,0.3l6.5-0.9l0-0.4l0.6-0.1l0,0.3
	l6.5-0.9l0-0.4l0.6-0.1l0,0.3l6.5-0.9l0-0.4l0.6-0.1l0,0.3l6.5-0.9l0-0.4l0.6-0.1l0.1,0.3L205,59L205,59"/>
<path class="st0" d="M15.1,126.6l-1.7-29.2l3.5-0.5l-0.8-29.6l16.6-0.9l0.7,12.5l8.4,0L42.7,97l-5.4,0.3l0.6,10.7l7.9-0.6l-0.3-11.7
	l3.6-0.8l-0.8-16l-1.1,0l-0.9-13.2L92,63.3l0.4,8L81.5,72l0.4,8.3l-10.2,0.6l0.1,2.7l-6.3,0.4l0.5,10.4l-15.2,0.5l0.8,9.6l5.5-0.7
	l0,0l0.4,6.9l9.8-1.8l0-5.4l12.2-0.3l-0.3-9.8l9.6-0.5l0.3,10.7l5.5-0.2l0.4-1.5l7-0.3l12.4-1.5l0,0l0.1,5.8l8.1-0.6l-0.3-5.2
	l7.7-1.2l-2.2-20.7l-8.1,0.4l0.2,5.3l0.2,6.5l1.5-0.1l0,0l-0.1,3.2l-5.4,0.5l0.2,1.7l0,0l-5.2,0.3l0-5.3l5.4,0.1l-0.2-3.7l-4.8,0.3
	l-0.3-11.5l-5.7,0.6l0,0l-0.4-7.1L99,70l-0.3-1.8L98.4,63l6.6-1.2l0,0l0,1l3.7-0.2l0-1l44.6-2.5l11.7-0.8l0.7,3.9l4.1-0.6l0-3.3
	l48.5-2.9l6.1,34.6l3.6,22.6l0,0l-40.3,2.8l-19.5,1.7l-65.3,4.3l-19.2,1.2L15.1,126.6 M153.2,97.1l14.1-0.9l-0.2-8.4l0,0l6.7,0.2
	l-0.1,8.8l12.9-0.8l-0.5-9.7l5.6-0.4l0.4,14.2l4.4-0.2l-0.4-8.3l5.4-0.6l-0.7-9l5.4-0.6l-0.6-6.7l-8.9,0.5l-0.4-4.8l-12.2,1.2
	l-0.2,1.2l-3.4,0.5l0.8,7.4l0,0l-9.6,0.2l-0.3-3l-2.9-0.1l-0.2-4.6l-2-0.1l0.5,10l-11.5,0.9l0.1,3.6l-3.1,0.1L153.2,97.1
	 M131.8,82.9l0.3,2.9l23.1-2l-0.4-2.3l-5.3,0.3l-0.5-7.6l-10.8,0.2l0,5.7l-4.1,0.7l-0.1,2L131.8,82.9 M133.1,98.8l2.6,0l0.2,5.7
	l12.1-0.9l-0.9-15.2l-10.1,1.1l0.1,3.6l-4.1,0.2L133.1,98.8L133.1,98.8"/>
<path class="st0" d="M62.7,16.7l24.4-6.5l2.4,9.7l5.4-1.6l0,0l1.4,5.6l-7.6,2l1.1,4l-2.1,0.8l1.2,5.8l10.7-3l-1.9-6.6l12.2-3.1
	L104,5.2l18.8-5.2l65,153.9l-15.8,5.8l-4.5-11.3l-7.9,2.9l-4.3-10.9l-9.9,3.4l-2.7-8.4l6.6-2.3l-4.2-10.9l10.7-4.7l-5.6-13.5
	l-4.1,1.9l-5.5-13.4l-1.2,0.5l-5.1-12.3l-13.3,5.6l4.4,11.9l-4.7,2.3l1.3,2.8l0,0l-3.9,1.6l-0.8-2.1l-1.4,0.4l0,0l-3.6-13.1l1-0.4
	l-2.6-7.9l-9.7,2.9l2.7,10.2l2.3-0.4l0.9,4l2.2-0.5l2.2,6.1l-1.1,0.4l1.7,7.2l2.4,9.2l-6,1.7l2.3,8.1l3.3-1l0,0l0.7,2.8l3.6-1.1l0,0
	l0.5,2.2l1.3-0.6l0,0l2.2,7.5l-6,1.7l1.7,6.3l3.4-0.6l4.5,14l9.2-2.9l-1.5-5l7.3-2.2l1.6,4.8l16-5.1l2,5.6l4.5-1.6l2.5,5.9l0,0
	l-61.4,21l0,0L68.9,40.7l3.8-1l-2.8-10.3l-3.2,0.8L62.7,16.7 M84.9,45.9l1.5,5.3l5.8-1.9l0.8,2.9l-1.6,0.6l2,6.5l0.9-0.3l3.9,14.5
	l7.1-2.2l2.4,8l3.6-1l-2.5-7.8l1.8-0.5l5.1,14.6l12.6-5.1l-6.8-16l5.2-2.2l-1.1-2.3l5.3-2.4l-3.2-7.6l-4.9,2.2l1.7,4l-4.7,1.9
	l-2.1-6l3.8-1.4l-2-6.3l-10.1,3.4l2.2,6.2l-4.8,1.7l0,0l-1.9-6.3l-3.6,1.3l0,0l-0.7-3.2L99,47l-2.6-9.2l-4.5,1.1l1.5,4.4L84.9,45.9
	 M103.7,37.5l1.4,3.8l1.9-0.6l0.9,1.6l7.4-2.9l-2.1-5.3L103.7,37.5L103.7,37.5"/>
</svg>
