<?xml version="1.0" encoding="utf-8"?>
<!-- Generator: Adobe Illustrator 26.0.2, SVG Export Plug-In . SVG Version: 6.00 Build 0)  -->
<svg version="1.1" id="Ebene_1" xmlns="http://www.w3.org/2000/svg" xmlns:xlink="http://www.w3.org/1999/xlink" x="0px" y="0px"
	 viewBox="0 0 283.6 283.5" style="enable-background:new 0 0 283.6 283.5;" xml:space="preserve">
<style type="text/css">
	.st0{fill:none;stroke:#000000;stroke-width:0.1;stroke-linejoin:round;}
</style>
<path class="st0" d="M24.9,193.3l-4.5,1.5l-1.4-3.9l-3.6,1.3l-2-5.8l3.6-1.3l-0.3-0.9l-4.6,1.6l-0.7-2.2l-9.8,3.4l-1.6-4.9l14.5-4.7
	l-1-2.7l3.9-1.5l7-2.6l-1.3-3.5l21.3-7.9l1.3,3.5l35.2-13l0.1,0.2l56.5-20.8l0.1,0.2l43-16.1l-6.3-17l84.6-31.6l24.4,65.6
	l-84.6,31.6l-64.8,23.5l-5.6-15.1l-98.7,36.4L24.9,193.3L24.9,193.3"/>
<path class="st0" d="M92.8,122.9L92.8,122.9L92.8,122.9L92.8,122.9L92.8,122.9L92.8,122.9L92.8,122.9L92.8,122.9L92.8,122.9
	L92.8,122.9L92.8,122.9L92.8,122.9L92.8,122.9L92.8,122.9L92.8,122.9L92.8,122.9L92.8,122.9l127.9-30.7l0,0l0,0h0l0,0l0,0l0,0l0,0
	l0,0l0,0l0,0l0,0l0,0l0,0l0,0l0,0l0,0l15.4,64.1l0,0l0,0l0,0l0,0l0,0l0,0l0,0l0,0l0,0l0,0l0,0l0,0l0,0l0,0l0,0l0,0L108.1,187l0,0
	l0,0h0l0,0l0,0l0,0l0,0l0,0l0,0l0,0l0,0l0,0l0,0l0,0l0,0l0,0L92.8,122.9"/>
<path class="st0" d="M89.4,131.6l27.9-51.3l59.5,32.5l20,10.9l3.4-6.4l6.1,3.2l-3.5,6.6l33.5,18.2l-13.2,24.3l5.1,2.5l-5.9,10.8
	l-1.8-1l-2.1,3.8l1.9,1l-10.9,19.5l-4.6-2.7l3.8-7.2l-39.9-21.5l-1.9,2.7l-4.7-2.5l1.8-3L89.4,131.6"/>
<path class="st0" d="M110.7,126.5l0.8,0l0.1-1.5l1.5,0.1l1.4-21.5l-0.4-0.4l-0.2-0.5l0.2-0.7l0.4-0.4l0.2-0.1l0.1-1.5l1.1,0.1
	l0.1-1.1l4.2,0.3l0.1-1.1l0.4,0l0-0.5l10.9,0.8l0,0.4l0.4,0l0,1l4,0.6l-0.1,0.7l0.2,0l0,0.4l0.5,0l-0.3,4.6l-0.4,0l0,0.4l-0.2,0
	l-0.1,2.1l0.1,0l0.3,0.1l0.4,0.6l0,0.2l5,0.9l7.5,1.4l0.2-1l0.3,0l-0.2,1.2l0.2,0l0,0.4l2.7,0.5l0.1-0.4l0.2,0.1l0.2-1.2l0.3,0.1
	l-0.1,1.1l12.5,2.3l3.7-20l-1-0.2l0.9-5.2l1,0.2l0.1-0.7l0.5,0.1l0.1-0.2l0.7-0.1l0.7-0.4l0.4-1l0.2-0.6l0.2,0.1l0.1-0.5l3,0.6
	l-0.1,0.5l0.2,0l0.1,0.4l0.4,0l0.7-0.3l2.6-0.5l2.3-0.3l2.7-0.1l2.6,0.2l0.1-0.8l1.9,0.3l-0.2,1.2l0.1,0l-0.1,0.3l2.3,0.4l0-0.3
	l0.1,0l0.2-1.2l1.8,0.3l-0.1,0.9L196,89l2.5,1l2.9,1.6l2.5,1.6l0,0l0-0.3l0.2,0l0.1-0.5l3.1,0.6l-0.1,0.4l1,0.2l-0.1,0.7l0.3,0
	l0-0.1l0.8-0.7l0.7,0.8l-0.8,0.7l-0.4-0.6l-0.8,0.2l0.3,1.7l-0.8,0.3l0.1,0.1l-0.1,0.2l0,0.1l1.1,1.4l0.1,0l0.2,0.1l0.6-0.6l1.5,0.9
	l0.4-0.7l-0.4-0.5l1-0.3l0.4,0.8l-1,0.4l-0.1,0.3l0.7,0.1l-0.2,1l0.4,0l-0.6,3l-0.5-0.1l-5.1,28.7l1.1,0.2l0,0.2l1.2,0.2l-0.3,1.3
	l0.6,0.1l-0.2,0.7l0.8,0.1l-0.5,2.6l-0.8-0.1l-0.1,0.7l-0.6-0.1l-0.2,1.3l-1.3-0.2l-0.3,1.2l-0.7,3.6l0.1,0.1l-0.4,1.6l-1.6,8.8
	l0.1,0l-0.2,1.2l1.3,0.2l-0.2,1.3l0.5,0l-0.1,0.7l0.8,0.2l-0.5,2.6l-0.8-0.1l-0.1,0.7l-0.5-0.1l-0.3,1.3l-1.1-0.2l-0.1,0.2l-1.2-0.2
	l-5.1,28.7l0.6,0.1l-0.6,3l-0.4,0l-0.1,1l-0.7-0.1l0.1,0.4l0,0l0.8,0.8l-0.8,0.7l-0.8-0.9l0.6-0.4l-0.2-0.7l-1.7,0.3l-0.3-0.8
	l-0.1,0.1l-0.2-0.1l-0.1,0l0,0l-1.4,1l0,0.1l0,0.1l-0.1,0l0.6,0.6l-0.3,0.5l-0.1,0.1l-0.5,0.9l0.6,0.4l0.6-0.4l0.4,0.9l-0.9,0.5
	l-0.5-1l-0.2-0.2l-0.2,0.7l-1-0.1l0,0.3l-3.1-0.6l0.1-0.5l-0.2-0.1l0-0.3l-0.1-0.1l-1.5,0.4l-3.4,0.6l-1.8,0.2l-2.9,0l-1.8-0.1
	l-0.1,0.3l-1.9-0.4l0.1-0.6l-2.5-0.4l-0.1,0.6l-1.9-0.3l0-0.3l-3.4-1.2l-1.7-0.8l-2.9-1.6l-2.4-1.5L157,192l-0.3,0l0,0.5l-3-0.6
	l0.1-0.5l-0.2,0l0-1.3l-0.1-0.4l-0.3-0.4l-0.2-0.2l-0.6-0.3l0.1-0.1l-0.5-0.1l0.1-0.7l-1-0.2l1-5.2l1,0.2l3.6-20l-5-0.9l-13.6-2.5
	l-0.3,0l-4.7-0.9l-0.2,0.3l-0.3,0.2l-0.4,0l-0.1-0.1l-0.2,2.1l0.2,0l0,0.4l0.4,0l-0.4,5l-0.4,0l0,0.4l-0.2,0l-0.1,0.7l-4.1-0.2
	l-0.1,1l-0.3,0.1l0,0.4l-11-0.8l0-0.4l-0.3,0l0.1-1.1l-4.2-0.3l0.1-1.2l-1.1-0.1l0-1.5l-0.3-0.2l-0.2-0.3l0-0.8l0.2-0.4l0.5-0.4
	l1.5-21.5l-1.5-0.1l0.1-1.5l-0.8-0.1l0.1-2.2l0.8,0l0.1-1.5l0.2,0l0-0.2l1,0l0.2-3.6l-1-0.1l0-0.2l-0.2,0l0.1-1.5l-0.8-0.1
	L110.7,126.5 M172.2,141.3l-0.1,2.2l0.1,0.7l0.8,2.1l1.2,1.6l0.5,0.5l1.3,0.9l2.3,0.9l2.4,0.3l1.7-0.1l0.7-0.2l0.8-0.5l1.3-1
	l1.2-1.1l0.9-1.1l0.5-0.8l0.3-1.1l0.3-2.4l-0.1-1l-0.4-2l-0.6-1.2l-1.3-1.3l-1.4-0.9l-1.4-0.5l-1.7-0.3l-1.4-0.1l-1.6,0l-2.7,1
	l-1,0.8l-1.5,1.6l-0.5,0.9l-0.6,1.4L172.2,141.3 M125.9,127.9l-1.8-0.6l-1.5,0.2l-1.8,1.1l-1.8,2.1l-0.6,2.4l0.2,2.4l1.1,2.3
	l1.7,1.2l2.3,0.3l2.4-0.5l1.6-1.4l1.1-2l0.3-2.2l-0.5-2.3l-1.2-1.9L125.9,127.9L125.9,127.9"/>
<path class="st0" d="M113.7,114.9L113.7,114.9l0.2-0.2l0.5,0.4l-0.3-0.8l0.1-0.2l5.2,3.6l0.2-0.4l-0.1-0.1l9.7-14L109,89.1
	l10.2-14.7l1.8,1.2l0.5-0.7l17.2,11.9l0.1-0.1l17.2,11.9l-0.5,0.7l11.4,8l0.4-0.6l39,27.2l-0.7,1l1.9,1.3l0.7-1l17.3,12.2l-0.4,0.5
	l7,4.9l0.4-0.5l2.8,2l-0.4,1l-1.3,1.8l-0.2-0.1l-8.5,12.4l-10.6-7.3l-11.5-8l-9.5,13.6l-1-0.7l0.2,0.4l0.6,0.6l-3.8,5.5l26.6,18.5
	l-1.5,2.3l9.6,6.6l-1.1,1.7l7.1,4.9l-0.1,0.3l1.2,0.8l0.2-0.3l0,0l0.6,1.6l0.4-0.6l0.6,0.4l0.4-0.1l2.1,1.5l0.1,0.2l1.8,1.2
	l-2.3,3.4l-1.8,2.6l-1-0.6l0,0l0.1-0.2l-0.7-0.5l-0.1,0.1l-0.5-0.3l0,0.1l0,0l-0.5-0.4l0-0.2l-7.3-5l0.2-0.2l-10.7-7.2l0.2-0.3
	l-2.4-1.7l-0.1,0.2l-0.9-0.7l-0.1,0.1l-0.4-0.3l0.1-0.1l-1-0.7l-0.1,0.1l-0.2-0.2l-0.3,0l-0.9-0.6l0.1,0l-3.1-2.1l-6.3-4.5l-0.2,0.2
	l-2-1.4l0-0.3l-0.5-0.4l-0.1,0.2l0,0l-5.6-3.8l0.1-0.2l-0.7-0.5l-0.1,0.2l-0.7-0.5l0.2-0.2l-0.2-0.2l2.2-3.2l-2.2-1.5l-3.5,5
	l-0.8-0.6l0.2-0.2l-0.6-0.4l-0.2,0.2l-0.5-0.3l-1.4,2.2l-0.3-0.2l-0.8,1.1l0.3,0.2l-0.5,0.5l-1.1-0.8l-0.1,0.2l-0.3-0.2l0.3-0.4
	l-0.7-0.5l-0.3,0.4l-0.3-0.2l0.1-0.2l-1.2-0.8l0.4-0.6l0.3,0.2l0.8-1.2l-0.3-0.2l1.5-2.1l-0.5-0.4l0.1-0.2l-0.6-0.4l-0.2,0.2
	l-0.8-0.6l0.4-0.6l-4.6-3.2l-0.1,0.2l-2.6-1.8l0.1-0.2l-4.6-3.2l-0.1,0.2l-2.6-1.8l0.1-0.2l-4.6-3.2l-1.3,1.8l0.2,0.2l-1.9,2.7
	l-2.9-2l0.1-0.2l-4.3-3L140,162l-0.1,0.2l-2.9-2l1.8-2.6l0.2,0.2l1.3-1.8l-4.6-3.2l-0.1,0.2l-0.3-0.2l0.1-0.2l-0.6-0.4l-0.1,0.2
	l-0.6-0.4l0.1-0.2l-0.6-0.4l-0.1,0.2l-0.5-0.3l0.1-0.2l-4.6-3.2l-0.1,0.2l-0.3-0.2l0.1-0.2l-0.6-0.4l-0.1,0.2l-0.6-0.4l0.1-0.2
	l-0.6-0.4l-0.1,0.2l-0.5-0.3l0.1-0.2l-2.5-1.8l0.1-0.1l-1.7-1.2l-0.1,0.1l-0.3-0.2l-0.4,0.5l-0.6-0.4l0.1-0.2l-0.6-0.4l-0.1,0.2
	l-0.7-0.5l0.1-0.2l-3.6-2.5l-0.1,0.2l0,0l-1.9-1.3l2.3-3.4l0.1,0l0.6-0.9l-2.3-1.6l-0.9,1.3l-3-2.1l0.1-0.2l-1.1-0.8l-0.1,0.2
	l-1.3-0.9l0.1-0.2l-1.2-0.8l-0.1,0.2l-1.3-0.9l0.1-0.2l-1.1-0.8l-0.1,0.2l-5.5-3.9l0.5-0.8l-7.1-4.9l-0.1,0.2l-0.3-0.2l0.4-0.5
	l0.1,0.1l1.5-2.3l-0.1-0.1l1.2-1.8l0.6-0.7l0,0l1.1,1.4l1.3-2l-1.4-1l0.7-1l13.6,9.4l2.5-3.5l0.3,0.2L113.7,114.9 M114.5,115
	l0.2,0.3l0.5,0.2L114.5,115 M192.6,168.3l-1.6-1.1l-0.1,0.2l1.6,1.1L192.6,168.3 M184.8,163.6L184.8,163.6l-0.1,0.2L184.8,163.6
	 M177.4,157.9l-0.2,0l1.5,1l0.1-0.1L177.4,157.9 M160.5,145.8l-0.4,0.4l0.8,0.6L160.5,145.8 M146.7,134.3l0.3,0.6l0.4,0.2l0.1-0.5
	L146.7,134.3 M147.2,135.7l0-0.1l-2.8-1.9l0,0.1L147.2,135.7 M123.2,118.8l-0.3,0.2l0.8,0.6L123.2,118.8 M121,121.3l0.1-0.2
	l-0.4-0.1L121,121.3 M121,121.3L121,121.3l0.1,0.2l0.2,0L121,121.3 M120,118.3l-0.7,0.1l0.6,0.4L120,118.3L120,118.3L120,118.3"/>
<path class="st0" d="M131.6,132.6l-3.1-17.5l1.6,0l2.3-11.8l-0.8-0.3l0.6-3.1l0.8,0.2l1.7-9.3L146.8,76l0.6,2.7l10-1.3l13.4,6.1
	l0.4,0.2l5.2,8.8l-3.7,3.9l2.4,4.2l12.7-2.7l0.6-0.1l1.1,5l1,4.2l0.3,1.3l1.2,5.6l0.1,0.6l1.7,8.1l4.5-0.9l1.2,4.4l0.6,2.5l0.5,2.3
	l0.4,2.1l0.7,3.5l0.6,3.6l0.3,1.7l0.3,2.5l0.2,2.8l0.1,4l0,4l-0.3,3.7l-0.5,4l-0.3,1.5l-1.2-0.2l-0.5,4.1l-0.4,2.4l-0.8,2.9
	l-0.5,1.9l-0.5,1.4l-1.1,2.4l-1.2,2.1l-1.7,2.6l-1.5,2.1l0.4,2l-0.8,0.2l0.7,3.4l-2.5,0.6l-6.8,1.5l-15.3,3.3l-2.8-0.1l-4.3-0.8
	l-5.2-2.2l-5.6-3.3l-0.7-0.6l-0.5-2.3l-1.6,0.4l-1.1-1l-4-4l-2-2.4l-2.7-3.5l-2.9-4.6l-0.4-2l-8.1-37.1L131.6,132.6"/>
<path class="st0" d="M220.2,107.3l3.8,57.1l-15.7,1.1l-27.5,1.8l-13.8,0.9l-9.3,0.6l-32.2,2.1l-16.6,1.1l-4.2-57.3L220.2,107.3"/>
<path class="st0" d="M129,149.3l0.7-9.6l-3.6-0.3l0.5-6.9l0,0l0.8,0.2l0.3-0.1l1,0.2l0.2-0.2l1.2,0.3l0.1-0.1l2,0l0.1-2l-6.4-0.5
	l0,0.3l-0.2,0l0.2-2.8l1.9-1.6l0.2-3.4l-2.9-0.3l0.1-0.1l1.3-16.9l5.4,0.4l0.9-12.2l0.4,0l0-0.5l20.2,1.4l0,0.5l0.4,0l0-0.5l7.1,0.6
	l0,0.3l0.4,0l0-0.3l19.1,1.3l14.7,1l5.3,0.4l0.1-1.7l3.4,0.2l1.4,0.3l0.4,0.3l0.3,0.4l0.1,0.6l-0.1,0.5l-0.2,0.5l-0.4,0.5l-0.5,0.2
	l-0.6,0.1l-0.8,12.2l5.5,0.4L208,128l5.7,0.4l-0.1,1.3l-15-1l0,0.4l15,1l-0.2,2.2l0.7,0.1l-0.7,9.5l-0.7,0l0,0.1l-13.4-0.9l-0.3,4.3
	l-0.2,0l0,0.3l0.4,0l-0.9,12.2l-1.7-0.1l-0.2,2.5l-6-0.4l0.2-2.5l-1.5-0.1l-0.4,6.2l-1.7-0.1l-0.8,11.2l-0.2,0.6l0.1,0l-1.3,20.5
	l-2.4,2l-5.5-0.4l0-0.3l0,0.3l-3.5-0.2l-0.8-0.4l-0.3,0l-0.1,0.3l-0.4,0.5l-0.6,0.4l-0.7,0.1l-0.6,0l-0.7-0.3l-0.5-0.4l-0.4-0.6
	l-0.1-0.3l-0.3,0l0,0.2l0,0l-0.7-0.2l0,0.3l-22.8-1.6l0-0.3l-5.1-0.2l0,0l0-0.4l-0.4,0l-0.3,0.5l-0.4,0.4l-0.5,0.3l-0.6,0.1l-0.6,0
	l-0.6-0.2l-0.5-0.3l-0.4-0.4l-0.3-0.7l-0.4,0l0,0.4l-2.8-0.2l-0.2-0.3l-0.4,0l-1.7-1.9l0.3-3.8l1.8-25.6l-4.3-0.3l0,0l-0.8-0.2
	l-1.8,0l0,0l0.9-12.3l0.8,0.1l0,0.2l3.3,0.3l0.1-0.2L129,149.3 M208.2,117.3l0-0.1l0-1L208.2,117.3 M203.6,98.4l0.5,0L203.6,98.4
	L203.6,98.4 M151.5,163.7L151.5,163.7l-0.5,0l-0.3,4.5l-4.6-0.3l-1.5,22.3l11.5,0.8l1.3-18.6l0.5,0l-0.1-0.5l-0.4,0l0.7-9.4
	l-1.8-0.1l1-14.9l33.7,2.4l0.5-5.9l-16.8-1.2l0,0.4l1.4,0.2l0.4,0.3l0.2,0.5l-0.1,0.5l-0.2,0.3l-0.4,0.2l-0.3,0l-4.3-0.4l-0.3-0.3
	l-0.2-0.4l0-0.5l0.3-0.4l0.4-0.2l0.3,0l1.1,0.1l0-0.4l-5.7-0.4l0-0.1l-5.3-0.5l-0.2,0.1l-1.3-0.1l-0.2,0.2l-9.7-0.7l-0.7,10.1
	l2.4,0.1L151.5,163.7 M174.6,169.3l-1.5-0.1l0.2-3l1.5,0.1l0.3-4.1l-5.1-0.4l-2.3,32.4l0.4,0l0.4-0.6l0.6-0.4l0.6-0.2l0.7,0l0.7,0.2
	l0.6,0.4l0.4,0.5l0.3,0.5l0.4,0L174.6,169.3 M159.3,119.9l0.7-9.6l-4.2-0.3l0.7-8.5l-0.2,0l0-0.3l-2.9-0.2l-1.3,18.4L159.3,119.9
	 M151.5,158.6l-0.1-0.1L151.5,158.6l0,0.3L151.5,158.6 M141.5,150l-1.2-0.1l-0.3,0.2l-0.9-0.1l-0.4,0.3l2.8,0.2L141.5,150
	 M129.6,183l0-0.5l-0.1,0.5L129.6,183 M129.8,142.1l0-0.2L129.8,142.1L129.8,142.1"/>
<path class="st0" d="M111.4,80.6l6.5,0.9l0.1-1.2l4.7,0.7l-0.1,1.3l10.1,1.3l0.1-1.1l4.8,0.6l-0.1,1.2l9.2,1.3l0.2-1.3l4.7,0.6
	l-0.2,1.3l10.5,1.5l0.1-1.1l4.1,0.4l-0.1,1.2l10.6,1.5l0.2-1.2l4.4,0.7l-0.2,1.2l10.2,1.5l0.2-1.3l4.6,0.6l-0.2,1.2l3.8,0.6
	l-14.2,111.3l-48.4-7l13.3-95l-1.2-0.2l-0.2,0.7l-2.9-0.5l0.3-1.3l-36.7-5.4L111.4,80.6"/>
<path class="st0" d="M220.8,153.8L220.8,153.8L220.8,153.8L220.8,153.8L220.8,153.8L220.8,153.8L220.8,153.8L220.8,153.8
	L220.8,153.8L220.8,153.8L220.8,153.8L220.8,153.8L220.8,153.8L220.8,153.8L220.8,153.8L220.8,153.8L220.8,153.8l-38,40.9l0,0l0,0
	l0,0l0,0l0,0l0,0l0,0l0,0l0,0l0,0l0,0l0,0l0,0l0,0l0,0l0,0L108,125.4l0,0l0,0l0,0l0,0l0,0l0,0l0,0l0,0v0l0,0l0,0l0,0l0,0l0,0l0,0
	l0,0l38.1-41l0,0l0,0l0,0l0,0l0,0l0,0l0,0l0,0l0,0l0,0l0,0l0,0l0,0l0,0l0,0l0,0L220.8,153.8"/>
</svg>
