<?xml version="1.0" encoding="utf-8"?>
<!-- Generator: Adobe Illustrator 26.0.2, SVG Export Plug-In . SVG Version: 6.00 Build 0)  -->
<svg version="1.1" id="Ebene_1" xmlns="http://www.w3.org/2000/svg" xmlns:xlink="http://www.w3.org/1999/xlink" x="0px" y="0px"
	 viewBox="0 0 283.5 283.6" style="enable-background:new 0 0 283.5 283.6;" xml:space="preserve">
<style type="text/css">
	.st0{fill:none;stroke:#000000;stroke-width:0.1;stroke-linejoin:round;}
</style>
<path class="st0" d="M116,99.6L116,99.6l-0.5,0.1l0,0.3l-0.3,0l0,0.5l-0.6,0.1l0-0.5l-0.3,0l0-0.3l-0.5,0l0-0.1l-0.9,0.1l0,0.1
	l-0.5,0.1l0,0.3l-0.3,0l0,0.5l-0.6,0.1l-0.1-0.5l-0.3,0l0-0.3l-0.5,0l-0.1-0.6l0.5-0.1l0-0.3l0.3,0l0-0.3l-0.3,0l0-0.3l-0.5,0
	l-0.1-0.6l0.5-0.1l0-0.3l0.3,0l-0.2-2l-0.3,0l-0.2-0.4l0-0.3l-0.5,0l-0.1-0.6l0.5-0.1l0-0.3l0.3,0l-0.2-2l-0.3,0l0-0.3l-0.5,0.1
	l-0.1-0.6l0.5,0l0-0.3l0.3,0l-0.2-2l-0.3,0l0-0.3l-0.5,0l-0.1-0.6l0.5-0.1l0-0.3l0.1,0l0-0.4l0.3,0l-0.2-2l-0.3,0l0-0.3l-0.5,0
	l-0.1-0.6l0.4,0l0-0.3l0.3,0l0-0.3l-0.3,0l0-0.3l-0.4,0l-0.1-0.6l0.4,0l0-0.3l0.3,0l0-0.5l0.6-0.1l0,0.4l0.3,0l0,0.3l0.5,0l0,0.2
	l1-0.1l0-0.2l0.5-0.1l0-0.3l0.3,0l-0.1-0.5l0.6-0.1l0,0.4l0.3,0l0,0.3l2-0.2l0-0.3l0.3,0l0-0.5l0.6-0.1l0,0.5l0.3,0l0.1,1.2l-0.3,0
	l0,0.6l-0.2,0l0.1,0.9l0.2,0l0.1,0.3l0,0.3l0.3,0l0,0.4l0.4,0l0,0.3l2-0.2l0-0.3l0.3,0l0-0.5l0.6-0.1l0.1,0.4l0.3,0l0,0.3l0.5,0l0,0
	l0,0.1l0.9-0.2l0.3,0l0,0l0.3,0l0-0.3l0.3,0l0-0.5l0.6-0.1l0.1,0.5l0.3,0l0,0.3l0.5,0l0,0l0,0.1l0.9-0.2l0.3,0l0.3,0l0-0.3l0.3,0
	l0-0.5l0.6-0.1l0,0.5l0.3,0l0,0.3l0.5,0l0,0.1l0.9-0.2l0.3-0.1l0,0l0.3,0l0-0.3l0.3,0l0-0.5l0.6-0.1l0,0.5l0.3,0l0,0.3l0.5-0.1
	l0,0.1l0.9-0.2l0.3,0l0,0l0.3,0l0-0.3l0.9-0.1l0-0.4l0.4-0.1l0-0.3l0.2,0l-0.1-0.9l-0.2,0l0-0.4l-0.4,0l0-0.4l0.4,0l0-0.4l0.2,0
	l-0.1-0.8l-0.2,0l0-0.4l-0.5,0l0-0.4l0.4,0l0-0.4l0.2,0l-0.1-0.8l-0.2,0l0-0.4l-0.4,0l0-0.4l0.4,0l0-0.4l0.2,0l-0.1-0.8l-0.2,0
	l0-0.4l-0.5,0l0-0.4l0.4,0l0-0.4l0.2,0l-0.1-0.8l-0.2,0l0-0.4l-0.4,0l0-0.4l0.3-0.2l-0.8,0l0-0.2l-0.8,0.1l0,0.1l-1,0.1l0-0.2
	l-0.8,0.1l0,0l0,0.2l-1,0.1l0-0.2l-0.8,0.1l0,0.2l-1,0.1l0-0.2l-0.8,0.1l0,0.2l-1,0.1l0-0.2l-0.8,0.1l0,0.2l-1,0.1l0-0.2l-0.8,0.1
	l0,0.2l-1,0.1l0-0.2l-0.8,0.1l0,0.2l-0.3,0l0,0.4l-0.8,0.1l-0.1-0.4l-0.4,0l0-0.5l-0.4,0l-0.1-0.8l0.4-0.1l0-0.3l0.2,0l-0.1-0.8
	l-0.2,0l0-0.3l-0.5,0l-0.1-0.8l0.4,0l0-0.3l0.2,0l-0.1-0.8l-0.2,0l0-0.3l-0.5,0l-0.1-0.8l0.4,0l-0.1-0.5l0.5,0l0-0.4l0.8-0.1l0,0.4
	l0.3,0l0,0.2l0.8-0.1l0-0.2l0.3,0l0-0.5l0.4,0l0,0.4l0.3,0l0,0.2l0.8-0.1l0-0.2l0.3,0l0-0.5l0.4,0l0.1,0.4l0.3,0l0,0.2l0.8-0.1
	l0-0.2l0.3,0l0-0.5l0.4,0l0,0.5l0.3,0l0,0.2l0.8-0.1l0-0.2l0.3,0l0-0.5l0.4,0l0,0.5l0.3,0l0,0.2l0.8-0.1l0-0.2l0.3,0l0-0.4l0.4,0
	l0,0.4l0.3,0l0,0.2l0.8-0.1l0-0.2l0.3,0l0-0.4l0.4,0l0,0.4l0.3,0l0,0.2l0.8-0.1l0-0.2l0.3,0l0-0.4l0.8-0.1l0,0.4l0.3-0.1l0.1-0.4
	l0.3-0.3l0.1,0l0-0.5l0.4,0l0,0.4l1.6-0.2l0-0.4l0.4,0l0,0.4l1.6-0.2l0-0.5l0.4,0l0.1,0.4l1.6-0.2l0-0.5l0.4,0l0.2,0.4l0.4,0.2
	l0.2,0.3l0.5,0l0,0.4l-0.4,0l0.2,1.6l0.5,0l0,0.4l-0.4,0l0.2,1.6l0.5,0l0,0.4l-0.4,0l0,0.4l-0.1,0l0.3,1.2l0.4,0l0,0.4l-0.5,0.1
	l-0.2,0.4l-0.4,0.6l0.5,0l0,0.4l-0.4,0l0,0.3l-0.1,0l0.1,0.8l0.1,0l0,0.3l0.4,0l0,0.4l-0.4,0l0.2,1.5l0.4,0l0,0.4l-0.4,0l0.2,1.5
	l0.4,0l0,0.4l-0.4,0l0,0.3l-0.1,0l0.2,1.1l0.4,0l0,0.4l-0.4,0l0.2,1.5l0.4,0l0,0.5l1.8-0.2l0,0.3l0.5,0l0.1,0.6l-0.4,0l0,0.3l-0.3,0
	l0,0.5l0,0l-0.1,0l0.2,0.9l0,0.3l0,0.3l0.3,0l0,0.3l0.4,0l0.1,0.6l-0.4,0l0,0.3l-0.3,0l0.2,2l0.3,0l0,0.3l0.4,0l0.1,0.6l-0.4,0
	l0,0.3l-0.3,0l0,0.5l0,0l-0.1,0l0.2,0.9l0.1,0.3l0,0l0,0.2l0.3,0l0,0.3l0.4,0l0.1,0.6l-0.4,0l0,0.3l-0.3,0l0.2,2l0.3,0l0,0.3l0.4,0
	l0.1,0.6l-0.4,0l0,0.3l-0.3,0l0,0.5l0,0l-0.1,0l0.2,0.9l0.1,0.3l0,0l0,0.2l0.3,0l0,0.3l0.4,0l0.1,0.6l-0.4,0l0,0.3l-0.3,0l0.2,2
	l0.3,0l0,0.3l0.5,0l0.1,0.6l-0.4,0l0,0.3l-0.3,0l0.2,2l0.3,0l0,0.3l0.4,0l0.1,0.6l-0.4,0l0,0.3l-0.3,0l0.2,2l0.3,0l0,0.3l0.5,0
	l0.1,0.6l-0.4,0l0,0.3l-0.3,0l0.2,2l0.3,0l0,0.3l0.4,0l0.1,0.6l-0.4,0.1l0,0.3l-0.3,0l0.2,2.1l0.3,0l0,0.4l0.4,0l0,0.3l1.2-0.1
	l0-0.1l0-0.2l1.2-0.1l0,0.2l0.5,0l0.1,0.8l-0.4,0l0,0.2l-0.3,0l0,0.6l-0.1,0l0.2,0.9l0.1,0.6l0.3,0l0,0.3l0.5,0l0,0.2l0.5,0l0.1,0.9
	l-0.4,0.1l0,0.2l-0.3,0l0,0.6l-0.1,0l0.1,0.9l0.1,0l0.1,0.6l0.3,0l0,0.2l0.5,0l0.1,0.9l-0.5,0.1l0,0.2l-0.3,0.1l0.3,0l0.2,0.2
	l-0.1,0.1l-0.1,0.2l0,0l-0.3,0.2l-0.1,0l0.1,1.1l0.4,0.1l0,0l0.1,0.2l0.1,0.2l-0.2,0.2L151,126l0.3,0l0,0l0,0.2l0.4,0l0.1,0.9
	l-0.4,0l0,0.2l-0.3,0l0,0.6l-0.1,0l0.2,0.9l0.1,0.3l0,0l0,0.2l0.3,0l0,0.2l0.4,0l0.1,0.9l-0.4,0l0,0.2l-0.4,0l0,0.3l-0.3,0l0,0.6
	l-0.1,0l0.1,0.9l0.1,0l0.1,0.6l0.3,0l0,0.2l0.5,0l0.1,0.8l-0.5,0l0,0l0,0.2l-1.2,0.1l0-0.3l-1.2,0.2l0,0.2l-0.4,0l0,0.4l-0.3,0
	l0.2,2.1l0.3,0l0,0.3l0.4,0l0.1,0.6l-0.4,0l0,0.3l-0.3,0l0,0.5l-0.1,0l0.2,1.4l0.3,0l0,0.3l0.5,0l0.1,0.6l-0.5,0l0,0.3l-0.3,0l0.2,2
	l0.3,0l0,0.3l0.4,0l0.1,0.6l-0.4,0l0,0.3l-0.3,0l0,0.5l-0.1,0l0.3,1.4l0.3,0l0,0.3l0.5,0l0.1,0.6l-0.5,0l0,0.3l-0.3,0l0.2,2l0.3,0
	l0,0.3l0.5,0l0.1,0.6l-0.4,0l0,0.3l-0.3,0l0.2,2l0.3,0l0,0.3l0.4,0l0.1,0.6l-0.4,0l0,0.3l-0.3,0l0.2,2l0.3,0l0,0.3l0.4,0l0.1,0.6
	l-0.4,0l0,0.3l-0.3,0l0.2,1.9l0.3,0l0,0.3l0.4,0l0.1,0.6l-0.4,0l0,0.3l-0.3,0l0.2,2l0.3,0l0,0.3l0.4,0l0.1,0.6l-0.4,0l0,0.3l-0.3,0
	l0,0.5l-0.1,0l0.2,1.4l0.3,0l0,0.3l0.4,0l0.1,0.6l-0.4,0l0,0.3l-1.7,0.2l0,0.1l0,0.4l-0.4,0l0.2,1.5l0.4,0l0,0.4l-0.4,0l0.2,1.5
	l0.4,0l0,0.4l-0.4,0l0.2,1.5l0.4,0l0,0.4l-0.4,0l0.2,1.5l0.4,0l0,0.4l-0.4,0l0.2,1.5l0.5,0l0,0.4l-0.4,0l0.1,0.3l0.4,0.2l0.2,0.4
	l0.4,0l0,0.4l-0.4,0l0.2,1.6l0.4,0l0,0.4l-0.4,0.1l0.2,1.6l0.4,0l0,0.4l-0.4,0l0.2,1.6l0.5,0l0,0.4l-0.5,0.2l-0.2,0.4l-0.3,0.2
	l0,0.4l-0.4,0l0-0.4l-1.6,0.2l0,0.4l-0.4,0l0-0.4l-1.6,0.2l0,0.5l-0.4,0l0-0.4l-1.6,0.2l0,0.4l-0.4,0l-0.2-0.5l-0.4-0.2l-0.4-0.4
	l-0.2,0l0,0.4L144,186l0-0.4l-0.3,0l0-0.2l-0.8,0.1l0,0.2l-0.3,0l0,0.5l-0.4,0l0-0.4l-0.3,0l0-0.2l-0.8,0.1l0,0.2l-0.3,0l0,0.5
	l-0.4,0l0-0.4l-0.3,0l0-0.2l-0.9,0.1l0,0.2l-0.3,0l0,0.4l-0.4,0l0-0.4l-0.3,0l0-0.2l-0.8,0.1l0,0.2l-0.3,0l0,0.4l-0.4,0l0-0.4
	l-0.3,0l0-0.2l-0.8,0.1l0,0.2l-0.3,0l0,0.4l-0.4,0l0-0.4l-0.3,0l0-0.2l-0.9,0.1l0,0.2l-0.3,0l0,0.4l-0.4,0l0-0.4l-0.3,0l0-0.2
	l-0.9,0.1l0,0.2l-0.3,0l0,0.4l-0.8,0.1l-0.1-0.4h0l-0.4,0l-0.1-0.5l-0.4,0l-0.1-0.8l0.4,0l0-0.3l0.2,0l-0.1-0.8l-0.2,0l0-0.3l-0.4,0
	l-0.1-0.8l0.4,0l-0.2-1.4l-0.4,0l-0.1-0.8l0.4,0l0-0.5l0.5-0.1l0-0.4l0.8-0.1l0,0.4l4-0.4l0,0.1l1.1-0.2l0-0.1l0.7,0l0,0.1l1.1-0.2
	l0-0.1l0.7,0l0,0.1l1.1-0.2l0-0.1l0.7,0l0,0.1l1.1-0.2l0-0.1l0.7,0l0,0.1l1.1-0.2l0-0.1l0.2,0l-0.1-0.6l0.4,0l-0.2-1.7l-0.4,0l0-0.4
	l0.4-0.1l-0.2-1.7l-0.5,0l0-0.4l0.5,0l-0.2-1.7l-0.4,0l0-0.4l0.4,0l-0.2-1.7l-0.4,0l0-0.4l0.4,0l-0.2-1.7l-0.4,0l0-0.4l-0.9,0.1
	l0-0.3l-2,0.2l0,0.3l-0.3,0l0,0.5l-0.6,0.1l0-0.5l-0.3,0l0-0.3l-0.5,0.1l0-0.1l-0.9,0.2l-0.3,0l0,0l-0.2,0l0,0.3l-0.3,0l0,0.5
	l-0.6,0.1l0-0.5l-0.3,0l0-0.3l-2,0.2l0,0.3l-0.3,0l0,0.5l-0.6,0.1l0-0.5l-0.3,0l0-0.3l-0.5,0.1l0-0.1l-0.9,0.2l-0.3,0l0,0l-0.2,0
	l0,0.3l-0.3,0l0,0.5l-0.6,0.1l0-0.4l-0.3,0l0-0.3l-0.5,0.1l0-0.1l-0.9,0.2l-0.3,0l0,0l-0.2,0l0,0.3l-0.4,0l0,0.4l-0.3,0l0.1,0.6
	l-0.1,0l0.2,0.9l0.1,0.3l0,0l0,0.3l0.3,0l0.1,1.2l-0.3,0l0,0.5l-0.6,0.1l0-0.4l-0.3,0l0-0.3l-0.5,0l0-0.1l-0.9,0.2l-0.3,0l-0.2,0
	l0,0.3l-0.3,0l0,0.4l-0.6,0.1l0-0.4l-0.3,0l0-0.3l-0.5,0l0-0.2l-0.9,0.1l0,0.2l-0.3,0.1l0,0l-0.2,0l0,0.3l-0.3,0l0,0.5l-0.6,0.1
	l0-0.4l-0.3,0l0-0.3l-0.5,0l-0.1-0.6l0.5,0l0-0.3l0.3,0l0-0.3l-0.3,0l0-0.3l-0.4,0l-0.1-0.6l0.5,0l0-0.3l0.3,0l0-0.5l0.2,0l-0.1-0.9
	l-0.2,0l0-0.3l0-0.2l-0.3,0l-0.2-0.7l-0.5,0l-0.1-0.6l0.5,0l0-0.3l0.3,0l-0.1-0.5l0.1,0l-0.2-0.9l-0.1-0.3l0,0l0-0.2l-0.3,0l0-0.3
	l-0.5,0l-0.1-0.6l0.4,0l0-0.3l0.3,0l0-0.5l0.1,0l-0.2-0.9l-0.1-0.5l-0.3,0l0-0.3l-0.5,0l-0.1-0.6l0.4,0l0-0.3l0.1,0l0-0.4l0.3,0
	l0-0.6l0.1,0l-0.2-0.9l-0.1-0.5l-0.3,0l0-0.3l-0.4,0l-0.1-0.6l0.4,0l0-0.3l0.3,0l0-0.3l-0.3,0l0-0.3l-0.5,0l-0.1-0.6l0.5,0l0-0.3
	l0.3,0l0-0.5l0.6-0.1l0,0.4l0.3,0l0,0.3l0.5,0l0,0.1l0.9-0.2l0.5-0.1l0-0.3l0.3,0l0-0.4l0.6-0.1l0,0.4l0.3,0l0,0.3l0.5,0l0,0.1
	l0.9-0.2l0.5-0.1l0-0.3l0.2,0l0-0.5l0.6,0l0,0.4l0.3,0l0.1,1.2l-0.3,0l0,0.6l-0.1,0l0.2,0.9l0,0.3l0,0.3l0.3,0l0.1,0.4l0.3,0l0,0.3
	l0.5,0l0,0.1l0.9-0.2l0.5-0.1l0-0.3l0.3,0l0-0.5l0.6-0.1l0,0.4l0.3,0l0,0.3l0.5,0l0,0.1l0.9-0.2l0.5-0.1l0-0.3l0.3,0l0-0.4l0.6-0.1
	l0,0.4l0.3,0l0,0.3l0.5,0l0,0.1l0.9-0.2l0.5-0.1l0-0.3l0.3,0l0-0.5l0.6-0.1l0,0.5l0.3,0l0,0.3l2-0.2l0-0.3l0.4,0l0-0.4l0.3,0l-0.2-2
	l-0.3,0l0-0.3l-0.4,0l-0.1-0.6l0.4,0l0-0.3l0.3,0l-0.2-2l-0.3,0l0-0.3l-0.5,0l-0.1-0.6l0.4,0l0-0.3l0.3,0l0-0.5l0,0l0.1,0l-0.2-0.9
	l0-0.3l0,0l0-0.3l-0.3,0l0-0.3l-0.5,0l-0.1-0.6l0.5,0l0-0.3l0.3,0l0-0.5l0.1,0l-0.2-1.4l-0.3,0l0-0.3l-0.4,0l-0.1-0.6l0.4,0l0-0.3
	l0.3,0l-0.2-2l-0.3,0l0-0.3l-0.4,0l-0.1-0.6l0.4,0l0-0.3l0.3,0l-0.1-0.5l0,0l0.1,0l-0.3-1.5l-0.3,0l0-0.3l-0.5,0L135,139l0.4,0
	l0-0.3l0.3,0l-0.2-2.1l-0.3,0l0-0.4l-0.4,0l0-0.3l-1.2,0.2l0,0.2l-1.2,0.1l0-0.2l-0.4,0l-0.1-0.8l0.4,0l0-0.2l0.3,0l0-0.6l0.2,0
	l-0.1-0.9l-0.2,0l-0.1-0.3l0-0.3l-0.3,0l0-0.3l-0.4,0l0-0.2l-0.5,0l-0.1-0.9l0.4,0l0-0.2l0.3,0l0-0.6l0.2,0l-0.1-0.9l-0.2,0
	l-0.1-0.3l0-0.3l-0.3,0l0-0.2l-0.5,0l-0.1-0.9l0.4,0l0-0.2l0.3,0l-0.3-0.1l-0.1-0.2l0,0l0.2-0.1l0.2-0.3l0.3-0.1l-0.1-1.1l-0.4-0.1
	l0,0l-0.2-0.1l-0.2-0.1l-0.1,0l0-0.1l0.2-0.2l0.2-0.1l-0.3,0l0,0l0-0.2l-0.5,0l-0.1-0.9l0.5,0l0-0.2l0.3,0l0-0.6l0.2,0l-0.1-0.9
	l-0.2,0l-0.1-0.3l0-0.2l-0.3,0l0-0.2l-0.5,0l-0.1-0.9l0.4,0l0-0.2l0.4,0l0-0.4l0.3,0l0-0.6l0.2,0l-0.1-0.9l-0.2,0l-0.1-0.3l0-0.3
	l-0.3,0l0-0.2l-0.5,0l-0.1-0.8l0.4,0l0-0.2l1.2-0.1l0,0.3l1.2-0.1l0-0.1l0-0.2l0.4,0l0-0.4l0.3,0l-0.2-2.1l-0.3,0l0-0.3l-0.4,0
	l-0.1-0.6l0.4,0l0-0.3l0.3,0l0-0.5l0.1,0l-0.3-1.4l-0.3,0l0-0.3l-0.4,0l-0.1-0.6l0.4,0l0-0.3l0.3,0l0-0.5l0.1,0l-0.2-1.4l-0.3,0
	l0-0.3l-0.5,0l-0.1-0.6l0.4,0l0-0.3l0.3,0l0-0.5l0.1,0l-0.3-1.4l-0.3,0l0-0.3l-0.5,0l-0.1-0.6l0.4,0l0-0.3l0.3,0l0-0.5l0.1,0
	l-0.2-1.4l-0.3,0l0-0.3l-0.4,0l-0.1-0.6l0.4,0l0-0.3l0.3,0l0-0.5l0,0l0.1,0l-0.2-0.9l-0.1-0.5l-0.3,0l0-0.3l-0.4,0l-0.1-0.6l0.4,0
	l0-0.3l0.3,0l0-0.5l0.1,0l-0.2-0.9l-0.3-0.5l0,0l0-0.4l-0.4,0l0-0.3l-0.5,0l0-0.1l-0.9,0.2l-0.5,0.1l0,0.3l-0.3,0l0,0.4l-0.6,0.1
	l0-0.4l-0.3,0l0-0.3l-2,0.2l0,0.3l-0.3,0l0,0.5l-0.6,0.1l0-0.4l-0.3,0l0-0.3l-2,0.2l0,0.3l-0.3,0l0,0.5l-0.6,0.1l0-0.4l-0.3,0l0-0.3
	l-2,0.2l0,0.3l-0.4,0l0,0.4l0,0l-0.3,0l0,0.6l-0.2,0l0.1,0.9l0.2,0l0,0.3l0,0.3l0.3,0l0.1,1.2l-0.3,0l0,0.4l-0.6,0.1l0-0.4l-0.3,0
	l0-0.3l-0.5,0l0,0l0-0.1l-0.9,0.1L116,99.6L116,99.6"/>
<path class="st0" d="M30.9,136.4l0-0.1l0.6-1.6l-0.3-0.1l1.8-4.9l-3.9-1.4l1.2-3.1l8,2.8l1.7-4.7l-6.6-2.4l2.4-6.6l1-3l-7.4-2.7
	l0.6-1.7l-0.9-0.3L31,102l0.1,0l0.8,0.3L66.2,8.9L67,9.1L68.1,6l3.1,1.2l2.6-7.2l2.1,0.8L76,0.5l8.2,3l-0.1,0.3l4.2,1.5L88.4,5
	l8.1,3l-0.1,0.3l4.1,1.5l0.1-0.3l8.4,3.1l-0.1,0.3l4.1,1.5l0.1-0.3l2.5,0.9l-0.1,0.3l0.8,0.3l0.2-0.5l5.1,1.9l-0.2,0.4l4.1,1.5
	l0.2-0.5l8.3,3l-0.2,0.4l2.2,0.8l-2.3,6.4l3.9,1.4l2.4-6.5l2.3,0.8l0.1-0.3l2.2,0.8l-0.2,0.6l0.9,0.3l0.1-0.3l1.8,0.7l-0.1,0.2
	l0.7,0.3l0.3-0.6l2.5,0.9l-0.1,0.3l3.2,1.2l1.8-4.9l-1.3-0.5l1.2-3.4l5,1.8l1-2.7l27.5,10l-1,2.7l5,1.9l-1.3,3.4l-1.3-0.5l-1.8,4.9
	l3.4,1.3l0.1-0.3l8.2,3l-0.1,0.3l2.1,0.8l-2.2,6.5l1.5,0.5l-0.2,0.7l0.8,0.3l0.2-0.7l1.5,0.5l2.4-6.5l2.3,0.8l0.1-0.3l8.3,3
	l-0.1,0.3l3.3,1.2l1.8-4.8l-1.4-0.5l1.3-3.4l5,1.8l1-2.7l27.5,10.1l-1,2.7l5,1.8l-1.2,3.4l-1.3-0.5l-1.8,4.9l3.4,1.2l0.2-0.4l8.3,3
	l-0.1,0.4l2.1,0.8l-2.4,6.5l1.7,0.6l-0.2,0.5l0.8,0.3l0.2-0.5l1.6,0.6l-1,3.2l2.2,0.8l-0.7,1.9l0.7,0.2l-0.6,1.6l-1.3-0.5l-1.1,3.1
	l-0.6-0.2l-1.1,2.8l1.4,0.5l-0.7,1.9l0.7,0.3l-0.6,1.6l-1.3-0.5l-0.6,1.5l-0.6-0.2l-0.6,1.5l-0.5-0.2l-0.9,2.7l0.5,0.2l-0.5,1.5
	l1.3,0.5l-0.7,1.9l0.7,0.3l-0.6,1.5l-1.3-0.5l-0.6,1.6l-0.6-0.2l-1.1,2.8l1.3,0.5l-0.7,1.9l0.7,0.3l-0.6,1.6l-1.3-0.5l-0.6,1.5
	l-0.6-0.2l-1.1,3l1.3,0.5l-0.7,1.9l0.7,0.3l-0.5,1.5l-1.4-0.5l-0.6,1.6l-0.6-0.2l-1.1,2.8l1.3,0.5l-0.7,2l0.7,0.2l-0.6,1.5l-1.4-0.5
	l-0.6,1.6l0,0l-0.6-0.2l-0.5,1.5l0,0l-0.5-0.2l-1,2.7l0.5,0.2l-0.6,1.6l1.3,0.5l-0.7,1.9l0.7,0.2l-0.6,1.5l-1.4-0.5l-0.6,1.6
	l-0.6-0.2l-0.6,1.5l-1.2-0.4l-1.5,4.1l1.9,0.7l-0.9,2.6l-7.6-2.8l0.9-2.6l2,0.7l1.5-4.1l-0.9-0.3l0.5-1.5l-0.7-0.3l0.6-1.6l-1.3-0.5
	l-0.2,0.6l-1.5-0.6l-0.2,0.6l-1.9-0.7l0.4-1.2l-2.9-1.1l-0.5,1.2l-1.7-0.6l0.2-0.5l-2.9-1.1l-0.2,0.5l-1.7-0.6l0.2-0.5l-1.5-0.5
	l-0.2,0.5l-1.8-0.7l0.4-1.2l-2.8-1l-0.4,1.2l-1.9-0.8l0.2-0.5l-3.1-1.1l-0.2,0.5l-1.7-0.6l0.2-0.5l-1.3-0.5l-0.2,0.5l-1.7-0.6
	l0.4-1.1l-2.9-1.1l-0.4,1.1l-1.7-0.6l0.2-0.5l-3-1.1l-0.2,0.5l-1.8-0.7l0.2-0.5l-1.3-0.5l-0.2,0.5l-1.8-0.7l0.4-1.1l-2.9-1l-0.4,1.1
	l-1.8-0.7l0.2-0.5l-3-1.1l-0.2,0.5l-1.8-0.7l0.2-0.5l-1.2-0.4l-0.2,0.5l-1.9-0.7l0.4-1.1l-2.8-1l-0.4,1.1l-1.8-0.7l0.2-0.5l-1.5-0.6
	l1.7-4.5l-4.2-1.6l-1.7,4.5l-1.6-0.6l-0.2,0.6l-1.7-0.6l0.2-0.6l-1.4-0.5l-0.2,0.6l-1.7-0.6l0.4-1.2l-2.8-1l-0.5,1.2l-1.7-0.6
	l0.2-0.6l-3.1-1.1l-0.3,0.6l-1.5-0.6l-5.9,16l-3.1-1.1l6.4-17.3l-2.8-1l-0.4,1.2l-0.2-0.1l-1.6,4.4l-3.3-1.2l1.9-5.1l-1.3-0.5
	l-0.2,0.6l-0.1,0l-1.6-0.6l0.2-0.6l-1.5-0.5l-0.2,0.6l-1.9-0.7l0.4-1.2l-2.8-1l-0.5,1.2l-1.6-0.6l0.2-0.5l-3.2-1.2l-0.2,0.6
	l-1.7-0.6l0.2-0.6l-1.4-0.5l-0.2,0.6l0,0l-1.6-0.6l0.4-1.2l-2.9-1.1l-0.4,1.2l-1.7-0.6l0.2-0.6l-2.9-1.1l-0.2,0.6l-1.7-0.6l0-0.1
	L124,96l-1.5-0.5l-0.3,0.6l-1.7-0.6l0.5-1.2l-2.9-1.1l-0.1,0.2l-2.2-0.8l-1.1,3.1l-0.7-0.2l-0.6,1.5l0.7,0.3l-1,2.8l-0.7-0.2
	l-0.7,1.8l1.3,0.5l-0.6,1.7l0.6,0.2l-0.5,1.4l-1.3-0.5l-1.1,3.1l-0.7-0.2l-0.6,1.6l0.7,0.2l-1.1,2.9l-0.7-0.2l-0.6,1.7l1.3,0.5
	l-0.7,1.9l0.6,0.2l-0.5,1.3l-1.3-0.5l-1.2,3.2l-0.7-0.3l-0.5,1.4l0.7,0.3l-1,2.8l-0.6-0.2l-0.1,0.3l2.8,1l-2.4,6.6l1.5,0.5l-1.1,3
	l1.3,0.5l-1.3,3.5l5.5,2l-2,5.4l-6.7-2.6l-1.4,3.9l4.3,1.6l-1.6,4.3l3.1,1.1l1.2-2.9l1.8,0.7l4.9,1.8l-1.1,3l1.4,0.5l1.2-3.3
	l5.3,1.9l0,0l-1.2,3.3l1.5,0.5l1.1-2.9l6.7,2.4l-1.1,2.9l2.9,1.1l1-2.7l6.6,2.4l-1,2.7l2.9,1.1l1.1-2.9l0.1,0l6.6,2.5l0,0l0,0.2
	l-0.9,2.6l3.2,1.2l0.6-1.6l1.2,0.5l-0.6,1.6l3.2,1.2l1.1-2.8l6.7,2.5l-1,2.8l3.2,1.2L161,184l1.4,0.6l-0.2,0.6l0.7,0.3l0.2-0.6l0,0
	l2.7,1l-0.6,1.6l1.4,0.5l0,0.1l-0.6,1.8l0.6,0.2l-0.6,1.6l-1.3-0.5l-0.6,1.6l-0.6-0.2l-1,2.8l1.3,0.5l-0.7,1.9l0.6,0.3l-0.7,1.7
	l-1.3-0.5l-1.2,3l-0.8-0.3l-0.5,1.6l0,0l-0.6-0.2l-1,2.7l0.6,0.2l-0.6,1.7l1.3,0.4l-0.6,2l0.7,0.3l-0.6,1.4l-1.4-0.5l-0.6,1.5
	l-0.7-0.2l-1.1,3l1.5,0.5l-0.7,1.9l0.6,0.2l-0.6,1.5l-1.4-0.5l-1.1,3l-0.6-0.2l-1.2,3.3l1.5,0.5l-0.7,1.9l0.6,0.2l-0.6,1.5l-1.4-0.5
	l-0.6,1.6l-0.6-0.2l-1,2.8l1.4,0.5l0,0.1l-0.7,1.8l0.6,0.2l-0.6,1.5l-1.4-0.5l-1.1,3l-0.6-0.2l-0.5,1.3l-0.5-0.2l-1.1,2.9l0.4,0.2
	l-0.6,1.6l1.2,0.4l-0.7,1.9l0.8,0.3l-0.6,1.5l-1.4-0.5l-0.6,1.5l-0.6-0.2l-1.1,3l3.3,1.2l0.7-1.9l8.7,3.2l0.3-0.8l0.3,0.1l0.6-1.6
	l1.2,0.4l-0.6,1.6l3.4,1.2l1-2.8l6.6,2.4l-1,2.8l3.1,1.1l1-2.8l6.6,2.4l-1,2.8l3.1,1.1l1.1-2.8l6.5,2.4l-1,2.8l3.2,1.2l0.6-1.6
	l1.1,0.4l-0.6,1.6l0.3,0.1l-0.3,0.8l8.9,3.3l-0.7,1.9l3,1.1l1.1-3l-0.6-0.2l0.5-1.5l-1.4-0.5l0.6-1.5l0.6,0.2l0.7-1.9l1.5,0.5
	l0.6-1.6l2.1,0.8l1-2.7l-2.1-0.8l0.6-1.7l-0.6-0.2l1.1-3l-1.4-0.5l0.6-1.5l0.6,0.2l0.7-1.9l1.5,0.5l1.1-2.9l-0.6-0.2l0.6-1.6
	l-1.4-0.5l0.6-1.5l0.6,0.2l0.7-1.9l1.5,0.5l1.1-3l-0.6-0.2l1.1-3l-1.4-0.5l0.6-1.5l0.6,0.2l0.7-1.9l1.5,0.5l1.1-2.9l-0.6-0.2
	l0.6-1.6l-1.4-0.5l0.5-1.4l0.6,0.2l0.7-1.9l1.5,0.5l0.6-1.6l2.1,0.8l1.1-2.9l-2.1-0.8l0.5-1.4l-0.6-0.2l1.1-3.1l-1.4-0.5l0.6-1.5
	l0.6,0.2l0.7-1.9l1.5,0.5l1.1-2.9l-0.6-0.2l0.6-1.6L221,212l0.6-1.5l0.6,0.2l0.7-1.9l0.6,0.2l1.2-3.4l-1.2-0.5l-0.3,0.7l-1.6-0.6
	l-0.2,0.6l-1.7-0.6l0.4-1l-3-1.1l-0.4,1l-1.6-0.6l0.2-0.6l-3-1.1l-0.2,0.6l-1.8-0.7l0.2-0.6l-1.3-0.5l-0.2,0.6l-1.7-0.6l0.4-1
	l-2.9-1.1l-0.4,1l-1.8-0.7l0.2-0.6l-1.5-0.6l0.4-0.9l2.2-6l2.1,0.8l0.1-0.3l1.8,0.7l0.3-0.9l0,0l4.7,1.7l-0.3,0.9l1.8,0.7l-0.1,0.3
	l4.2,1.5l0.1-0.3l1.8,0.7l0.3-0.9l4.7,1.7l-0.4,0.9l1.8,0.7l-0.1,0.3l2.1,0.8l-2.4,6.4l1.7,0.6l-0.2,0.6l0.6,0.2l0.2-0.5l1.8,0.7
	l-1.1,3.1l2.3,0.9l-0.7,1.9l0.6,0.2l-0.6,1.5l-1.4-0.5l-0.6,1.6l-0.6-0.2l-1.1,2.9l1.5,0.5l-0.7,1.9l0.6,0.2l-0.6,1.5l-1.4-0.5
	l-1.1,3.1l-0.6-0.2l-0.5,1.3l-0.6-0.2l-1.1,3.1l0.6,0.2l-0.5,1.5l1.4,0.5l-0.7,1.9l0.6,0.2l-0.6,1.6l-1.3-0.5l-0.6,1.6l-0.6-0.2
	l-1.1,2.9l1.5,0.5l-0.7,1.9l0.6,0.2l-0.6,1.5l-1.4-0.5l-1.1,3l-0.6-0.2l-1.1,3l1.5,0.5l-0.7,1.9l0.6,0.2l-0.6,1.5l-1.4-0.5l-0.6,1.6
	l-0.6-0.2l-1.1,3l1.5,0.5l-0.7,1.9l0.6,0.2l-0.6,1.5l-1.4-0.5l-1.1,3l-0.6-0.2l-0.5,1.3l-0.5-0.2l-1.1,3l0.5,0.2l-0.6,1.6l1.5,0.5
	l-0.7,1.9l0.6,0.2l-0.6,1.5l-1.4-0.5l-0.6,1.5l-0.6-0.2l-1.1,3l1.5,0.5l-0.7,1.9l0.6,0.2l-0.5,1.4l-1.4-0.5l-0.6,1.6l-0.1,0
	l-0.5-0.2l-0.6,1.5l-2.7-1l0.2-0.6l-0.6-0.2l-0.2,0.6l-2.7-1l0.6-1.5l-0.6-0.2l0.5-1.5l-3.3-1.2l0.4-1.2l-2.9-1.1l-0.4,1.2l-4.8-1.8
	l0.9-2.3l-2-0.7l-0.6,1.5l-5-1.8l0.4-1.2l-2.9-1.1l-0.4,1.2l-16.3-6l0.4-1.2l-2.9-1.1l-0.4,1.2l-4.9-1.8l0.6-1.5l-1.5-0.6l-0.9,2.4
	l-4.8-1.8l0.4-1.2l-2.9-1.1l-0.4,1.2l-3.5-1.3l-0.5,1.5l-0.6-0.2l-0.5,1.5l-2.7-1l0.2-0.4l-0.6-0.3l-0.2,0.5l-2.7-1l0.6-1.5
	l-0.7-0.3l0.5-1.4l-3.3-1.2l0.4-1.1l-3.1-1.1l-0.5,1l-4.8-1.7l0.4-1l-1.6-0.6l-2.1,5.8l-6.3-2.3l-25.7-9.4l2.6-7.2l-1.6-0.6
	l-0.8,2.2l-4.8-1.8l0.4-1.1l-3.1-1.1l-0.4,1.1l-3.4-1.2l-0.6,1.5l-0.7-0.2l-0.6,1.5l-2.7-1l0.2-0.5l-0.6-0.2l-0.2,0.5l-2.7-1
	l0.6-1.5l-0.7-0.3l0.5-1.5l-1.3-0.5l0.6-1.5l0.6,0.2l0.7-1.9l1.3,0.5l1.1-2.9l-0.7-0.3l0.6-1.5l-1.5-0.5l0.5-1.4l0.8,0.3l0.8-2.1
	l1.3,0.5l0.5-1.4l2.2,0.8l1.1-3l-2.2-0.8l0.5-1.4l-0.6-0.2l1.1-2.9l-1.4-0.5l0.6-1.5l0.8,0.3l0.7-2l1.3,0.5l1.1-2.9l-0.6-0.2
	l0.6-1.5l-1.4-0.5l0.5-1.5l0.8,0.3l0.7-1.9l1.3,0.5l1.1-3l-0.6-0.2l1.1-3l-1.4-0.5l0.5-1.4l0.8,0.3l0.7-1.9l1.3,0.5l1-2.8l-0.6-0.2
	l0.6-1.6l-1.4-0.5l0.6-1.6l0.7,0.3l0.7-1.9l1.3,0.5l0.6-1.5l2.2,0.8l1.1-2.9l-2.2-0.8l0.5-1.4l-0.6-0.2l1.1-3.1l-1.4-0.5l0.5-1.4
	l0.8,0.3l0.7-2l1.3,0.5l1.1-3l-0.6-0.2l0.6-1.5l-1.4-0.5l0.5-1.5l0.7,0.3l0.7-1.9l1.3,0.5l0.5-1.7l-0.3-1.8l-3.1-1.2l0.4-1.1
	l-2.9-1.1l-0.4,1.1l-5.1-1.9l0.7-1.8l-1.6-0.6l-0.7,1.8l-4.8-1.8l0.4-1.1l-3-1.1l-0.4,1.1l-16.1-5.9l0.4-1.1l-3.2-1.2l-0.4,1.1
	l-4.8-1.8l0.7-1.8l-1.5-0.6l-0.7,1.8l-5-1.8l0.4-1.1l-3-1.1l-0.4,1.1l-5.5-2l-0.6,1.6l1,0.4l-4.2,11.5l-1.8-0.7l-0.6,1.7l1.8,0.7
	l-8.3,22.5l-2.6-1l-0.7,2l2.6,1L12.8,198l-1.8-0.7l-0.7,1.9L12,200l-4.1,11.2l-6.7-2.5L1.1,209l-1-0.3l4.3-11.8l-0.2-0.1l0.5-1.2
	l0.2,0.1l9.7-26.3l7.9-21.4l-0.2-0.1l0.5-1.2l0.2,0.1l4.3-11.8l1,0.4l0,0l-0.1,0.2L30.9,136.4 M223.5,124.2L223.5,124.2l8.2,3
	l-0.2,0.4l6.4,2.4l-0.1,0.3l0.9,0.3l0.1-0.3l1.6,0.6l-0.4,1.1l2.6,1l-0.6,1.6l0,0l1.8,0.7l0.6-1.7l2.3,0.8l0.9-2.6l-2.2-0.8l0.6-1.6
	l-0.6-0.2l0.6-1.5l-1.3-0.5l0.5-1.5l0.7,0.3l0.7-2l1.3,0.5l1.1-3l-0.6-0.2l0.5-1.5l-1.5-0.5l0.6-1.6l0.7,0.3l0.7-1.8l1.3,0.5l1.1-3
	l-0.6-0.2l0.5-1.5l-1.3-0.5l0.6-1.6l0.5,0.2l0.7-2l1.4,0.5l1.1-2.9l-0.7-0.3l0.5-1.4l-1.4-0.5l0.6-1.5l0.8,0.3l0.7-1.9l1.3,0.5
	l0.6-1.6l2.2,0.8l1-2.7l-2.2-0.8l0.6-1.6l-0.6-0.2l0.5-1.3l-1.4-0.5l0.6-1.6l0.7,0.3l0.8-2.1l1.4,0.5l1-2.8l-0.7-0.3l1.1-3l-1.4-0.5
	l0.6-1.6l0.7,0.3l0.7-1.9l0.5,0.2l1.2-3.3l-1.3-0.5l-0.2,0.6l-1.6-0.6l-0.2,0.6l-1.7-0.6l0.5-1.3l-2.9-1.1l-0.4,1.2l-1.7-0.6
	l0.2-0.6l-1.4-0.5l-2.5,6.8l-1.8-0.7l0.8-2.2l-1.6-0.7l0.1-0.4l-1.2-0.4l-0.2,0.4l-1.7-0.6l0.4-1.2l-3-1.1l-0.4,1.1l-1.5-0.5
	l-0.8,2.1l-3.2-1.2l0.8-2.1l-1.5-0.6l0.2-0.6l-1.5-0.6l-0.2,0.6l-1.6-0.6l0.4-1.1l-3-1.1l-0.4,1.1l-1.6-0.5l-0.8,2.1l-3.2-1.2
	l0.8-2.1l-1.6-0.6l0.2-0.6l-1.3-0.5l-0.2,0.6l-1.6-0.6l0.4-1.1l-3-1.1l-0.4,1.1l-1.6-0.6l-0.8,2.2l-1.7-0.6l2.4-6.6l-1.4-0.5
	l-0.2,0.6l-1.8-0.7l0.2-0.6l-1.3-0.5l-0.2,0.6l-1.8-0.7l0.5-1.3l-2.9-1.1l-0.5,1.3l-1.7-0.6l0.2-0.6l-1.6-0.6l-0.9,2.6l2.4,0.9
	l-0.7,2l0.7,0.3l-0.6,1.6l-1.5-0.5l-1.1,2.9l-0.6-0.2l-1.1,3l1.3,0.5l-0.7,1.9l0.7,0.3l-0.6,1.5l-1.5-0.5L199,73l-0.6-0.2l-0.5,1.4
	l-0.5-0.2l-1.1,2.9l0.5,0.2l-0.6,1.6l1.4,0.5l0,0.1l-0.7,1.9l0.5,0.2l-0.6,1.5l-1.3-0.5l-0.6,1.6l-0.7-0.2l-1.1,2.9l1.4,0.5
	l-0.7,1.9l0.5,0.2l-0.5,1.5l-1.3-0.5l-0.6,1.6l-0.7-0.2l-1.1,3l1.5,0.6l-0.7,2l0.5,0.2l-0.5,1.5l-1.3-0.5l-0.6,1.5l-0.7-0.2l-1.1,3
	l1.3,0.5l0,0l-0.7,1.8l0.6,0.2l-0.6,1.6l-1.3-0.5l-0.5,1.4l-0.7-0.2l-0.6,1.5l-0.9-0.3l-0.5,1.3l2.2,0.8l0.1-0.3l8.2,3l-0.1,0.4
	l4.2,1.5l0.1-0.4l8.2,3l-0.1,0.4l4.3,1.6l0.1-0.4l8.2,3l0,0L219,123l4.3,1.6L223.5,124.2 M118.8,84.8L118.8,84.8l-0.7,1.8l-0.7-0.2
	l-1,2.6l2.8,1l0.7-1.9l2.2,0.8l0.5-1.2l1.8,0.7l-0.1,0.3l0.8,0.3l0.2-0.6l2.5,0.9l-0.1,0.3l4.1,1.5l0.1-0.3l8.4,3.1l-0.1,0.3
	l4.2,1.5l0.2-0.4l8.4,3.1l-0.1,0.4l4.2,1.6l0.1-0.3l8.1,3l-0.1,0.3l4.2,1.6l0.2-0.4l8.1,3l-0.1,0.3l2.1,0.8l0.5-1.3l-0.9-0.4
	l0.5-1.4l-0.6-0.2l0.6-1.5l-1.3-0.5l0.6-1.6l0.5,0.2l0.7-1.8l1.4,0.5l1.1-2.9l-0.5-0.2l0.6-1.7l-1.4-0.5l0.5-1.4l0.5,0.2l0.8-2.1
	l1.5,0.5l1.1-3.1l-0.7-0.3l0.5-1.5l-1.2-0.4l0.6-1.6l0.5,0.2l0.8-2l1.4,0.5l1-2.8l-0.7-0.3l0.6-1.6l-1.2-0.4l0.6-1.5l0.5,0.2L189,76
	l1.3,0.5l0.6-1.6l2.3,0.8l1-2.6l-2.3-0.9l0.6-1.6l-0.4-0.2l0.5-1.4l-1.5-0.5l0.6-1.5l0.6,0.2l0.7-2l1.4,0.5l1.1-2.9l-0.5-0.2
	l1.1-3.1l-1.5-0.5l0.5-1.5l0.6,0.2l0.7-2L197,56l1.2-3.2l-1.4-0.5l-0.3,0.7l-1.5-0.6l-0.2,0.5l-1.8-0.7l0.5-1.3l-2.9-1.1l-0.5,1.3
	l-1.7-0.6l0.2-0.6l-1.4-0.5l-2.6,6.7l-1.7-0.6l0.8-2.2l-1.5-0.5l0.2-0.5l-1.4-0.5l-0.2,0.5l-1.7-0.6l0.5-1.2l-3.1-1.1l-0.5,1.2
	l-1.3-0.5l-0.9,2.2l-3.4-1.2l0.8-2.2l-1.7-0.6l0.2-0.5l-1.3-0.5l-0.2,0.5l-1.8-0.7l0.5-1.2l-2.8-1l-0.5,1.2l-1.5-0.6l-0.9,2.3
	l-3.2-1.1l0.9-2.3l-1.7-0.7l0.2-0.5l-1.3-0.5l-0.2,0.5l-1.7-0.6l0.5-1.2l-2.8-1l-0.5,1.2l-1.7-0.6l-0.8,2.2l-1.8-0.7l2.5-6.9
	l-1.6-0.6l-0.3,0.7l-1.6-0.6l0.3-0.7l-1.3-0.5l-0.3,0.7l-1.9-0.7l0.5-1.3l-2.8-1l-0.5,1.3l-1.9-0.7l0.3-0.7l-1.3-0.5l-1,2.6l0.5,0.2
	l-0.6,1.7l1.2,0.5l-0.6,1.8l0.8,0.3l-0.6,1.7l-1.3-0.5l-0.5,1.5l-0.7-0.3l-1,2.8l1.2,0.5l0,0l-0.7,1.8l0.8,0.3l-0.6,1.7l-1.3-0.5
	l-0.5,1.3l-0.8-0.3l-0.6,1.6l0.6,0.2l-1,2.8l-0.6-0.2l-0.6,1.7l1.2,0.4l-0.7,2l0.9,0.3l-0.6,1.6l-1.7-0.6l-0.4,1.3l-0.7-0.2l-1,3
	l1.4,0.6l-0.6,1.9l0.9,0.3l-0.5,1.5l-1.7-0.6l-0.6,1.6l-0.7-0.2l-1,2.9l1.4,0.6l-0.7,2.1l0.6,0.2l-0.5,1.5L123,74l-0.5,1.4l-1-0.3
	l-1.1,3l1.3,0.5l-0.7,1.8l0.6,0.2l-0.6,1.5l-1.3-0.5l-0.6,1.5l-0.7-0.2l-0.6,1.6L118.8,84.8 M147.7,175.2l-0.5,1.9l0,0l-5-1.8
	l0.4-1.2l-2.8-0.9l-0.5,1.2l-16.4-5.8l0.4-1.1l-3-1.1l-0.4,1.1l-5-1.8l0.7-1.8l-1.8-0.7l-0.7,1.8l-5-1.8l0.4-1.1l-3.1-1.1l-0.4,1.1
	l-3.1-1.2l-0.5,1.6l-0.9-0.3l-0.6,1.6l1.3,0.5l-0.7,1.9l0.6,0.2l-0.5,1.5l-1.3-0.5l-0.6,1.5l-0.7-0.2l-1.1,3l1.3,0.5l-0.7,2l0.6,0.2
	l-0.5,1.4l-1.3-0.5l-1.1,3.1l-0.7-0.2l-0.5,1.4l-0.5-0.2l-1.1,2.9l0.5,0.2l-0.6,1.5l1.3,0.5l-0.7,1.9l0.6,0.2L93,188l-1.3-0.5
	l-0.6,1.6l-0.7-0.2l-1,2.8l1.3,0.5l-0.7,1.9l0.6,0.2l-0.5,1.4l-1.3-0.5l-1.1,3l-0.7-0.2l-1.1,3l1.3,0.5l-0.7,1.9l0.6,0.2l-0.5,1.5
	l-1.3-0.5l-0.6,1.5l-0.7-0.2l-1.1,2.9l1.3,0.5l-0.7,2l0.6,0.2l-0.6,1.5l-1.3-0.5l-1.1,2.9l-0.7-0.2l-0.5,1.4l-0.4-0.2l-1.1,3
	l0.5,0.2l-0.6,1.4l1.5,0.6l-0.7,2l0.5,0.2l-0.6,1.5L78,225l-0.6,1.6l-0.7-0.3l-1,2.8l3.3,1.2l0.7-1.9l8.8,3.2l0.3-0.9l0.2,0.1
	l0.6-1.5l1.2,0.5l-0.6,1.5l3.3,1.2l1-2.7l6.6,2.4l-1,2.7l2.8,1l1-2.7l6.8,2.5l-1,2.7l2.9,1.1l1-2.7l6.8,2.5l-1,2.7l3.1,1.1l0.8-2.1
	l1.4,0.5l-0.8,2.1l0.2,0.1l-0.4,1.1l8.8,3.2l-0.6,1.7l3,1.1l1-2.8l-0.6-0.2l0.5-1.4l-1.4-0.5l0.6-1.5l0.8,0.3l0.7-1.8l1.3,0.5
	l0.6-1.6l2.2,0.8l1-2.8l-2.2-0.8l0.6-1.6l-0.6-0.2l1.1-3l-1.4-0.5l0.6-1.5l0.6,0.2l0.7-1.9l1.5,0.5l1.1-2.9l-0.6-0.2l0.6-1.6
	l-1.4-0.5l0.6-1.5l0.6,0.2l0.7-1.9l1.5,0.5l1.1-3l-0.6-0.2l1.1-3l-1.4-0.5l0.6-1.5l0.6,0.2l0.8-2.2l1.4,0.5l1-2.9l-0.5-0.2l0.6-1.5
	l-1.4-0.5l0.6-1.5l0.7,0.2l0.7-2l1.4,0.5l0.5-1.3l2.2,0.8l1.1-2.9l-2.2-0.8l0.5-1.5l-0.5-0.3l1.1-3.1l-1.3-0.5l0.5-1.5l0.7,0.2
	l0.7-1.9l1.4,0.4l1-2.9l-0.6-0.3l0.6-1.5l-1.3-0.5l0.6-1.5l0.7,0.2l0.7-1.8l1.4,0.5l0.4-1.1l-0.6-0.2l0.8-2.2l-3.2-1.3l0.3-1.1
	l-2.9-1l-0.4,1.1l-4.9-1.8l0.6-1.8L147.7,175.2 M98.4,121.3l0.6-1.5l-0.4-0.2l0.5-1.4l-0.7-0.3l1.2-3.2l-1.4-0.5l0.5-1.3l0.7,0.2
	l0.7-1.9l1.4,0.5l0.6-1.7l0.5,0.2l1.1-2.9l-0.5-0.2l0.6-1.6l-0.7-0.2l1.1-3.1l-1.4-0.5l0.5-1.4l0.7,0.2l0.6-1.7l1.4,0.5l0.7-1.8
	l0.5,0.2l1-2.8l-0.5-0.2l0.6-1.5l-0.7-0.2l1.1-3.1l-1.4-0.5l0.6-1.5l0.7,0.2l0.7-1.8l1.4,0.5l0.6-1.7l0.5,0.2l1-2.7l-0.5-0.2
	l0.6-1.6l-0.6-0.2l0.5-1.5l-1.4-0.5l0.6-1.5l0.7,0.2l0.7-1.8l1.4,0.5l1.1-3l-0.7-0.2l0.6-1.5l-1.4-0.5l0.6-1.5l0.7,0.2l0.7-2
	l1.4,0.5l1.1-3l-0.7-0.2l0.6-1.5l-1.4-0.5l0.6-1.5l0.7,0.2l0.7-2l1.4,0.5l1-2.7l-0.7-0.2l0.6-1.6l-1.4-0.5l0.6-1.7l0.7,0.2l0.7-1.9
	l1.6,0.5l0.5-1.5l0.5,0.2l1.5-4.3l-1.1-0.4l0-0.1l0.5-1.4l-1.3-0.5l0.6-1.6l0.6,0.2l0.8-2.1l1.5,0.5l0.9-2.7l-0.6-0.2l0.5-1.4
	l-1.3-0.5l0.6-1.7l0.6,0.2l0.7-1.9l1.5,0.6l0.6-1.7l1.4,0.5l0,0l0.9-2.5l-1.3-0.5l-0.2,0.7l-2.2-0.8l0.2-0.7l-1.2-0.4l-0.3,0.7
	l-1.7-0.6l0.5-1.3l-2.8-1l-0.5,1.3l-1.8-0.7l0.2-0.7l-2.8-1l-0.3,0.7l-1.8-0.7l0.2-0.6l-1.2-0.4l-0.2,0.6l-1.9-0.7l-0.8,2.3l-3-1.1
	l-0.2,0.5l-5-1.8L104,27l-9-3.2l1.4-3.9l-4.7-1.7L90.3,22l-4.5-1.6l-0.3,0.9l-1.7-0.6l0.6-1.7l-3-1.1l2.2-6.3L82.1,11l-0.2,0.6
	L80.3,11l0.2-0.6l-1.4-0.5l-0.2,0.6l-1.7-0.6l0.4-1.2L73,7l-1.5,4l-0.7-0.2l-0.6,1.7l0.7,0.2l-0.6,1.6l-0.7-0.2L69,16l0.7,0.2
	l-0.6,1.6l-0.6-0.2l-1.3,3.6l0.6,0.2l0,0.1l2.7,1l-0.6,1.6l-4.8-1.7l-2.2,5.9l4.8,1.8L67,31.8l-3.4-1.2L63,32.3l0.7,0.2l-0.6,1.7
	L62.4,34l-0.7,1.8l0,0l0.6,0.2l-0.6,1.6l-0.6-0.2L59.8,41l3.4,1.3L62.6,44l-4.8-1.7l-1.1,3l4.8,1.8l-0.6,1.7l-3.4-1.2l-0.7,1.8
	l0.7,0.2l-0.6,1.7l-0.7-0.2l-0.6,1.7l0.7,0.2l-0.7,1.8l-0.6-0.2l-1.3,3.5l0.7,0.2l-0.1,0.1l2.7,1l-0.6,1.6l-4.8-1.7L49.4,65l4.8,1.8
	l-0.6,1.7l-3.4-1.2l-0.7,1.9l0.6,0.2L49.5,71l-0.6-0.2l-0.6,1.7l0.7,0.2l-0.6,1.6L47.7,74l-1.4,3.7l3.4,1.3L49,80.6l-4.7-1.7
	L43.2,82l2,0.8l-0.6,1.6l-0.7-0.2l-0.6,1.7l0.7,0.2l-0.6,1.7l-0.6-0.2L42,89.4l0.7,0.2l-0.6,1.7L41.4,91l-1.4,3.7l0.7,0.2l-0.6,1.6
	L38,95.8l-1.5,4.2l1.2,0.4l-1.1,2.9l2.8,1l1.1-2.9l6.7,2.5l-1.1,2.9l3.3,1.2l0.5-1.5l1.1,0.4l-0.5,1.5l3.3,1.2l1.1-2.9l6.7,2.5
	l-1.1,2.9l2.9,1.1l1.1-2.9l6.5,2.4l-1.1,2.9l2.9,1.1l1.1-2.9l6.7,2.5l-1.1,2.9l3.3,1.2l0.5-1.5l1.1,0.4l-0.5,1.5l3.2,1.2l1.1-2.9
	l6.8,2.5l-1.1,2.9l2.8,1L98.4,121.3L98.4,121.3"/>
<path class="st0" d="M118.3,185l-0.3,0.3l0.9,1l-0.1,2.1l-0.7,0l-0.2,1.6l-3.7-0.1l0.4-12.4l9.2,0.3l0,1.1l3.7,0.1l0.3-10.6
	l-16.8-0.5l0.3-11.5l12.8,0.4l-0.3,7.9l4,0.1l0.5-16.4L80.9,147l0,1.5l0.5,0l0,0.2l-13.7-0.4l0,0l1.9-1.9l-3.2,1.9l-0.9,0l0.5-14.4
	l31.3,1l0.1-3.8L57,129.9l-0.1,4l-5.2-0.1l-0.2,6l-3.5,0l-0.2,0.7l-4.6-0.3l0.2-6.7l-6.6-0.2l-0.2,6.8l-5-0.2l0-0.8l-3.2-0.2l0.2-6
	l-6.6-0.2l-0.2,6.8l-8.3-0.2l0.3-6.8L7,132.5L6.9,134l-4.8,0.7l0,0l0.1-2.3l-1.7-0.1l1.8-55.5l8.2,0.3l0,1.5l5.6,0.2l0.6-20.3
	l3.9,0.1l0-0.2l0.2-0.6l1.7,0.1l0,0.7l3.7,0.1l0,0.2l0.2,0l-0.9,29.4l2.9,0.1l0.1-1.7l12.6,0.4l-0.1,1.7l4.8,0.1l0.7-21.7l4.1,0.1
	l0.1-3.6L49,63.2l-1.3-0.8l-1.1-1l-0.9-1.2l0,0l0.2-0.1l0.3,0.4l1-0.7l-0.2-0.6l0.1-0.6l0.4-0.5l0.6-0.2l-0.1-1.3l-0.5,0l0-0.2
	l0.4,0l0.1-2.2l17.6,0.7l0.1-2.2l-1.2,0l0,0.6l-2.2-0.1L62.3,53l0-0.5l-1.9-0.1l0.2-6.3l1.9,0l0-0.6l2.2,0.1l0,0.6l3.4,0.1l0,1.2
	l5.9,0.2l0.1-1.3l3.5,0.1l0-0.6l2.2,0.1l0,0.6l1.9,0.1l-0.2,6.6l-0.2,0l0.3,0.8l0.9,0l0-0.5l1.5,0l0,0.6l1.9-0.1l0.2-6.4l2,0.1
	l1.2-0.5l1.2-0.2l1.2,0l1.2,0.3l0.8,0.4l0-0.9l9.1,0.3l-0.6,19.7L95,66.7l0-0.4l-0.2,0l-1-0.5l-0.3,10.3l5.8,0.2l-0.6,18.2l10.4,0.3
	l0-1.3l-2.7-0.2l0.3-10.3l0.2-0.2l2.4,0.1l0.1-1.5l-2.7-0.1l0-0.2l0.1,0l0.2-5.2l0.8,0l0-1.3l-0.9,0l0-0.2l-0.8,0l0.3-8.4l0.8,0
	l0.2-6.7l-0.2,0l0.1-2.5l-0.4-0.1l0.2-0.8l0.2,0l0.2-7l7,0.3l0,0.2l-0.1,0l-0.1,5.2l-1.3,0l-0.1,3.1l1.3,0L113.9,71l0.2,0l-0.1,2.5
	l0.4,0.1l-0.2,0.8l-0.2,0l-0.2,7.1l-2.4-0.1l-0.1,1.5l9,0.3l-0.1,9l-0.2,0.2l0.2,1.3l-0.2,0.1l-7.1-0.2l0,1.3l9.5,0.3l0-1.1l0.1,0
	l0.3-12.5l-5.4-0.2l0.8-24l5.4,0.2l0.2-4.6l9.5,0.3l-0.2,6.6l-9.3-0.3l-0.1,3.1l10.7,0.3l0.1-4.2l0.7-0.6l15.9,0.5l0,0.6l3.4,0.1
	l0.7-21.8l5.8,0.3l-0.6,17.5l15.9,0.5l-0.1,0.2l-0.1,3.3l-0.6,0l-0.2,6.7l0.1,0l0,1.2l3.3,0.1l0.1-1.8l1.7,0.1l0,1.8l1.6,0l0-1
	l0.6,0l0,0.1l12.7,0.4l0-0.1l0.6,0l-0.1,2.7l1.6,0l0-1.6l0.1,0l0.1-3.6l-0.2,0l0.2-5.4l-2.3-0.1l0.1-3.7l-0.9,0l0.2-5.6l16.9,0.5
	l0.1-4.2l5,0.2l0,1.1l10.3,0.3l0.1,0.2l-0.3,8.2l7.7,0.3l-0.1,3.8l-3.1-0.1l-0.4,10.9l1.8,0.1l0.1-2.9l0.6,0l0,0.1l12.7,0.4l0-0.1
	l0.6,0l-0.1,2.8l1.6,0l0.1-1.7l0.1,0l0.3-9l-2.4-0.1l0.1-3.9l5.8,0.2l-0.1,2.2l1.2,0l0-0.3l3.5,0.1l0,0.2l-0.1,0l-0.4,12.6l0.1,0
	l0,0.2l-0.3,0l-0.1,1.9l0.3,0l-0.1,3.1l-0.2,0l0-0.1l-8.2-0.2l0.1-1.8l-1.6-0.1l-0.1,1.7l0.1,0l0,0.2l-0.1,0l-0.6,18.2l2.6,0.1
	l0-0.5l5.5,0.2l-0.1,1.9l0.5,0l-0.1,0.2l-0.1,4.1l-5.9,0l0.1-1.8l-2.6-0.1l0,0.3l-0.2,0.1l0-0.1l-9.7-0.4l0-1l-4.1-0.1l0,1.3l-0.2,0
	l0.2-6.5l0.1,0l0.4-16.2l0-0.2l0,0l0.1,0l0.1-1.7l-1.6,0l-0.1,1.8l-0.1,0l0-0.1l-8.2-0.1L223,74l-1.6,0l-0.1,1.7l0.1,0l0,0.2l-0.1,0
	L220.7,94l2.6,0.1l0-0.5l5.5,0.2l-0.1,1.8l0.5,0l-0.1,0.1l-0.2,4.1l-5.8-0.1l0.1-1.8l-2.6-0.1l0,0.5l-0.2,0l0-0.1l-9.6-0.3l0,0.2
	l-0.2,0l0-1.3l-4.1-0.1l0,1.3l-0.2,0l0.2-6.5l0.1,0l0.5-16.2l-0.1,0l0-0.2l0.1,0l0.1-1.7l-1.6,0l-0.1,1.8l-0.1-0.1l-8.2-0.1l0.1-1.8
	l-1.6,0l-0.1,1.7l0.1,0l0,0.2l-0.1,0l-0.6,18.2l2.6,0.1l0-0.5l5.5,0.2l-0.1,1.9l0.5,0v0l-0.1,0.1l-0.1,4.1l-5.9-0.2l0.1-1.6
	l-2.6-0.1l0,0.5l-0.2,0l0-0.1l-9.5-0.3l0,0.2l-0.2,0l0-1.3l-4.1-0.1l0,1.3l-0.2,0l0.2-6.5l0.1,0l0.5-14.4l-5-0.2l-0.1,3.1l-0.4,0.5
	l-0.4,0.1l-0.9,0l-0.2,7.9l-1,0l-0.2,4.4l-3.8-0.2l0-1.1l-5.3-0.2l0.2-5.1l0.3,0l0.1-3.1l5.2,0.2l0.2-5.4l-10.9-0.3l-0.5,15.9
	l-0.2,0l-0.1,4.9l1.9,0.1l0.1,3.2l0.1-0.4l-0.6,17.9l21.1,0.7l-0.2,9l-0.4,0.9l0.3,2.2l-0.2,0.2l0.2,1.6l0.3,0.2l-0.1,2l-1.3,0.2
	l-0.2,6l0.2-0.4l0.1-0.8l0,0l0.3,0.9l0.3,2.2l-0.4,0.2l0,0.3l-0.2,0l-0.5,18.1l1.6,1.5l2.1,0.1l0-1.4l7.7,0.2l0.1-2.3l-0.4,0
	l-0.9-3.8l0,0l1.4,0l0.1-2.7l0.4,0l-0.1,2.8l11,0.3l0.1-2.8l0.4,0l-0.1,2.8l16.3,0.5l0.3-9.2l0.4,0l0,0.5l0.8,0l0-0.6l8-3l0,0
	l1.1,3.8l1.1,0l0-0.5l0.3,0l-0.3,9.2l12.5,0.4l-0.1,0.1l-0.2,3.1l-4.2,2.5l-0.2,6.4l0.8,0.2l0.6,0.5l0.3,0.8l0,0.8l-0.3,0.6
	l-0.4,0.4l-0.6,0.3l-0.6,0.1l-0.1,4l3.3,0.9l-1.7,15.8l0,0l-4.1-1.5l0.2-2.5l-2.5-0.9l-0.4-9.6l-3.3-0.2l-0.8,22.8l0.2,0l-0.3,9.1
	l8.5-2.2l0.1,0.4l-20.5,5.3l-0.1-0.4l3.8-1l0-1.7l-3.2-0.1l0-1.4l-0.5,0l0.2-7.3l-4.3-0.1l-0.1,0.2l0,4.6l-7.7-0.2l0.1-4.8l-4.3-0.1
	l-0.5,16.2l6.7-1.7l0.1,0.4l-15,3.9l-0.1-0.4l0.1,0l0.1-1.7l-0.9,0l0-0.3l-1.2,0l0-0.4l0,0l1.2,0l0-0.4l-1.3,0.1l0-0.3l-0.2,1
	l-0.5,0l-0.3-1.3l-0.4,0l0.9-28.8l-18.4-0.6L171,227l1.1-0.3l0.1,0.3l-5.5,1.4l0,0l0-0.4l-0.3,0.1l0,0l0.1-3.1l-13.5-0.4l-0.2,7.2
	l1.1-0.3l0.1,0.3l-5.8,1.5l0-0.3l0.2-6.2l-1.7-0.1l0.1-2.3l-11.8-0.4l-0.4,12.4l1.1-0.3l0.1,0.3l-6.2,1.6l-0.1-0.3l0.5-0.1l0.1-3.2
	l-5.9-0.2l1-29.2l0.2,0l0.1-2l0.7-19.8l-0.6,0l-0.2,4.3l-3.1-0.1l0,0.1l-1,2.5l-0.7,25.2l-27.9-0.9l0.3-10.5l20.9,0.6l0.4-14
	l4.9,0.2l0.2-5.1l4.1,0.1l0-0.3l-4.1-0.1l0-0.2L118.3,185 M190.6,218.4L190.6,218.4L190.6,218.4 M218.8,210.9L218.8,210.9l0-0.4
	L218.8,210.9 M217.8,202.5l0.2-6.7l0.3-0.9l0-2.4l0.2-0.6l-0.2-1.7l-16.7-0.5l0,2.3l-0.2,0.3l0.2,1.5l-0.2,0.4l0.2,1.3l0.2-0.5l0,0
	l-0.2,7l4.2,0.1l0-1.3l7.9,0.2l0,1.3L217.8,202.5 M218.6,173.9l-16.4-0.5l0,2.4l-0.2,0.3l-0.1,2.3l16.8,0.5l0.1-3.3l-0.3,0
	L218.6,173.9 M212,67.4l-2.2-1.2l-1.9-1.7l-0.6-0.8l-0.5-0.9l-0.8,0l-0.2,7.1l1.8,0l0.1-2.9l0.6,0l0,0.1L212,67.4 M212,67.4l8.9,0.3
	l0-0.1l0.6,0l-0.1,2.8l1.6,0.1l0-1.7l0.1,0l0.3-9l-11.3-0.3L212,67.4 M179.1,172.7L179.1,172.7l0-0.3l-7-0.3l0.1,0.4l0.3,0.4
	l-0.2,4.2l17.9,0.6l0.2-4.7L179.1,172.7 M168.3,151.6l2.9,0.1l0.2-7.7l-2.5-0.1l-0.1-0.2l-0.1,0.2l-0.2,0L168.3,151.6 M168.4,143.4
	l0-0.2l-1.4-1.7l-1.4,0.2l0,0l0.2-3.6l-3.4-0.3l0,0l1.5-0.4l-5.7-0.3l0,0.5l0,0l-0.5,0l-0.5-0.5l-1,0l0.1,0.5l0.4,0l0,0l-0.5,0.7
	l0.1,0.8l3.3,3.5l-0.3,0.3l0.4,0.4l8.6,0.3L168.4,143.4 M162.8,171.8l-6.1,1.2l2.9,2.8l1.3,0.1l4.1,0.1l0.1,0.5l0.3,0.8l0.2-2.2
	l-2.7-0.1l-0.5-1.3l0.4-0.3L162.8,171.8 M154,206.7L154,206.7l0.1-0.4l-0.5,0l0,0.4L154,206.7 M154,206.7l-0.2,7.6l0.3,0L154,214
	l0,0l8,0.3l0.2-5.7l-1.7-0.1l-0.1-0.6l0.2-1L154,206.7 M160.9,189.3L160.9,189.3l-0.2-0.3l-1.4-0.3l-0.6,0.5l0,0l-0.2-0.3l-4,3.7
	l0.4,0.6l-0.4,0.4l-0.1,2.1l8.1,0.2l0.2-6.1l-1.5-0.1l0-0.5l-0.3-0.1L160.9,189.3 M159.7,206.3L159.7,206.3l0.8,0.1L159.7,206.3
	 M153.5,211.6l0,0.5l0.2-0.3L153.5,211.6 M146.8,206.5l-11.5-0.3l-0.1,0.8l0.5,0.5l0.1,0.3l0,0l-0.4,0l-0.2,5.7l13,0.5l0.2-5.9
	l-1.7,0L146.8,206.5 M146.8,206.4l0.2-0.5l-0.2,0L146.8,206.4 M136.4,189.1l-0.2,6.1l7.4,0.2l0.1-2.1l-4.3-4.7l-3,0L136.4,189.1
	 M145.3,132.5l-7.8-0.3l-0.2,6.1l5.7,0.2l2.2-2L145.3,132.5 M138.9,87.4l0.1,2.7l3.6,0.1l0.1-2.7L138.9,87.4 M138.4,116.5l-0.9,0
	l0.2-6.9l0.9,0l0.4-12.2l-16.8-0.5l-0.4,12.2l0.9,0l-0.2,6.9l-0.9,0l-0.4,14.2l9.5,0.3l0.1-1.1l4.7,0.2l0,1.1l2.5,0.1L138.4,116.5
	 M130.4,132.1l-9.2-0.3l-0.1,3.8l9.2,0.3L130.4,132.1 M98.9,134.9l20.5,0.6l0.1-3.8L99,131.1L98.9,134.9 M112.8,127.1l0.2-7.1
	l-3.8-0.1L109,127L112.8,127.1 M113.7,99.5l-3.8-0.1l-0.3,9.9l3.9,0.1L113.7,99.5 M101.2,108.5l0.4-12.2l-16.8-0.5L84.4,108l0.9,0
	l-0.2,6.9l-0.9,0L83.8,129l16.8,0.5l0.4-14.2l-0.9,0l0.2-6.9L101.2,108.5 M84.4,68.6L84.4,68.6l-32.2-1l-0.4,10.6l4.3,0.1L55.8,89
	l0.3,0.3l1.2-0.1l0.1-0.2l6.9,0.2l0.2-10.7l-1.4-0.1l0.2-5.8l9.3,0.3l0,1l0.3,0l0.1,0.4L85.3,75l0.2-6.5L84.4,68.6 M74.4,92.2
	L74.4,92.2l0.1,0.2l1.1,0l0.1-1.7l6.1,0.2l-0.1,1.7l1.1,0l0.4-12.5L79.9,80l0-0.5l-3.7-0.1l0-0.5l-1.4,0l0,0.3l-0.1,0L74.4,92.2
	 M76.3,98.3l-3.9-0.1l-0.3,9.9l3.8,0.1L76.3,98.3 M63.6,114.2l-0.9,0l0.2-6.9l0.9,0l0.4-12.2l-16.8-0.5l-1,33.3l16.8,0.5L63.6,114.2
	 M32.2,127.6l0.2-0.1l0,0l3.5,0.1l1-33.3l-6.1-0.2l-0.9,28.8l2.3,0.1L32.2,127.6 M9.2,126.6L9.2,126.6l0,0.4l2.7,0.1l0.2-6.6
	l10.9,0.3l-0.1-2.9l0.2-5.3l-11.4-0.4l0,0.9l-2.1,0L9.2,126.6L9.2,126.6 M15.9,80l-3,0L12,81.5l-1.4,0l-0.7,21.9l11.3,0.2l0,0.8
	l2.3,0l0.3-10.4l-1.3,0l0,0.4l-0.1,0l0.1,1.1l0,0l-7.4-0.2l0.3-8.7l0.5,0L15.9,80 M5.6,132.7l0.2-0.1l-0.3,0l0.1,0L5.6,132.7
	L5.6,132.7"/>
<path class="st0" d="M29.7,128.5l4.5-5.2l6.5,1.8l3.3-0.7l0,0l-0.2,0.8l0.8,0.2l0.3-1.1l6.4-0.7l10.5-0.5l0.2,5.6l2,0.6l-0.4,1.3
	l1.4,0.4l0.3-1.2l1.6,0.4l-0.3,1.1l1.5,0.4l0.3-1.2l-0.2-1l0.5-1.7l-0.9-0.2l0.8-2.7l-0.6-0.2l0.3-1.1l1.1-1.8l1.4,0.3l0.9-3.3
	l0.2,0l0-0.5l4.7-4.8l-1.7-1.6l-5.7-3.7l2.2-3.5l0,0l5.2,4.5l1.8-2l1.2,1l2.9-3l-0.4-0.8l-0.6-0.5l-0.1,0.1l-0.9-0.8l-1.3,1.3
	l-5.2-4.3l0.5-1l2.7-2.5l2,2.1l2.3-2.1l3.4,3l0,0l-0.8,0.8l1,0.8l0.5-0.5l3-2.2l2.8-1.7l-5.5-7.3l3.2-2.7l0,0l5.1,6.8l1-1l1.1,1
	l4.4-4.4l-1.3-1.1l0,0l2.1-2.2l-0.6-0.6l1.5-1.6l0.6,0.6l1.7-1.7l0,0l1.6,1.7l4.7-4.5l0,0l0.3,1.3l1.6,0.9l0.6-4.8l0.1-2l0.9,0
	l0.1-1.7l-0.9,0l0.1-1.6l2.9-1.1l1.8-0.4l2.2-0.1l3.7,0.7l-0.1,0.6l2.6,0.5l0.1-0.6l22,4.1l8.8,2.8l-0.3,0.8l-0.2-0.1l-0.6,1.9
	l-0.1,1.4l1.4,0.7l-1.7,3.7l3.8,2.6l0.2-0.2l7.8,4.7l14.3,9.3l0.6-1.3l6.5,2.9l-2.3,6.1l0.7,0.2l-0.6,1.7l2.2,0.8l1.1-2.6l-0.9-0.4
	l0.8-1.9l-0.7-0.3l1.1-2.6l0.5,0.2l2.2-4l-2.8-1.5l-1.1,1.6l-1.4-0.9l-1.1,1.6l-2.2-1.4l0.2-0.3l-3.3-2.1l-0.1,0.2l-4.6-3.2l0.1-0.2
	l-11-7.7l0.6-1.2l-1-0.6l0.6-0.8l-1.6-1.1l3.2-4.8l10.8,7l0.4-0.6l1,0.7l-0.4,0.5l12.4,8l0.4-0.6l2.5,1.6l-0.4,0.6l2.7,1.7l-0.1,0.2
	l3.3,2.2l-1.1,2.8l0.5,0.2l-3.7,9l-0.3-0.1l-1.4,3.3l0.2,0.1l-0.5,1.1l-0.1,0l-1,2.4l-0.6-0.2l0.5-1.2l-6-2.4l-0.1,0.2l-2.9-1.1
	l-3.8,9.4l-1.8-0.7l-0.4,1l10.4,4.7l-3,7.8l0.9,0.4l-0.6,1.6l-0.9-0.3l-0.6,1.5l0.5,0.2l-0.5,1.3l-0.5-0.2l-0.5,1.2l0.5,0.2
	l-1.5,3.8l-0.4-0.2l-3.4,8.3l0.7,0.3l-1,2.4l-0.7-0.3l-0.1,0.4l0.7,0.3l-0.8,1.9l-1,3.4l0,0l-0.5-0.2l-0.5,1.3l-0.4-0.2l-0.5,1.2
	l0.4,0.2l-0.4,1l0.1,0.1l-2.8,6.9l-0.8-0.3l-1.1,2.6l0.7,0.3l-6.9,17.3l-7.5-3l-2.3,5.6l-5.8-0.3l-0.5,0.1l-0.5-0.2l-0.5-0.4
	l-0.6-0.2l0.2-0.6l-1.9-0.5l0.1-0.3l-0.8-0.2l-0.1,0.3l-2.4-0.7l0,0l0.2-0.6l-0.9-0.2l-0.2,0.6l-0.3-0.1l-0.3,0.7l-1.6-0.6l0.2-0.7
	l-2.3-0.7l-2.7-1.8l0.1-0.2l-6.9-3.6l-4.1-3.5l-8.3-8.6l0.5-0.7l0.4,0.3l1.2-1.7l-0.2-0.2l2.8-4.6l-0.2-0.2l0.7-1.4l0.6,0.3l1.6-3.2
	l-0.3-0.1l1.1-2.1l5.5,3.1l-0.4,0.8l5.3,3.1l-1.7,3l3,1.6l-1.7,3.2l0.5,0.2l-0.4,0.7l-0.6-0.2l-0.2,0.4l0.6,0.3l-0.7,1.7l-1.4,2.4
	l0,0L127,178l-0.4,0.4l-0.9-0.8l0.3-0.4l-1.8-1.6l-1.2,0.8l2.5,2.5l0.7,0.4l0.2-0.3l5.1,3.3l0.3-0.4l7.4,3.8l-0.1,0.3l3.6,1.5
	l-0.2,0.5l4.3,1.8l0.5-1.1l-1-0.4l0.1-0.2l-3.3-1.5l-3-2.2l-0.3,0.7l-4.2-2.1l-2.8-1.9l0.9-1.7l-0.4-0.2l0.5-0.8l0.4,0.2l0.6-1
	l4.4,2.4l1.4,1.1l0.3-0.5l2.3,1.5l0.5-1.1l-6.8-3.6l0.5-0.9l-3.1-1.8l3.9-8.2l0,0l8.3,4.7l3.4,0.8l-0.2,0.6l0.9,0.2l-0.8,3.3
	l2.4,0.6l0.2-0.8l-1.9-0.5l1.5-6.3l-0.8-0.2l0.3-1.2l-1.3-0.3l-0.2,1.3l-2.3-0.3l-0.2,0.8l-2.2-0.5l-1.6-0.7l0.2-0.3l-1.3-0.6
	l0.1-0.2l-4.6-2l1.2-3l0.6,0.2l1.8-2.7l1.9-3.7l0.4-1l3.1,1.1l-0.2,0.6l1.2,0.4l0.2-0.6l2,0.7l-0.2,0.6l1.3,0.4l0.2-0.6l0.2,0.1
	l2.2,1.3l-1.3,4.5l-2.5-0.7l-0.6,1.9l1.2,0.4l0.2-0.7l2.5,0.7l1.7-6.4l-0.6-0.2l0.7-2.4l-2.6-0.7l0,0l2.1-5.9l1.4-2.7l0,0l0.6,0.4
	l0.9-1.5l-0.7-0.4l0,0l2.3-3l3.3,1.5l0.5-0.7l-2.8-1.8l-1.6,0.9l-0.2-0.1l-0.9,1.2l-0.7-0.3l-1,2.8l-0.4-0.1l0.1-0.6l-1.2-0.3
	l-0.1,0.6l-0.3-0.1l0.1-0.6l-0.4-0.1l-0.1,0.5l-0.5-0.1l-0.3,1.2l0.9,0.2l-1.2,4.9l-1.3,3.9l-1.2-0.4l-0.2,0.6L146,154l0,0.1
	l-2.9-0.8l0.6-4.2l1.3-3.9l4.1,0.9l0.2-0.7l-4.1-0.9l0,0l0.3-1l0.2-1.1l0.7-2.5l2-3l8,1l0.1-0.7l1.1-2.7l1-1.9l1.3-0.4l6.3,2.9
	l0.7-0.9l2.5,1.9l0.7-0.7l-0.9-0.9l0.7-0.7l-3.5-1.5l-0.4,0.9l-1.4-0.4l-4.4-1.8l-0.8-0.9l0.2-1.1l-2.1-1.7l0,0l3.9-4.3l3.2,1.4
	l0.9-1.7l3.5,1.5l1.9,1l-0.1,0.3l2.4,0.8l0.3-0.9L172,125l0.2-0.4l-1.6-0.6l-2.3-1.6l0.6-1.3l0.6,0.3l2.5-5.8l-1.2-0.5l-2,3.2l0,0
	l-0.5-0.4l-3.7,4.3l-0.5,0.1l-4.4-2.5l-1.4,2l0.7,0.5l-1.1,1.3l0.4,0.3l-1.8,2.2L156,126l-0.3,0.4l-4.1-2.4l-0.3,0.6l-3.5-2.1
	l0.9-1.6l0.7,0.4l1.7-2.8l-1-0.6l-1.6,1.8l-1.3-0.9l-1.1,1.8l-0.7,0.7l-2.8-1.3l1.6-3.5l-1.3-0.6l-1.6,3.5l-2.7-1.2l2.4-5.3
	l-0.3-0.1l0,0l6.4-11.5l1.7-2.2l-0.4-0.3l0.8-1.5l0.8-1.1l-0.7-0.2l0.5-1.9l0.2,0l2.9-2.1l0.4,0l4.4,3.3l-0.7,1l0.9,0.7l1.8-2.4
	l-1.9-1.4l1.1-1.6l-1.9-1.3l-1.5,0.6l-4.2-1.1l-0.7,1.3l-3.7-2.1l-2.2,4.7l0,0l-0.2-0.1l-0.1,0.2l-5-3.3l0.2-0.4l-0.9-0.5l-0.3,0.5
	l-1.9-0.7l-1.7-0.1l0.9,1.8l0.6-0.1l3.1,1.2l-4.1,10l-1.9,3.8l-3.1-1.5l0.2-0.5l-0.4-0.2l0.2-0.9l-1.3-0.3l-0.9,3.6l-1.4-0.3
	l-0.4,1.6l-0.6,0.6l-6.1-2.7l-0.4,0.9l6.6,2.7l1.1-1.9l3.3,1.4l0.2-0.6l0.6,0.2l0.2-0.4l5.3,2.3l-0.4,0.9l3.4,1.9l-1.6,2.7l0.2,0.1
	l-1.9,3.3l-3.9-2.2l0.4-1.5l-1.1-0.3l-0.1,0.5l0.6,0.1l-0.2,0.8l-1.5-0.4l-0.1,0.2l-0.7-0.2l-2.6-1l-0.8-0.5l0.1-0.1l-2.3-1.5
	l-0.1,0.1l-0.5-0.3l0.1-0.2l-1.8-1.2l-1.8-0.7l-0.5,1.3l2.2,0.6l-0.3,1.4l-0.7-0.1l-0.2,0.8l4.8,0.6l2.1,1.1l0,0.2l2.6,0.5l4.2,2.4
	l-2.1,3.7l-0.9-0.5l-1.7,5.9l-0.9,1.9l-2.4,4.1l-4-1.1l0.3-0.9l0.4-0.3l0.3-0.1l-0.1-0.6l-1.6-0.4l-0.6,2l-7.4-2.5l2.3-5.9l-1.5-0.6
	l0.4-1.1l-0.3-0.1l0.4-1.1l-1.6-0.1l-0.6,7.4l-3.1-0.4l0.2-6l-1,0l-0.1-9.3l1.7,0l0-0.6l0.8,0l0,0.6l0.9,0l0.3-2l-2.4-0.8l-0.3,0.9
	l-7.1-2.6l5.8-15l2-3.1l1.9-2.1l1.3,1l0.3-1.3l1.6,0l1.6,0.3l0.2-0.4l2.4,0.9l-0.2,0.4l0.6,0.2l3.5,2.2l-0.9,1.9l-1,1.2l-1.6,1.1
	l-0.3-0.1l-0.4,0.9l0.1,0.1l0,0l-0.4,0.9l3.2,1.5l0.5-3.4l1.1-2.9l7.4,1.9l0.7-3.8l-2.7,0l-1.1,0.7l-2.6,0.3l-5.2-4.1l-2-0.8l-1.7,0
	l-2.4-1.4l-1.6,1.5l-1-0.8L111,88l0.5,0.4l-1.7,2.2l-0.2-0.1l-0.5,0.7l0,0l-2-1.5l-0.3,0.4l2,1.5l-3.4,5.5l0,0l-4.4-3.9l-0.4,0.5
	l5.1,4.9l-1.4,2.8l0.5,0.2l-0.4,1.1l-0.5-0.2l-1.3,3.4l-3.1-1l1-2.8l-0.6-0.3l0.3-0.5l-0.8-0.4l0.2-0.5l-0.5-0.3l-0.4,0.5l-0.4,5.6
	l3.8,1.2l-0.8,2.3l-10.2-3.1l1-3.8l-0.8-0.2l-0.9,1.2l0.3,0.3l-0.9,1.5l0,0l-0.5-0.4l-0.6,0.7l1.9,1.5l-0.5,1l-6.7,5.9l0.2,0.2
	l-4.8,4.1l0.5,0.5l-2.3,2.4l-0.5-0.5l-0.2,0.2l-0.4,0.9l0.4,0.2l-0.3,1.9l0.4,0.1l0,0l-2.8,8.1l-1.2,1.9l0.7,0.3l0.6-0.2l0.9-1.8
	l0.8-0.3l0.2,0.1l1.3-2.8l4.7,2.2l0.5,0.6l-1.4,2.9l-0.9,2.5l-0.6,0.9l1.8,0.7l2.4-6.1l1.9,0.7l0.5-0.9l1.3,0.7l2.1-2.8l8,5.2
	l-2.4,6.6l0,0l-2.3-1.5l-0.5,0.7l-4.2-2.7l-3.5,6.7l0.8,0.4l1.3-2.4l1.7,0.8l-0.5,1l5.2,2.6l-1.8,4.9l0,0l-6.8-3.4l-6.8-4.6
	l-0.3,0.5l-2.2-1.4l-0.2,0.3l-9-6.1l-0.9-0.4L29.7,128.5L29.7,128.5 M178.1,137.5l1.6,0.6l0.3-0.8l-1.6-0.6L178.1,137.5
	 M163.3,108.1l1.8,0.9l-0.3,0.7l8,3.4l1-2.7l4.4,1.6l0.7-1.8l0.8-1.4l-2.3-0.8l-0.4,1.1l-1.9-0.7l0.7-1.9l-1-0.3l-0.7,1.9l-1.9-0.7
	l0.7-1.9l-0.7-0.5l0.1-1.1l-2.4-1.7l0.4-1.6l-1.4-0.3l-0.3,1.6l0.4,0.1l-0.2,1.3l0.4,0.2l1.9,1.1l-0.2,3.2l0.6,0.2l0.4,1.3l-0.8,2
	l-4.7-1.7l0.3-0.7l-3-1.5L163.3,108.1 M174.9,134.4l0.8,0.3l0.7,0.5l1.7-4.2l-1.2-0.5l-1.3,3.2L174.9,134.4 M151.3,186.5l0.9,0.3
	l0.7-1.7l0.6-0.3l3.5,1.4l0.4-1l-0.7-0.3l2.4-6.1l0.8,0.3l0.4-1l-0.8-0.3l2.7-6.9l0.6,0.2l0.8-1.8l-0.5-0.2l8.4-19.4l3.3,1.3l0.4-1
	l-0.6-0.3l-0.8-0.8l0,0l1.4-3.5l-1.1-0.4l0.4-1l-1.7-0.7l1.3-3.2l-2.2-2l-0.6,0.6l-1.9,2.6l0.6,0.5l-6,7.8l-4,5.9l-1.7,7.8l-0.2,0
	l-0.4,0.5l-0.3,0.8l-0.7,3.2l1.3,0.3l0.6-1.6l3.5,1.3l-3.8,9.9l-0.9,3.3l-0.8,1.9l-3.5-1.2L151.3,186.5 M173.3,128.4l0.5,0.2
	l0.5-1.3l-0.5-0.2L173.3,128.4 M147.5,114.2l0.8,0.5l5.1-8.3l1.8,1.1l0.4-0.6l1.4,0.9l-2.5,4.1l1.3,0.8l2.6-4.2l1.3,0.8l0.4-0.7
	l0.6,0.4l0.3-0.9l-3-1.1l-2.5-1.3l0,0l2.6-3.5l0.4,0l0.3,0.1l0.2-0.5l2.8,0.9l1.7-3.8l-0.7-0.2l-0.2,0.5l-1.6-0.6l-5.2,5.9l-1.6-1.5
	l-1.2,1.8l0,0l-2.4-1.9l-1,0.2l-0.3,0.4l3,2.3l-1.9,2.8l0.3,0.2l-0.9,1.3L147.5,114.2 M145.6,182.9l1.3,0.8l0.4-0.6l0.7,0.5l1-2.5
	l-1.5-0.6l-0.6,0.9l-0.4-0.2L145.6,182.9 M141.8,86.6l0.9,0.5l4.1-0.9l1.4-5.1l-2.3-0.5l-0.4,2.1l-2.2-0.4l-0.1,0.4l-0.7-0.1
	l-0.3,1.1l0.6,0.1l-0.4,1.9L141.8,86.6 M134.7,82.8l1.5,0.4l-0.6,2l1,0.5l1.5-2.5l1.2,0.7l0.3-1.9l-2.2-1.2l0.2-0.8l-1.9-0.5
	L134.7,82.8 M120.6,80.6l6.2,4.6l-0.3,0.4l1.6,1.2l1.9,0.3l1.9-10.4l-8-1.5l-0.8,4.3l-2.1-0.4L120.6,80.6 M119.2,120.9l1.9,0.6
	l0.1-0.3l2.9,0.9l-0.1,0.5l3.1,0.9l0.2-0.5l0.7,0.2l0.3-1.2l-4.8-1.1l0.2-0.7l-3-0.4l-0.1,0.5l0,0l-0.9-0.3L119.2,120.9
	 M109.4,100.7l0.8,0.3l-0.3,1.8l0.5,0.9l0.3,0.4l0,0.5l-0.4,1l0.9,0.3l-0.2,0.4l1.7,0.6l0.5-1.2l-0.2-0.1l0.4-0.9l-2.3-0.9l0.8-2
	l-0.7-0.3l0.3-1.4l0.4-1.2l1-1l0.5-1l0.8,0.3l0.5-1l1.1,0.5l0.3-0.8l0,0l1.5,1l0.5-1.1l-3.3-2.3l-2,2.6l-0.5-0.2l-0.4,1l-0.4-0.1
	L111,97l-1.1,2.6L109.4,100.7 M115.3,119.2l0.9,0.1l0.4-1.2l0.2,0l0.1-1l-1.6-0.2L115.3,119.2L115.3,119.2"/>
<path class="st0" d="M139.7,145.9l0,0.2l0.1,0l0,0.1l-0.1,0l0,0.6l0.1,0l0,0.1l-0.1,0l0,1l0.7,0l0-0.3l1,0l0-0.1l0.1,0l0,0.1
	l1.8,0.1l0-0.1l0.1,0l0,0.1l0.6,0l0-0.1l0.1,0l0,0.1l1.8,0.1l0-0.1l0.1,0l0,0.1l0.6,0l0-0.1l0.1,0l0,0.3l0.1,0l1.2,0.8l0,0.7l0.1,0
	l-0.2,3.1l-3.1-0.2l-0.1,1.1l5.5,0.3l-0.2,4.7l-0.9,0l0,0.1l-0.1,0l0-0.1l-0.6,0l0,0.1l-0.1,0l0-0.1l-1.8-0.1l0,0.1l-0.1,0l0-0.1
	l-0.6,0l0,0.1l-0.1,0l0-0.1l-1.8-0.1l0,0.1l-0.1,0l0-0.1l-0.6,0l0,0.1l-0.1,0l0-0.1l-1.8-0.1l0,0.1l-0.1,0l0-0.1l-0.6,0l0,0.1
	l-0.1,0l0-0.1l-1.8-0.1l0,0.1l-0.1,0l0-0.1l-0.6,0l0,0.1l-0.1,0l0-0.1l-1.8-0.1l0,0.1l-0.1,0l0-0.1l-0.9-0.1l0.1-2.1l-1.5-0.1
	l-0.1,2.1l-0.1,0l-0.9,0l0,0.1l-0.1,0l0-0.1l-2.5-0.1l0,0.1l-0.1,0l0-0.1l-0.6,0l0,0.1l-0.1,0l0-0.1l-1.8-0.1l0,0.1l-0.1,0l0-0.1
	l-0.6,0l0,0.1l-0.1,0l0-0.1l-1.8-0.1l0,0.1l-0.1,0l0-0.1l-0.6,0l0,0.1l-0.1,0l0-0.1l-1.8-0.1l0,0.1l-0.1,0l0-0.1l-0.6,0l0,0.1
	l-0.1,0l0-0.1l-1.1-0.1l0,0.1l-0.1,0l0-0.1l-0.6,0l0,0.1l-0.1,0l0-0.1l-0.5,0l0,0.1l-0.1,0l0-0.1l-2.1-0.1l-0.8-0.9l0.2-3.8l7.6,0.4
	l0.1-1.1l-5-0.2l-1.1-1.2l0.2-3.5l2.2,0.1l0-0.1l0.1,0l0,0.1l0.6,0l0-0.1l0.1,0l0,0.1l1.8,0.1l0-0.1l0.1,0l0,0.1l0.6,0l0-0.1l0.1,0
	l0,0.1l1.8,0.1l0-0.1l0.1,0l0,0.1l0.6,0l0-0.1l0.1,0l0,0.1l1.8,0.1l0-0.1l0.1,0l0,0.1l1.7,0.1l0-0.3l-0.1,0l0-0.1l0.1,0l0.1-2.2
	l-0.1,0l0-0.1l0.1,0l0-0.6l-0.1,0l0-0.1l0.1,0l0.1-1.8l-0.1,0l0-0.1l0.1,0l0-0.6l-0.1,0l0-0.1l0.1,0l0-0.6l-1.7-0.1l0,0.1l-0.1,0
	l0-0.1l-1.1-0.1l0,0.1l-0.1,0l0-0.1l-0.6,0l0,0.1l-0.1,0l0-0.1l-1.8-0.1l0,0.1l-0.1,0l0-0.1l-0.6,0l0,0.1l-0.1,0l0-0.1l-1.8-0.1
	l0,0.1l-0.1,0l0-0.1l-0.6,0l0,0.1l-0.1,0l0-0.1l-1.8-0.1l0,0.1l-0.1,0l0-0.1l-0.6,0l0,0.1l-0.1,0l0-0.1l-1.8-0.1l0,0.1l-0.1,0l0-0.1
	l-0.6,0l0,0.1l-0.1,0l0-0.1l-0.8,0l0.2-4.7l2.1,0.1l0.1-1.1l-3.8-0.2l0.2-3.8l0.9-0.8l1.4,0.1l0-0.1l0.1,0l0,0.1l0.6,0l0-0.1l0.1,0
	l0,0.1l1.8,0.1l0-0.1l0.1,0l0,0.1l0.6,0l0-0.1l0.1,0l0,0.1l1.8,0.1l0-0.1l0.1,0l0,0.1l0.6,0l0-0.1l0.1,0l0,0.1l1.8,0.1l0-0.1l0.1,0
	l0,0.1l0.6,0l0-0.1l0.1,0l0,0.1l1.8,0.1l0-0.1l0.1,0l0,0.1l0.6,0l0-0.1l0.1,0l0,0.1l0.5,0l0-0.1l0.1,0l0,0.1l0.9,0.1l-0.1,2.8
	l0.8,0.1l0.1-2.8l0.9,0l0-0.1l0.1,0l0,0.1l0.6,0l0-0.1l0.1,0l0,0.1l1.8,0.1l0-0.1l0.1,0l0,0.1l0.6,0l0-0.1l0.1,0l0,0.1l0.5,0l0-0.1
	l0.1,0l0,0.1l1.7,0.1l0.1-1.7l-0.1,0l0-0.1l0.1,0l0-0.6l-0.1,0l0-0.1l0.1,0l0.1-1.8l-0.1,0l0-0.1l0.1,0l0-0.6l-0.1,0l0-0.1l0.1,0
	l0.1-1.6l-1.7-0.1l0,0.1l-0.1,0l0-0.1l-0.5,0l0,0.1l-0.1,0l0-0.1l-0.6,0l0,0.1l-0.1,0l0-0.1l-1.8-0.1l0,0.1l-0.1,0l0-0.1l-0.6,0
	l0,0.1l-0.1,0l0-0.1l-1.8-0.1l0,0.1l-0.1,0l0-0.1l-0.6,0l0,0.1l-0.1,0l0-0.1l-1.8-0.1l0,0.1l-0.1,0l0-0.1l-0.6,0l0,0.1l-0.1,0l0-0.1
	l-1.8-0.1l0,0.1l-0.1,0l0-0.1l-0.6,0l0,0.1l-0.1,0l0-0.1l-1.8-0.1l0,0.1l-0.1,0l0-0.1l-1.4-0.1l-0.8-0.9l0.2-3.1l0.8,0l0.7-0.7
	l0.9,0l0.1-1.1l-4.2-0.2l0.2-3.8l0.9-0.8l1.3,0.1l0-0.1l0.1,0l0,0.1l0.6,0l0-0.1l0.1,0l0,0.1l1.8,0.1l0-0.1l0.1,0l0,0.1l0.6,0l0-0.1
	l0.1,0l0,0.1l1.8,0.1l0-0.1l0.1,0l0,0.1l0.6,0l0-0.1l0.1,0l0,0.1l1.8,0.1l0-0.1l0.1,0l0,0.1l0.6,0l0-0.1l0.1,0l0,0.1l1.8,0.1l0-0.1
	l0.1,0l0,0.1l0.6,0l0-0.1l0.1,0l0,0.1l1.8,0.1l0-0.1l0.1,0l0,0.1l0.6,0l0-0.1l0.1,0l0,0.1l1.8,0.1l0-0.1l0.1,0l0,0.1l0.6,0l0-0.1
	l0.1,0l0,0.1l1.8,0.1l0-0.1l0.1,0l0,0.1l0.9,0.1l-0.1,2.4l0.8,0l0.1-2.5l2.7,0.1l0-0.4l-0.1,0l0-0.1l0.1,0l0.1-1.1l-0.1,0l0-0.1
	l0.1,0l0-0.6l-0.1,0l0-0.1l0.1,0l0.1-1.8l-0.1,0l0-0.1l0.1,0l0-0.6l-0.1,0l0-0.1l0.1,0l0.1-1.6l-1.7-0.1l0,0.1l-0.1,0l0-0.1l-0.5,0
	l0,0.1l-0.1,0l0-0.1l-0.6,0l0,0.1l-0.1,0l0-0.1l-1.8-0.1l0,0.1l-0.1,0l0-0.1l-0.6,0l0,0.1l-0.1,0l0-0.1l-1.8-0.1l0,0.1l-0.1,0l0-0.1
	l-0.6,0l0,0.1l-0.1,0l0-0.1l-1.8-0.1l0,0.1l-0.1,0l0-0.1l-0.6,0l0,0.1l-0.1,0l0-0.1l-1.8-0.1l0,0.1l-0.1,0l0-0.1l-0.6,0l0,0.1
	l-0.1,0l0-0.1l-1.8-0.1l0,0.1l-0.1,0l0-0.1l-0.6,0l0,0.1l-0.1,0l0-0.1l-1.8-0.1l0,0.1l-0.1,0l0-0.1l-0.6,0l0,0.1l-0.1,0l0-0.1
	l-1.8-0.1l0,0.1l-0.1,0l0-0.1l-2.3-0.1l0.2-3.8l0.9-0.8l4.7,0.3l0.1-1.2l-4.2-0.2l0.2-3.8l0.9-0.8l0.7,0l0-0.1l0.1,0l0,0.1l0.6,0
	l0-0.1l0.1,0l0,0.1l1.8,0.1l0-0.1l0.1,0l0,0.1l0.6,0l0-0.1l0.1,0l0,0.1l1.8,0.1l0-0.1l0.1,0l0,0.1l0.6,0l0-0.1l0.1,0l0,0.1l1.8,0.1
	l0-0.1l0.1,0l0,0.1l0.6,0l0-0.1l0.1,0l0,0.1l1.8,0.1l0-0.1l0.1,0l0,0.1l0.6,0l0-0.1l0.1,0l0,0.1l1.1,0.1l0-0.1l0.1,0l0,0.1l0.9,0.1
	l-0.1,2.8l0.8,0l0.1-2.8l0.8,0l0-0.1l0.1,0l0,0.1l0.6,0l0-0.1l0.1,0l0,0.1l1.8,0.1l0-0.1l0.1,0l0,0.1l0.6,0l0-0.1l0.1,0l0,0.1
	l1.1,0.1l0-0.1l0.1,0l0,0.1l0.9,0.1l0,0.7l0.8,0l0-0.7l0.9,0l0-0.1l0.1,0l0,0.1l1.1,0.1l0-0.1l0.1,0l0,0.1l0.4,0l1.1,1.3l-0.1,3
	l1.1,0l2,2.3l-0.1,1.3l8.2,0.4l0,0.6l0.1,0l-0.7,14.7l-0.9,0l0,0.1l-0.1,0l0-0.1l-0.6,0l0,0.1l-0.1,0l0-0.1l-1.8-0.1l0,0.1l-0.1,0
	l0-0.1l-0.6,0l0,0.1l-0.1,0l0-0.1l-2.9-0.1l-1.9,1.5l-0.1,2.1l0.1,0l0,0.1l-0.1,0l0,0.6l0.1,0l0,0.1l-0.1,0l-0.1,1.8l0.1,0l0,0.1
	l-0.1,0l0,0.6l0.1,0l0,0.1l-0.1,0l-0.1,1.8l0.1,0l0,0.1l-0.1,0l0,0.6l0.1,0l0,0.1l-0.1,0l-0.2,3.7l1.7,0.1l0,0.9l0.1,0l0,0.1l-0.1,0
	l0,0.6l0.1,0l0,0.1l-0.1,0l-0.1,1.8l0.1,0l0,0.1l-0.1,0l0,0.6l0.1,0l0,0.1l-0.1,0l-0.2,4.3l-1.5-0.1l0,0.1l-0.1,0l0-0.1l-0.6,0
	l0,0.1l-0.1,0l0-0.1l-1.8-0.1l0,0.1l-0.1,0l0-0.1l-0.6,0l0,0.1l-0.1,0l0-0.1l-2.5-0.1l0,0.1l-0.1,0l0-0.1l-0.6,0l0,0.1l-0.1,0l0-0.1
	l-0.7,0l-1-1.1l-1.7,1.6l1.3,1.4l0,0.3l0.1,0l0,0.1l-0.1,0l0,0.6l0.1,0l0,0.1l-0.1,0L139.7,145.9L139.7,145.9"/>
<path class="st0" d="M42.7,151.7l0.2-0.6l0.7-2.7l0.2,0l0.5-0.4l0.6,0.1l2.1-2.9l-0.2-0.5l0.2-0.8l0.5-0.4l1.6-1.2l0,0l0.6-0.3
	l0-0.3l-0.2,0l-0.2-0.9l0.2-0.1l-0.1-0.4l0.5-0.2l0-0.1l0,0l0.9-0.4l0,0.1l0.9-0.3l0-0.1l0.1-0.3l0.1-0.1l7.2-2.6l0,0.1l0.5,0.2
	l0.8-0.3l0-0.1l0,0l0.8-0.2l0,0.1l0.6-0.2l0,0l0.1,0.2l9.2-3l8.9-2l-3.3-16.1l25.5-7.3l20-5.2l-1.4-5.1l-2.1,0.5l-0.3-1.2l2-0.6
	l-1.4-5l15.5-4.5l8.8-15.6l-0.2-2.3l5.4-0.6l0.2,2.3l4.9,4.6L176,97.9l1-0.5l1.2-0.1l1.1,0.4l0.8,0.9l0.3,1.2l-0.2,1.2l-0.7,1
	l-1,0.6l-1.4,0.1l0.7,6.8l0.7-0.1l0.2,0.2l9.4-2.2l-0.5-2.1l4.8-1.1l0.5,2.1l6.3-1.6l3.3-0.6l0.2-4.1l9.1,0.5l1.4,0.4l1.4,0.8l1.3,1
	l1,1.3l0.8,1.7l0.3,2l-0.2,2l-0.4,1.7l-1.2,1.6l-1.7,1.4l-1.6,0.8l-2.3,0.4l0.2,1.4l0.1,0.1l0.2,2.3l0.2,0.2l0.8,0.3l0.1,0.7l-0.1,0
	l0,0.2l-0.3,0.1l0.2,0.4l0.2,1.3l0.3,1.1l-0.1,0.1l0.2,0.4l0.3,0l0.2,0.2l0.1,0.1l-0.1,0.8l0,0l-0.4,0.2l-0.1,0.2l0.1,0.5l0.2,0.3
	l0.5,2.7l0.2,0.4l3.6-0.3l2.5,0.6l2.1,1.5l1.8,1.9l1,2.9l0,2.4l-0.9,2.1l-1.4,2.2l-1.8,1.7l-7.7,4.7l0,0l-2.7-5.9l-23.5,4.2l0,0.2
	l-0.3,0.1l0,0.2l0,0l-0.4,0.1l0,0.2l-1.4,0.1l-0.4,0.3l-0.2,0.3l-1.7,0.2l-0.5,0.2l-0.4,0l-4.8,0.8l-0.5-0.3l-44.3,8.7l-0.2,0.4
	l-0.7,0.1l0-0.2l-1.3,0.2l0,0.2l-0.7,0.1l0-0.2l-2,0.4l0,0.2l-0.9,0.2l-0.1-0.2l-1,0.2l0,0.2l0,0l-0.7,0.1l-0.1-0.1l-1,0.1l0,0.3
	l-0.7,0.1l0-0.2l-1,0.2l0,0.2l-0.6,0.1l-0.4-0.1l-1.9,0.3l0,0.2l-0.7,0.1l0-0.2l-1.4,0.2l0,0.2l-0.7,0.1l-0.4-0.2l-38.5,7.2
	l-8.5,0.8l0,0.2l-2.8,0.2l-0.3,0.3l-7.4,0.3l-0.1-0.3l-0.2-0.1l-1.9,0.1l0-0.1l-0.6,0.1l-0.2-3.3l-0.6,0l0-0.2l-2.8-0.6l-0.4-0.5
	l-0.1-0.6l-0.3-0.2l-0.6-0.4l-0.8-0.7l-1.1-0.7l-0.2,0.2l-0.6,0l-0.3-0.2l-0.4-0.1l-0.1-0.2l0-0.3l-0.3-0.3l-0.1-0.2l-1-1.2l-0.2,0
	l-0.3-0.5l0.1-0.1l-0.2-0.2l-0.1-0.4l0.3-0.9l0.4-0.3l-0.8-1.6l-0.4-2.1l0-1.7l-0.6-0.1l-0.3-0.4L42.7,151.7 M178.8,110l0.9,4.3l0,0
	l-0.3,0l1.4,7.3l0.3,0l0.5,2.6l1-0.1l0.2,0.9l0,0l-0.2,0l0.1,0.7l0.9-0.2l0.2,0.9l-0.2,0.1l0.1,0.5l-0.4,0.1l0.5,2.2l0.4-0.1l0,0
	l0.1,0.5l0.2,0l0.2,0.9l-0.9,0.2l0.1,0.7l0.2-0.1l0,0l0.2,0.9l-1,0.3l0.5,2.6l0,0l-0.3,0l1.4,7.3l0.3,0l0.9,4.3l6-1l-0.2-1l0.4-0.1
	l-0.1-0.3l0.1,0l-0.5-3.3l0.5-0.5l0.4-0.1l0,0.1l2.4-0.5l0-0.4l0.3-0.4l0.4,0l0,0.1l2.8-0.5l0,0l0,0.1l0.3,0l0.1,0.4l2.4-0.3l0-0.1
	l0.7,0l0,0l0,0.1l0.4,0.3l0.2,0.7l0.6,2.8l0.4-0.1l0,0l0.2,1l6.3-1.1l-1.7-3.3l0.6-0.4l-1.5-8.2l-1.1-5.2l-0.3,0l-0.1-0.2l-0.3,0
	l-0.1-0.6l0.1,0l-0.7-2.7l0.4-0.1l-0.1-0.3l0.3-0.1l-0.1-0.3l0.1,0l-0.3-1.4l-0.2,0l-0.6-3.6l0.1,0l-1.9-8.4L202,108l0.2-3.2
	l-5.9,1.3l0.2,0.9l-0.4,0.1l0.7,3.5l-0.1,0l-0.5,0.5l-2.8,0.6l0.1,0.4l-0.3,0.3l-3.2,0.6l-0.3-0.5l-0.3,0.1l0-0.1l-2.7,0.6l0-0.1
	l-0.6-0.4l-0.6-3.2l-0.4,0.1l-0.2-0.9L178.8,110 M125.1,129.5l0.3,1.6l0.2,0l0.9,4.7l0.2,0l0.1,0.7l-0.2,0l0.3,1.5l0.2,0l0.2,0.4
	l0.1,0l0,0.7l-0.1,0l0.2,1.2l0.2,0l0.1,1.2l-0.1,0l0.3,1.4l0.1,0l0.1,0.7l-0.2,0l0.3,1.5l0.2,0l0.1,0.6l-0.1,0l0.9,4.9l12.5-2.3
	l0-0.2l3.6-0.8l0-0.2l0.7,0l0,0.2l1.5-0.3l0-0.2l0.3-0.1l0-0.1l0.4-0.1l0.1,0.1l3.8-0.7l0.1,0.3l1.7-0.4l0-0.2l0.7-0.1l0,0.2
	l0.9-0.2l0-0.2l1.1-0.2l0,0.2l0.9-0.2l0-0.2l0.2-0.2l0-0.1l0.7,0l0,0.2l1.5-0.3l0-0.2l0.9-0.1l0,0.2l15.8-2.9l-0.1-0.5l0.1,0
	l-0.3-1.4l-0.2,0.1l0,0l0-0.3l-0.5-2.3l-0.2,0l-0.1-0.7l0.1,0l-0.4-1.4l0,0l-0.1-0.7l0.2,0L175,132l-0.1,0l-0.1-0.3l-0.3-0.1
	l-0.5-3.1l0.1,0l-0.9-5.4l0.1,0l-0.7-3.8l-0.2,0l-0.1-0.5l-12,2.6l0,0.1l-0.7,0.1l0-0.2l-1,0.2l0,0.2l-2.2,0.5l0,0.1l-2.7,0.6l0-0.2
	l-0.2,0l0-0.2l-1,0.2l0,0.2l-2.6,0.5l0-0.2l-1.9,0.4l0,0.2l-2.7,0.5l0-0.2l-0.9,0.2l0,0.2l-0.2,0.2l0,0.1l-0.3,0.1l0-0.1l-0.2,0
	l0-0.2l-1.6,0.3l0,0.2l-0.9,0.1l0,0l0-0.2l-0.9,0.2l0,0.1l-2.7,0.6l0-0.2l-12.3,2.6l0.2,0.6L125.1,129.5 M137.2,97.3l10,19.2l23.7-5
	l-1.2-6l-22.6-23l-7.6,13.5L137.2,97.3 M122,111.8l1.9,9.7l10.6-2.3l-4.7-9.2L122,111.8 M109,151.8l0.5,2.5l12.4-2.3l-0.5-2.7
	L109,151.8 M46.4,153.8l0.1,1.5l0.5,1.3l0.3,0.5l0.5,0.1l0.4,0.4l0.1,0.5l0.8,1l0.3,0l0.3,0.2L50,160l-0.1,0.4l0.7,0.8l1.1,0.5
	l1-0.1l0.5,0.1l0.3,0.4l0.1,0.5l0.6,0.3l-0.1-1l0.8-0.1l0.7,0l0,0l0,0.2l1.1-0.1l0.4-0.5l2.6-0.1l0,0.1l2.1-0.3l0.7-0.1l0,0.2
	l1.9-0.2l0.6,0.4l2.3-0.1l0,0.2l4.2-0.4l-0.3-1.9l3.3-0.7l0.4,2.3l33-6.2l-0.5-2.5l-1.1,0.1l0-0.1l-0.6-0.3l-0.4,0.1l-0.1-0.3
	l-0.5-2.7l0.9-0.2l2.5-2.3l12.1-2.4l-1.1-5.9l-12,2.4l-1.3-0.9l-1.8-0.2l-1.1,0.2l-0.6-2.7l-1.3,0.3l-0.1-0.3l-2.9,0.6l0.1,0.3
	L97,138l-0.1-0.3l-0.5,0.1l-0.2-0.4l-12.4,2.4l-0.4-2L71,140.2l0.3,1.8l-3.3,0.7l-0.3-1.6l-3.9,1.3l0.1,0.2l-2.3,0.7l-0.4,0.7
	l-0.6,0.2l-0.1-0.2l-1.2,0.4l0.1,0.2l0,0l-0.7,0.2l0-0.1l-1.9,0.7l0.1,0.1l0,0l-0.7,0.2l-0.1-0.1l-1.1,0.5l0,0l-0.6,0.2l-0.4-0.2
	l-0.3,0l-0.8,0.3l-0.2,0.2l-1.3,0.5l0,0l-0.4-1.2l-0.5,0.4l0,0.2l-0.7,0.4l-0.5-0.1l-0.3,0.3l-1.1,1.6l-0.1,0.5l0.4,0.6l-0.1,0.5
	l-0.3,0.3l-0.4,1.2l0.2,0.5l-0.1,0.3l-0.4,0.4l-0.3,0.1L46.4,153.8 M83.6,120.8l1.4,7.5l1.7,8.1l6.4-1.3l-0.4-1.9l2.5-0.5l0.3,1.4
	l13.3-2.7l-0.2-1.2l2.5-0.5l0.4,1.9l6.4-1.3l-3.4-16.7L99,117.1L83.6,120.8L83.6,120.8"/>
<path class="st0" d="M140,166.7l-0.5-0.2l-0.5-0.5l-0.3-0.6l0-0.2l-0.3-4l-0.2,0l0-0.2l0.2,0l0-0.5l-0.2,0l0-0.2l0.2,0l0-0.5l-0.2,0
	l0-0.2l0.2,0l0-0.5l-0.2,0l0-0.1l0.2,0l0-0.5l-0.2,0l0-0.2l0.2,0l0-0.5l-0.2,0l0-0.1l0.2,0l0-0.5l-0.2,0l0-0.1l0.2,0l0-0.5l-0.2,0
	l0-0.1l0.2,0l-0.2-3.3l-1.6,0.1l0,0.8l-0.3,0l-0.1-2.8l0.3-0.5l0.5-0.4l0.5-0.1l2.7-0.2l-0.3-3.8l-2.2,0.2l0-0.4l0.2,0l-0.1-1.5
	l-0.2,0l0-0.9l-13.5,0.9l0.1,2.7l-26.3,1.8l-0.3-5.4l0.9-0.1l-0.1-1.8l-0.9,0.1l-0.4-5.4l31.5-2.2l-0.6-8.6l-22.1,1.5l0,0.1l0.3,5
	l-13,0.9l-1.1-16.8l3.7-0.3l0,0l0-0.6l31.5-2.2l-0.6-8.6l-31.5,2.1l-0.3-5.4l0.9-0.1l-0.1-1.8l-0.9,0.1L94,94.5l6.3-0.4l0-0.1
	l42.6-2.9l0,0.6l0,0l0.8,11.9l-9.4,0.7l0-0.1l-5.8,0.4l0.6,8.6l22.2-1.5l-0.6-8.1l14.7-1.1l0,0l6.2-0.4l0.5,8.3l1.5-0.1l1.4,20.9
	l0.6-0.1l0.9,12.6l-0.2,0l0.3,3.8l3.6-0.2l0.9,13.9l-9.9,0.7l-1-13.7l-0.3,0.2l0,0l-0.6,0l0-0.1l-5.1,0.3l0,0.1l0,0l-0.4,0l0-0.1
	l-5.1,0.3l0,0.1l-0.6,0l0-0.1l-3.7,0.3l0,0.1l-0.4,0l0-0.1l-1.8,0.1l1,14.4l-11.8,0.8l0.1,1.7l0.9-0.1l0,0.3L140,166.7 M173,124.5
	L173,124.5l-0.1-1.7l-20.5,1.4l0.6,8.5l20.5-1.4L173,124.5 M151,128.6l-0.3-4.3l-20.7,1.4l0.6,8.6l0.7,0l20-1.4L151,128.6L151,128.6
	"/>
<path class="st0" d="M106.2,176.6l0-0.1l0.2-0.2l0.3-0.2l4.5-4.5l0.5,0.4l0,0l3.2,3.1l3.5-3.6l-0.4-0.5l2-2.1l0.1,0.1l0.1-0.1
	l2.4,2.4l11.3-11.7l-9.3-9l-1.4,1.4l0.2,0.2l-0.2,0.2l0.1,0.1l0,0l-5.1,5.2l-0.5-0.3l-0.4,0.3l0,0l-3.9,3.9l-0.3-0.2l-0.2-0.4
	l-5.1-5l0.2-0.3l0.3-0.2l3.1-3.2l-2.5-2.4l1.4-1.5l2.2,2.2l5.9-6l-8-7.8l-2.2,2.3l-0.2-0.2l-5,5.2l-1.7-1.6l-8.5,8.8l2.1,2.2
	l-0.2,0.3l-0.3,0.2l-4.8,4.9l-0.3-0.2l-0.2-0.3l-7.5-7.3l0.2-0.3l0.3-0.2l4.7-4.9l0.5,0.4l15.8-16.3l-1.8-1.9l0.2-0.3l0.3-0.2
	l4.8-4.9l0.3,0.2l0.2,0.3l4.9,4.7l-0.1,0.1l-0.1,0.1l8.1,7.6l8.9-9.3l-0.9-0.9l0.2-0.2l-0.5-0.5l0.3-0.3l0.3,0.1l0.2,0l5.2-5.5
	l-0.1-0.3l0.3-0.3l0.3,0.1l0.2-0.2l1.2,1.2l9-9.3l-8-7.7l-0.2,0.2l0-0.1l0-0.2l-0.4,0.1l-0.1-0.2l-4.9-4.8l0.2-0.3l0.3-0.2l4.8-4.9
	l0.3,0.2l0.2,0.3l1.3,1.3l13.5-14l18-18.5l-0.4-0.5l0.2-0.3l0.3-0.2l4.8-4.9l0.3,0.2l0.2,0.3l0.7,0.7l0.1-0.1l0.3,0.3l-0.1,0.1l0,0
	l0.3,0.2l0.2,0.3l4.6,4.5l-0.1,0l-0.4,0.5l-4.2,4.4l-0.3,0.4l0,0l-0.2-0.1l-0.2,0.2l-0.2-0.1l-0.5-0.6l-8.6,8.9l2.1,2.1l-2.2,2.2
	l-1.2-1.1l-2.4,2.5l12.8,12.4l-0.4,0.5l0,0l0,0l-4.6,4.8l-0.2-0.2l-0.1,0.1l-0.2-0.1l-0.2-0.3l-13.6-13.2l-13,13.5l16.3,15.7
	l1.4-1.4l-0.2-0.3l0.1-0.2l4.4-4.4l-1.8-1.8l0.3-0.3l-0.2-0.2l1.1-1.1l2.5,2.4l3.7-3.7l0.3,0.2l0.2,0.3l5.1,5l-0.2,0.3l-0.3,0.2
	l-3.6,3.8l0.3,0.4l0,0l-0.4,0l0.2,0.3l-5.2,5.2l-0.2-0.2l-1.4,1.4l7.4,7.3l-0.1,0.2l-0.4,0.2l-1,1.1l-0.2,0.4l-0.5,0.1l-0.9,1
	l-0.2,0.5l-0.4,0.1l-1.1,1.2l-0.1,0.3l-0.3,0.2l-0.2,0l-0.4-0.4l0,0l0,0l-5.1-4.8l0.1-0.3l-0.2-0.2l0.1-0.1l-6.4-6.2l-0.2,0.2
	l-0.4-0.3l-3.2-3.1l0.2-0.2l-2.2-2.1l-9,9.3l0.5,0.5l-0.2,0.2l1.2,1.1l-1,1.8l0,0l-1.5-1.5l-3.4,3.6l1.5,1.5l0,0l-1.8,1l-1.1-1.1
	l-0.2,0.2l-0.5-0.5l-9.1,9.4l2.2,2.1l0.1-0.1l3.6,3.5l-0.1,0.1l9.8,9.4l0.3-0.2l0.3,0.2l0.2,0.3l5.5,5.4l-0.1,0.1l1.7,1.6l-1.9,1.9
	l-0.1-0.1l-1.2,1.4l0,0l-1.7,1.7l0,0l-0.1-0.1l-0.1,0.1l-1.5-1.5l-0.3,0.1l-0.3-0.2l-0.2-0.3l-2.2-2.1l-17,17.6l2.6,2.7l-0.2,0.3
	l-0.3,0.2l-3,3.1l0.7,1.6l-0.9,0.8l0,0l-0.6-1.6l-0.1,0.2l0,0l-0.1-0.1l-0.3,0.4l-0.3-0.2l-0.2-0.3L106.2,176.6L106.2,176.6"/>
<path class="st0" d="M110.5,106.4L110.5,106.4l0.4-0.2l-0.4-0.9l0.5-0.2l0.4,0.9l2.1-1l-0.4-0.9l0.5-0.2l0.4,0.9l2.1-1l-0.4-0.9
	l0.5-0.2l0.4,0.9l0.6-0.1l0,0l0.2-0.2l1.2-0.5l-0.1-0.1l0.3-0.1l-0.8-1.9l0.5-0.2l0.4,0.9l2.4-1.1l-0.4-0.9l0.5-0.2l0.4,0.9l2.2-1
	l-0.4-0.9L124,98l0.4,0.9l2.1-1l-0.4-0.9l0.5-0.2l0.4,0.9l2.4-1.1l-0.4-0.9l0.5-0.2l0.5,1l0.1,1l0.5-0.2l2.1-0.9l-0.4-0.9l0.5-0.2
	l0.4,0.9l2.2-1l-0.4-0.9l0.5-0.2l0.6,1.3l-0.1-0.5l2-0.9l-0.4-0.9l0.5-0.2l0.4,0.9l2.2-1l-0.4-0.9l0.5-0.2l0.4,0.9l2.1-1l-0.4-0.9
	l0.5-0.2l0.4,0.9l2.7-1.2l-0.4-0.9l0.5-0.2l0.4,0.9l0.2,0l0,0.1l0.9-0.4l0.2,0.5l-0.9,0.4l1.2,2.7l0.9-0.4l0.2,0.5l-0.9,0.4l1,2.1
	l0.9-0.4l0.2,0.5l-0.9,0.4l1,2.2l0.9-0.4l0.2,0.5l-0.9,0.4l0.9,2l0.9-0.4l0.2,0.5l-0.9,0.4l1,2.2l0.9-0.4l0.2,0.5l-0.9,0.4l1,2.1
	l0.9-0.4l0.2,0.5l-0.9,0.4l0.2,0.4l0.1,0.8l0.4,0.7l0.1-0.3l0,0l0.3,0.6l2-0.8l0.2,0.5l-0.9,0.4l2.3,5l0.5-0.3l0,0l0.2,0.4l-0.6,0.3
	l1,2.1l0.6-0.3l0.2,0.5l-0.6,0.3l2.3,5l0.9-0.4l0.2,0.5l-1.9,0.9l1,2.3l0.9-0.4l0.2,0.5l-0.9,0.4l1,2.1l0.9-0.4l0.2,0.5l-0.9,0.4
	l1,2.2l0.9-0.4l0.2,0.5l-0.9,0.4l1,2.1l0.9-0.4l0.2,0.5l-0.9,0.4l3.5,7.8l0.9-0.4l0.2,0.5l-0.9,0.4l0.1,0.3l-0.2,0.1l0.1,0.1
	l-0.5,0.2l-0.1-0.1l-2.6,1.2l0.1,0.2l-0.5,0.2l0,0l-0.1-0.2l-2.1,1l0.2,0.4l-0.5,0.2l0,0L164,145l-7.3,3.3l0.4,0.9l-0.4,0.2
	l-0.4-0.9l-2.3,1l0.8,1.9l-0.5,0.2l-0.4-0.9l-10.4,4.7l0.4,0.9l-0.5,0.2l-0.6-1.1l0.3-0.1l-0.3-0.8l-2.6,1.1l0.4,0.9l-0.5,0.2
	l-0.4-0.9l-2.1,1l0.4,0.9l-0.5,0.2l-0.4-0.9l-2.1,1l0.4,0.9l-0.5,0.2l-0.4-0.9l-1.7,0.8l-0.7-0.3l-0.5,0.2l0,0.6l-1.6,0.7l-0.2-0.1
	l-0.7,0.3l0,0.2l-2.4,1.1l0.4,0.9l-0.5,0.2l-0.4-0.9l-0.2,0.1l-0.1-0.2l-0.9,0.4l-0.2-0.5l0.9-0.4l-1.2-2.6l-0.9,0.4l-0.2-0.5
	l0.9-0.4l-0.9-2.1l-0.9,0.4l-0.2-0.5l0.9-0.4l-1-2.2l-0.9,0.4l-0.2-0.5l0.9-0.4l-0.9-2.1l-0.9,0.4l-0.2-0.5l0.9-0.4l-2.1-4.7
	l-0.9,0.4l-0.2-0.5l0.9-0.4l-1-2.3l-2,0.8l-0.2-0.5l0.9-0.4l-5.9-13l-0.9,0.4l-0.2-0.5l1.9-0.9l-2.2-4.8l-0.9,0.4l-0.2-0.5l0.9-0.4
	l-1-2.1l-0.6,0l0,0l0.4-0.4l-1-2.1l-0.9,0.4l-0.2-0.5l0.9-0.4l-1.2-2.4l-0.1-0.2l0,0l0.2-0.1l-1-2.1l-0.9,0.4l-0.2-0.5l0.9-0.4
	l-1.2-2.6l-0.9,0.4l-0.2-0.5l0.9-0.4l-0.1-0.3l0.2-0.1l-0.4-0.9l0.5-0.2l0.4,0.9l2.7-1.2l-0.4-0.9l0.5-0.2l0.4,0.9l2.1-1l-0.4-0.9
	l0.5-0.2l0.4,0.9L110.5,106.4 M138.3,141.4L138.3,141.4L138.3,141.4l1.3-0.5l-0.2-0.4l0.5-0.2l0.2,0.4l2.1-1l-0.2-0.5l0.3-0.1l0,0
	l0,0.2l0.2-0.1l0.2,0.4l2.1-0.9l-0.2-0.5l0.5-0.2l0.2,0.5l1.3-0.6l-0.2-0.5l0.5-0.2l0.2,0.5l0.3-0.1l0.1,0.3l0.5-0.2l0.2,0.5
	l-0.5,0.2l1,2.3l0.4-0.2l-0.2-0.5l0.5-0.2l0.3,0.6l2.2-1l-0.2-0.5l0.5-0.2l0.2,0.5l2.1-1l-0.2-0.5l0.5-0.2l0.2,0.5l1.6-0.7l-0.7-1.6
	l-0.5,0.2l-0.2-0.5l0.5-0.2l-1-2.1l-0.2,0.1l-0.2-0.5l0.2-0.1l-1-2.1l-0.5,0.2l-0.2-0.5l0.5-0.2l-1-2.1l-0.6,0.3l0.2,0.5l-0.5,0.2
	l-0.2-0.5l-2,0.9l0.2,0.5l-0.5,0.2l-0.2-0.5l-0.2,0.1l-0.1-0.1l-0.7,0.3l-0.1-0.3l-5,2.2l0.1,0.2l0,0l-0.3,0l-0.2,0.9l-0.4,0
	l-0.1-0.2l-2.4,1.1l0.1,0.6l-0.4,0.2l-0.2-0.5l-2.2,1l0.2,0.5l-0.5,0.2l-0.2-0.5l-2.2,1l0.2,0.5l-0.5,0.2l-0.2-0.5l-2.1,0.9l0.1,0.2
	l0,0l-0.1,0l0.1,0.2l0,0l-0.5-0.2l-2.1,1l0.2,0.5l-0.5,0.2l-0.2-0.5l-1.7,0.8l1,2.2l0.5-0.2l0.2,0.5l-0.5,0.2l0.9,2.1l0.5-0.2
	l0.2,0.5l-0.5,0.2l1,2.2l0.5-0.2l0.2,0.5l-0.5,0.2l0.7,1.6l1.7-0.8l-0.2-0.5l0.5-0.2l0.2,0.5l2.1-1l-0.2-0.5l0.5-0.2l0.2,0.5
	l2.4-1.2l-0.2-0.5l0.5-0.2l0.2,0.5l0.3-0.2l-1-2.3l-0.5,0.2l-0.2-0.5l0.5-0.2l-0.1-0.3l0.2-0.1l-0.2-0.5l0.3-0.1L138.3,141.4
	L138.3,141.4 M124.9,122.1L124.9,122.1l0.2,0.5l2.1-1l-0.2-0.5l0.5-0.2l0.2,0.5l2.1-1l-0.2-0.5l0.5-0.2l0.2,0.5l2.1-1l-0.2-0.5
	l0.5-0.2l0.2,0.5l2.4-1.1l-0.2-0.5l0.5-0.2l0.2,0.5l0.2-0.1l0.1,0.2l0.2-0.1l0.6,0.3l0,0l-0.5,0.2l1.1,2.4l0.5-0.2l0.2,0.5l-0.5,0.2
	l1,2.1l0.5-0.2l0.2,0.5l-0.5,0.2l0.3,0.7l-0.1,0.1l0.6,1.3l0.1-0.1l0,0l0.1,0.2l0.4-0.2l0,0l-0.1,0.3l0.2,0l0.1,0.2l-0.4,0.2
	l0.1,0.1l-0.1,0.3l0.8,1.8l0.8-0.2l0.1,0.1l4.9-2.3l-0.1-0.2l0.7-0.3l-1.1-2.1l-0.1,0l-0.1-0.3l0.1-0.1l-0.9-2.1l-0.2,0.1l-0.2-0.5
	l0.1-0.1l-2.2-4.9l-0.7,0.3l-0.2-0.5l0.7-0.3l-0.1-0.3l0.3-0.1l-0.2-0.5l0.5-0.2l0.2,0.5l1.9-0.8l-0.2-0.5l0.5-0.2l0.2,0.5l0.7-0.3
	l-0.2-0.4l0.1-0.1l-0.3-0.7l-0.1,0.1l-0.4-1l-0.5,0.2l-0.2-0.5l0.5-0.2l-1-2.2l-0.5,0.2l-0.2-0.5l0.5-0.2l-1-2.1l-0.5,0.2l-0.2-0.5
	l0.5-0.2l-0.8-1.7l-1.6,0.7l0.2,0.5l-0.5,0.2l-0.2-0.5l-2.2,1l0.2,0.5l-0.5,0.2l-0.2-0.5l-0.5,0.1l-0.1-0.1l-1.2,0.7l-0.1,0.2
	l-0.5,0.2l0.2,0.5l-0.5,0.2l-0.2-0.5l-0.4,0.1l1,2.3l0.5-0.2l0.2,0.5l-0.5,0.2l0.1,0.3l-0.2,0.1l0.1,0.2l0,0l-0.5,0.2l-0.1-0.2
	l-3.9,1.8l0.1,0.1l0,0l-0.5,0.1l-2.1,1l0.1,0.3l-0.5,0.2l-0.1-0.3l-1.4,0.6l0.2,0.4l0,0l-0.6-0.2l-0.2,0.1l-0.2-0.3l-0.5-0.2l0,0
	l0.5-0.2l-1.1-2.3l-0.4,0.2l0.2,0.5l-0.5,0.2l-0.3-0.6l-0.5,0.1l-0.1-0.1l-1.2,0.7l-0.1,0.3l-0.3,0.1l0.2,0.5l-0.5,0.2l-0.2-0.5
	l-2.1,0.9l0.2,0.6l-0.4,0.2l-0.2-0.5l-1.6,0.7l0.7,1.6l0.5-0.2l0.2,0.5l-0.5,0.2l1,2.1l0.5-0.2l0.2,0.5l-0.5,0.2l1,2.1l0.2-0.1
	l0.5,0l0.1,0.3l-0.5,0.2l1,2.2l1.6-0.7l-0.2-0.5l0.5-0.2l0.2,0.5l2.1-1l-0.2-0.5L124.9,122.1L124.9,122.1"/>
<path class="st0" d="M100.4,200.2l0.3,0.5l0.1,0.6l-0.1,0.7l-0.4,0.6l-0.5,0.3l-0.7,0.1l-0.7-0.2l-0.5-0.4l-0.3-0.6l-0.1-0.6
	l0.2-0.7l0.4-0.5l0.6-0.3l0.5-0.1l0.1-0.5l1-7.2l-9.9-11.1l-5.7,1l-0.4,0.5l0,0.7l-0.3,0.6l-0.5,0.5l-0.6,0.2l-0.7,0l-0.6-0.3
	l-0.4-0.5L81,183l0.1-0.7l0.3-0.6l0.6-0.4l0.6-0.1l0.7,0.1l0.2,0.1l0.4-0.3l1.7-5.5l-14.1-15.8l-5.7,0.9l-0.3,0.4l0.1,0.7l-0.2,0.6
	l-0.4,0.5l-0.5,0.3l-0.7,0.1l-0.6-0.2l-0.5-0.4l-0.3-0.6l-0.1-0.6l0.2-0.6l0.4-0.5l0.6-0.3l0.7-0.1l0.5,0.1l0.3-0.3l1.7-5.5
	l-9.9-11.1l-7.6,0.3l-0.3,0.6l-0.5,0.5l-0.6,0.2l-0.7,0l-0.6-0.3l-0.4-0.5l-0.2-0.6l0.1-0.7l0.4-0.6l0.6-0.4l0.6-0.1l0.6,0.2
	l0.5,0.4l0.1,0.1l0.4-0.1l6.7-2.7l4.7-14.1l-3.8-4.3l-0.5-0.1l-0.5,0.4l-0.6,0.1l-0.7-0.1l-0.5-0.3l-0.4-0.6l-0.1-0.7l0.1-0.6
	l0.4-0.5l0.6-0.3l0.7-0.1l0.6,0.2l0.5,0.4l0.3,0.6L57,120l0.4,0.1l5.6-1.2l6.7-20.2l-3.8-4.4l-0.4-0.1l-0.5,0.4l-0.7,0.1l-0.7-0.1
	L63,94.2l-0.3-0.6L62.6,93l0.2-0.6l0.4-0.5l0.5-0.3l0.7-0.1l0.6,0.2l0.5,0.5l0.3,0.6l0,0.2l0.4,0.2l5.6-1.3l4.7-14.1l-4.1-6.5
	l-0.6,0.1l-0.6-0.2l-0.5-0.4l-0.3-0.6l0-0.7l0.2-0.6l0.4-0.4l0.6-0.3l0.7,0l0.6,0.3l0.5,0.5l0.2,0.6l0,0.7l-0.1,0.3l0.4,0.4l5.6,4.4
	l14.6-3l2-5.5l-0.2-0.4l-0.6-0.2l-0.5-0.5L94.4,65l0-0.7l0.3-0.6l0.5-0.4l0.6-0.2l0.6,0l0.6,0.2l0.5,0.5l0.2,0.6l0,0.7l-0.3,0.6
	l-0.3,0.3l0,0.4l3.9,4.3l20.8-4.3l1.9-5.5l-0.3-0.5l-0.6-0.3l-0.4-0.5l-0.2-0.6l0.1-0.6l0.3-0.6l0.6-0.4l0.6-0.2l0.6,0.1l0.6,0.3
	l0.4,0.5l0.2,0.6l-0.1,0.6l-0.3,0.6l-0.5,0.4l0.1,0.4l3.9,4.3l14.5-3l3.4-6.4l0-0.6l-0.4-0.5l-0.2-0.6l0.1-0.6l0.3-0.6l0.5-0.4
	l0.6-0.2l0.6,0.1l0.6,0.3l0.4,0.5l0.2,0.6l0,0.6l-0.3,0.6l-0.5,0.4l-0.6,0.2l-0.1,0l-0.1,0.5l-1,7.1l9.9,11.1l5.7-1.1l0.3-0.4l0-0.7
	l0.2-0.6l0.4-0.5l0.6-0.3l0.7,0l0.6,0.2l0.5,0.5l0.3,0.6l0,0.6l-0.3,0.6l-0.5,0.5l-0.6,0.2l-0.7-0.1l-0.2-0.1l-0.4,0.3l-1.7,5.5
	l14.1,15.8l5.8-1.1l0.3-0.4l0-0.7l0.2-0.6l0.5-0.5l0.6-0.3l0.6,0l0.6,0.2l0.5,0.4l0.3,0.6l0,0.7l-0.2,0.6l-0.4,0.5l-0.6,0.3l-0.7,0
	l-0.6-0.2l-0.3,0.2l-1.8,5.6l7.6,8.5l-0.5,1.5l-1.3,0.4l-1.1,3.3l1.7,1.9l-2,6l2.9-0.5l1.9,2.1l4.5-13.6l20.3-4.2l7.6,8.7l9.5-2
	l0.6-1.9l-3.5-4l1.4-4.1l9.7-2l2.9,3.3l-0.9,2.7l39.3-35.1l-0.1-0.6l0,0l2.3-0.4l0.4,1.9L240,111.1l-0.6,1.7l0.1,0.2l2.8-0.6
	l17.9,20l0,0l-1.2,0.3l-0.4-0.5l-60.7,12.5l-1.7-0.1l-1.7-0.3l-2.1-0.7l-1.5-0.7l-1.4-0.9l-0.7-0.6l-1.5-1.6l-0.5,0l-6-6.8l-1.9,0.4
	l-1.2,3.4l0,0l-4.5-5l-7.2,21.8l6.5-1.4l0,0l-1.1,3.5l1.2,1.4l-3.6,11l0.5-0.1l0,0l-2.1,6.1l-2.5,0.6l-1.1,3.4l0.8,1l-0.5,1.5
	l-11.1,2.3l-1.9,5.4l0.3,0.5l0.6,0.3l0.4,0.5l0.2,0.6l0,0.6l-0.3,0.6l-0.5,0.4l-0.6,0.2l-0.6,0l-0.6-0.3l-0.5-0.5l-0.3-0.6l0-0.6
	l0.2-0.6l0.4-0.5l0.2-0.1l-0.1-0.4l-3.9-4.1l-20.8,4.2l-1.9,5.5l0.2,0.5l0.6,0.3l0.4,0.5l0.2,0.7l-0.1,0.7l-0.3,0.6l-0.5,0.4
	l-0.6,0.2l-0.6-0.1l-0.6-0.3l-0.4-0.5l-0.2-0.6l0-0.7l0.3-0.6l0.5-0.4l-0.1-0.5l-3.9-4.2l-14.6,3l-3.5,6.9L100.4,200.2 M141.5,145.4
	L141.5,145.4l-0.5-0.1l-2.2,1.9l0.1,0.5l-4.2,0.9l3.8,4.3l4.3-1l1.3-0.6l1.1-0.9l1-1l0.2-0.2l1.1-2.4l-1.8-0.6l6.4-19.3l-0.5-0.2
	l0.6-1.6l0.4-2l0.1-1.8l-0.2-1.3l-0.4-1.3l-0.6-1.2l-0.7-0.9L136,100l-1.4-1l-0.8-0.5l-1.9,5.7l0.8,0.2l0.5-0.3l14.7,16.6l-0.3,0.4
	l0.5,2.9l0.5,0.2L141.5,145.4 M132.2,98.1l-1.5-0.1l-1.5,0.1l-0.2,0l-16.4,3.3l3.8,4.3l13.4-2.7l0.1,0.4l0.7,0.2l1.9-5.6L132.2,98.1
	 M122,121.6l-1.2,0.4l-1.1,0.7l-0.9,0.9l-0.7,1.1l-0.5,1.2l-0.2,1.3l0,1.3l0.3,1.2l0.6,1.1l0.8,1l1,0.8l1.1,0.6l1.2,0.4l1.3,0.1
	l1.3-0.2l1.2-0.4l1.1-0.7l0.9-0.9l0.7-1.1l0.5-1.2l0.2-1.3l0-1.3l-0.3-1.2l-0.6-1.2l-0.8-1l-1-0.8l-1.1-0.6l-1.2-0.4l-1.3-0.1
	L122,121.6 M117.2,152L117.2,152l-0.1-0.4l-2.7-0.9L114,151l-14.9-16.8l-1.2,0.2l-1.2-0.5l0-0.2l-3.2,0.7l0.7,1.5l1,1.6l16,17.7
	l1.2,0.9l1.4,0.6l1.4,0.4l0.9,0l1.9-0.1l1.7-0.4l1.8-5.5L117.2,152 M97.3,131.4L97.3,131.4l1.1-0.3l7-21.4l-0.7-0.8l-0.1-1.2
	l0.1-0.2l-2.2-2.5l-0.8,1l-0.7,1.2l-0.4,1l-7.4,22.5l-0.1,1.6l0,0.9l3.2-0.6l-0.1-0.2L97.3,131.4L97.3,131.4"/>
</svg>
