<?xml version="1.0" encoding="utf-8"?>
<!-- Generator: Adobe Illustrator 26.0.2, SVG Export Plug-In . SVG Version: 6.00 Build 0)  -->
<svg version="1.1" id="Ebene_1" xmlns="http://www.w3.org/2000/svg" xmlns:xlink="http://www.w3.org/1999/xlink" x="0px" y="0px"
	 viewBox="0 0 283.6 283.5" style="enable-background:new 0 0 283.6 283.5;" xml:space="preserve">
<style type="text/css">
	.st0{fill:none;stroke:#000000;stroke-width:0.1;stroke-linejoin:round;}
</style>
<path class="st0" d="M245.5,71.2l-45.7,122.6l-25.2,67.9L38.5,210.6L106.2,29l1.9,0.7l2.9-7.9l11.7,4.4l0.4-1L245.5,71.2"/>
<path class="st0" d="M214,185l5.9,10.1L182.5,217l-12.7-21.8l-54.2,31.7l-67-115.2L102.7,80l56.2-32.9l74,126.8L214,185"/>
<path class="st0" d="M275.7,144.8l0.9,0.3l-8.1,26.8l-4.2-1.3l-12,39.7L10.4,137.6l-1-0.3l19.6-64.9l0.1-0.4L275.7,144.8"/>
<path class="st0" d="M49.6,119.3l120.7-12.5l101-10.5l5.6,53.9l0.8,8.1L56,181.4l-43.2,4.4l-5.1-48.6L6.3,124L49.6,119.3"/>
<path class="st0" d="M174.7,100.7l1.3,6.4l98.3-14.3l9.2,57.2L66,181.6l-56.9,7.8l-9.1-56.9l156.6-22.7l-1.2-6L174.7,100.7"/>
<path class="st0" d="M54,117.2l6.6-2.4l35.1-12.6l40.7-14.7l58.2-21.1l16.4,45.6l7.7,21.4l11.4,31.5L89.5,215.7L54,117.2"/>
<path class="st0" d="M68.2,112.5L106.3,84l30.1-22.5l5.8-4.3l38.6,52.4l41.2,55.3l-80.2,59.7L62,117.1l2.1-1.6L68.2,112.5"/>
<path class="st0" d="M167.6,209.7l-2.7-5.5l-32.1,15.3l-60-122.8l76.9-36.4l59.8,122.7l-10.7,6.1l2.1,5l-3.6,2.2L167.6,209.7"/>
<path class="st0" d="M70.6,91l61-37.6l39.2,64.7l32.1,53.6l11.1,20l-57.6,35l-23.8-29.9L122.1,182l-15.4-26.9L70.6,91"/>
<path class="st0" d="M101.7,84l13-16.7l69,53.9l1.4,1.1l10.7,8.4l24.2,18.9l-50.7,65.1L64,132.4l15.2-19.5L101.7,84"/>
</svg>
