<?xml version="1.0" encoding="utf-8"?>
<!-- Generator: Adobe Illustrator 26.0.2, SVG Export Plug-In . SVG Version: 6.00 Build 0)  -->
<svg version="1.1" id="Ebene_1" xmlns="http://www.w3.org/2000/svg" xmlns:xlink="http://www.w3.org/1999/xlink" x="0px" y="0px"
	 viewBox="0 0 283.6 283.5" style="enable-background:new 0 0 283.6 283.5;" xml:space="preserve">
<style type="text/css">
	.st0{fill:none;stroke:#000000;stroke-width:0.1;stroke-linejoin:round;}
</style>
<path class="st0" d="M0.1,157.7l2.2-11.4l11-7.6l1.5,1.2l6.2-32.6l-3.1-0.7L9.1,94.1l0.9-4.2l10.9,1.7l-1.2,7.5l20.3,3.2l1.3-7.8
	l57.2,8.9l-1.2,7.1l18.7,2.9l0.9-5.6l56,8.7l-1.1,7l21.3,3.3l0.8-5.1l29,4.5l0.7-4l59.9,9.7l0,0l-39.4,25.5l-2.3,15.7l-23,16.9
	l-5.9,39l-23.3-3.2l-3.9,2.5l-2.8-3.7l-9.7-1.2l-2.9,1.8l-2.2-3l-10.3-1.6l-3,2l-2.1-3.1l-10.8-1.4l-3.3,1.8l-2.1-2.8l-9.6-1.6
	l-3.5,2l-2.2-3.2l-9.2-1.7l-4,2.3l-2.3-3.3l-8.8-1l-4,2l-2.2-3.1l-10.9-2.2l12-66.2l-6.3-1.2l3.7-18.2l-5.6-0.9l-3.4,22.2l-9.8-1.7
	l0.6-2.9l-22-3.5l-0.4,2.8l-9.2-1.5l4-21.9l-2.9-0.5L23.7,180l-16-4.4l1.4-6.7L0.1,157.7L0.1,157.7"/>
<path class="st0" d="M46.5,239.8l1.3-19.8l4,0.3l0.5-7.3l-4-0.3l0.1-2.3l20.7,1.3l0.9-13.6l8.6,0.6l-0.1,1.7l15.9,1l-0.7,11.8
	l18,1.1l1.8-29.3l-10.1-0.6l0.2-2.4l6,0.4l0.6-9.7l4.1,0.3l1-15.8l-4.3-0.3l-0.3,4.7l-3.6-0.2l1-15.5l-19.3-1.2l-1.4,22.8l-5.9-0.4
	l0.1-2l-6.7-0.4l1.3-20.8l-17.2-1.1l0.3-5l-2.4-0.2l0.3-4.2l2.3,0.1l1-16.5l-2.3-0.1l0.3-4.4l2.4,0.2L61,111l5.9,0.4L65,141.1
	l20,1.3l4.3-67.9l-20.2-1.3l-2.1,32.7L54.8,105L57,70.3l43.7,2.8l0.5-8.3l27.4,1.7l0.8-12.1l4.5,0.3l-0.8,12l76.5,4.8l0.7-11.8
	l4.2,0.3l-0.7,11.7l25.8,1.6l-0.5,8.3l-24.1-1.5L206,221.6l0.5,0l-2.3,36.5l-12.9-0.8l1.8-28.4l-2.3-0.2l0.2-3.2l2.2,0.1l0.3-4.2
	l-49.6-3.1l-2.7,43l-32.2-2l0.4-5.6l-3.5-0.2l0.1-1.7L93.7,251l2.2-35.4l-3.5-0.2L90.2,251l-8.5-0.5l0.5-7.8l-3.9-0.3l1.3-20.3
	l3.9,0.2l0.5-7.4l-7.5-0.5l-2.3,35.7l-8.4-0.5l0.5-8l-3.8-0.2l1.3-20.2l3.8,0.2l0.5-7.4l-7.4-0.5l-2.2,35.5l-8.4-0.5l0.5-8.3
	L46.5,239.8 M177.5,112.4l22.8,1.5l0.4-5.8l-2.3-0.2l1.4-21.2l2.3,0.2l0.4-5.3L179.6,80L177.5,112.4 M192.4,127.6l4.8,0.3l0.5-6.6
	l2,0.1l0.4-5.4l-6.9-0.5L192.4,127.6 M191.2,148.9l6.9,0.5l0.4-6.3l-2.3-0.2l0.1-1.8l-4.6-0.3L191.2,148.9 M188.8,184.3l7.8,0.5
	l0.5-7.8l-2.5-0.2l1.3-20.5l1.6,0.1l0.3-5.1l-6.9-0.4L188.8,184.3 M186.7,218.9l8,0.5l0.4-6.7l-3.1-0.2l1.3-19.4l2.6,0.2l0.4-6.3
	l-7.5-0.5L186.7,218.9 M177.8,170.8l3.3,0.2l1.3-20.6l-3.3-0.2L177.8,170.8 M177.1,183.6l3.3,0.2l0.5-11.3l-3.3-0.2L177.1,183.6
	 M175.7,148l2.8,0.2l1.9-33.4l-2.8-0.2L175.7,148 M171.5,218l2.8,0.2l1.9-32.4l-2.8-0.2L171.5,218 M146.6,110.4l18.5,1.1l1.9-32.3
	l-18.5-1.1L146.6,110.4 M160.2,147l3.5,0.2l2-33.4l-3.5-0.2L160.2,147 M155.4,162.1l7.4,0.5l0.8-13.3l-7.4-0.5L155.4,162.1
	 M154.1,182.2l7.5,0.4l1.1-18.5l-7.5-0.4L154.1,182.2 M152,216.8l3.5,0.2l1.9-32.5l-3.5-0.2L152,216.8 M140.5,145.8l7.4,0.5
	l2.1-33.4l-7.4-0.5L140.5,145.8 M138.3,181.2l7.4,0.4l2-33.4l-7.4-0.4L138.3,181.2 M140.1,216.1l3.5,0.2l2.1-32.5l-3.5-0.2
	L140.1,216.1 M131,109.3l3.1,0.2l2-32.2l-3.1-0.2L131,109.3 M128.4,145.1l3.6,0.2l2.2-33.4l-3.6-0.2L128.4,145.1 M126.6,180.5
	l3.4,0.2l1.8-33.4l-3.4-0.2L126.6,180.5 M124.1,215.1l3.4,0.2l2.1-32.5l-3.4-0.2L124.1,215.1 M121.8,252.7l3.3,0.2l2.1-35.5
	l-3.3-0.2L121.8,252.7 M102.6,107.4l15.4,1l2.1-32.1l-15.4-1L102.6,107.4 M108.6,143.9l7.3,0.4l2-33.5l-7.3-0.4L108.6,143.9
	 M105.9,251.5l3.4,0.2l1.7-27.8l3.9,0.2l0.5-7.5l-7.3-0.5L105.9,251.5L105.9,251.5"/>
<path class="st0" d="M57.2,193.2l46.6-82.4l-14.7-8.3l-14.9,26.4l-15.4-8.7L93.9,58l15.2,8.6L93.4,94.4l3.7,2.1l1.6-2.7l7.5,4.2
	l-1.5,2.7l2.8,1.6l15.7-27.7l16.6,9.3L123.8,112l13.7,7.7l15.7-27.8l23.4,13.2l-15.9,28l13.7,7.7l16-28.3l15.8,8.9L191,148.5l3.5,2
	l1.6-2.9l7.7,4.3l-1.7,3l3.3,1.9l15.5-27.4l15.8,8.9l-66.7,118l-1.8-1l-0.5,0.9l-44.2-23.9l17.3-30.7l-14.4-8.1l-16.3,28.8
	l-22.6-12.7l16-28.3l-14.9-8.4l-16.2,28.7L57.2,193.2 M160.6,203.1l13.6,7.7l26.3-46.5l-13.6-7.7L160.6,203.1 M127.5,190.1l13.9,8
	l31-53.7l-13.9-8L127.5,190.1 M140.1,239.4l14.1,7.9l15.5-27.3l-3.6-2l-1.3,2.3l-7.9-4.5l1.4-2.5l-2.6-1.5L140.1,239.4 M90.5,168.8
	l14,7.9l30.4-53.7l-14-7.9L90.5,168.8L90.5,168.8"/>
<path class="st0" d="M53.2,172.5l-0.5-3.3l1.4-0.2l-0.3-1.8l35.6-4.9l1.6,10.4l2.1-0.3l-1.8-11.9l3.5-0.5l-0.3-2l-21.2,2.9l-0.8-5.7
	l-4,0.5l-3.7-25.3l7.9-1.1l3.2,21.6l17.8-2.4l-0.1-2l-1.3,0.2l-1.1-9.1l-1.1,0.1l-1.6-9.6l-1.5,0.2l-1.6-10.3l-0.8,0.1l-1.2-8.5
	l3.5-0.5l0.3,1.6l6.3-0.8l1.9-2.2l1.8-0.3l1.5,1.1l1.8-2.5l1.3,1l1.7-0.1l2.6,15.7l-2,0.3l1.2,7.9l-0.6,0.1l1.6,11.7l-1.2,0.2l0.6,4
	l16.1-2.2l-3.9-26.2l-7.6,1l-1.4-9.7l10.9-1.5L117.5,96l9.6-1.3l2.8,19.2l-3.1,0.4l4.5,30.5l3.5-0.5l0.2,1.4l2.9-0.4l-0.8-5.8l0-3.5
	l0.2-3l0.4-3.2l0.1-3.5l-0.3-3l-4.5-30.5l4.7-0.7l10.2-1.4l-0.3-2l15.9-2.1L159.8,61l-13.2,1.8l-1.2-8.5l18.5-2.5l1.8,12.5l4.1-0.5
	l3.2,21.8l32.1-4.3l0.4,2.8l0.9-0.1l-1.7-11.7l1.5-0.2l-0.5-3.3l11.8-1.6l0.5,3.4l1.2-0.2l2.6,18.1l3.7,26.7l-13.9,1.8l-14.4,1.7
	l-0.2-1.2l-15.9,2.1l-1.5-11.2l11.5-1.6l-2-13.9l-19.4,2.6l0.8,5.5l4.1-0.5l1,6.6l-2.4,0.3l0.3,2.7l3.5-0.4l2.8,22.7l1.1,8l-6.8,1.3
	l-1.7,14.1l-18.3,8.3l-5.3-13l-9.7,1.3l4.4,30l11-1.5l2.3,15.2l21.8-3l0.3,2.3l4.8-0.7l-2.1-14l1.4-0.2l-1.8-11.8l-1.5-12.6
	l10.4-1.5l1.7,12.6l1.5-0.2l2.7,18.2l0.6-0.1l4.6,30.8l-1.7,0.2l1.1,7.5l-13,1.8l-2.9-19.8l-5.9,0.8l0.2,1.4l-20.7,2.8l2.9,19.4
	l1.3-0.2l3.2,21.5L155,253l-0.1-0.7l-10.9,1.6l-3.8-24l-24.7,3.3l0.2,1.5l-3.1,0.4l-0.3-1.3l-4,0.4l-2.5-17.9l-3.9,0.6l1.5,9.8
	l-12.4,1.8l-1.7-10.8l-7.7-1l-1.3-8.2l7.2-2.1l-0.4-2.9l12.3-1.7l0.5,3.2l2-0.3l-1.1-7.6l-24.5,3.4l-1.4-9.1l25.5-3.6l-0.2-1.6
	l-1.4,0.2l-0.3-2l-3.5,0.5l-1.5-10.2l-2.1,0.3l0.9,5.8l-31.7,4.4l-0.5-3.5l-1.4,0.2l-0.4-2.6l1.4-0.2l-0.3-1.8l9.5-1.3l-0.4-2.5
	L55,175l-0.4-2.7L53.2,172.5 M199.1,105.3l9.1-1.2l0.2,1.4l1.5-0.2l-2.5-17.6l-1.6,0.2l0.4,2.9l-9.2,1.2L199.1,105.3 M157.4,138.2
	l7.6-0.8l0.2,0.8l4.8-0.7l-3.2-21.6l-2.4,0.3l-0.7,1.7l-3.5,0.4l-0.3-1.4l-5.6,0.7L157.4,138.2 M153.3,110l9.8-1.1l-1.8-12.1
	l-9.8,1.3L153.3,110 M139.7,218.1l6.8-0.9l-1-6.7l-6.8,0.9L139.7,218.1 M111.2,201.6l23.2-3.3l-0.9-6.2l-23.2,3.3L111.2,201.6
	 M114.8,221.3l17.4-2.4l-0.9-6.4l-17.4,2.4L114.8,221.3L114.8,221.3"/>
<path class="st0" d="M63.6,180.6l-0.7-14l5.2-0.3l0.2,4.2l5.5-0.3l-0.7-14l-1.6,0.1l-0.4-8.6l42.5-2.1l-1.2-23.2l-5.4,0.3l-0.5-8.7
	l5.4-0.3l-0.8-16.2l13-0.6l0.8,16l10.5-0.5L134,85.4l4.6-0.2l-0.3-5l9.2-0.5l0.2,4.7l5.3-0.3l1.5,28l22.6-1.1l-0.1-2.4l-1.5,0
	l-0.2-4.1l-13.9,0.5l-0.4-10.9l7.1-0.3l-0.6-16l26.2-1l1.1,26.9l-14.9,0.6l0.1,2l1.6-0.1l0.3,4.4l19.2-1l0.5,8.7l-5.2,0.3l2.9,55.3
	l4.9-0.2l0.4,8.6l-23.5,1.2l0.3,4.8l16.3-0.8l1.4,27.3l-12.7,0.6l-1.1-20.8l-7.7,0.4l1,19.8l-13.1,0.7l-1-19.5l-5.3,0.3l0.8,15.9
	l-5.4,0.3l0.3,5l-9.2,0.5l-0.3-5.8l-4.6,0.2l-1.5-27.6l-10.5,0.5l1.5,27.7l-5.4,0.3l0.3,5.4l-16.2,0.8l0.1,2.7l-15.6,0.8l-0.1-2.3
	l-8.2,0.4l-0.3-5.4l-4.2,0.2l-0.1-2.7l-7.1,0.4l0.1,2.2l-6.9,0.3l-1.5-27.9l0.8,0l-0.4-7.9L63.6,180.6 M175.9,95l10.9-0.5l-0.5-10.9
	l-10.9,0.5L175.9,95 M158.8,190.2l4.1-0.2l-0.1-1.3l11.7-0.6l-0.2-4.4l-15.8,0.8L158.8,190.2 M158,175.5l4.3-0.2l-1-19.2l-4.3,0.2
	L158,175.5 M156,139.2l4-0.2l-1-18.6l-3.9,0.2L156,139.2 M127.7,176.7l11-0.6l-1.2-22.5l-11,0.6L127.7,176.7 M131.6,144.9l5.5-0.3
	l-1.2-22l-5.5,0.3L131.6,144.9 M111.1,205.6l4.3-0.2l-1-19l-4.3,0.2L111.1,205.6 M110,178.9l4.2-0.2l-0.3-4.7l-4.2,0.2L110,178.9
	 M108.6,155.4l0.7,10.5l4.5-0.3l-0.7-10.5L108.6,155.4 M93.6,208.1l4.6-0.2l-1-20.5l-4.6,0.2L93.6,208.1 M73.5,211.5l6.3-0.3
	l-1.2-23.1l-6.3,0.3L73.5,211.5L73.5,211.5"/>
<path class="st0" d="M72.2,225.7l1.7-5.3l1.9,0.6l1.2-3.6l12.6,4l2.9-9l-5.8-1.8l-0.8,2.4l-6.8-2.2l2.3-7.2l1.8,0.6l0.6-1.8
	l23.3,7.4l2.7-8.5l-5.6-1.8l3.4-10.7l-19.3-6.1l1.6-4.9l4.8,1.5l1.1-3.5l-2.6-0.8l4.2-13.2l2.6,0.8l4.3-13.5l-2.5-0.8l3.5-11
	l2.6,0.8l1.9-5.9l-7.9-2.5l9.7-30.4l0.3,0.1l3.6-11.3l3,0.9l0.5-1.5l-8-2.5l6.9-21.7l4.7,1.5l-0.5,1.6l1.1,0.4l4.2-13.1l7.4,2.4
	l-0.1,0.3l24.5,7.8l-2.8,8.9l-3.5-1.1l-1.3,3.9l-21.8-7l-5.3,16.8l76.5,24.4l-1.7,5.4l1.5,0.5l-1.8,5.6l-1.6-0.5l-1.7,5.3l-3.1-1
	l-2.6,8.2l11.2,3.6l-1.7,5.3l1.5,0.5l-1.8,5.7l-1.5-0.5l-1.7,5.2L160.5,142l-0.8,2.4l2.2,0.7l-0.3,0.9l1.8,0.6l-1.4,4.3l-1.8-0.6
	l-0.6,2l-2.2-0.7l-0.8,2.5l9,2.9l2-6.2l11.6,3.7l-1.6,5.2l5.2,0.7l-0.2,1.9l9.9,3.2l-6.1,19.2l-7.6-2.4l-3.5,10.9l7.6,2.4l-6.1,19.2
	l-15.2-4.8l-1.1,3.3l3.7,1.2l-5,15.8l-2.4-0.8l-2,6.2l9.8,3.1l0.3-1l2,0.6l-0.3,1l2.2,0.7l-0.4,1.3l1.8,0.6l-0.6,1.8l0.2,0.1
	l-2.1,6.7l-1.8-0.6l-0.3,1l-1.2-0.4l0.3-1l-1.2-0.4l-0.3,1l-1.1-0.4l0.3-1l-10.6-3.4l-1.7,5.2l3.1,1l-2.1,6.6l-6.8-2.2l0.2-0.6
	l-1.8-0.6l0.6-1.8l-1.2-0.4l5.8-18.3l-4-1.3l1.2-3.8l-29.2-9.3l-1.2,3.8l-4-1.3l-1.6,5.1l12.6,4l-0.6,1.9l1.8,0.6l-2.3,7.2l-6.8-2.2
	l0.8-2.4l-7.7-2.4l-2.4,7.7l2.3,0.7l-2.2,6.8l-5.4-1.7l0.2-0.5l-1.8-0.6l0.6-1.8l-1.9-0.6l3.8-12.1l-5.8-1.8l-3.8,12l-3.7-1.2
	l-0.8,2.4l-5.5-1.7l2.2-6.7l2.4,0.8l2.4-7.7l-7.7-2.5l-0.7,2.3L72.2,225.7 M152.6,185.7l20.6,6.5l3.5-10.9l-20.6-6.6L152.6,185.7
	 M145.2,221.9l5.9,1.9l4-12.6l1.7,0.5l0.6-1.8l1.8,0.6l0.5-1.5l-13.3-4.3l-1.1,3.3l3.9,1.3L145.2,221.9 M140.3,204.6l3.8,1.2
	l0.5-1.5l-3.8-1.2L140.3,204.6 M125.8,178.4l11,3.5l4.6-14.6l-3.3-1.1l-0.6,1.8l-7.6-2.4L125.8,178.4 M116.6,128.6l14.9,4.7l0.6-2
	l4.1,1.3l2.8-9l-19-6L116.6,128.6 M114.8,208.8l5.8,1.9l2.7-8.4l3.2,1l0.6-1.8l3.4,1.1l-0.6,1.8l3.2,1l-2.7,8.3l5.8,1.9l2-6.3
	l-1.1-2.3l1.5-4.7l-18.6-6l-1.2,3.7l-1.2-0.4L114.8,208.8 M96.2,223.5l5.8,1.9l2.9-9.1l-5.8-1.9L96.2,223.5L96.2,223.5"/>
<path class="st0" d="M64,183.8l49.4-6.7l-1.8-12.2l-1.9,0.3l-0.8-5.3l-5.1,0.7l-1.1-7.7l22.1-2.9l0.7,5.1l12.4-1.6l-0.3-2.5l1.1-0.1
	l3.1,22.3l-0.3,0l1.1,8.1l-0.5,0.1l2.9,20.4l-1.8,0.2l-0.3-2.3l0,0l1.1-0.1l-1.1-7.5l-24.6,3.4l1.1,7.4l11-1.4l0.6,4.4l0.3,0
	l0.5,3.6l-0.3,0l0.6,4.3l12.6-1.7l-0.3-2.1l1.6-0.2l3.5,24.7l0.2,0l0.9,6.2l3.9-0.5l-0.3-2.1l5.1-0.7L133.3,53.5l-3,0.4l-0.3-2.1
	l-3.9,0.5L127,59l-0.7,0.1l3.5,24.7l-1.7,0.2l-0.3-2.3l-6.9,0.9l-1.2-8.1l-27.8,3.8l-0.4-2.7l-8.7,1.2l-1.9-13.4l4.8-0.7l0-0.1
	l3.1-0.4l0.6,4.3l29.2-4l-1.1-7.5l-11.8,1.6L103.5,41l20.1-2.7l0.6,4l11.2-1.5l-0.5-3.7l6.6-0.9l-1.1-7.4l-7.3,1l0.2,1.7l-1.1,0.1
	l-2.2-15l42.3-5.8l2.2,15.5l-28,3.8l0.8,5.5l21.8-3l1.7,11.9l-31.8,4.3l1.1,7.6l19.6-2.7l0.6,4.2l-0.9,0.1l0.5,3.6l0.8-0.1l0.6,4
	l-19.7,2.7l1.1,7.8l15.5-2.1l0.6,4.3l-0.7,0.1l0.5,3.6l0.6-0.1l0.6,4.1L144.1,88l1.1,7.8l27.5-3.7l0.6,4.4l-0.8,0.1l0.5,3.6l0.7-0.1
	l0.6,4.1l-27.5,3.8l1.1,7.5l19.6-2.7l0.6,4.5l-0.8,0.1l0.5,3.3l0.7-0.1l0.6,4.1l-19.7,2.7l1.1,7.7l37.4-5.1l1.1,7.7l-18,2.5l1.2,8.3
	l-20,2.7l1.7,11.6l15.7-2.1l0.6,4.3l-0.9,0.1l0.5,3.4l0.9-0.1l0.6,4.2l-15.8,2.2l1.1,7.9l27.6-3.8l0.6,4.2l-0.8,0.1l0.5,3.6l0.7-0.1
	l0.6,4.1l-27.8,3.8l1.1,7.7l19.6-2.7l0.6,4.1l-0.9,0.1l0.5,3.7l0.9-0.1l0.6,4l-19.8,2.7l1.1,7.7l11.5-1.6l0.6,4.3l-0.8,0.1l0.5,3.3
	l0.9-0.1l0.6,4.2l-11.9,1.6l1.2,8.1l31.5-4.3l-2.2-15.6l12-1.6l2.3,16.1l21.6-2.9l1.7,12l-14.1,1.9l1.6,11.4l-12,1.6l-1.7-11.8
	l-11.7,1.6l-1.2-8.7l-45.4,6.2l3.4,23.4l-12,1.6l-3.4-23.5l-11.8,1.6l2.2,15.4l-12.1,1.6l-2.3-15.7L95,254.2l-2.3-15.7l47.5-6.5
	l-1.1-7.7l-39.4,5.4L99,225l-1.6,0.2l-2.2-15.6l1.8-0.2l-0.5-3.6l15.1-2l-6.7-6.7l-20.3,2.6l-1.3-9.3l-1.9,0.3l0.1,0.9l-16,2.2
	L64,183.8L64,183.8"/>
<path class="st0" d="M54.1,182.9l2.9-1.6l-2.2-3.9l8.2-4.6l0.6,1.1l11.4-6.5l-4.7-8.3l3.7-2.1l-0.6-1.1l5.9-3.3l-1.2-2.1l11.1-6.2
	l1.6,2.9l5.8-3.3l-1.8-3.2l-0.9-1.6l0,0l2.4-1.2l1.9-1.1l1.5,2.7l12.5,3l0.6,1l11.9-6.8l-2.5-4.3l-3.5,2l-13.5-23.6l12.7-7.2
	l13.9,24.2l13.1-7.5L132,97.6l4.9-2.8l-1-1.8l7.4-4.2l13.6,23.7l-2.6,1.5l2.3,3.9l8.6-4.9l-1.9-3.3l2-1.1l1.1,2l-0.9,0.5l0.7,1.3
	l9.9-5.6l-2.5-4.3l-3,1.7L157,80.6l7.1-4.1l1,1.7l4.9-2.8l12.9,22.5l13.5-7.7L183,67l3-1.7l0.6,1.1l2-1.2l-1.4-2.4l2.9-1.7l0.4,0.7
	l1.4-0.8l-0.4-0.7l6.5-3.7l6.7,11.7l-3,1.7l15.9,27.6l-9.7,5.6l-4.5-7.7l-9.9,5.7l13.4,23.1l-24.5,14.5L195,160l-0.8,0.5l0.8,1.4
	l0.8-0.5l1.3,2.2l-2,1.1l-1.3-2.3l0.2-0.1l-0.8-1.4l-9.2,5.2l2.1,3.7l3.9-2.2l14.3,24.9l-7.9,4.5l-1.2-2l-4.9,2.8L177.2,175
	l-12.9,7.4l13.3,23.2l-4.8,2.8l1,1.8l-7.8,4.5L152,190.4l3-1.7l-2.2-3.8l-8.7,5l1.9,3.3l-1.9,1.1l-1.2-2.1l0.9-0.5l-0.6-1.1
	l-2.6,1.5l9,15.7l-7.9,4.5l-7.5-13l-4.2,2.4l-5.4-9.4l-2.1,1.2l1.7,3l-7,4l1.6,2.8l5.9-3.4l9.2,16l0.5-0.3l1,1.8l-0.5,0.3l8.6,15.1
	l-8.2,4.7L115,201.8l-1.7,0.9l-1.9-3.4l-8.5,4.9l2.7,4.6l3.4-1.9l17.8,31.1l-7.6,4.4l-1.1-1.9l-5.1,2.9l-15.2-26.5l-12.1,6.9
	l0.7,1.3l-12.3,7l-6.7-10.1l0.9-4l4.1-2l-5-8.7l36.8-21l-10-17.4l-33.3,19l-0.7-1.2l-3,1.7L54.1,182.9 M198,80.4l0.8,1.5l1.1,0.3
	l-0.6,2l1.3,2.5l3.6-2.3l-3.4-5.7L198,80.4 M189.3,185.8l3.5,5.7l3.7-2.1l-1.6-2.3l-2.1-0.4l0.2-1.1l-0.9-1.4L189.3,185.8
	 M189.7,68.9l3.5,6l2.7-1.7l-0.8-1.5l-1.1-0.3l0.6-2l-1.3-2.5L189.7,68.9 M182.3,173.4l1.6,2.3l2.1,0.4l-0.2,1.1l0.9,1.4l2.8-1.6
	l-3.5-5.7L182.3,173.4 M175.6,156.1l1.6,2.7l11.4-6.6l-1.6-2.7L175.6,156.1 M169,115.3l3.3,5.5l11-6.4l-3.3-5.5L169,115.3
	 M165.1,137.8l5.3,9.3l11.2-6.4l-5.3-9.3L165.1,137.8 M171.3,96.1l3.4,5.8l3.6-2.1l-1.4-2.3l-2.2-0.4L175,96l-0.9-1.5L171.3,96.1
	 M171.8,158.1l1.7,3l2.2-1.3l-1.7-3L171.8,158.1 M162.8,163.2l1.8,3.1l7.5-4.3l-1.8-3.1L162.8,163.2 M164.4,83.6l1.4,2.3l2.1,0.4
	l-0.2,1.1l0.9,1.5l2.8-1.6l-3.4-5.8L164.4,83.6 M164.5,199.9l0.8,1.5l1.1,0.3l-0.6,2l1.3,2.5l3.6-2.3l-3.4-5.7L164.5,199.9
	 M152.2,145.2l3.5,6l11.1-6.4l-3.5-6L152.2,145.2 M156.6,188.2l3.5,5.7l2.7-1.7l-0.8-1.5l-1.1-0.3l0.6-2l-1.3-2.5L156.6,188.2
	 M144.1,130.9l2,3.4l11-6.3l-2-3.4L144.1,130.9 M139,152.7l3.6,6.1l11.1-6.4l-3.6-6.1L139,152.7 M146.9,110.6l0.6,1l1.1,0.4
	l-0.6,2.6l1.1,1.9l3.6-2.1l-3.1-5.3L146.9,110.6 M135.9,175.1l2.6,4.3l10.2-6.1l-2.6-4.3L135.9,175.1 M130.3,138l3.2,5.4l11.1-6.5
	l-3.2-5.4L130.3,138 M138.4,98.9l3.4,5.8l2.8-1.7l-0.9-1.5l-1.1-0.4l0.7-2.1l-1.4-2.3L138.4,98.9 M130.1,157.8l3.7,6.2l7.3-4.3
	l-3.7-6.2L130.1,157.8 M124.4,173.5l8.6,14.8l3.9,0.9l1.9-1.1l-10-17.1L124.4,173.5 M118,145.2l3.3,5.6l10.7-6.2l-3.3-5.6L118,145.2
	 M119.5,125.1l3.4,5.8l3.6-2.1l-1.4-2.3l-2.2-0.4l0.2-1.1l-0.9-1.5L119.5,125.1 M110.5,149.4l5.9,10.1l4.3-2.5l-5.9-10.1
	L110.5,149.4 M112.9,113.4l1.4,2.3l2.2,0.4l-0.2,1.1l0.9,1.5l2.8-1.7l-3.4-5.8L112.9,113.4 M111,229.2l3.4,5.8l3.6-2.1l-1.4-2.3
	l-2.2-0.4l0.2-1.1l-0.9-1.5L111,229.2 M103.6,180.7l2.6,4.5l11.2-6.5l-1.8-3.2l-1.2,0.7l0.7,1.3l-1.8,1l-1.1-1.9l3-1.7l-0.4-0.7
	L103.6,180.7 M102.9,214.8l1.4,2.3l2.1,0.4l-0.2,1.1l0.9,1.5l2.8-1.6l-3.4-5.8L102.9,214.8 M95.9,167.6l2.1,3.6l10.3-5.9l0.2,0.4
	l0.7-0.4l-2.3-4L95.9,167.6 M87.7,153.3l3,5.2l11.1-6.4l-3-5.2L87.7,153.3L87.7,153.3"/>
<path class="st0" d="M28.8,174.5l0.3-18l7.1,0.1l0,0.6l22.1,0.4l0.2-12.6l-16-0.3l0.5-28.6l16.9,0.3l-0.4,22.4l10.9,0.4l15.6,0
	l0.3-16.4l-3.8-0.1l0.1-5.8l21.8,0.4l-0.4,22.2l10.1,0.2l0.3-16.3l-5.3-0.1l0.1-5.5l72.7,1.3l-0.4,22.5l11,0.2l0.5-25l28.4,0.5
	l-0.5,30.3l4.9,0.1l-0.8,43.6l-21.3-0.4l0.4-21.6l-7.6-0.1l-0.4,21.4l-22.5-0.4l-0.2,8.2l-15.7-0.3l-0.2,13.3l-16.8-0.3l0.1-5.5
	l4,0.1l0.1-7.9l-15.3-0.3l-0.2,8.4l1.7,0l-0.1,4.6l-18.5-0.3l0.1-5l4.7,0.1l0.3-16.9l-4.6-0.1l0,0.7l-17.4,0l0.1-5.6l5,0.1l0.3-15.9
	l-14.7-0.3L86,189.5l-16.8-0.3l0.4-23.3L58,165.8l-0.2,9.3L28.8,174.5 M211.7,149.4l-0.1,10.4l5.5,0l0.1-10.4L211.7,149.4
	 M212.7,174.3l0,9l3.6,0l0-8.9L212.7,174.3 M203.5,137.3l7.4,0.1l0.2-12.2l-7.4-0.1L203.5,137.3 M185.4,154.7l8,0.3l0.3-8.3l-8-0.3
	L185.4,154.7 M169.2,184l14.5,0.3l0.3-15l-14.5-0.3L169.2,184 M163.2,140.6l6.6,0.2l0.4-15.7l-6.6-0.2L163.2,140.6 M146.5,146.5
	l-0.1,8.2l18.4,0.2l0.1-8.2L146.5,146.5 M146.7,183.1l10.2,0.2l0.3-14.7l-10.2-0.2L146.7,183.1 M126.9,124.7l-0.2,15.3l14.9,0.2
	l0.2-15.3L126.9,124.7 M70.9,145.5L70.7,161l58.7,0.9l0.2-15.5L70.9,145.5 M119.3,182.7l9.5,0.2l0.3-14.7l-9.5-0.2L119.3,182.7
	 M73.7,181.5l7.4,0.2l0.2-7.5l-7.4-0.2L73.7,181.5 M47.3,132l7.4,0.2L55,125l-7.4-0.2L47.3,132 M37.7,169.7l7.1,0.2l0.2-7.1
	l-7.1-0.2L37.7,169.7L37.7,169.7"/>
<path class="st0" d="M59.3,149.6l2.9,0l0-1.9l3.9,0l0-3.8l6.2,0l0,18.5l3.2,0l0-0.7l-2.1,0l-0.1-37.3l10.2,0l0,22.4l-3.2,0l0,11.3
	l7,3.8l-0.1-3.5l7.4-0.2l0,0.6l6.9-4.3l-0.5-10l-2.6,0.1l-0.3-6.4l2.8-0.1l-0.2-4l-2.8,0.1l-0.3-6.4l4.3-0.2l-0.1-1.6l5.2-0.2
	l1.4,28.6l6.9-0.2l-0.3-6.1l-5.6,0.4l-1.4-19.6l6.2-0.4l0.1,1.4l3-0.2l-0.1-1.7l4.9-0.3l1.8,26.1l6.5-0.4l-0.3-4.4l0.4,0l-0.5-6
	L127,143l-0.3-3.9l3.3-0.2l-0.2-4.8l3.7-0.2l-1-15.1l-2.3-4.1l-7.8,4.1l-3.9-7.1l2.7-1.5l-3.8-6.9l1.8-1l-2.8-4.9l-15.7,8.6l4.8,8.8
	l-6.8,3.7l-4.9-8.8l-8.3,4.5l-3.9-7.1L112.5,90l-2.1-3.9l-5.8,3.2l-2.6-4.8l11.8-6.4l0.4,0.7l2-1.1l1.6,2.9l6.6-3.6l2.7,4.9l4.8-2.6
	l0.9,1.7l12-6.5l3,5.4l-25.2,13.8l13.1,24.6l2.2,30.1l0.6,0l0.4,4l8.4-1.2l7.9-1.6l9.8-2.4l4.1-1.2l-0.8-2.2l2.8-1l0.7,2.2l8.6-3.2
	l-0.3-0.9l1.6-0.6l-5.9-12.5l5.6-2.7l6.8,13.7l3.2-1.5l-12.1-25.8l6.4-3l12.2,26.1l7.8-3.8l-17-29.4l4.7-2.8l1,1.6l4.3-2.6l5.3,9.2
	l-2.6,1.7l10.2,19l6.6-3.9l-17.4-27l9.2-5.9l6.1,9.5l-3,1.9l10.9,17l2.7-1.9l-1.7-2.5L225,114l0.2-0.7l0.7-0.5l1,0l0.8,0.9l1.2-0.7
	l-16.1-20.9l4.2-3.2l1.4,1.8l1.5-1.1l30.4,39.8l4.1-3.1l1.8,2.3l9.1-6.9l3.9,5.1l-7.7,5.8l0.7,1l-4.9,3.7l1.7,2.2l-3.4,2.6l-1.2-1.5
	l-2.6,2l-19.4-25.3l-6.8,4.3l1.8,2.9l-6.2,4l-1.7-2.6l-6.6,3.9l0.6,1.1l-6,3.2l2.2,3.8l5.1-2.9l19.3,33.9l-3.4,1.9l-1.1-1.9
	l-2.2,1.3l-14.7-25.7l-2.5,1.3l-0.8,0.2l-0.6-0.2l-0.4-0.4l-0.2-0.5l0.1-1l0.3-0.4l2.8-1.4l-0.2-0.3L199,137l14.2,30.2l-3.8,1.8
	l-0.8-1.6l-2.6,1.2l-13.6-29l-8,3.5l12.6,32.8l-7.2,2.7l-1.3-3.5l1.2-0.4L178.4,145l-8.1,3l9.6,32.8l-4.4,1.3l-0.5-1.7l-2.1,0.6
	l-6.7-22.8l-1.2,0.2l2.3,9.6l-6.8,1.8l-2.1-9.7l-1,0.2l5.9,25.8l-8.8,1.8l-6.7-34.3l-5.9,0.9l0.3,3l-2.9,0.4l-0.4-3.2l-0.4,0.1
	l0.2,2.2l0,0l-0.6,0l0.8,10.1l6.9-0.6l1.4,15.7l-5.5,0.5l-1.2-13.9l-1.4,0.1l2.5,33.2l14.2-3.1l-0.3-1.6l20.9-4.5l1.4,6.7l-21.3,4.6
	l-0.5-2.2l-1.8,0.4l3.4,15.9l-3.7,0.8l1.6,7.3l-5.8,1.2l5,23.4l-10.4,2.2l-5.1-23.7l-4.9,1l-1.6-7.3l-3.6,0.8l-2.9-12.8l-0.5-2.6
	l-5.3,1.1l0.3,1.3l-5.2,1.1l0.3,1.2l2.1-0.4l1.7,8l-3.8,0.8l0.6,2.9l2.8-0.6l2.1,9.7l-15,3.2l-0.6-2.8l-2.6,0.6l-3.9-18.1l2.5-0.5
	l-2.2-10.1l19.3-4.1l1.1,5.2l16.6-3.5l-1.8-22.8l-2,0.2l-2-25.2l-6.7,0.4l0.4,5.2l2.6-0.2l0.5,6.5l-2.7,0.2l1.7,24.2l-1.5,0.1l0.1,2
	l-7.2,0.5l-1.2-17.2l-2.8,0.2l-1.4-20.9l-4.2,0.2l1.9,31.9l-2,0.2l0.1,2.1l-5.2,0.5l-0.5-9.8l-5.8,0.4l-1-21.4l-1.3,1l1,30l-2,0.1
	l0,1.9l-11.2,0.2l-0.5-24.6l-1.4,0.9l0.1,32.2l-6.9,0l-0.1-27.8l-7.3,4.3l0.1,32l-1.8,0l0,1.7l-5.3,0L59.3,149.6 M78.3,161.4
	l-0.1,5.6l2.5,0v0l0,0.5l5.1-3.3l-5.4-2.8L78.3,161.4 M66.4,161.4l0,14.8l7.3-4.4l0-4.6l1.7,0l0-0.5l-5.7,0l0-5.3L66.4,161.4
	L66.4,161.4"/>
</svg>
