<?xml version="1.0" encoding="utf-8"?>
<!-- Generator: Adobe Illustrator 26.0.2, SVG Export Plug-In . SVG Version: 6.00 Build 0)  -->
<svg version="1.1" id="Ebene_1" xmlns="http://www.w3.org/2000/svg" xmlns:xlink="http://www.w3.org/1999/xlink" x="0px" y="0px"
	 viewBox="0 0 283.6 236.7" style="enable-background:new 0 0 283.6 236.7;" xml:space="preserve">
<style type="text/css">
	.st0{fill:none;stroke:#000000;stroke-width:0.1;stroke-linejoin:round;}
</style>
<path class="st0" d="M41.3,150.4l88.5-112.6l19.5-7.5l24.2-30.3l6.9,4.6l3.5,6.4l25.7,19.4l-8.7,11.8l17.5,13.2l-16.2,56.1
	l-2.4,15.3l26.6,28.3l-14.1,22.5l-17.5,28.3l-25.5,25l-28.8,5.6l-22.6-3.1l-25.6-15.1l-53.8-53.3l0.4-3.5L41.3,150.4L41.3,150.4"/>
<path class="st0" d="M0.1,144.8l11-59.3l0,0l0,0l0,0l0,0l0,0l0,0l0,0l0,0l0,0l0,0l0,0l0,0l0,0l0,0l0,0l0,0l56.3,12.8l6.6-32.8l0,0
	l0,0l0,0l0,0l0,0l0,0l0,0l0,0l0,0l0,0l0,0l0,0l0,0l0,0l0,0l0,0l184.4,42.7l0,0l0,0l0,0l0,0l0,0l0,0l0,0l0,0l0,0l0,0l0,0l0,0l0,0l0,0
	l0,0l0,0l-11.1,51.5l33,6.6l0,0l0,0l0,0l0,0l0,0l0,0l0,0l0,0l0,0l0,0l0,0l0,0l0,0l0,0l0,0l0,0l0,0l0,0l0,0l0,0L258.7,201l0,0l0,0
	l0,0l0,0l0,0l0,0l0,0l0,0l0,0l0,0h0l0,0l0,0L0.1,144.8L0.1,144.8L0.1,144.8L0.1,144.8L0.1,144.8L0.1,144.8L0.1,144.8L0.1,144.8
	L0.1,144.8L0.1,144.8L0.1,144.8L0.1,144.8L0.1,144.8L0.1,144.8L0.1,144.8L0.1,144.8L0.1,144.8"/>
<path class="st0" d="M34,155.9l0.8-4.5l4.3,0.8l5.4-24.6l-2.7-0.6l14.6-69.7l47,10l1.8-8.3l133,28.4l3.1-15l17.3,3.6l-11.4,56.2
	l-11.8-2.4l-12,57.8l2.7,0.6l-1.6,7.6l-2.8-0.6l-1.8,8.7l-8.5-1.8l-5,23.3l-15.8-3.5l5-23.2l-12.5-2.6l-5.8,26.9l-15.8-3.5l5.8-26.8
	l-13.4-2.9l-5.3,26l-108-22.3l5.4-26.6l-9.6-2.1l1.8-8.2L34,155.9 M194.1,184.7l12.4,2.9l11.3-48.8l-12.4-2.9L194.1,184.7
	 M160.3,177.7l19.3,3.9l10.2-48.8l-19.1-4.1l-2.9,14.1l6.3,1.4l-4.8,22.2l-6.5-1.1L160.3,177.7 M138.7,173.1l12.9,2.5l8.6-43.5
	l-10.8-8L138.7,173.1 M120.4,202.3l15.9,3.3l3.7-18.1l-15.9-3.3L120.4,202.3 M110.5,167.3l12.4,2.9l11.3-48.8l-12.4-2.9L110.5,167.3
	 M89.1,195.3l15.9,3.3l3.7-18.1l-15.9-3.3L89.1,195.3 M82.8,161.4l12.4,2.9l11.3-48.8L94,112.6L82.8,161.4 M66.7,117.3l15,3.1
	l1.6-8.1l-15-3L66.7,117.3 M57.6,188.5l15.9,3.3l3.7-18.1l-15.9-3.3L57.6,188.5 M49.5,154.1l24.5,5.4l2.8-12.8l-24.5-5.4L49.5,154.1
	L49.5,154.1"/>
<path class="st0" d="M34.6,141.1l28.6-24.2l2.1,2.4l4.7-4l7.8,9.2l108.5-91.8L207,57.1l-6.6,5.6l2.2,2.5l2-1.7l2.9,3.4l-2.1,1.7
	l2.3,2.6l6.3-5.3l20.5,24l-16.1,13.6l4.6,5.4l4-3.4l10.2,12l-55.2,46.7l3.3,3.8l-38.6,32.6L128.3,179l-2.9,2.5l13,15.2l-4.8,4
	l6.1,7.1l-27.9,23.6L34.6,141.1L34.6,141.1"/>
<path class="st0" d="M35.6,200.9l5.3-9.3l-4.5-2.7l5-8.6l1.1-2.2l-4.2-2.4l6-10.1l4.2,2.6l8-13.5l1.2-3.1L71,128.7l10,6l5.9-10
	l-19-11.2l4.3-7.5l-9.2-5.6l6.3-10.8L64.5,87L78,64.1l24.1,14.3l-4.3,7.5l37.2,22l1.3-2.5l-14.4-8.3l0.8-1.5L105,85.4l6.9-11.7
	l17.4,10.4l0.9-1.3l14.6,8.4l4-7.1l-23.3-13.5l5.3-9.4l-4.5-2.7l13.4-22.9l4.7,2.8l5.6-9.4l23.6,13.8l-1.6,2.8l3.3,1.9l1.5-2.2
	l9.5,5.5l1.1-1.8l14.2,8.4l-9.4,15.6L175.1,63l-6.9,11.3l3.3,2.1l1-1.7l14.1,8.3l-9.5,15.6l-17.2-10.1L156,95l-1,2.2l17.3,9.9
	l24.2,14.7l-0.5,1l3.2,1.9l14.2-24l1,0.6l7.2-12l2.9,1.7l5.6-9.4l-1.7-1l2.3-3.8l3.8,2.3l-0.6,1.2l7.9,4.8l-17.6,30l8.2,4.9
	l-10.1,17.2l22.3,13.3l17.5-29.5l6.1,3.7l-3.3,6l2.5,1.4l16,9.5l-14.7,24.3l-10.3-5.9l-3.1,5.4l5,3.1l-23.5,39.6l-10.7-6.3l5.2-9
	l-2.4-1.5l-6.4-3.7l17.8-30.2l-5.3-3l-8.9,14.9l-13-7.6l8.5-14.5l-4-2.2l-3.2,5.2l-8.3-4.7l-7.1,11.8l-10.6,17.9l-4.2-2.3l-5.6,9.2
	l1.9,1.2l-2.2,3.9l-3.8-2.2l0.6-1.3l-8.2-4.8l24.8-42l-3.1-1.8l-0.7,0.9l-42-24.9l-3.4,6.1l-3.2,5.3l3.4,1.9l1.1-1.7l14,8.3
	l-9.1,15.5l-17.4-10.3l-7,11.8l3.3,1.9l1-1.6l14.2,8.4l-9.2,15.3l-17.4-10.3l-7,11.8l3.3,1.9l1-1.6l14.3,8.4l-9.3,15.4l-17.4-10.3
	l-6.9,11.8l3.2,2l0.9-1.5l14.3,8.3l-9.2,15.4l0,0l-17.8-10.5l0.2-0.7l-5.8-3.2l0,0l0.8-1.2l-3.2-1.9l-8.8,14.5L35.6,200.9
	L35.6,200.9"/>
<path class="st0" d="M23.5,45.8L37,37l37.7,49.2l19-14.6l-4.8-6.2l14.4-10.1l-3-4.3l0,0l6.6-3.9l31.8,40.8L161.6,71l22.2,29.8l3.9-3
	l0,0l6.8,10.1l-1.9,1.9l67.9,94.4l12.1-9.1l10.4,13l-30.6,23.2l-47-59.2l-5.4,4.3l-3-4l-22.7,17.4l-57.2-19.8l-3.3-5.3l-7,5.9
	L100,168l-0.7,0.9l-4.2-1.3l-0.8,1.9l-5.9-2.5l0.7-1.9l-12.3-4.7l-32.3-35l-0.9,0.7l0,0l-8.1-11.6l30.2-22.2L52.9,75.2l-5,3.6
	L43.2,72l4.9-3.6L33.6,48.9l-5.1,3.6L23.5,45.8L23.5,45.8"/>
<path class="st0" d="M20.4,107.4L25,69l71.7,8.5l-1.4,11.6l3.5,0.4l-1,8.7l61.8,7.3l0.8-6.9l9,1.1l1.1-8.8l8.4,1l-1,8.8l7.1,0.8
	l1-8.5l8.4,1l-1,8.7l6.8,0.8l1-8.6l8.3,1l-1.1,9.4l55.1,6.5l-4.1,34.8l-8.5-1l-6.2,52.3l-29.7-3.5l4.3-35.9l-12.1-1.4l-4.1,34.5
	l-30.7-3.6l4.1-34.6l-12.5-1.5l-4.2,35.3l-29.9-3.5l4.3-35.9l-12.8-1.5l-4.2,34.9L88,177.6l6.3-52.9l-25.7-3l-2.3,19.5l-2.7-0.3
	l-1.4,11.3l-40.5-4.8l1.7-14.4l-2.1-0.3l3-24.9L20.4,107.4 M207.8,146.9l13.1,1.8l0.9-6.6l-13.1-1.8L207.8,146.9 M174.9,125.8
	l5.1,0.7l1.8-12.5l-5.1-0.7L174.9,125.8 M165.1,141.4l13.4,1.6l0.8-6.5l-13.4-1.6L165.1,141.4 M124.9,119.3l12.9,1.7l0.7-5.2
	l-12.9-1.7L124.9,119.3 M122.7,135.8l12.9,1.7l0.8-6.4l-12.9-1.7L122.7,135.8L122.7,135.8"/>
<path class="st0" d="M54.4,106.6L166.8,45l0,0l0,0l0,0l0,0l0,0l0,0l0,0l0,0l0,0l0,0l0,0l0,0l0,0l0,0l0,0l0,0l61,112.9l0,0l0,0l0,0
	l0,0l0,0l0,0l0,0l0,0l0,0l0,0l0,0l0,0l0,0l0,0l0,0l0,0l-109,62.1l0,0l0,0l0,0l0,0l0,0l0,0l0,0l0,0l0,0l0,0l0,0l0,0l0,0l0,0l0,0l0,0
	L86,162L54.4,106.6L54.4,106.6L54.4,106.6L54.4,106.6L54.4,106.6L54.4,106.6L54.4,106.6L54.4,106.6L54.4,106.6L54.4,106.6
	L54.4,106.6L54.4,106.6L54.4,106.6L54.4,106.6L54.4,106.6L54.4,106.6L54.4,106.6"/>
<path class="st0" d="M54,122.2l0.8-25.7l24.9,0.8L80,86.5l5-3.1l1.1-22.4L71,60.2l1-18.6l51.9,2.8L123,62.6l17.2,0.9l-1.9,37.1
	l-13-0.7l-0.9,16.3l49.4,2.7l0.3-6.5l14.7,0.8l-0.3,5.7l63.3,3.6l-2.3,44.6l-0.5,14.6l-19-0.7l-0.3,9.2l-26-0.9l0.2-7.6l-19.7-0.7
	l0.3-10.1l-37.4-1.2l-0.1,4.6l-19-0.6l-1,34l-13.7-0.4l0.4-13.1l-23.9-0.8l0.2-8.3l-6.1-0.2l0.2-8.5l8.3,0.3l0.3-9.2l-20-0.6
	l0.1-4.1l-6-0.2l0.6-20.1l-7.6-0.3l0.6-20L54,122.2L54,122.2"/>
<path class="st0" d="M66.6,133.2l104.1-88.5l0,0l0,0l0,0l0,0l0,0l0,0l0,0l0,0l0,0l0,0l0,0l0,0l0,0l0,0l0,0l0,0l60.8,71.5l0,0l0,0
	l0,0l0,0l0,0l0,0l0,0l0,0l0,0l0,0l0,0l0,0l0,0l0,0l0,0l0,0l-45.1,38.3l0,0l-77.9,66.1l0,0l0,0l0,0l0,0l0,0l0,0l0,0l0,0l0,0l0,0l0,0
	l0,0l0,0l0,0l0,0l0,0l-40.7-48l0,0l0,0l0,0l0,0l0,0l0,0l0,0L66.6,133.2L66.6,133.2L66.6,133.2L66.6,133.2L66.6,133.2L66.6,133.2
	L66.6,133.2L66.6,133.2L66.6,133.2L66.6,133.2"/>
</svg>
