<?xml version="1.0" encoding="utf-8"?>
<!-- Generator: Adobe Illustrator 26.0.2, SVG Export Plug-In . SVG Version: 6.00 Build 0)  -->
<svg version="1.1" id="Ebene_1" xmlns="http://www.w3.org/2000/svg" xmlns:xlink="http://www.w3.org/1999/xlink" x="0px" y="0px"
	 viewBox="0 0 245.8 242" style="enable-background:new 0 0 245.8 242;" xml:space="preserve">
<style type="text/css">
	.st0{fill:none;stroke:#000000;stroke-width:0.1;stroke-linejoin:round;}
</style>
<path class="st0" d="M36.7,33.8L13,59.4l-13-13.1l4-4l6.1,5.5l6.4-6.9l0.6-0.3l0.6-0.2l0.7-0.1l0.7,0l0.7,0.1l0.6,0.2l0.7,0.4
	l8.8-9.6l-6-5.6l18-19.4l1.6,1.4l6.7-7.6l34,26.4l5.2,1.9l6.2,0.7l7.9-1.1l7.6-0.2l9.7,2.7l8.1,3l8.5,5l10.6,9.3l76.9,72l3.5,5
	l1.6,2.9l0.9,3l0.1,0.7l0.3,2.6l0.2,7.3l-0.1,3.4l-0.8,5.7l-0.9,3.9l-6.2,19.6l0.1,0.5l-0.5,0.8l-1.7,5.2l-0.6,2l-9.1,28.5l-0.8,1.1
	l-6.6,6l-0.2,0.2l-0.2-0.1L188,206.3l-1.2-0.6l-1.3-0.5l-2-0.5l-1.4-0.1l-17.8,2.1l-1.3-0.3l-1.2-0.8l-12.5-11.5l-0.3,0.3l-6.9-6.1
	l-5-2.2l-19.3-18.9l-14.3,14.1l-0.3-0.3l-21-19.4l-5.5,5.3l-16.4,15.6l-13.9-12.8L67,147.9l1.9,1.2l1.2,0.6l1.1,0.3l1.6-0.1l1-0.4
	l0.9-0.6l2.5-2.6l3.3-3.3l-8.2-7.4l2.8-3.2l0.3,0.2l5.1-5.6l-6.5-6l32.6-35L82.4,63l-6.6,7.2L36.7,33.8L36.7,33.8"/>
<path class="st0" d="M105,105.1l3-4.7l-7.2-4.7l2-3.2l-7.7-5l7.2-11.2l1.8-2.7l6.2-9.6l7.2,4.7l1.2-1.9l12.7,8.3l2.4,0.6l1.5-2.4
	l-21.8-14.3l21.9-34l5.6-3l4.8,3.1l3.3-5.1l3.7,2.4l3.1-4.7l15.2,10l3.1,2l-4.6,7.2l-3.5,5.5l1.5,1l-1.2,1.8l1.7,1.1l25.8,16.9
	l9.3-14.5l22,14.4l1.4-2.2l3.7,2.4l-1.4,2.2l3.3,2.2l-2.4,4.6L216.8,92l2,1.3l-0.2,0.3l-1.7,2.6l-1.4,2.1l-1.9-1.3l-6.2,9.6
	l-4.3,3.9l-2.3-1.5l-3.3,5.1l-21.8-14.3l-2.3,3.6l-1.6,2.4l12.4,8.1l-3,4.7l-10,8l-5,7.8l0.2,0.1l0.2,0.1l0.4,0.3l0.3,0.3l0.3,0.4
	l0.2,0.4l0.1,0.4l0,0.5l0,0.2l-0.1,0.5l-0.1,0.2l-0.1,0.2l-0.2,0.4l-0.1,0.2l-0.1,0.2l-3,4.6l4.6,3l-2,3.1l-1.9,9l-3.1,4.7
	l-14.4,22.1l8.3,1.9l-0.1,0.2l-4.8,21l-0.4,2l-9.1-2.1l-10.6-2.4l-5.1-4.1l-1.6,7.5l-9-1.9l1.3-10.6l-0.6-0.1l-10.7-1.5l-3.2-0.4
	L100,195l-1.3-0.3l-0.4-0.3l-3.2-2l-15-1.9L76,190l-0.1,0l-1.1-0.1l-2.1-0.2l-1-1.5l0.3-2.2l0-0.1l0.8-5.8l0.4-2.6l-3.9-2l7.9-12.2
	l-6.2-4.3l-1.6,2.4l-17.1-11.1l-0.2-0.1l3.4-5.3l31-48.1l16.9,11.1L105,105.1"/>
<path class="st0" d="M180.5,78.4l3.4,7.4l6.9,19.3l7.5,13.1l-14.5,22.1l-2.1,2.7l-7.4,14.5l5.2,9.3l-3.5,3l-4.8,4l-5.4,3.8l-2.8,1.5
	l-2.8,0.8l-7,3l-12.5,6l-1.8,0.8l-12.5,6.2l11.3,18.9l2.2,2.6l3.2,3.2l4.1,3.7l5,3.7l0.5,0.3l7.3,4.4l0.3,0.1l1.3,0.6l-4.8,8.3
	l-14.6-7.8l0.9-1.5l-8-4.7l-3.7-2.5l-1.4-1.6l-1.5-1.9l-1-1.5l-1.1-1.8l-0.8-1.6l-0.9-2.1l-1.1-3.2l-0.9-3l-1.3-4.5l-10.4,2.3
	l-1.1-0.1l-0.5-0.5l-0.4-0.8l-0.5-1.4l-1-3.5l-0.2,0l-1.9,0.4l-8.2-42.3l-0.6-2.6l-1.5-1.9l-3,0.4l-1.6-2.7l-2-4.7l-1.1-4.1
	l-0.5-4.1l-0.3-4.2l0.3-3.7l3.9-25.1l2.5-16.9l0.8-5.4l0.7-5.8l0.4-4.8l0.7-6.2l0.8-6.3l1.5-8.4l0.7-4.3l0.7-6.1l0.2-1.5l4.8-1.8
	l53.4-20.1l20.4,55L180.5,78.4"/>
<path class="st0" d="M70.7,102.8l0.8-0.4l3.3,1.2L93.2,94l2.4-4l2.4-1.3l4.6-2.4l23.1-12.1l4.7-2.5l2.3-1.2l3.3,1.2l1.6-0.8l7.3-3.8
	l0.4-0.2l0.2-0.6l0.3-0.8l0.4-0.7l0.5-0.7l0.6-0.6l0.6-0.5l0.7-0.5l0.7-0.4l0.8-0.3l0.8-0.2l0.8-0.1l0.8,0l0.8,0.1l0.8,0.1l0.8,0.2
	l0.4-0.2l7.2-3.8l19.3,6.2l5.9,1.9l5.8,1.9l6.6,2l2.3,4.2l21.4-11.3l4.9,1.7l2.9,5.3l-1.4,4.7l-1.2,0.6l3.1,5.7l0.9-0.5l5.1,1.6
	l7.6,14.1l-1.4,4.3l-14.2,7.5l-4.3-1.4l-0.6-1.1l-5.7,3l0.8,1.5l-1.5,4.3l-6.3,3.1l-3.9-1.2l-0.7-1.3L200,119l1.9,3.5l-3.9,2.1
	l-8,4.1l-3.7,2l-0.6,0.3l-3.4,1.8l-1.9,1l-1,0.5l-5.8,3l-0.3,0.2l-11.4,6l-4.1,2.2l-20.4,10.8l-0.8,0.4l-6.5,3.4l-0.6,0.3
	l-41.2,21.7l-0.7,0.5l-0.4,0.2l-7.6,3.9l-1.4,0.7l-2.6-4.9l-2.5,1.3l-17.7-33.4l-11.3-21.3l0.4-1l-0.5-0.5l-0.4-0.5l-0.3-0.6
	l-0.3-0.6l-0.2-0.6l-0.1-0.6l0-0.6l0.1-0.6l0.2-0.6l0.2-0.6l0.3-0.6l0.4-0.5l0.5-0.4l0.5-0.4l0.6-0.3l0.6-0.2l0.6-0.2l0.6-0.1
	l0.7-2.2l6.1-3.2l0.9-3.4L70.7,102.8"/>
<path class="st0" d="M134.9,33.4l4.5-2.9L156,55.6l4.1,6.2l-11.6,7.4l2.5,3.6l7.7-4.9l23,35l-7.6,4.9l2.4,3.7l7.6-5l15.4,23.6
	l2.6,3.9l-12.8,8.3l3.7,5.3l13.3-8.7l18.8,28.6l2,3.1l-12.6,8.2l1.6,2.4l-6.9,4.3l-1.5-2.3l-16.4,10.5l-2.1-3.2l-18.7-28.3l0,0
	l-11.5-17.4l-2.6-4l11.8-7.5l-4.9-7.3l-0.6,0.4l-14.7,9.5l5.1,7.7l-11.8,7.5l-5.2-7.8l-7.2,4.9l7.3,11.2l19.4-12.5l10.5,15.9
	l-23.7,15.3l-4.3-6.5l-2.2,1.5l0,0l-1.4,0.8l-0.8-1.2l-3.8,2.5l0.8,1.2l-1.5,0.9l-2.3,1.5l1.7,2.6l-0.4,0.2l-7.8,5l-12.9-19.5
	l-0.2-0.2l2.6-1.8l-1.4-2l-1-1.5l1.2-0.9l-2.4-3.7l-1.3,0.8l-1-1.5l-1.4-2.3l-2.6,1.7l-0.3-0.4l-15.1-23l-2.8-4.2l-2.9,1.6l-7.1-11
	l-0.4-0.6l0.3-0.2l-1.4-2.2l4.9-3.1l-0.9-1.4l1.3-0.8l-2.6-3.9l-1.3,0.8l-0.9-1.3l-1.5-2.2l-2.7,1.7l-0.2-0.3L53.8,85.5l7.8-5
	l3.9-2.5l3.7-2.4l0,0l4.1-2.6l19.4-12.5l6.8-4.3l7.9-5.1l5.1-3.3l18.7-12L134.9,33.4"/>
<path class="st0" d="M178.1,137.4l4.7-5.3l-33-27.5l7.1-9l33.1,28.4l3.9-4.5l0.1,0.1l10.6-12.3l-38.6-34.7l-2.3,2.7l-1.1-0.9
	l-3.9,4.1l-5.1,6.3l-5.4,5.8l-6,7.3l-8.5,11l-8.5,9.8l0,0l-42-36.9l4.8-5.6l-1.7-1.5l-3.1-14.9L35.5,67l31.4,141.7l3.8,1.1l1.7,1
	l1.5,1.7l1,2l0.6,1.5l0.1,2.3l0.6,0.1l-0.5,2.5l-0.8,1.7l-0.6,0.8l-0.7,0.7l-0.7,0.6l-0.8,0.5l-0.9,0.4l-0.9,0.3l-1,0.2l-1,0.1l-1,0
	l-1-0.1l-1-0.2l-1-0.4l-0.9-0.5l-0.9-0.6l-0.8-0.7l-2.2-2.1L58,220L21,51.2l17.7-2.9l5.4-1.6l1.6,4l5.7-2.3l1.7,3.3l1.2,2.3L52,54.5
	l-1.4-2.4l-4.8,1.6l-6,1.4L37,55.6l-6.4,0.9l0.6,2.2l-2.5,0.6l-0.6,0.4l-0.5,0.5l-0.4,0.5l-0.3,0.6l-0.2,0.7l-0.1,0.7l0.2,1.4l1.5,7
	l2.3-0.3L33.6,85l3,13.5l-0.3,0l12.6,55.9l10.8,49.4l-2.3,0.4l2.3,10.1l0-0.4l0.2-0.8l0.3-0.8l0.4-0.7l0.5-0.6l0.6-0.6l0.7-0.5
	l0.7-0.4l0.8-0.3l0.8-0.1l0.8,0l-0.5-0.3l-0.5-0.5l-0.4-0.6L36.7,82.9L32.8,66l-0.2-1.6l0.3-0.7l3.2-1.4l37.3-5.7l4.7-0.9l5.3-1.3
	l0.2,1.2l5.1,19.2l13.1,11.5l20.1-23l-3.6-3.2l-12.2,14l-0.8,0.6l-0.8,0.5l-0.9,0.4l-0.9,0.3l-1,0.1l-1,0l-1-0.1l-1-0.2l-1-0.3
	l-0.9-0.4l-0.9-0.5l-0.8-0.6l-0.8-0.7L93,71.5l-0.5-0.9l-0.4-1l-0.5-1.9l0-0.1l-2-20.7l0.1-1.3l0.5-1.3l0.4-0.5l0.8-0.7l1-0.5
	l1.4-0.2l1.4,0.2l22.5,10.8l0.6,0.6l0.7,1l0.3,1l0,1.1l-0.1,1.2l-0.8,1.5l3.6,3.2l2.8-3.2L135.6,47l0.8-0.5l0.9-0.4l1.3,0.1l2.1,0.9
	l0.6,0.4l23.4,20.9l1.5-1.8l1.2-0.8l1.3-0.3l3.5,0.2l39.7,35.8l0.2,0.5l-0.2,0.9l-0.3,1l-0.6,0.9L174,147.5l-1.1,0.7l-1.3,0.3
	l-0.8-0.1l-0.6-0.3l-6.8-5.8l-1-0.3l-0.8,0.1l-0.6,0.5l-11.6,13.1l-6.4,7.8l16.7,16.5l1.4-1.7l-14-13.4l-0.2-0.5l-0.1-0.5l0-0.5
	l0.2-0.8l0.1-0.2l15.4-17.3l0.5-0.1l14.7,13l4.2-4.7l-0.3,0.1l-0.6,0.1l-0.6,0l-0.6-0.1l-0.6-0.2l-0.6-0.3l-0.5-0.4l-0.8-1.1
	l-0.2-0.6l-0.1-0.6l0-0.7l0.1-0.8l0.5-1l0,0l35.6-40.7l0.5-0.4l0.6-0.3l0.6-0.2l0.6-0.1l0.7,0.1l0.6,0.2l1,0.5l0.8,0.9l0.4,0.7
	l0.2,0.9l0,0.9l-0.2,0.9l6.2-7.3l-1.1,0.4l-1.1,0l-1.1-0.3l-1-0.6l-7.4-7.2l-0.2,0l-1.6-0.7l-27.7-25.2l-0.5-1.5l0.1-1.9l-4.5-4.5
	l-3.6-0.1l-3.8-0.5l-2.8-0.6l-3,1l-2.1-0.3l-1.9-1.2l-15.2-14l-2.4-2.1l-1.8-1.2l-1.9-0.8l-1.8-0.3l-2.5,0l-5-2.3l-0.2,0.6l0.2,1
	l0,0.9l-0.2,1.2l-0.3,1.2l-0.9,1.8l-1.5,1.5l-1.4,1l-2.5,0.7l-2.2,0l-2.2-0.9l-1.5-3.9l-18.6-8.7L95,38.4L92.6,36l-0.7-1.5l-0.9-3
	l0-1.1l0.9-3.2l1.1-2.1l1.3-1.6l2.6-0.9l3.7,0.1l3.4,1.5l44,20.9l1.8,1.1l0.8,0.8L161.6,57l3.1,2.2l4.3,1.9l2.6,0.6l3.8,0.5l3.7-0.1
	l3.3-0.6l3.4-1.1l6.4-3.1l3.4-0.9l3.6,0.1l3.5,0.5l3.9,0.8L210,59l19.1,16.9l-1,0.2l1,4.1l-0.9,3.3l-0.1,1.6l0.3,1.5l1,3.6l0.8,3.7
	l-2.3,2.7l2.3,2l-0.5,0.8l-3.7,4l-7.6,8.9l-24.9,28.4l-15.7,17.6l0.9,0.9l-17.4,19.4l-1.4,1.7l3.8,3.8l-0.6,0.6l1.9,1.9l2.5-2.7
	l-3.1-2.8l22.9-25.8l11.4-13.3l14-15.9l22-25.2l2,1.8l-40.8,48.6l-37.3,44.1l-0.1,1.1l-0.1,0.5l7.1,6.8l-10.8,12.9l-25.6,3.4
	l-3.1-12.7l0.6-0.1l2.2,9.6l5.1-0.9l-1.7-7l1.2-0.2l-0.3-1.4l-0.4,0.1l-0.2-0.7l1-0.2l-3.2-13.3l-7,1.2l0.2,0.7l-1.7,0.3l-3.7-15.4
	l-5.6,1l2.6,11l0.6,1.1l1.1,1.1l0.7,0.4l0.7,0.3l0.7,0.2l0.8,0.1l1.6-0.3l0.3,1.3l-0.9,0.2l-1.6,0.1l-1.5-0.4l-1.5-0.7l-1.3-1.1
	l-1-1.5l-0.4-1l-2.6-11.3l-1.7-7.7l-0.5-1.1l-0.6-0.7l-0.8-0.8l-0.9-0.5l-1.7-0.4l-1.4,0.1l-3-0.8l-1.3-0.6l-1.1-0.9l-0.9-0.9
	l-0.9-1.7l-0.4-1.3l-0.1-1l0.1-1.4l0.2-0.9l0.9-1.9l4.2-4.7l37.6,33.8l3-3.4l-10.8-9.7l0.6-0.7l7,6.3l1.9-2.2l-7-6.3l4.6-5.3
	l-27-24.3l8.8-10.2l0.1,0.1l1.7,0.7l4.1,3.7l10.1-13l-0.2-0.2l7.4-9.1l32.5,26.9L178.1,137.4L178.1,137.4"/>
<path class="st0" d="M83.5,98.7l1.7-0.8l0.3-0.2l16.1-7.7l2.4-1.2l1.6-0.9l9.4-4.5l0,0l3.4-1.6l0.8-0.4l0.3-0.1l1.2-0.5l0.3-0.2
	l0.6-0.4l1-0.6l2-1l2.8-1.3l12.6-6l1.5-0.8l8.2-4.1l7.3-3.5l1.1-0.5l3.7-1.8l2.9-1.4l10.6-5.1l15-7.3l1,2l0.2,0.4l0.9,1.9l2.3,4.7
	l2.8,5.6l3.1,6.3l0.3,0.6l0.9,1.9l0,0.1l0.2,0.4l4,8.1l0.2,0.4l1.1,2.3l0.9,1.9l2.2,4.5l0.9,1.9l2.9,5.8l1.9,3.8l0.6,1.2l0.1,0.2
	l2.5,5.1l1.1,2.1l1.1,2.2l1.1,2.2l1.1,2.1l0.8,1.5l-7.2,3.8L196,130.1l-15.9,7.5l-34,16.5l-24.1,11.3l-39.3,18.8l-2.5-5.2l-2.8-5.7
	l-0.5-1.1l-1.5-3.2l-2.8-5.8l-1.9-4l-1.3-2.7l-1.5-3.1l0-0.1l-7.5-15.4l-2-4l-0.6-1.3l-1.1-2.2l-1.2-2.4l-2.2-4.4l-3.4-6.9l-0.7-1.5
	l-0.1-0.2l7.6-3.6l21.4-10.3l0.7-0.3L83.5,98.7"/>
<path class="st0" d="M61.7,125.5l64.4-85.9l86,66.3l-57.4,76.6l-7,9.3l-21.7-16.7L61.7,125.5"/>
<path class="st0" d="M152.4,55.5l0.6-0.3l13-6.4l0.5,1.4l3.2-1.5l1.2,3.9l2.4,7.5l2.3,7.2l6.3,19.6l1.3,3.9l0.2,0.6l0,0l0.6,1.9
	l-5.3,2.6l3.5,1.2l2.3,4.6l1.6,3.3l-0.5,3.6l3.1,6.2l8.3,16.8l7,14l0.9,2.1l-7,3.7l2.2,4.2l1.2,2.4l-8.9,4.3l-24.3,11.7l-3.7,1.8
	l-1-1.9l3.1-1.5l0.1,0.2l1.9-0.9l13.4-6.5l-0.6-1.2l9.2-4.5l0.2-0.1l0.3,0.6l1.5-0.7l-3-6.6l-1.3-2.5l-11.6,5.6l1.3,2.5l-7.1,3.5
	l-9.3,4.5l-1.3-2.5l-7.1,3.4l1.3,2.6l-11.8,5.7l-0.6-1.2l-17.8,8.6l0.6,1.2l-8.2,3.9l-7-14l-9.8-19.6l-0.2-0.4l-1.5-2.9l-5.3-10.6
	l1.1-3.5l-3.3,1.6l-1.2-2.5l-0.1-0.2l-1.7-3.4l-0.1-0.1l-1.8-3.6l-1.4-2.8l-2.4-4.8l-0.3-0.7l-2.4-4.9l-5-10l-0.8-1.7L73,102
	l-0.4-1.5l-0.4-1.6L72,97.4l-0.2-1.8l0-1.4l0.1-1.6l0.2-1.7l0.3-1.6l0.4-1.6l0.5-1.5l0.2-0.4l0.5-1.2l0.8-1.6l1.1-1.6l1.3-1.6
	l1.2-1.3l1.5-1.4l1.4-1.2l1.7-1l1.7-0.9l1.1-0.4l10.8-4.2l0.1,0l4.6-1.8l4.2-1.4l15.6-5.2l0.1,0l0.1,0l0,0.1l1.4,3.4l12.6-6l1.2,1.8
	l15-7L152.4,55.5"/>
<path class="st0" d="M81,119.6l1.3-0.8L84,118l1.3-0.4l2.7-0.5l2.3-0.8l4.1-1.9l0.4-0.2l10.9-9.5l2.1,1.1l2-3.6l-0.7-0.4l6.8-6.9
	l5.1-5.5l2.2,1.2l2-3.6l-1.4-0.7l2.1-2.4l2.6-3.2l3-4.6l0.8,0.5l4.2-7.7l1.1,0.7L154,40l-1.4-0.7l2.1-3.8l1.3,0.6l4.3-7.7l1.1-0.8
	l1.3-0.4l1.4-0.1l1.5,0.4l3.8,2.2l-1.8,3l12.8,7l1.4-2.7l26.7,14.5l1.5-2.9l2.5,1.3l-4.4,7.9l-3,5.6l-7.5-4.2l-6.3,1.6l-2.1,3.6
	l3.8,11.7l0.8,0.3l1.3,4.2l-26,46.7l-30,53.9l-3.7-2.1l-2,3.7l-31.5,8.9l-10-5.4l3.3-6.1l-1.6-5.5l-17.7,5l-8.4-28.5l14.8-4.3
	L71.3,141l-0.6,1.1l-2-1.2l0.7-1.3l-0.5-0.9l-0.3-1.2l0-1.2l0.4-1.1l0.7-1l1-0.7l1.2-0.4l1.1,0l0.8-1.5l1.6,1.1l1.4,1.3l-0.5,0.6
	l8.1,4.5l4.9-8.7l-9.5-5.3l-3.8,2.7l4.3-7.6L81,119.6L81,119.6"/>
</svg>
