<?xml version="1.0" encoding="utf-8"?>
<!-- Generator: Adobe Illustrator 26.0.2, SVG Export Plug-In . SVG Version: 6.00 Build 0)  -->
<svg version="1.1" id="Ebene_1" xmlns="http://www.w3.org/2000/svg" xmlns:xlink="http://www.w3.org/1999/xlink" x="0px" y="0px"
	 viewBox="0 0 272.7 283.6" style="enable-background:new 0 0 272.7 283.6;" xml:space="preserve">
<style type="text/css">
	.st0{fill:none;stroke:#000000;stroke-width:0.1;stroke-linejoin:round;}
</style>
<path class="st0" d="M32.6,240.3l61.6-137.4l-10.3-4.6l0,0l0,0l0,0l0,0l0,0l0,0l0,0l0,0l0,0l0,0l0,0l0,0l0,0l0,0l0,0l0,0l44-98.3
	l0,0l0,0l0,0l0,0l0,0l0,0l0,0l0,0l0,0l0,0l0,0l0,0l0,0l0,0l0,0l0,0l22.7,10.2l23.8,10.7l23.2,10.4l24.7,11l12.3,5.5l0,0l0,0l0,0l0,0
	l0,0l0,0l0,0l0,0l0,0l0,0l0,0v0l0,0l0,0l0,0l0,0l-3.2,7.1l-95.2,212.4l-7.1,15.8v0l-0.2,0.4l0,0l0,0l0,0l0,0l0,0l0,0l0,0l0,0l0,0
	l0,0l0,0h0l0,0l0,0l0,0l0,0l-12.9-5.8l-21.1-9.5L79,261.1l-40.8-18.3l-3.2-1.4L32.6,240.3L32.6,240.3L32.6,240.3L32.6,240.3
	L32.6,240.3L32.6,240.3L32.6,240.3L32.6,240.3L32.6,240.3L32.6,240.3L32.6,240.3L32.6,240.3L32.6,240.3L32.6,240.3L32.6,240.3
	L32.6,240.3L32.6,240.3"/>
<path class="st0" d="M23.8,145.7l14.6-8.7l17.9-10.6l12.1-7.2l25.4-15l12.1-7.2l25.3-15l14.6-8.7l20.4-12.1l12.1-7.2l17.8-10.5l0,0
	l0,0l0,0l0,0l0,0h0l0,0l0,0l0,0l0,0l0,0l0,0l0,0l0,0l0,0l0,0l52.4,88.6l0,0l0,0l0,0l0,0l0,0v0l0,0l0,0l0,0l0,0l0,0l0,0l0,0l0,0l0,0
	l0,0L75.9,234.5l0,0l0,0l0,0l0,0l0,0h0l0,0l0,0l0,0l0,0l0,0l0,0l0,0l0,0l0,0l0,0l-17.5-29.7l-8.1-13.6L38.9,198l0,0l0,0l0,0l0,0l0,0
	h0l0,0l0,0l0,0l0,0l0,0l0,0l0,0l0,0l0,0l0,0l-0.3-0.4l-8.1-13.7l-18.5-31.2l0,0l0,0l0,0l0,0l0,0v0l0,0l0,0l0,0l0,0l0,0l0,0l0,0l0,0
	l0,0l0,0L23.8,145.7"/>
<path class="st0" d="M63.2,75l-1,5.6l-2.1-0.4l-0.4,2.3l187.2,34.6l-12,69.2l-26-4.7l-1.4,7.8l0.1,0l15.1,2.9l-0.1,0.5l20.9,3.7
	l9.1,1.6l1.5-8.6l-1.3-0.2l1-5.8l2.7,0.5l0.4-2.3l2,0.4l-0.4,2.3l14.1,2.5l-3.5,20.4l-17.8-3.2l0.3-1.6l-7.6-1.4l-1.3,7.6l-1.4-0.3
	l-0.2,1.4l-1.6-0.3l-0.2,1.4l-8.5-1.5l0.4-2.1l-3.5-0.6l-0.3,1.8l-7.8-1.4l1-5.6l-23.3-4.2l-0.2,1.1l-8.3-1.5l0.2-1.4l-26-4.7
	l-0.2,1.4l-8.7-1.6l0.2-1.4l-25.1-4.5l-0.2,1.3l-8-1.4l-0.4,2.2l-2.4-0.4l0.6-3.7l-25-4.5l-0.2,1.2l-22.9-4.1l0.3-1.5l-24.3-4.4
	l1-5.7l-2.2-0.4l0.6-3.4l24.9,4.5l0.2-1l1.4,0.3l24.3,4.4l-0.2,1l5.7,1.1l1.4-8.1l-64.4-11.6l-2.9,16.8l-29.2-5.2l0.8-4.6L3,156.5
	l0.3-1.8l-3.3-0.6l0.5-2.8l3.4,0.6l0.1-0.8l4.9,0.9l-0.2,1.3l22.7,4.1l1.5-8.6l-29-5.2l6-34.7l-1.8-0.3l0.5-3.1l24.5,4.4l4.9-28
	l-2.7-0.5l0.6-3.3L55,81.7l1.6-9.1l-2.5-0.4l4.3-24.5l3.6,0.7l-0.7,3.9l8,1.4l-0.4,2.4l3,0.5L69.7,69l-2.2-0.4l-1.2,6.9L63.2,75"/>
<path class="st0" d="M19.4,108.4l6,0.5l7.3,0.6l0,0l18.8,1.5l7.7,0.7l0.1,0l0,0.1l2.3,0.2l1.2,0.1l0.4,0l0-0.1l0-3.1l0.3-23.1
	l7.4,0.7l7.4,0.7l12.5,1.1l5.9-3.8l54.2,4.7l3.9,4.4l51,4.3l1.3,0.9l2.3,2l1.2,1.5l10,18.3l-1.2,64.5l-3.9-0.3l-0.2,16.2l-37.7-3.2
	l0-0.1l-3.8-0.3l0,0.2l-7.2-0.7l0.2-0.7l-8.7-1.3l-7.3-1l-10.3-1.8l-14.8-3l-11.3-2.6l-6-1.6l-7.9-2.1l-11-3.8l-0.4,1.4l-11.2-3.7
	l-12.6-4.4l0.4-1.5l-1.5-0.6l-8.9-3.5l-3.1-1.2l-1.4-0.6l-5.9-2.5l-5.1-2.2l0-0.1l-3.1-1.5l0-0.2L37,157l0.2-1.4l0-0.4l0.1-1
	l0.1-1.5l0-1.5l0-1.5l-0.1-1.5l-0.1-1.5l-0.2-1.5l-0.2-1.5l-0.3-1.4L36,141l-0.4-1.4l-0.5-1.4l-0.5-1.4l-0.5-1.4l-0.6-1.4l-0.6-1.4
	l-0.7-1.3l-0.7-1.3l-0.8-1.3l-0.8-1.3l-0.9-1.2l-0.9-1.2l-0.9-1.2l-1-1.1l-1-1.1l-1.1-1.1l-1.1-1l-1.1-1l-1.2-1l-1.2-0.9l-1.2-0.9
	l-0.6-0.4l-0.7-0.4l-1.3-0.8l-1.3-0.8l-1.3-0.7l-1.3-0.7l-1.4-0.6L9.6,111l1.1-3.4L19.4,108.4L19.4,108.4"/>
<path class="st0" d="M192.7,37.4l-2.9,2.4l15.9,18.8l1.2,1.4l1.5,1.8l28.3,32.9l4.9,5.6l-0.3,3.5l-12.9,11l0.7,0.8l0.2,0.5l0,0.3
	l-0.1,0.3L229,117l-3.1,2.6l-1.3-1.6l-32,27.2l-0.1,0.1l1.7,2l-6.1,5.2l-5.2,4.4l-7.4,6.3l3.8,4.5l-6.6,5.6l-7.2,6.1l-7.2,6.1
	l-3.7,3.2l-8.1,6.8l-8.1,6.8l-8.2,7l-9.4,8l-27.1-32l-0.6-0.7l-4.2-4.9l-9,7.6l-9.1,7.7L52,211l-37.5-44.2L34,150.2l9.1-7.7l8.9-7.6
	l24-20.4l6.5,7.7l10.7,12.6l2.4-2l-4.5-5.3l14.7-12.5l8.5-7.2l4.4,5.2l20.7,24.4l0.6-0.5l1.6-1.4l0,0l-3.5-4.2l-3.4-4l-6.5-7.7
	l-5.4-6.4l11-9.4l5.4,6.3l7.3,8.7l2.8,3.3l3.4,4l0,0.1l11.5-9.7l0.6,0.6l3.3-2.8l6.1-2.5l3.3-2.7L175,106l-1.1-1.2L164,93l-9.3-11
	l2.5-2.1l-2.2-2.6l4.4-3.7l-0.7-0.8l9.9-8.4l1.2,1.5l-0.6,0.5l1.6,1.9l8.4-7.2l-1.6-1.9l1.8-1.5l-4.7-5.5l12.7-10.8l-1.3-1.6
	l0.5-0.5l-0.8-1l1.9-1.6l0.8,1l0,0l2.5-2.1L192.7,37.4 M163.5,87.5l3,3.4l7.3-6.3l-9.3-11l-4.5,4l6.4,7.2L163.5,87.5"/>
<path class="st0" d="M172.7,35.1l8.6,17.8l2.8,6.5l-1.5,0.8l1.3,4.3l2.3,0.3l19.1,44.2l-0.1,1l-0.4,0.6l-0.7,0.5l-36.3,15.5
	l-0.7-0.1l-0.8-0.4l-0.8-0.9l-0.6-1.1l-7-16.8l-0.3-0.9l0.1-0.8l12.8-32.2l-3.2-7.8l-4.2,1.6l1.8,5.3L150.8,107l26,60.6l-6.3,3.3
	l7.6,17.2l-3.8,8.1l-0.7,0.1l-0.2-0.3l-1.6-2.9l-4.3,1.4l3.5,8l0,1.6l-0.4,0.5l-1,0.6l-58.2,24.9l-0.9,0l-0.8-0.3l-0.6-0.3l-0.6-0.7
	l-13.7-31.4l-0.4-1.3l0.2-1l0.4-0.5l1.3-0.8l58.3-24.7l0.9-0.1l1,0.3l0.7,0.7l0.5,0.8l2.8,6.9l4.5-2l-5.6-12.8l-10.1,4.3l-39.4,16.5
	l-0.5-0.6l-7,2.4l-1.3-4.5l-3.8,1.5l-2.7-6.4l-27,11.4l-3.1-7l-8.9,3.5l-0.4-1.1l-2.9-6.3l25.2-56.2l-0.8-0.6l-0.6-0.8l-0.1-0.7
	l0.2-0.7l0.5-0.9l0.6-0.5l0.9-0.3l1,0.1l0.7,0.4L80,117l0.2,0.8l0,0.6l-0.2,0.9l-0.3,0.7l6.9-2.8l-1.3-2.9l45.1-19.5l20.1-49.6l3-2
	l4.1,1.6l0.2-1l0.9,0.5l0.7-3.6L172.7,35.1 M166.3,191.7l4-1.6l-4.6-11.4l-4.2,1.9L166.3,191.7 M181.5,65.5l-1.9-4.7l-9.3,4l1.7,5
	L181.5,65.5"/>
<path class="st0" d="M82.8,158.7l9.5-36.3l1.7-6.7l3.8-14.6l1-3.8l0.9-3.5l0.4-1.5l3.3-12.7l2.7-10.2l0,0l0.3-1.3l0.8-3.2l0.5-0.9
	l0.6-1.1l0.5-0.6l0.2-0.3l0.5-0.6l0.6-0.1l0.4,3.6l1.8-0.2l-0.2-2.1l1.4-0.1l-0.4-3.7l0.2-0.1l2.1-1l9.1-4.4l7.3-3.6l0.7-0.2
	l0.5-0.1l0.7,0l0.7-0.1l0.7,0.2l0.8,0.4l0.6,0.3l0.5,0.3l0.6,0.5l0.3,0.6l0.3,0.7l6.7,12.2L159.7,91l16.8,30.6l-2.1,1.1l1.6,2.9
	l2.1-1.1l3.9,7.2l9.7,17.6l3.5,6.4l2.1,3.8l7.4,13.5l-6.3,3.3l3.8,6.8l-8.9,4.7l-3.8-6.8l-1.9,1l-1.8,0.9l0,0l-4.4,2.3l-2.2-4.1
	l-1.5,0.8l0.1,0.2l-16.3,1.5l-2.8,0.3l0.2,1.8l-10,0.9l-0.2-1.8l-1.6,0.1l0.4,3.9l0.4,3.9l0.5,4.8l0.3,2.7l-4.2,0.4l-51.6,5
	l-6.9,0.7l-0.9,0l-0.1,0l-1,0l-0.8-0.1l-0.8-0.1l-1.1-0.2l-1.2-0.4l-0.9-0.5l-0.9-0.5l-0.7-0.4l-0.7-0.6l-0.7-0.6l-0.5-0.7l-0.5-0.8
	l-0.5-0.9l-0.3-0.9l-0.4-0.7l-0.4-0.8l-0.2-0.8l-0.1-1l-0.1-0.9l0-0.9l0.2-1l0.2-1l0.2-0.6l1.8-6.7L82.8,158.7"/>
<path class="st0" d="M18.8,75l9.1-10.2l0,0l0,0l0,0l0,0l6.2-3l0,0l0,0l0,0l0,0h0l0,0l0,0l46.2,11.4l0,0l0,0l32.9,16l0,0l0,0l0,0l0,0
	l0,0l6.1,8l32.9,24.7l7.8-1.2l0,0l0,0l0,0l0,0l0,0l0,0l0,0l0,0l0,0l30.2,27.9l0,0l34.3,41.4l0,0l0,0l0,0l0,0l0,0l0,0l0,0l0,0l0,0
	l0,0l0,0l0,0l-17.2,31.1l0,0l0,0l-4.8,5.3l0,0l0,0l0,0l0,0l-4.7,2l0,0l0,0l0,0l0,0l-6.6,0l0,0l0,0l0,0l0,0l-5.3-2.1l0,0l0,0l0,0l0,0
	l0,0l-25.7-28.5l0,0l-46.7-52.9l-23.6-18L35.5,95.3l0,0l-11.4-7.8l0,0l0,0l0,0l0,0l0,0l0,0L18.8,75L18.8,75L18.8,75L18.8,75L18.8,75
	L18.8,75L18.8,75L18.8,75L18.8,75L18.8,75L18.8,75L18.8,75L18.8,75"/>
<path class="st0" d="M101.7,214.2l-16,1.3l-1.5-17.6l-0.4-3.8l-3.4-41.2l-0.3-3.6l-2.3-27.8l16.2-1.3l1.2,13.9l8.2-0.7l-0.3-3.7
	l8-0.7l0.3,3.7l4.1-0.3l-0.1-1.4l7.9-0.7l0.7,8.3l-1,0.1l0,0.2l-2.5,0.2l0-0.3l-0.4,0l0.6,7.1l12.2-1l-7.3-89l-0.2-1.2l-1.2-14
	l2.8-0.2l1.1-0.1l4.5-0.4l3.7-0.3l8.1-0.7l1.2,14l8.2-0.7l-1.2-14l12.1-1l1.2,14.1l-2.5,0.2l0.1,1.7l1.6-0.1l0.1,1.3l-1.7,0.1l0,0.4
	l2.5-0.2l1.7,20.7l0.1,1.6l1.6,19.5l0.2,3.4l1.2,13.9l-11.9,1l-1.1-13.9l-8.4,0.7l2,24.2l1.5-0.1l0.6,6.9L152,133l0.9,10.4l8.4-0.7
	l-1.2-13.9l12-1l1.2,14.4l11.6-1l0.1,1.1l-12.5,1.1l0.1,1.3l-1.6,0.1l0,0.5l2.4-0.2L177,187l0.2,3.4l0.6,7.1l-12,1l-0.6-6.9
	l-8.4,0.7l0.6,6.7l4-0.3l0.9,10.7l-11.9,1l-0.1-1.2l-4.3,0.4l0.1,1.1l-3.8,0.3l-0.6-7l0.4-1.6l-0.6-0.2l-0.1-1.8l4.1-0.3l-0.6-6.7
	l-20.6,1.7l1.2,14l-7.8,0.6l-0.3-3.5l-8.1,0.7l-0.1-1.8l-1.6,0.1l-0.6-7.5l1.6-0.1l-0.1-1.1l-8.4,0.7L101.7,214.2"/>
<path class="st0" d="M189,224.3l-0.7,0.4l-1.9-3.6l-0.6,0.3l-4.2-7.8l-1.1,0.6l-2.1-1.7l-9.9-7.9l-1.7-3.1l-2.7-5l-4.8,2.5l-4.8-4.3
	l-1.5-3.1l-2.7,1.9l-1-1.3l-0.1-0.1l-0.6-0.8l1.6-1.2l0.4,0.7l1.2-0.9l-2.8-5.2l-3.8-7.1l6.8-3.5l3.9-2l-2.1-3.9l-1.3-2.4l-1.3-2.4
	l-3.8-7.1l-1.5-2.9l0.2-0.1l-0.4-0.8l-1-2l-1.1-2l-1.6-3l-3.9,2.1l-6.3,3.3l-2.6,1.3l-0.3,0.2L128,153l-4.2,2.2l-1.9,1l4.2,7.7
	l-4.3,2.2l-12.8,6.7l-12.1,6.3l-3.6,1.9l-1.5,0.8l-15.3-28.5l-9.4-17.6L61.4,125l17.1-8.9l12-6.3l-4.2-7.7l4.9-2.6l-4.2-7.8l2.3-1.2
	l2.6-1.4l1.2-0.6l14.3-7.5l3.9-2l3.1-1.6l6.1-3.2l2.5-1.3l12.4-6.5l2.2-1.2L151.6,91l5.8,10.8l5.6,10.4l2.2,4.1l0.3,0.5l-2.2,1.2
	l-4.1,2.1l3.1,5.8l0.4,0.8l0.4,0.7l0.4,0.7l0.4,0.7l0.4,0.7l0.4,0.7l0.7,1.4l0.7,1.4l1.1,2.1l0.8,1.5l2.2,4.1l3.7,7l1.6,3l1.8,3.4
	l4.2,7.9l13.6,25.3l4.9,9.1l6.2,11.6l1.3,2.4l1.3,2.4l-2.6,1.3l-2.7,1.4l-1.9,1l-2.4,1.2l-1,0.5l0.4,0.8L189,224.3"/>
</svg>
